<?xml version="1.0" encoding="UTF-8"?>
<svg width="1424px" height="732px" viewBox="0 0 1424 732" version="1.1" xmlns="http://www.w3.org/2000/svg" xmlns:xlink="http://www.w3.org/1999/xlink">
    <title>babyteeth</title>
    <g id="Page-1" stroke="none" stroke-width="1" fill="none" fill-rule="evenodd">
        <g id="Baby-Teeth" fill="#4E65AE">
            <g id="Group-3" transform="translate(2.000000, 54.000000)">
                <g id="S-Copy">
                    <path d="M67.8939744,46.2478466 C89.9375613,52.8594539 106,73.3039352 106,97.5 C106,127.047234 82.0472341,151 52.5,151 C27.2811137,151 6.13769045,133.550869 0.484301709,110.067178 Z" id="Combined-Shape"></path>
                    <path d="M53.5,0 C74.9121362,0 93.2117854,13.3261409 100.557672,32.1371473 L32.4555279,96.4196902 C15.072158,88.4400277 3,70.8798156 3,50.5 C3,22.6096201 25.6096201,0 53.5,0 Z" id="Combined-Shape"></path>
                </g>
                <path d="M113,149 L113,3.33426925 C113,2.22969975 113.895431,1.33426925 115,1.33426925 C115.328449,1.33426925 115.651844,1.41516039 115.941614,1.56979655 L192.667276,42.5145631 L192.667276,42.5145631 L272.082369,1.50659182 C273.063814,0.999798198 274.270269,1.38457905 274.777063,2.36602391 C274.923557,2.64972066 275,2.96436773 275,3.28365493 L275,149 C275,150.104569 274.104569,151 273,151 L222.210238,151 C221.105668,151 220.210238,150.104569 220.210238,149 L220.210238,108.778641 L220.210238,108.778641 L215.767824,108.778641 L215.767824,149 C215.767824,150.104569 214.872394,151 213.767824,151 L175.416819,151 C174.31225,151 173.416819,150.104569 173.416819,149 L173.416819,108.778641 L173.416819,108.778641 L168.974406,108.778641 L168.974406,149 C168.974406,150.104569 168.078975,151 166.974406,151 L115,151 C113.895431,151 113,150.104569 113,149 Z" id="M"></path>
                <path d="M286,0 L336,0 C337.104569,3.49926844e-15 338,0.8954305 338,2 L338,149 C338,150.104569 337.104569,151 336,151 L286,151 C284.895431,151 284,150.104569 284,149 L284,2 C284,0.8954305 284.895431,-1.91384796e-17 286,0 Z" id="Path"></path>
                <path d="M349,0 L467,0 C468.104569,7.20144301e-15 469,0.8954305 469,2 L469,48.0372549 C469,49.1418244 468.104569,50.0372549 467,50.0372549 L438.720482,50.0372549 L438.720482,50.0372549 L438.720482,149 C438.720482,150.104569 437.825051,151 436.720482,151 L380.455422,151 C379.350852,151 378.455422,150.104569 378.455422,149 L378.455422,50.0372549 L378.455422,50.0372549 L349,50.0372549 C347.895431,50.0372549 347,49.1418244 347,48.0372549 L347,2 C347,0.8954305 347.895431,-1.91384796e-17 349,0 Z" id="T"></path>
                <path d="M479,0 L598,0 C599.104569,-6.46995335e-16 600,0.8954305 600,2 L600,48.0372549 C600,49.1418244 599.104569,50.0372549 598,50.0372549 L569.472289,50.0372549 L569.472289,50.0372549 L569.472289,149 C569.472289,150.104569 568.576859,151 567.472289,151 L510.713253,151 C509.608684,151 508.713253,150.104569 508.713253,149 L508.713253,50.0372549 L508.713253,50.0372549 L479,50.0372549 C477.895431,50.0372549 477,49.1418244 477,48.0372549 L477,2 C477,0.8954305 477.895431,-1.91384796e-17 479,0 Z" id="T-Copy"></path>
                <path d="M610.606442,0 L676.992079,0 C678.096649,-2.02906125e-16 678.992079,0.8954305 678.992079,2 L678.992079,42.6352941 L678.992079,42.6352941 L684.007921,42.6352941 L684.007921,2 C684.007921,0.8954305 684.903351,2.02906125e-16 686.007921,0 L752.454528,0 C753.559097,-1.01266231e-14 754.454528,0.8954305 754.454528,2 C754.454528,2.36463993 754.354839,2.72234133 754.166244,3.03442137 L711.447525,73.7235294 L711.447525,73.7235294 L711.447525,149 C711.447525,150.104569 710.552094,151 709.447525,151 L655.027723,151 C653.923153,151 653.027723,150.104569 653.027723,149 L653.027723,73.7235294 L653.027723,73.7235294 L608.909934,3.05917892 C608.324965,2.12222332 608.610307,0.888460183 609.547263,0.303491817 C609.864943,0.105154628 610.23193,-1.26347104e-15 610.606442,0 Z" id="Path-4"></path>
                <path d="M763,0 L882,0 C883.104569,-6.46995335e-16 884,0.8954305 884,2 L884,48.0372549 C884,49.1418244 883.104569,50.0372549 882,50.0372549 L853.472289,50.0372549 L853.472289,50.0372549 L853.472289,149 C853.472289,150.104569 852.576859,151 851.472289,151 L794.713253,151 C793.608684,151 792.713253,150.104569 792.713253,149 L792.713253,50.0372549 L792.713253,50.0372549 L763,50.0372549 C761.895431,50.0372549 761,49.1418244 761,48.0372549 L761,2 C761,0.8954305 761.895431,-1.91384796e-17 763,0 Z" id="T-Copy-2"></path>
                <circle id="Oval" cx="961.5" cy="75.5" r="75.5"></circle>
                <path d="M1046.00381,1.74306757 L1121.69205,45.6639092 C1122.64741,46.2182963 1123.87131,45.8932367 1124.4257,44.9378683 C1124.60265,44.6329265 1124.69585,44.2866267 1124.69585,43.9340617 L1124.69585,2 C1124.69585,0.8954305 1125.59128,2.02906125e-16 1126.69585,0 L1169,0 C1170.10457,7.42348761e-15 1171,0.8954305 1171,2 L1171,149 C1171,150.104569 1170.10457,151 1169,151 L1091.59908,151 C1090.49451,151 1089.59908,150.104569 1089.59908,149 L1089.59908,108.860465 L1089.59908,108.860465 L1085.47005,108.860465 L1085.47005,149 C1085.47005,150.104569 1084.57462,151 1083.47005,151 L1045,151 C1043.89543,151 1043,150.104569 1043,149 L1043,3.47291503 C1043,2.36834553 1043.89543,1.47291503 1045,1.47291503 C1045.35256,1.47291503 1045.69886,1.56611405 1046.00381,1.74306757 Z" id="Path-5"></path>
                <path d="M1183,0 L1250.3222,0 C1251.42677,-4.2495073e-16 1252.3222,0.8954305 1252.3222,2 L1252.3222,38.0491159 C1252.3222,39.1536854 1251.42677,40.0491159 1250.3222,40.0491159 L1230.42243,40.0491159 L1230.42243,40.0491159 L1230.42243,44.7956778 L1278.7327,44.7956778 C1279.83727,44.7956778 1280.7327,45.6911083 1280.7327,46.7956778 L1280.7327,82.5481336 C1280.7327,83.6527031 1279.83727,84.5481336 1278.7327,84.5481336 L1230.42243,84.5481336 L1230.42243,84.5481336 L1230.42243,89.2946955 L1303,89.2946955 C1304.10457,89.2946955 1305,90.190126 1305,91.2946955 L1305,149 C1305,150.104569 1304.10457,151 1303,151 L1183,151 C1181.89543,151 1181,150.104569 1181,149 L1181,2 C1181,0.8954305 1181.89543,2.02906125e-16 1183,0 Z" id="Path-6"></path>
                <g id="S" transform="translate(1316.000000, 0.000000)">
                    <path d="M67.1301897,46.0249878 C89.5655501,52.3891608 106,73.0253447 106,97.5 C106,127.047234 82.0472341,151 52.5,151 C27.0040437,151 5.67359332,133.165349 0.303591327,109.290989 Z" id="Combined-Shape"></path>
                    <path d="M53.5,0 C74.898457,0 93.1884025,13.3091194 100.54358,32.1011016 L100.35567,32 L31.805161,96.115502 C14.7717826,87.9999064 3,70.6246768 3,50.5 C3,22.6096201 25.6096201,0 53.5,0 Z" id="Combined-Shape"></path>
                </g>
            </g>
            <g id="Group-2" transform="translate(192.000000, 287.000000)">
                <g id="S-Copy-2" transform="translate(0.000000, 2.000000)">
                    <path d="M66.3646032,45.576456 C88.6654394,51.8506464 105,72.1795609 105,96.2889975 C105,125.40048 81.1843748,149 51.8063122,149 C26.5985631,149 5.48612571,131.624993 0.000119574163,108.301463 Z" id="Combined-Shape"></path>
                    <path d="M52.9746536,0 C74.3052155,0 92.5186718,13.2221766 99.7203814,31.8450856 L99.402224,31.6746548 L32.1206682,94.6585539 C14.8953277,86.8245174 2.93296089,69.5851469 2.93296089,49.5777206 C2.93296089,22.1967016 25.3373899,0 52.9746536,0 Z" id="Combined-Shape"></path>
                </g>
                <circle id="Oval" cx="182.5" cy="76.5" r="74.5"></circle>
                <path d="M266,2 L372,2 C373.104569,2 374,2.8954305 374,4 L374,46.5256917 C374,47.6302612 373.104569,48.5256917 372,48.5256917 L316.452316,48.5256917 L316.452316,48.5256917 L316.452316,52.9426877 L340.52861,52.9426877 C341.63318,52.9426877 342.52861,53.8381182 342.52861,54.9426877 L342.52861,95.9960474 C342.52861,97.1006169 341.63318,97.9960474 340.52861,97.9960474 L318.452316,97.9960474 C317.347747,97.9960474 316.452316,98.8914779 316.452316,99.9960474 L316.452316,149 C316.452316,150.104569 315.556886,151 314.452316,151 L266,151 C264.895431,151 264,150.104569 264,149 L264,4 C264,2.8954305 264.895431,2 266,2 Z" id="Path-7"></path>
                <path d="M384,2 L501,2 C502.104569,2 503,2.8954305 503,4 L503,49.3745098 C503,50.4790793 502.104569,51.3745098 501,51.3745098 L472.968675,51.3745098 L472.968675,51.3745098 L472.968675,149 C472.968675,150.104569 472.073244,151 470.968675,151 L415.19759,151 C414.093021,151 413.19759,150.104569 413.19759,149 L413.19759,51.3745098 L413.19759,51.3745098 L384,51.3745098 C382.895431,51.3745098 382,50.4790793 382,49.3745098 L382,4 C382,2.8954305 382.895431,2 384,2 Z" id="T-Copy"></path>
                <path d="M511.14513,2 L574.340875,2 C575.445444,2 576.340875,2.8954305 576.340875,4 L576.340875,44.6421663 L576.340875,44.6421663 L580.797888,44.6421663 L580.797888,4 C580.797888,2.8954305 581.693319,2 582.797888,2 L630.499246,2 C631.603815,2 632.499246,2.8954305 632.499246,4 L632.499246,44.6421663 L632.499246,44.6421663 L636.956259,44.6421663 L636.956259,4 C636.956259,2.8954305 637.85169,2 638.956259,2 L701.860471,2 C702.965041,2 703.860471,2.8954305 703.860471,4 C703.860471,4.29207817 703.796498,4.58061182 703.673048,4.84531893 L636.400326,149.095014 C635.93347,150.096073 634.743489,150.529129 633.74243,150.062273 C633.314099,149.862515 632.970348,149.517523 632.772136,149.088474 L608.46418,96.4716492 C608.000936,95.4689137 606.812524,95.0315698 605.809789,95.4948142 C605.378489,95.6940664 605.032206,96.0403492 604.832954,96.4716492 L580.521184,149.09673 C580.057939,150.099466 578.869528,150.53681 577.866792,150.073565 C577.438752,149.875819 577.09434,149.5332 576.894361,149.106197 L509.333921,4.8482452 C508.865448,3.84794178 509.296582,2.65726332 510.296885,2.18879044 C510.562379,2.06445134 510.851963,2 511.14513,2 Z" id="Path-9"></path>
                <path d="M651.141021,151 L716.71519,151 L716.71519,151 L716.71519,107.773694 L720.28481,107.773694 L720.28481,151 L785.858979,151 C786.963549,151 787.858979,150.104569 787.858979,149 C787.858979,148.707631 787.794878,148.418818 787.671192,148.153901 L720.312213,3.88147738 C719.844925,2.8806198 718.654758,2.44807604 717.653901,2.91536385 C717.228438,3.11400717 716.88643,3.45601439 716.687787,3.88147738 L649.328808,148.153901 C648.86152,149.154758 649.294064,150.344925 650.294922,150.812213 C650.559839,150.935899 650.848652,151 651.141021,151 Z" id="A"></path>
                <path d="M798,2 L862.338308,2 L862.338308,2 C876.676521,4.12511163 886.046338,6.9164553 890.447761,10.374031 C900.004975,17.8817829 909,32.839653 909,41.5600775 C909,51.0679389 906.751244,64.372093 900.004975,73.9011628 C893.258706,83.4302326 883.139303,88.627907 883.139303,88.627907 L907.853159,148.233993 C908.276213,149.254335 907.792015,150.42444 906.771673,150.847494 C906.528841,150.948177 906.268542,151 906.005665,151 L848.597015,151 C847.492445,151 846.597015,150.104569 846.597015,149 L846.597015,109.707364 L846.597015,109.707364 L842.942786,109.707364 L842.942786,149 C842.942786,150.104569 842.047356,151 840.942786,151 L798,151 C796.895431,151 796,150.104569 796,149 L796,51.3565891 C796,50.2520196 796.895431,49.3565891 798,49.3565891 L842.942786,49.3565891 L842.942786,49.3565891 L842.942786,44.4476744 L798,44.4476744 C796.895431,44.4476744 796,43.5522439 796,42.4476744 L796,4 C796,2.8954305 796.895431,2 798,2 Z" id="Path-8"></path>
                <path d="M921,2 L987.747017,2 C988.851586,2 989.747017,2.8954305 989.747017,4 L989.747017,39.518664 C989.747017,40.6232335 988.851586,41.518664 987.747017,41.518664 L968.023866,41.518664 L968.023866,41.518664 L968.023866,46.2023576 L1015.9284,46.2023576 C1017.03297,46.2023576 1017.9284,47.0977881 1017.9284,48.2023576 L1017.9284,83.4282908 C1017.9284,84.5328603 1017.03297,85.4282908 1015.9284,85.4282908 L968.023866,85.4282908 L968.023866,85.4282908 L968.023866,90.1119843 L1040,90.1119843 C1041.10457,90.1119843 1042,91.0074148 1042,92.1119843 L1042,149 C1042,150.104569 1041.10457,151 1040,151 L921,151 C919.895431,151 919,150.104569 919,149 L919,4 C919,2.8954305 919.895431,2 921,2 Z" id="Path-6"></path>
            </g>
            <g id="Group" transform="translate(410.000000, 523.000000)">
                <g id="S-Copy-2" transform="translate(0.000000, 2.000000)">
                    <path d="M67.2283397,46.0529316 C89.6134654,52.4493785 106,73.0610491 106,97.5 C106,127.047234 82.0472341,151 52.5,151 C27.2020588,151 6.00517173,133.4413 0.431592796,109.846154 Z" id="Combined-Shape"></path>
                    <path d="M53.5,0 C75.0521767,0 93.4510205,13.3673498 100.700396,32.1850837 L100.35567,32 L32.4853946,95.4786024 C15.0859871,87.584294 3,70.1895894 3,50 C3,22.3857625 25.6096201,0 53.5,0 Z" id="Combined-Shape"></path>
                </g>
                <path d="M111,2 L230,2 C231.104569,2 232,2.8954305 232,4 L232,50.0372549 C232,51.1418244 231.104569,52.0372549 230,52.0372549 L201.472289,52.0372549 L201.472289,52.0372549 L201.472289,151 C201.472289,152.104569 200.576859,153 199.472289,153 L142.713253,153 C141.608684,153 140.713253,152.104569 140.713253,151 L140.713253,52.0372549 L140.713253,52.0372549 L111,52.0372549 C109.895431,52.0372549 109,51.1418244 109,50.0372549 L109,4 C109,2.8954305 109.895431,2 111,2 Z" id="T-Copy"></path>
                <path d="M211.142253,153 L277.689873,153 L277.689873,153 L277.689873,109.201161 L281.310127,109.201161 L281.310127,153 L347.857747,153 C348.962316,153 349.857747,152.104569 349.857747,151 C349.857747,150.707392 349.793541,150.418347 349.669659,150.153257 L281.311912,3.87723869 C280.844269,2.87654721 279.653948,2.44442637 278.653257,2.91206977 C278.228307,3.11065746 277.886675,3.45228881 277.688088,3.87723869 L209.330341,150.153257 C208.862697,151.153948 209.294818,152.344269 210.29551,152.811912 C210.5606,152.935794 210.849645,153 211.142253,153 Z" id="A"></path>
                <path d="M408.5,2 C440.759147,2 468.292903,22.2318034 479.104778,50.6989198 L476.010067,44 L410,77.4380165 L475.745491,111.861442 C463.240916,136.283972 437.822577,153 408.5,153 C366.802501,153 333,119.197499 333,77.5 C333,35.8025014 366.802501,2 408.5,2 Z" id="Combined-Shape"></path>
                <path d="M485,2 L524.550239,2 C525.654809,2 526.550239,2.8954305 526.550239,4 L526.550239,39.6031128 L526.550239,39.6031128 L530.669856,39.6031128 L530.669856,4 C530.669856,2.8954305 531.565287,2 532.669856,2 L600.409091,2 L600.409091,2 L561.861244,76.0311284 L606,153 L532.669856,153 C531.565287,153 530.669856,152.104569 530.669856,151 L530.669856,115.103113 L530.669856,115.103113 L526.550239,115.103113 L526.550239,151 C526.550239,152.104569 525.654809,153 524.550239,153 L485,153 C483.895431,153 483,152.104569 483,151 L483,4 C483,2.8954305 483.895431,2 485,2 Z" id="Path-11"></path>
            </g>
            <path d="M1296.14446,95.9971196 C1284.43432,95.8072576 1275,86.2553809 1275,74.5 C1275,62.6258779 1284.62588,53 1296.5,53 C1308.37412,53 1318,62.6258779 1318,74.5 C1318,78.9441286 1316.65163,83.0733274 1314.34166,86.5008089 L1314.5,86.5 L1299,110 L1288.5,110 C1288.5,110 1291.16667,105.333333 1296.5,96 L1296.5,96 Z" id="Combined-Shape"></path>
        </g>
    </g>
</svg>