<?xml version="1.0" encoding="UTF-8"?>
<svg width="1424px" height="732px" viewBox="0 0 1424 732" version="1.1" xmlns="http://www.w3.org/2000/svg" xmlns:xlink="http://www.w3.org/1999/xlink">
    <title>stop</title>
    <g id="Page-1" stroke="none" stroke-width="1" fill="none" fill-rule="evenodd">
        <g id="Stop" fill="#4E65AE">
            <path d="M9.21020993,52.6186716 C8.28918894,58.3671996 7.59842319,63.6558454 7.59842319,67.1049622 C7.59842319,79.981665 13.3548044,90.7888977 30.8542033,110.793775 C55.4915148,139.076533 58.7150883,143.905297 58.7150883,152.643059 C58.7150883,162.760469 50.4258994,169.19882 37.5316055,169.19882 L0,169.19882 L0,205.989399 L42.5972209,205.989399 C62.168917,205.989399 76.6749976,200.930695 87.2667391,190.813285 C96.7072042,181.385699 102.463585,167.12935 102.463585,152.873 C102.463585,142.755591 100.161033,134.477711 94.634907,124.360301 C89.7995468,115.622539 84.9641866,109.64407 64.4714695,86.1900752 C54.5704938,74.9229603 51.3469203,68.9444912 51.3469203,62.2761987 C51.3469203,59.9767874 51.8074308,56.2977295 52.4981966,52.6186716 L9.21020993,52.6186716 Z M118.244802,52.6186716 L226.925279,52.6186716 C252.944122,52.6186716 263.766118,55.377965 272.976328,65.0354921 C282.186538,74.0031958 285.640367,85.5002519 285.640367,106.194953 L285.640367,205.989399 L243.503657,205.989399 L243.503657,107.804541 C243.503657,93.31825 239.589317,89.4092509 225.543747,89.4092509 L160.381512,89.4092509 L160.381512,205.989399 L118.244802,205.989399 L118.244802,52.6186716 Z M221.399153,111.71354 L221.399153,205.989399 L182.486016,205.989399 L182.486016,111.71354 L221.399153,111.71354 Z M347.720351,111.71354 L305.583641,111.71354 L305.583641,205.989399 L347.720351,205.989399 L347.720351,111.71354 Z M347.720351,52.6186716 L305.583641,52.6186716 L305.583641,89.4092509 L347.720351,89.4092509 L347.720351,52.6186716 Z M414.511836,111.71354 L372.835636,111.71354 L372.835636,151.953236 C372.835636,171.26829 375.598699,182.075523 382.736612,191.043226 C391.025801,201.390577 402.538563,205.989399 420.498473,205.989399 L459.87212,205.989399 L459.87212,169.19882 L432.471746,169.19882 C417.73541,169.19882 414.511836,165.749703 414.511836,149.883766 L414.511836,111.71354 Z M464.70748,52.6186716 L365.697724,52.6186716 L365.697724,89.4092509 L464.70748,89.4092509 L464.70748,52.6186716 Z M529.409205,111.71354 L487.733005,111.71354 L487.733005,151.953236 C487.733005,171.26829 490.496068,182.075523 497.633981,191.043226 C505.92317,201.390577 517.435932,205.989399 535.395842,205.989399 L574.769489,205.989399 L574.769489,169.19882 L547.369115,169.19882 C532.632779,169.19882 529.409205,165.749703 529.409205,149.883766 L529.409205,111.71354 Z M579.604849,52.6186716 L480.595093,52.6186716 L480.595093,89.4092509 L579.604849,89.4092509 L579.604849,52.6186716 Z M719.688973,52.6186716 L677.552263,52.6186716 L677.552263,89.4092509 C677.552263,106.424894 671.335371,114.472833 658.671332,114.472833 C646.007294,114.472833 639.790402,106.654835 639.790402,90.7888977 L639.790402,52.6186716 L597.653691,52.6186716 L597.653691,82.7409584 C597.653691,107.574599 601.568031,120.451302 612.620283,132.638182 C623.90279,144.825061 639.329891,151.033471 658.441077,151.033471 C678.012773,151.033471 694.13064,144.365179 704.952637,131.948358 C716.004889,119.071656 719.688973,105.965012 719.688973,79.2918416 L719.688973,52.6186716 Z M693.209619,169.19882 L622.981769,169.19882 L622.981769,205.989399 L693.209619,205.989399 L693.209619,169.19882 Z M787.012438,111.71354 L745.336238,111.71354 L745.336238,151.953236 C745.336238,171.26829 748.099301,182.075523 755.237214,191.043226 C763.526403,201.390577 775.039165,205.989399 792.999075,205.989399 L832.372722,205.989399 L832.372722,169.19882 L804.972348,169.19882 C790.236012,169.19882 787.012438,165.749703 787.012438,149.883766 L787.012438,111.71354 Z M837.208082,52.6186716 L738.198326,52.6186716 L738.198326,89.4092509 L837.208082,89.4092509 L837.208082,52.6186716 Z M924.952795,49.629437 C945.906023,49.629437 965.938229,56.9875529 980.214055,69.8642556 C996.331922,84.5804874 1004.39086,104.585365 1004.39086,129.878888 C1004.39086,175.867112 971.924866,208.978634 926.564582,208.978634 C879.822767,208.978634 846.435756,176.097054 846.435756,129.878888 C846.435756,83.890664 879.822767,49.629437 924.952795,49.629437 Z M925.18305,84.8104285 C903.308802,84.8104285 890.184253,101.366189 890.184253,128.959124 C890.184253,156.781999 903.539057,173.797642 925.643561,173.797642 C947.287554,173.797642 960.642359,157.01194 960.642359,129.878888 C960.642359,101.826071 947.287554,84.8104285 925.18305,84.8104285 Z M1020.08314,52.6186716 L1020.08314,205.989399 L1062.21985,205.989399 L1062.21985,89.4092509 L1082.25206,89.4092509 C1094.68584,89.4092509 1098.83043,93.31825 1098.83043,105.045247 L1098.83043,205.989399 L1140.96714,205.989399 L1140.96714,102.975777 C1140.96714,67.5648444 1124.84928,52.6186716 1086.62691,52.6186716 L1020.08314,52.6186716 Z M1265.32244,111.71354 L1161.93784,111.71354 L1161.93784,205.989399 L1265.32244,205.989399 L1265.32244,169.19882 L1204.07455,169.19882 L1204.07455,148.504119 L1265.32244,148.504119 L1265.32244,111.71354 Z M1265.32244,52.6186716 L1161.93784,52.6186716 L1161.93784,89.4092509 L1265.32244,89.4092509 L1265.32244,52.6186716 Z M1318.06674,52.6186716 L1281.91667,52.6186716 L1281.91667,106.424894 L1299.64632,106.424894 L1318.06674,52.6186716 Z M1330.74662,52.6186716 C1329.8256,58.3671996 1329.13484,63.6558454 1329.13484,67.1049622 C1329.13484,79.981665 1334.89122,90.7888977 1352.39062,110.793775 C1377.02793,139.076533 1380.2515,143.905297 1380.2515,152.643059 C1380.2515,162.760469 1371.96231,169.19882 1359.06802,169.19882 L1321.53641,169.19882 L1321.53641,205.989399 L1364.13364,205.989399 C1383.70533,205.989399 1398.21141,200.930695 1408.80315,190.813285 C1418.24362,181.385699 1424,167.12935 1424,152.873 C1424,142.755591 1421.69745,134.477711 1416.17132,124.360301 C1411.33596,115.622539 1406.5006,109.64407 1386.00788,86.1900752 C1376.10691,74.9229603 1372.88333,68.9444912 1372.88333,62.2761987 C1372.88333,59.9767874 1373.34385,56.2977295 1374.03461,52.6186716 L1330.74662,52.6186716 Z" id="smittytone’s"></path>
            <path d="M189.21039,289.597751 C188.289351,295.346392 187.598572,300.635141 187.598572,304.084325 C187.598572,316.96128 193.355066,327.768724 210.854807,347.773993 C235.4926,376.057304 238.716236,380.886162 238.716236,389.624095 C238.716236,399.741702 230.426885,406.180179 217.532339,406.180179 L180,406.180179 L180,442.971478 L222.598054,442.971478 C242.170133,442.971478 256.676497,437.912675 267.268446,427.795068 C276.709095,418.367297 282.465589,404.110669 282.465589,389.854041 C282.465589,379.736433 280.162992,371.458391 274.636758,361.340784 C269.801303,352.602851 264.965848,346.624265 244.47273,323.169812 C234.571561,311.902476 231.347924,305.92389 231.347924,299.255467 C231.347924,296.956011 231.808444,293.276881 232.499223,289.597751 L189.21039,289.597751 Z M369.800689,286.608458 C390.754326,286.608458 410.786924,293.966718 425.063029,306.843673 C441.181212,321.560192 449.240303,341.565461 449.240303,366.859479 C449.240303,412.848602 416.773678,445.960771 371.412507,445.960771 C324.669778,445.960771 291.282114,413.078548 291.282114,366.859479 C291.282114,320.870355 324.669778,286.608458 369.800689,286.608458 Z M370.030949,321.790138 C348.156272,321.790138 335.031466,338.346222 335.031466,365.939696 C335.031466,393.763116 348.386532,410.779092 370.491468,410.779092 C392.135885,410.779092 405.49095,393.993062 405.49095,366.859479 C405.49095,338.806114 392.135885,321.790138 370.030949,321.790138 Z M569.660093,348.693775 L466.043205,348.693775 L466.043205,442.971478 L508.18074,442.971478 L508.18074,385.485074 L569.660093,385.485074 L569.660093,348.693775 Z M569.660093,289.597751 L466.043205,289.597751 L466.043205,326.38905 L569.660093,326.38905 L569.660093,289.597751 Z M636.362707,348.693775 L594.685692,348.693775 L594.685692,388.934258 C594.685692,408.24969 597.448809,419.057134 604.586862,428.025013 C612.876213,438.372566 624.3892,442.971478 642.349461,442.971478 L681.723878,442.971478 L681.723878,406.180179 L654.322968,406.180179 C639.586344,406.180179 636.362707,402.730995 636.362707,386.864748 L636.362707,348.693775 Z M686.559333,289.597751 L587.54764,289.597751 L587.54764,326.38905 L686.559333,326.38905 L686.559333,289.597751 Z M893.574968,289.597751 L830.253536,445.50088 L782.129248,332.137691 L808.37886,287.528241 L830.253536,352.142959 L850.055875,289.597751 L893.574968,289.597751 Z M749.202104,289.597751 L795.484314,403.190886 L770.386001,445.50088 L703.610673,289.597751 L749.202104,289.597751 Z M962.162076,289.597751 L1010.28636,442.971478 L865.9135,442.971478 L896.998567,348.693775 L935.221685,348.693775 L918.873243,406.180179 L958.24766,406.180179 L916.800905,289.597751 L962.162076,289.597751 Z M1013.27368,289.597751 L1013.27368,326.38905 L1064.62161,326.38905 C1074.75303,326.38905 1079.35823,329.838234 1079.35823,337.42644 C1079.35823,345.474536 1074.52278,348.693775 1063.00979,348.693775 L1013.27368,348.693775 L1013.27368,385.485074 L1048.96394,385.485074 C1068.0755,385.485074 1074.06226,390.773823 1074.06226,406.870016 L1074.06226,442.971478 L1116.19979,442.971478 L1116.19979,402.50105 C1116.19979,391.923551 1113.89719,383.875455 1108.83148,378.126814 C1104.6868,373.068011 1100.31187,370.9985 1090.87122,368.928989 C1102.84472,366.169642 1108.60122,363.410295 1114.12745,357.201763 C1119.65369,350.763286 1123.10758,340.875624 1123.10758,330.758017 C1123.10758,319.260736 1118.73265,308.453292 1111.36434,301.554924 C1101.69343,292.587044 1090.4107,289.597751 1066.00316,289.597751 L1013.27368,289.597751 Z M1244.52113,348.693775 L1141.1345,348.693775 L1141.1345,442.971478 L1244.52113,442.971478 L1244.52113,406.180179 L1183.27203,406.180179 L1183.27203,385.485074 L1244.52113,385.485074 L1244.52113,348.693775 Z M1244.52113,289.597751 L1141.1345,289.597751 L1141.1345,326.38905 L1244.52113,326.38905 L1244.52113,289.597751 Z" id="software"></path>
            <path d="M419.569416,518.302865 C418.612474,524.27559 417.894768,529.770498 417.894768,533.354133 C417.894768,546.733038 423.875653,557.961761 442.057543,578.746846 C467.65573,608.132655 471.005025,613.149744 471.005025,622.228286 C471.005025,632.740283 462.392551,639.429735 448.995369,639.429735 L410,639.429735 L410,677.655178 L454.258548,677.655178 C474.593556,677.655178 489.665386,672.39918 500.670214,661.887183 C510.478865,652.091913 516.45975,637.279554 516.45975,622.467195 C516.45975,611.955199 514.067396,603.354474 508.325747,592.842478 C503.301803,583.763935 498.27786,577.552301 476.98591,553.183581 C466.698788,541.477039 463.349493,535.265405 463.349493,528.337044 C463.349493,525.947953 463.827963,522.125409 464.54567,518.302865 L419.569416,518.302865 Z M573.378658,579.702482 L530.077052,579.702482 L530.077052,621.511559 C530.077052,641.579917 532.947877,652.80864 540.364174,662.126092 C548.976648,672.876998 560.938418,677.655178 579.598779,677.655178 L620.508031,677.655178 L620.508031,639.429735 L592.039019,639.429735 C576.727954,639.429735 573.378658,635.8461 573.378658,619.361378 L573.378658,579.702482 Z M625.531974,518.302865 L522.660755,518.302865 L522.660755,556.528307 L625.531974,556.528307 L625.531974,518.302865 Z M736.623314,518.302865 L689.493941,518.302865 L732.556312,639.429735 L691.64706,639.429735 L708.632773,579.702482 L668.919697,579.702482 L636.622919,677.655178 L786.623511,677.655178 L736.623314,518.302865 Z M893.389498,518.302865 L873.53296,518.302865 C841.953888,518.302865 821.379644,526.66468 805.350873,546.016311 C793.389103,560.350852 786.451277,579.702482 786.451277,598.576294 C786.451277,617.211197 793.149868,636.085009 805.350873,650.180641 C821.140409,669.054453 842.193124,677.655178 871.858312,677.655178 L893.389498,677.655178 L893.389498,639.429735 L879.035374,639.429735 C861.810426,639.429735 852.001775,636.085009 843.150065,626.528649 C835.973003,618.88356 831.906002,608.849382 831.906002,598.098476 C831.906002,586.869752 836.212239,576.118847 843.628536,568.473758 C852.001775,560.111943 861.810426,556.528307 877.121491,556.528307 L893.389498,556.528307 L893.389498,518.302865 Z M1010.3086,518.302865 L958.155288,518.302865 L907.198149,579.702482 L907.198149,613.627562 L958.155288,677.655178 L1014.61484,677.655178 L946.911224,594.275932 L1010.3086,518.302865 Z" id="STACK"></path>
        </g>
    </g>
</svg>