<?xml version="1.0" encoding="UTF-8"?>
<svg width="1424px" height="733px" viewBox="0 0 1424 733" version="1.1" xmlns="http://www.w3.org/2000/svg" xmlns:xlink="http://www.w3.org/1999/xlink">
    <title>Slice Copy 3</title>
    <g id="Page-1" stroke="none" stroke-width="1" fill="none" fill-rule="evenodd">
        <g id="Data" fill="#4E65AE" fill-rule="nonzero">
            <path d="M91.9988816,182.619365 L92,146.177215 C92,132.35443 88.300813,128.898734 73.7506775,128.898734 L34.0460705,128.898734 C20.4823848,128.898734 19.2493225,127.664557 19.2493225,113.841772 C19.2493225,101.993671 20.7289973,100.759494 33.5528455,100.759494 L61.4200542,100.759494 C71.2845528,100.759494 73.0108401,101.993671 73.7506775,109.398734 C74.4905149,115.56962 77.203252,118.531646 82.3821138,119.272152 C88.7940379,119.765823 92,116.063291 92,107.424051 L92,97.7974684 C92,84.9620253 88.300813,82 71.5311653,82 L19.7425474,82 C4.45257453,82 1,85.4556962 1,100.759494 L1,127.664557 C1,142.968354 3.95934959,146.917722 14.8102981,146.917722 L44.403794,146.917722 C55.3780488,146.917722 57.6704487,148.848767 57.720036,159.63312 L57.7208672,169.626582 C57.7208672,178.89053 55.5558195,181.171905 45.7611318,181.226823 L31.3333333,181.227848 C22.4552846,181.227848 19.495935,178.759494 19.2493225,172.588608 C19.00271,162.221519 19.00271,165.183544 18.7560976,163.702532 C17.7696477,159.506329 15.0569106,157.531646 10.3712737,157.037975 C3.71273713,156.297468 1,160.493671 1,171.848101 L1,181.227848 C1,195.645506 4.38386829,198.934687 18.8088154,199 L72.2710027,199 C88.1405149,199 91.9247832,195.854996 91.9988816,182.619365 L91.9988816,182.619365 Z M269.258555,194.562601 C269.939474,192.526793 269.995059,191.945134 270,186.521964 L270,99.487844 C270,85.2019996 266.787072,82 250.722433,82 L158.288973,82 C143.460076,82 140,85.4483073 140,100.473075 L140,181.261988 C140,195.055217 143.707224,199.488755 155.81749,199.488755 C171.634981,199.488755 174.60076,196.286755 174.60076,181.261988 L174.60076,147.025223 C174.60076,137.665532 172.623574,133.478301 167.43346,132.246763 C159.277567,130.276302 158.288973,129.291071 158.288973,120.177688 L158.288973,112.295842 C158.288973,102.689844 160.760456,100.473075 171.634981,100.473075 L184.980989,100.473075 C194.264674,100.473075 196.061878,103.120532 196.101967,114.601147 L196.102662,181.01568 C196.102662,196.040447 199.315589,199.488755 213.65019,199.488755 C225.760456,199.488755 230.456274,195.055217 230.456274,184.463987 L230.456274,149.734607 C230.456274,137.172916 229.467681,134.463532 223.041825,132.493071 C215.380228,130.276302 214.144487,128.798456 214.144487,121.162918 L214.144487,111.556919 C214.144487,102.197228 216.368821,100.473075 228.231939,100.473075 L239.60076,100.473075 C250.112622,100.473075 251.919514,102.400933 251.957553,114.360986 L251.958175,185.20291 C251.958175,196.040447 254.18251,199.488755 260.608365,199.98137 C264.562738,200.227678 268.022814,198.010909 269.258555,194.562601 Z M335,62 C347.871429,62 352,58.557377 352,47.2459016 C352,35.442623 348.357143,32 335,32 C321.885714,32 318,35.442623 318,47.2459016 C318,58.557377 322.371429,62 335,62 Z M334.514286,199 C348.114286,199 352,195.049793 352,180.977178 L352,141.96888 C352,129.624481 350.785714,127.40249 344.714286,125.674274 C339.857143,124.439834 337.671429,123.205394 336.942857,120.489627 C336.214286,119.008299 336.214286,118.267635 335.971429,109.379668 L335.971429,93.3319502 C335.971429,83.2095436 334.028571,80 326.742857,80 C320.428571,80 318,83.4564315 318,93.3319502 L318,180.73029 C318,194.802905 321.885714,199 334.514286,199 Z M449.569252,194.557047 C451.795603,191.348247 452.785092,187.152125 452.785092,179.994034 L452.785092,139.266964 C452.785092,129.887397 451.053486,126.678597 445.363924,125.444444 C436.953266,123.469798 436.458521,122.976136 436.458521,110.6346 C436.458521,100.761371 436.953266,100.020879 443.87969,99.7740481 C450.806114,99.7740481 453.774581,97.7994023 454.764071,92.615957 C456.000932,86.4451889 452.290348,82.2490665 445.611296,81.7554051 C436.705893,81.5085744 436.458521,81.2617436 436.458521,71.3885146 L436.458521,54.1103637 C436.458521,44.2371347 434.23217,40.5346738 427.800491,40.0410124 C421.368811,39.5473509 418.152971,43.4966425 418.152971,52.6293794 L418.152971,71.882176 C418.152971,79.7807593 417.163482,81.5085744 412.216036,81.7554051 C407.021218,81.7554051 405.536984,82.0022358 403.558006,83.2363894 C401.084283,84.9642045 399.600049,88.6666654 400.094794,91.8754648 C400.589538,97.7994023 403.805378,100.020879 411.226547,100.020879 C417.322507,100.264183 418.130657,101.466803 418.152503,110.484415 L418.152971,179.994034 C418.152971,195.877591 421.062366,198.939452 434.561959,199 L434.974287,199 C444.869179,199 447.09553,198.259508 449.569252,194.557047 Z M553.569252,194.557047 C555.795603,191.348247 556.785092,187.152125 556.785092,179.994034 L556.785092,139.266964 C556.785092,129.887397 555.053486,126.678597 549.363924,125.444444 C541.048841,123.492237 540.470787,122.987547 540.458724,111.050764 L540.458521,110.6346 C540.458521,100.761371 540.953266,100.020879 547.87969,99.7740481 C554.806114,99.7740481 557.774581,97.7994023 558.764071,92.615957 C560.000932,86.4451889 556.290348,82.2490665 549.611296,81.7554051 C540.810663,81.5114782 540.46554,81.2675514 540.458637,71.733 L540.458521,54.1103637 C540.458521,44.2371347 538.23217,40.5346738 531.800491,40.0410124 C525.368811,39.5473509 522.152971,43.4966425 522.152971,52.6293794 L522.152971,71.882176 C522.152971,79.7807593 521.163482,81.5085744 516.216036,81.7554051 C511.021218,81.7554051 509.536984,82.0022358 507.558006,83.2363894 C505.084283,84.9642045 503.600049,88.6666654 504.094794,91.8754648 C504.589538,97.7994023 507.805378,100.020879 515.226547,100.020879 C521.322507,100.264183 522.130657,101.466803 522.152503,110.484415 L522.152971,179.994034 C522.152971,195.877591 525.062366,198.939452 538.561959,199 L538.974287,199 C548.869179,199 551.09553,198.259508 553.569252,194.557047 Z M680.195652,243 C693.30163,243 698,238.808576 698,227.960184 L698,97.2986938 C697.995295,90.1233946 697.931784,89.9492528 697.01087,87.424196 C696.021739,84.2189893 692.807065,82 689.097826,82 C685.883152,82 682.915761,83.4793262 681.679348,85.4517611 C680.463891,87.6331404 680.204319,88.86145 680.195869,97.8031625 L680.195652,169.280245 C680.195652,180.75242 678.983844,182.075381 666.002952,182.100693 L639.394022,182.101072 C627.277174,182.101072 624.804348,179.635528 625.05163,168.787136 C625.546196,158.924962 626.535326,157.445636 633.459239,155.966309 C640.13587,154.486983 641.619565,151.528331 641.619565,139.693721 L641.619565,101.23124 C641.619565,87.1776417 637.910326,82.7396631 625.05163,82.7396631 C610.709239,82.7396631 607,86.1914242 607,99.9984686 L607,179.388974 C607,197.207458 609.90834,200.04377 627.481986,200.098714 L665.358696,200.099541 C678.217391,200.099541 679.701087,201.332312 679.701087,212.673813 C679.701087,222.664999 677.768565,224.708006 667.695854,224.754167 L623.567935,224.754977 C611.203804,224.754977 607.247283,226.480858 607.247283,233.630934 C607.247283,240.287902 611.451087,243 623.567935,243 L680.195652,243 Z M795.569252,193.557047 C797.795603,190.348247 798.785092,186.152125 798.785092,178.994034 L798.785092,138.266964 C798.785092,128.887397 797.053486,125.678597 791.363924,124.444444 C782.953266,122.469798 782.458521,121.976136 782.458521,109.6346 C782.458521,99.761371 782.953266,99.0208788 789.87969,98.7740481 C796.806114,98.7740481 799.774581,96.7994023 800.764071,91.615957 C802.000932,85.4451889 798.290348,81.2490665 791.611296,80.7554051 C782.705893,80.5085744 782.458521,80.2617436 782.458521,70.3885146 L782.458521,53.1103637 C782.458521,43.2371347 780.23217,39.5346738 773.800491,39.0410124 C767.368811,38.5473509 764.152971,42.4966425 764.152971,51.6293794 L764.152971,70.882176 C764.152971,78.7807593 763.163482,80.5085744 758.216036,80.7554051 C753.021218,80.7554051 751.536984,81.0022358 749.558006,82.2363894 C747.084283,83.9642045 745.600049,87.6666654 746.094794,90.8754648 C746.589538,96.7994023 749.805378,99.0208788 757.226547,99.0208788 C763.322507,99.2641834 764.130657,100.466803 764.152503,109.484415 L764.152971,178.994034 C764.152971,194.877591 767.062366,197.939452 780.561959,198 L780.974287,198 C790.869179,198 793.09553,197.259508 795.569252,193.557047 Z M938.032609,194.556962 C940.460474,191.648792 940.981362,188.978563 941,180.23867 L941,99.7721519 C941,86.1962025 937.290761,82 924.92663,82 L871.76087,82 C853.461957,82 850,84.7151899 850,99.278481 L850,179.5 C850,195.139494 853.635425,198.92474 869.06417,199 L922.206522,199 C931.850543,199 935.065217,198.259494 938.032609,194.556962 Z M910.555426,180 L893.772727,180 C885.427273,180 883.954545,177.538462 883.954545,165.723077 L883.954545,146.030769 C883.954545,135.938462 882.236364,132.984615 876.1,131.507692 C868.981818,129.784615 868,128.307692 868,120.676923 L868,110.830769 C868,101.723077 869.963636,100 881.009091,100 L911.445455,100 C920.667926,100 921.971398,101.44392 922,112.897939 L922,166.461538 C922,178.393383 920.798978,179.967014 910.555426,180 L910.555426,180 Z M1070.09783,200 C1077.02174,200 1079,196.797495 1079,186.450939 L1079,100.475992 C1079,84.9561587 1076.03261,82 1060.20652,82 L1007.28804,82 C992.203804,82 988,85.4488518 988,98.5052192 L988,179.799582 C988,195.073069 991.709239,199.507307 1005.0625,199.507307 C1018.66304,199.507307 1022.37228,195.565762 1022.37228,181.277662 L1022.37193,148.546678 C1022.36775,140.652432 1022.31433,140.684368 1021.63043,138.413361 C1021.13587,135.703549 1018.41576,133.240084 1015.94293,132.501044 C1007.53533,130.283925 1006.29891,129.298539 1006.29891,121.661795 L1006.29891,112.05428 C1006.29891,102.446764 1008.52446,100.475992 1018.41576,100.475992 L1048.08967,100.475992 C1054.51902,100.475992 1056.99185,100.968685 1058.97011,102.939457 C1060.84425,104.806505 1060.94289,105.346966 1060.94808,112.520359 L1060.94837,186.204593 C1060.94837,196.551148 1063.4212,200 1070.09783,200 Z M1200.69022,199 C1214.04348,199 1218,195.050633 1218,181.968354 L1218,173.082278 C1218,164.443038 1215.77446,160.740506 1209.59239,160.246835 C1203.90489,159.506329 1200.44293,162.71519 1199.94837,168.639241 C1199.21557,179.123726 1198.00019,180.696697 1189.62856,180.733503 L1173.73641,180.734177 C1163.84511,180.734177 1161.61957,178.512658 1161.61957,169.626582 L1161.61957,158.518987 C1161.61957,148.151899 1163.10326,146.670886 1175.22011,146.670886 L1201.43207,146.670886 C1214.78533,146.670886 1218,143.462025 1218,130.379747 L1218,98.2911392 C1218,84.9620253 1214.53804,82 1199.94837,82 L1145.05163,82 C1136.39674,82 1133.67663,82.9873418 1130.70924,85.9493671 C1127.7958,89.0998849 1127.02771,91.2986379 1127,99.7876912 L1127,178.759494 C1127,195.86519 1129.66598,198.939328 1143.15583,199 L1200.69022,199 Z M1189.41502,127.999229 L1156.21622,128 C1148.67568,128 1146,125.321739 1146,117.286957 L1146,110.469565 C1146,102.191304 1148.67568,100 1157.67568,100 L1186.37838,100 C1198.2973,100 1200,101.46087 1200,111.686957 L1200,118.26087 C1200,126.430206 1198.34181,127.960376 1189.41502,127.999229 L1189.41502,127.999229 Z M1278.69231,101 C1284.05128,101 1286,98.0418605 1286,89.1674419 L1286,63.0372093 C1286,50.9581395 1282.58974,48 1268.94872,48 C1251.65385,48 1248,50.2186047 1248,62.0511628 C1248,74.1302326 1250.67949,76.8418605 1263.10256,77.827907 C1269.92308,78.0744186 1271.62821,80.5395349 1271.62821,88.6744186 C1271.38462,98.0418605 1273.33333,101 1278.69231,101 Z M1425,182.21519 L1425,146.177215 C1425,132.35443 1421.30081,128.898734 1406.75068,128.898734 L1367.04607,128.898734 C1353.61802,128.898734 1352.27522,127.689117 1352.2497,114.25269 L1352.24932,113.841772 C1352.24932,101.993671 1353.729,100.759494 1366.55285,100.759494 L1394.42005,100.759494 C1404.28455,100.759494 1406.01084,101.993671 1406.75068,109.398734 C1407.49051,115.56962 1410.20325,118.531646 1415.38211,119.272152 C1421.79404,119.765823 1425,116.063291 1425,107.424051 L1425,97.7974684 C1425,84.9620253 1421.30081,82 1404.53117,82 L1352.74255,82 C1337.45257,82 1334,85.4556962 1334,100.759494 L1334,127.664557 C1334,142.968354 1336.95935,146.917722 1347.8103,146.917722 L1377.40379,146.917722 C1388.50136,146.917722 1390.72087,148.892405 1390.72087,160 L1390.72087,169.626582 C1390.72087,178.89053 1388.55582,181.171905 1378.76113,181.226823 L1364.33333,181.227848 C1355.45528,181.227848 1352.49593,178.759494 1352.24932,172.588608 C1352.00271,162.221519 1352.00271,165.183544 1351.7561,163.702532 C1350.76965,159.506329 1348.05691,157.531646 1343.37127,157.037975 C1336.71274,156.297468 1334,160.493671 1334,171.848101 L1334,181.227848 C1334,195.645506 1337.38387,198.934687 1351.80882,199 L1405.271,199 C1421.30081,199 1425,195.791139 1425,182.21519 Z" id="smittytone’s"></path>
            <path d="M290,432.07173 L290,395.725738 C290,381.924219 286.334585,378.370328 271.988152,378.300631 L231.409214,378.299578 C217.833604,378.299578 216.476043,377.079622 216.45025,363.528354 L216.449864,363.113924 C216.449864,351.164557 217.945799,349.919831 230.910569,349.919831 L259.084011,349.919831 C269.056911,349.919831 270.802168,351.164557 271.550136,358.632911 C272.298103,364.85654 275.04065,367.843882 280.276423,368.590717 C286.758808,369.088608 290,365.35443 290,356.64135 L290,346.932489 C290,333.987342 286.260163,331 269.306233,331 L216.948509,331 C201.490515,331 198,334.485232 198,349.919831 L198,377.054852 C198,392.489451 200.99187,396.472574 211.96206,396.472574 L241.880759,396.472574 C253.100271,396.472574 255.344173,398.464135 255.344173,409.666667 L255.344173,419.375527 C255.344173,428.718654 253.155334,431.019528 243.253012,431.074916 L228.666667,431.075949 C219.691057,431.075949 216.699187,428.586498 216.449864,422.362869 C216.200542,411.907173 216.200542,414.894515 215.95122,413.400844 C214.95393,409.168776 212.211382,407.177215 207.474255,406.679325 C200.742547,405.932489 198,410.164557 198,421.616034 L198,431.075949 C198,445.616835 201.421054,448.934129 216.004517,449 L270.054201,449 C286.260163,449 290,445.763713 290,432.07173 Z M426.032609,445.518987 C428.505435,442.531646 429,439.793249 429,430.582278 L429,349.924051 C429,336.232068 425.290761,332 412.92663,332 L359.76087,332 C341.644946,332 338.070723,334.683903 338.00105,348.989103 L338,430.333333 C338,446.106498 341.635425,449.924097 357.06417,450 L410.206522,450 C419.850543,450 423.065217,449.253165 426.032609,445.518987 Z M399.343489,432 L382.25,432 C373.85,432 372.286263,429.56599 372.250632,417.96292 L372.25,397.606154 C372.25,387.387692 370.5,384.396923 364.25,382.901538 C357.113281,381.184183 356.032776,379.70833 356.000752,372.293009 L356,361.966154 C356,352.744615 358,351 369.25,351 L400.25,351 C409.75,351 411,352.495385 411,364.458462 L411,418.292308 C411,430.3733 409.776737,431.966602 399.343489,432 L399.343489,432 Z M512.003497,450 C525.905594,450 529.629371,446.01194 529.629371,431.056716 L529.629371,391.674627 C529.629371,378.962687 528.636364,377.467164 520.940559,375.722388 C515.975524,374.725373 513.493007,372.232836 513.493007,367.746269 L513.493007,361.514925 C513.493007,351.295522 514.237762,350.298507 520.940559,350.049254 C527.146853,350.049254 530.870629,347.80597 531.863636,342.571642 C533.104895,336.838806 529.629371,332.102985 523.91958,331.853731 C513.738338,331.366953 513.498779,331.3555 513.493143,323.696917 L513.493007,314.655224 C513.493007,303.68806 515.230769,301.195522 524.664336,301.195522 L531.367133,301.195522 C537.821678,301.195522 539.559441,300.946269 542.29021,300.447761 C545.765734,299.201493 548,296.210448 548,292.222388 C548,284.99403 544.772727,283 532.608392,283 L513.493007,283 C498.846154,283 495.122378,286.738806 495.122378,302.940299 L495.122378,319.640299 C494.625874,331.604478 494.625874,331.853731 486.185315,332.102985 C480.227273,332.102985 477,335.343284 477,340.577612 C477,346.310448 480.227273,349.550746 486.93007,350.049254 C494.670432,350.534979 495.104587,351.020704 495.121762,359.80687 L495.122378,430.308955 C495.122378,446.510448 498.34965,450 512.003497,450 Z M646.470512,444.501161 C648.737341,441.251999 649.744821,437.003095 649.744821,429.754965 L649.744821,388.515605 C649.744821,379.018056 647.981731,375.768894 642.188722,374.519216 C633.722457,372.542454 633.133893,372.031416 633.121609,359.944484 L633.121403,359.523086 C633.121403,349.525665 633.625143,348.775858 640.677502,348.525923 C647.729861,348.525923 650.752301,346.526439 651.759781,341.277793 C653.019131,335.029405 649.241081,330.780501 642.440592,330.28063 C633.586622,330.036576 633.138136,329.792521 633.121933,320.472976 L633.121403,302.287853 C633.121403,292.290432 630.854573,288.541399 624.305954,288.041528 C617.757335,287.541657 614.483025,291.540625 614.483025,300.78824 L614.483025,320.28321 C614.483025,328.281146 613.475545,330.030695 608.438146,330.28063 C603.148877,330.28063 601.637657,330.530566 599.622697,331.780243 C597.103997,333.529792 595.592777,337.278825 596.096517,340.527986 C596.600257,346.526439 599.874567,348.775858 607.430666,348.775858 C613.727415,349.025794 614.483025,350.275472 614.483025,359.773021 L614.483025,429.754965 C614.483025,445.838316 617.445318,448.938691 631.190358,449 L631.610183,449 C641.684982,449 643.951812,448.250193 646.470512,444.501161 Z M831,432.112735 L831,340.440501 C831,334.974948 827.264259,331 821.785171,331 C818.298479,331 814.811787,332.987474 813.815589,335.223382 C812.843111,337.163535 812.582625,339.340433 812.570772,345.451805 L812.570342,418.200418 C812.570342,429.379958 811.076046,431.864301 801.861217,431.864301 C793.747953,431.864301 791.459596,429.443251 791.402254,419.104127 L791.401141,391.121086 C791.401141,388.388309 791.401141,386.649269 791.152091,385.407098 C791.152091,381.43215 788.661597,378.450939 785.174905,377.457203 C776.091716,374.763466 774.752034,373.276663 774.715611,365.382764 L774.714829,346.651357 C774.714829,340.192067 774.465779,338.701461 773.967681,336.465553 C772.722433,333.235908 769.484791,331 765.749049,331 C758.373355,331 756.337159,334.147365 756.286161,345.461116 L756.285171,418.94572 C756.285171,429.628392 753.545627,432.609603 744.081749,431.864301 C735.964582,431.128199 734.892618,429.422746 734.867387,418.84952 L734.86692,395.096033 C734.86692,387.643006 734.86692,387.643006 734.617871,385.158664 C733.870722,380.935282 731.878327,378.202505 728.640684,377.457203 C719.81075,375.010502 718.469165,374.009579 718.430538,367.572385 L718.429658,349.135699 C718.180608,338.204593 718.180608,338.701461 717.68251,336.713987 C716.686312,333.235908 713.448669,331 709.214829,331 C702.082676,331 700.050627,334.391671 700,346.198925 L700,431.118998 C700,446.367891 703.173213,449.929246 717.977475,450 L811.076046,450 C827.762357,450 831,446.770355 831,432.112735 Z M967.000597,445.514768 C970.191528,442.581741 970.972525,439.168765 971,430.092381 L971,351.620299 C970.984486,339.643007 970.654732,338.366048 967.250599,334.734177 C964.500581,331.746835 962.250565,331 952.750501,331 L897.250124,331 C888.250063,331 885.000041,331.995781 882.500024,334.734177 C880.250008,337.472574 879,341.455696 879,346.185654 L879,354.151899 C879,360.624473 879.250002,361.869198 880.250008,363.860759 C881.500017,366.599156 884.750039,368.341772 888.500065,368.341772 C893.250097,368.341772 896.750121,365.105485 897.250124,360.126582 C898.500132,350.666667 899.500139,349.670886 909.500207,349.670886 L939.500411,349.670886 C950.750487,349.670886 952.750501,351.413502 952.750501,361.122363 L952.750501,367.345992 C952.750501,376.805907 951.000489,378.299578 938.500404,378.299578 L896.250117,378.299578 C888.750066,378.299578 886.750053,378.548523 883.750032,380.78903 C880,383.776371 879,387.012658 879,397.219409 L879,428.088608 C879,446.079873 881.94032,448.943689 899.222051,449 L950.000482,449 C961.50056,449 963.500574,448.50211 967.000597,445.514768 Z M941.199504,430.999109 L924.89172,431 C916.66242,431 914,428.043478 914,418.927536 L914,408.086957 C914,398.724638 916.178344,397 927.796178,397 L940.140127,397 C950.192781,397 951.961304,398.927458 951.999363,410.168283 L952,418.927536 C952,428.905797 950.110633,430.950717 941.199504,430.999109 L941.199504,430.999109 Z M1037.38722,450 C1050.23308,450 1054.26316,445.509434 1054.26316,430.790356 L1054.26316,388.878407 C1054.26316,380.895178 1052.24812,377.15304 1047.46241,375.90566 C1038.36214,373.469602 1037.90785,373.174409 1037.89151,363.173958 L1037.89098,362.433962 C1037.89098,350.708595 1038.8985,349.710692 1051.2406,349.710692 L1071.1391,349.710692 C1082.2218,349.710692 1086,347.714885 1086,340.72956 C1086,333.245283 1082.72556,331 1071.64286,331 L1038.39474,331 C1027.81579,331 1024.03759,332.247379 1021.77068,336.238994 C1019.32385,339.874214 1019.01624,341.626044 1019,353.615445 L1019,430.291405 C1019,445.75891 1023.03008,450 1037.38722,450 Z M1209.30978,450 C1222.95652,450 1227,446.016878 1227,432.822785 L1227,423.860759 C1227,415.147679 1224.72554,411.413502 1218.40761,410.915612 C1212.59511,410.168776 1209.05707,413.405063 1208.55163,419.379747 C1207.80272,429.953844 1206.56064,431.540258 1198.00501,431.577379 L1181.76359,431.578059 C1171.65489,431.578059 1169.38043,429.337553 1169.38043,420.375527 L1169.38043,409.172996 C1169.38043,398.7173 1170.89674,397.223629 1183.27989,397.223629 L1210.06793,397.223629 C1223.71467,397.223629 1227,393.987342 1227,380.793249 L1227,348.43038 C1227,334.987342 1223.46196,332 1208.55163,332 L1152.44837,332 C1143.60326,332 1140.82337,332.995781 1137.79076,335.983122 C1134.81329,339.160568 1134.02832,341.378113 1134,349.939723 L1134,429.586498 C1134,446.838397 1136.72457,449.938809 1150.5109,450 L1209.30978,450 Z M1198.02298,379.999174 L1163.59459,380 C1155.77477,380 1153,377.130435 1153,368.521739 L1153,361.217391 C1153,352.347826 1155.77477,350 1165.10811,350 L1194.87387,350 C1207.23423,350 1209,351.565217 1209,362.521739 L1209,369.565217 C1209,378.318078 1207.2804,379.957545 1198.02298,379.999174 L1198.02298,379.999174 Z" id="software"></path>
            <path d="M498,671.07173 L498,634.725738 C498,620.924219 494.334585,617.370328 479.988152,617.300631 L439.409214,617.299578 C425.833604,617.299578 424.476043,616.079622 424.45025,602.528354 L424.449864,602.113924 C424.449864,590.164557 425.945799,588.919831 438.910569,588.919831 L467.084011,588.919831 C477.056911,588.919831 478.802168,590.164557 479.550136,597.632911 C480.298103,603.85654 483.04065,606.843882 488.276423,607.590717 C494.758808,608.088608 498,604.35443 498,595.64135 L498,585.932489 C498,572.987342 494.260163,570 477.306233,570 L424.948509,570 C409.490515,570 406,573.485232 406,588.919831 L406,616.054852 C406,631.489451 408.99187,635.472574 419.96206,635.472574 L449.880759,635.472574 C461.100271,635.472574 463.344173,637.464135 463.344173,648.666667 L463.344173,658.375527 C463.344173,667.718654 461.155334,670.019528 451.253012,670.074916 L436.666667,670.075949 C427.691057,670.075949 424.699187,667.586498 424.449864,661.362869 C424.200542,650.907173 424.200542,653.894515 423.95122,652.400844 C422.95393,648.168776 420.211382,646.177215 415.474255,645.679325 C408.742547,644.932489 406,649.164557 406,660.616034 L406,670.075949 C406,684.616835 409.421054,687.934129 424.004517,688 L478.054201,688 C494.260163,688 498,684.763713 498,671.07173 Z M595.569252,684.529104 C597.795603,681.300123 598.785092,677.07761 598.785092,669.8745 L598.785092,628.891285 C598.785092,619.452726 597.053486,616.223746 591.363924,614.98183 C583.144417,613.039926 582.485098,612.521349 582.459375,600.907286 L582.458521,600.078843 C582.458521,590.143518 582.953266,589.398369 589.87969,589.149985 C596.806114,589.149985 599.774581,587.162921 600.764071,581.946875 C602.000932,575.737297 598.290348,571.514784 591.611296,571.018018 C582.915432,570.775479 582.474955,570.53294 582.459041,561.271281 L582.458521,543.199108 C582.458521,533.263783 580.23217,529.538037 573.800491,529.04127 C567.368811,528.544504 564.152971,532.518634 564.152971,541.708809 L564.152971,561.082693 C564.152971,569.030953 563.163482,570.769635 558.216036,571.018018 C553.021218,571.018018 551.536984,571.266401 549.558006,572.508316 C547.084283,574.246998 545.600049,577.972745 546.094794,581.201726 C546.589538,587.162921 549.805378,589.398369 557.226547,589.398369 C563.410854,589.646752 564.152971,590.888667 564.152971,600.327226 L564.152971,669.8745 C564.152971,685.857954 567.062366,688.939072 580.561959,689 L580.974287,689 C590.869179,689 593.09553,688.254851 595.569252,684.529104 Z M736.044069,684.514768 C739.200316,681.581741 739.972824,678.168765 740,669.092381 L740,590.620299 C739.984655,578.643007 739.658485,577.366048 736.291354,573.734177 C733.571226,570.746835 731.345668,570 721.948865,570 L667.051753,570 C658.149519,570 654.934823,570.995781 652.46198,573.734177 C650.236421,576.472574 649,580.455696 649,585.185654 L649,593.151899 C649,599.624473 649.247284,600.869198 650.236421,602.860759 C651.472843,605.599156 654.687539,607.341772 658.396803,607.341772 C663.095204,607.341772 666.557184,604.105485 667.051753,599.126582 C668.288174,589.666667 669.277312,588.670886 679.168683,588.670886 L708.842798,588.670886 C719.970591,588.670886 721.948865,590.413502 721.948865,600.122363 L721.948865,606.345992 C721.948865,615.805907 720.217875,617.299578 707.85366,617.299578 L666.062616,617.299578 C658.644087,617.299578 656.665813,617.548523 653.698401,619.78903 C649.989137,622.776371 649,626.012658 649,636.219409 L649,667.088608 C649,685.079873 651.90836,687.943689 669.002246,688 L719.228738,688 C730.603815,688 732.582089,687.50211 736.044069,684.514768 Z M710.915281,669.999109 L694.178344,670 C685.732484,670 683,667.043478 683,657.927536 L683,647.086957 C683,637.724638 685.235669,636 697.159236,636 L709.828025,636 C720.145223,636 721.960285,637.927458 721.999346,649.168283 L722,657.927536 C722,667.905797 720.060913,669.950717 710.915281,669.999109 L710.915281,669.999109 Z M880,671.822785 L880,656.388186 C880,646.43038 877.756098,642.696203 871.02439,642.696203 C865.04065,642.696203 861.550136,646.679325 861.550136,653.151899 L861.550136,659.375527 C861.550136,668.586498 859.306233,670.827004 849.582656,670.827004 L834.623306,670.827004 C825.149051,670.827004 822.905149,668.337553 822.905149,659.126582 L822.905149,634.481013 C822.905149,625.270042 821.159892,622.780591 813.430894,621.037975 C807.696477,619.793249 806.449864,618.050633 806.449864,610.333333 L806.449864,602.367089 C806.449864,591.164557 807.696477,589.670886 818.168022,589.670886 L850.081301,589.670886 C859.555556,589.670886 861.051491,591.164557 861.300813,599.628692 C861.550136,607.097046 865.04065,610.831224 871.273713,610.582278 C877.506775,610.333333 880,606.350211 880,596.890295 L880,589.670886 C880,575.232068 876.260163,571 863.295393,571 L807.696477,571 C792.238482,571 788,574.485232 788,587.679325 L788,668.586498 C788,685.09903 791.421054,688.924022 806.004517,689 L860.552846,689 C875.761518,689 880,685.265823 880,671.822785 Z M1010.52575,689 C1017.25745,689 1020,685.277925 1020,675.848667 L1020,630.439346 C1020,615.799183 1019.00271,613.069661 1012.271,611.332692 C1006.53659,609.843862 1006.03794,609.595724 1004.79133,608.106894 C1003.54472,606.121787 1003.54472,605.873649 1003.29539,594.955561 L1003.29539,583.293058 C1003.29539,572.126831 1001.05149,568.901032 994.070461,568.901032 C987.089431,568.901032 984.845528,572.37497 984.845528,583.789334 L984.845528,597.436944 C984.845528,607.734686 982.898156,609.795402 973.471365,609.843007 L957.918699,609.843862 C947.808809,609.843862 946.234473,608.144859 946.201094,596.345189 L946.200542,534.161662 C946.200542,524.980542 942.95935,520.76219 936.726287,521.010328 C930.742547,521.258467 928,525.228681 928,534.161662 L928,668.652654 C928,684.037233 931.739837,688.503723 944.455285,688.503723 C959.663957,688.503723 962.655827,684.781648 962.655827,667.163824 L962.655827,641.853711 C962.655827,629.446793 964.151762,627.957963 976.119241,627.957963 L988.086721,627.957963 C999.804878,627.957963 1001.30081,629.94307 1001.30081,643.342541 L1001.30081,675.600528 C1001.30081,685.277925 1004.04336,689 1010.52575,689 Z" id="stack"></path>
        </g>
    </g>
</svg>