<?xml version="1.0" encoding="UTF-8"?>
<svg width="1424px" height="732px" viewBox="0 0 1424 732" version="1.1" xmlns="http://www.w3.org/2000/svg" xmlns:xlink="http://www.w3.org/1999/xlink">
    <title>pluto</title>
    <g id="Page-1" stroke="none" stroke-width="1" fill="none" fill-rule="evenodd">
        <g id="Group-4" fill="#4E65AE" fill-rule="nonzero">
            <path d="M50.0922747,196 C75.3712446,196 98,178.028169 98,151.070423 C98,105.323944 49.888412,107.774648 49.888412,95.7253521 C49.888412,93.6830986 51.111588,91.8450704 53.3540773,91.8450704 C54.1695279,91.8450704 56.8197425,92.2535211 61.1008584,95.9295775 C64.5665236,98.9929577 68.2360515,100.21831 72.1094421,100.21831 C82.9141631,100.21831 93.5150215,89.5985915 93.5150215,78.9788732 C93.5150215,75.5070423 92.2918455,71.8309859 89.6416309,68.7676056 C77.6137339,54.8802817 66.1974249,51 53.3540773,51 C26.8519313,51 9.11587983,69.584507 9.11587983,95.7253521 C9.11587983,143.71831 56.4120172,137.387324 56.4120172,151.070423 C56.4120172,153.521127 53.7618026,155.15493 50.0922747,155.15493 C46.6266094,155.15493 41.7339056,149.232394 35.4141631,142.492958 C32.1523605,139.021127 28.27897,138.204225 24.4055794,138.204225 C13.6008584,138.204225 3,148.823944 3,159.443662 C3,162.915493 3.40772532,166.387324 5.85407725,169.65493 C16.8626609,184.15493 30.1137339,196 50.0922747,196 Z M51.0853659,175 C40.097561,175 31.597561,167.230241 25.3780488,158.642612 C22.6829268,154.962199 18.1219512,154.348797 14.1829268,154.348797 C12.5243902,154.348797 11.0731707,154.757732 9.82926829,154.757732 C9.20731707,154.757732 9,154.553265 9,154.14433 C9,153.735395 9.20731707,153.121993 9.62195122,152.304124 C12.7317073,147.19244 18.9512195,143.30756 24.9634146,143.30756 C28.0731707,143.30756 31.1829268,143.920962 33.4634146,146.37457 C41.9634146,155.575601 46.5243902,160.278351 51.0853659,160.278351 C56.8902439,160.278351 61.2439024,157.21134 61.2439024,152.508591 C61.2439024,145.556701 54.195122,142.489691 45.4878049,138.809278 C32.4268293,133.493127 13.1463415,124.087629 13.1463415,97.0979381 C13.1463415,73.1752577 29.7317073,56 54.402439,56 C56.4756098,56 58.7560976,56 61.0365854,56.4089347 C62.0731707,56.6134021 62.695122,56.8178694 62.695122,57.4312715 C62.695122,57.8402062 62.2804878,58.4536082 61.6585366,59.2714777 C60,61.7250859 59.3780488,63.9742268 59.3780488,66.8367698 C59.3780488,69.6993127 60.4146341,72.766323 62.902439,75.2199313 C63.1097561,75.628866 63.3170732,76.0378007 63.3170732,76.4467354 C63.3170732,76.8556701 63.1097561,77.2646048 63.1097561,77.6735395 C62.2804878,79.9226804 61.8658537,82.1718213 61.8658537,84.6254296 C61.8658537,86.4656357 62.0731707,88.5103093 62.695122,90.3505155 C62.902439,91.1683849 63.1097561,91.5773196 63.1097561,91.9862543 C63.1097561,92.395189 62.902439,92.5996564 62.695122,92.5996564 C62.4878049,92.5996564 62.0731707,92.5996564 61.8658537,92.395189 C60.4146341,91.5773196 58.9634146,90.7594502 57.9268293,90.3505155 C56.8902439,89.9415808 56.6829268,88.5103093 56.2682927,87.4879725 C53.7804878,81.5584192 47.3536585,76.8556701 41.1341463,76.8556701 C31.3902439,76.8556701 28.0731707,89.7371134 28.0731707,97.0979381 C28.0731707,115.908935 39.4756098,120.816151 54.8170732,127.563574 C63.7317073,131.448454 77,137.17354 77,152.508591 C77,166.003436 64.7682927,175 51.0853659,175 Z M252.001215,198 C264.116646,198 275,189.42 275,178.184286 C275,176.958571 274.794654,175.732857 274.589307,174.302857 L254.670717,70.73 C252.617254,59.9028571 243.787363,55 234.752126,55 C226.127582,55 217.708384,59.29 214.422843,66.0314286 L191.218712,113.221429 C190.808019,114.038571 190.602673,114.242857 190.397327,114.242857 C190.191981,114.242857 189.986634,114.038571 189.575942,113.221429 L166.166464,66.0314286 C162.675577,59.0857143 154.461725,55 146.042527,55 C137.00729,55 128.1774,59.9028571 126.123937,70.73 L106.410693,174.507143 C106.205346,175.937143 106,177.367143 106,178.592857 C106,191.054286 118.115431,198 128.588092,198 C137.828676,198 146.863913,193.097143 148.917375,182.065714 L155.693803,145.294286 C155.899149,144.477143 156.104496,144.068571 156.309842,144.068571 C156.515188,144.068571 156.720535,144.477143 157.131227,145.294286 L171.505468,174.302857 C174.996355,181.452857 182.799514,184.721429 190.191981,184.721429 C197.99514,184.721429 206.003645,181.044286 209.289186,174.302857 L223.45808,145.294286 C223.868773,144.477143 224.074119,144.068571 224.279465,144.068571 C224.484812,144.068571 224.690158,144.477143 224.895504,145.294286 L232.082625,182.27 C234.136087,193.097143 242.965978,198 252.001215,198 Z M111.013698,179 C110.405479,179 110,178.183811 110,176.551433 C110,175.939292 110,175.32715 110.20274,174.306914 L129.66575,70.6509275 C131.287668,61.8768971 138.383557,58 145.682186,58 C147.709583,58 149.73698,58.4080944 151.764377,59.0202361 C152.778075,59.4283305 153.183554,59.836425 153.183554,60.4485666 C153.183554,61.0607083 152.778075,61.6728499 151.967116,62.0809444 C147.912322,64.3254637 146.290405,68.8145025 146.290405,74.3237774 C146.290405,76.1602024 146.695884,77.9966273 147.709583,80.0370995 C184.202727,153.902192 184,154.106239 184,154.310287 C184,155.126476 183.391769,156.146712 182.58081,156.554806 C179.336975,158.391231 174.673962,162.064081 173.457524,167.165261 C173.254784,167.98145 172.849305,168.185497 172.646565,168.185497 C172.241086,168.185497 171.835606,167.573356 171.430127,166.757167 L152.778075,128.804384 C151.967116,127.172007 151.561637,124.927487 151.561637,122.478921 C151.561637,120.642496 151.764377,118.602024 152.169856,116.561551 C153.386294,110.03204 153.589034,109.827993 153.589034,109.419899 C153.589034,105.543002 148.317802,103.706577 145.479446,103.706577 C142.438351,103.706577 140.005474,105.134907 139.397255,107.991568 L128.854791,164.716695 C128.449312,166.961214 127.435614,167.369309 125.813696,167.777403 C120.136985,169.205734 115.473972,172.266442 112.838356,177.571669 C112.432876,178.387858 111.824657,179 111.013698,179 Z M238.076655,185 C237.254355,185 236.226481,184.181965 235.609756,180.909823 L225.33101,127.942029 C224.919861,125.89694 224.714286,123.851852 224.714286,122.215781 C224.714286,120.784219 224.919861,119.557166 225.33101,118.73913 L230.059233,109.331723 C230.264808,108.718196 230.470383,108.10467 230.470383,107.491143 C230.470383,103.605475 225.947735,100.537842 221.836237,100.537842 C219.780488,100.537842 217.930314,101.355878 217.108014,103.196457 L200.456446,137.349436 C198.811847,140.621578 195.933798,140.826087 194.289199,140.826087 C192.027875,140.826087 191,137.349436 191,132.441224 C191,126.919485 191.616725,119.352657 194.494774,113.4219 L217.519164,66.9983897 C220.191638,61.4766506 227.181185,58 234.581882,58 C236.226481,58 237.665505,58 239.310105,58.6135266 C240.337979,59.0225443 240.749129,59.2270531 240.749129,59.6360709 C240.749129,60.0450886 240.337979,60.4541063 239.515679,60.863124 C235.404181,63.1127214 232.320557,66.9983897 232.320557,72.31562 C232.320557,73.1336554 232.320557,74.1561997 232.526132,74.9742351 C249.794425,165.776167 250,165.980676 250,166.389694 C250,167.821256 249.1777,168.434783 248.149826,169.252818 C243.421603,172.933977 240.337979,177.228663 239.310105,183.15942 C239.310105,183.363929 238.69338,185 238.076655,185 Z M309.5,198 C320.147619,198 331,191.462857 331,178.388571 L331,74.6114286 C331,61.5371429 320.147619,55 309.5,55 C298.647619,55 288,61.5371429 288,74.6114286 L288,178.388571 C288,191.462857 298.647619,198 309.5,198 Z M292.650794,182 C291.825397,182 291,180.776316 291,177.513158 L291,73.9078947 C291,63.3026316 299.873016,58 308.952381,58 C311.015873,58 313.285714,58.4078947 315.349206,59.0197368 C316.380952,59.4276316 317,60.0394737 317,60.6513158 C317,61.2631579 316.587302,61.6710526 315.761905,62.0789474 C311.428571,64.1184211 307.920635,67.7894737 307.920635,73.9078947 L307.920635,164.664474 C307.920635,167.111842 307.095238,167.519737 305.444444,168.335526 C300.079365,170.986842 295.952381,174.453947 294.301587,180.164474 C294.095238,180.980263 293.47619,182 292.650794,182 Z M402.5,198 C413.16,198 424.025,191.462857 424.025,178.388571 L424.025,96.8785714 C424.025,96.2657143 424.435,95.8571429 425.05,95.8571429 L444.73,95.8571429 C457.44,95.8571429 464,85.6428571 464,75.4285714 C464,65.2142857 457.44,55 444.73,55 L360.27,55 C347.56,55 341,65.2142857 341,75.4285714 C341,85.6428571 347.56,95.8571429 360.27,95.8571429 L379.95,95.8571429 C380.565,95.8571429 380.975,96.2657143 380.975,96.8785714 L380.975,178.388571 C380.975,191.462857 391.635,198 402.5,198 Z M386.391844,182 C385.576241,182 384.760638,180.776316 384.760638,177.513158 L384.760638,96.1381579 C384.760638,85.9407895 393.120567,85.7368421 393.120567,79.4144737 C393.120567,73.2960526 387.003546,72.8881579 383.129433,72.6842105 L365.797872,72.6842105 C358.253546,72.6842105 352.952128,76.5592105 349.893617,81.4539474 C349.689716,81.8618421 349.281915,82.0657895 348.670213,82.0657895 C347.242908,82.0657895 345,80.2302632 345,74.7236842 C345,66.3618421 350.301418,58 360.496454,58 L444.503546,58 C454.698582,58 460,66.3618421 460,74.7236842 C460,80.2302632 457.757092,82.0657895 456.329787,82.0657895 C455.718085,82.0657895 455.310284,81.8618421 455.106383,81.4539474 C452.047872,76.5592105 446.746454,72.6842105 439.202128,72.6842105 L416.77305,72.6842105 C409.024823,72.6842105 401.480496,77.1710526 401.480496,86.1447368 L401.480496,164.664474 C401.480496,167.111842 400.664894,167.519737 399.033688,168.335526 C393.73227,170.782895 389.654255,174.453947 388.02305,180.164474 C387.819149,180.980263 387.207447,182 386.391844,182 Z M535.5,198 C546.16,198 557.025,191.462857 557.025,178.388571 L557.025,96.8785714 C557.025,96.2657143 557.435,95.8571429 558.05,95.8571429 L577.73,95.8571429 C590.44,95.8571429 597,85.6428571 597,75.4285714 C597,65.2142857 590.44,55 577.73,55 L493.27,55 C480.56,55 474,65.2142857 474,75.4285714 C474,85.6428571 480.56,95.8571429 493.27,95.8571429 L512.95,95.8571429 C513.565,95.8571429 513.975,96.2657143 513.975,96.8785714 L513.975,178.388571 C513.975,191.462857 524.635,198 535.5,198 Z M519.391844,182 C518.576241,182 517.760638,180.776316 517.760638,177.513158 L517.760638,96.1381579 C517.760638,85.9407895 526.120567,85.7368421 526.120567,79.4144737 C526.120567,73.2960526 520.003546,72.8881579 516.129433,72.6842105 L498.797872,72.6842105 C491.253546,72.6842105 485.952128,76.5592105 482.893617,81.4539474 C482.689716,81.8618421 482.281915,82.0657895 481.670213,82.0657895 C480.242908,82.0657895 478,80.2302632 478,74.7236842 C478,66.3618421 483.301418,58 493.496454,58 L577.503546,58 C587.698582,58 593,66.3618421 593,74.7236842 C593,80.2302632 590.757092,82.0657895 589.329787,82.0657895 C588.718085,82.0657895 588.310284,81.8618421 588.106383,81.4539474 C585.047872,76.5592105 579.746454,72.6842105 572.202128,72.6842105 L549.77305,72.6842105 C542.024823,72.6842105 534.480496,77.1710526 534.480496,86.1447368 L534.480496,164.664474 C534.480496,167.111842 533.664894,167.519737 532.033688,168.335526 C526.73227,170.782895 522.654255,174.453947 521.02305,180.164474 C520.819149,180.980263 520.207447,182 519.391844,182 Z M668.602369,198 C679.248731,198 690.099831,191.462857 690.099831,178.388571 L690.099831,138.961429 C690.099831,138.552857 690.099831,137.94 690.509306,137.327143 L725.314721,87.89 C727.771574,84.2128571 729,80.5357143 729,76.6542857 C729,65.4185714 718.967851,55 705.659898,55 C698.698816,55 693.375635,58.8814286 690.304569,63.1714286 L669.626058,92.5885714 C669.216582,92.9971429 669.011844,93.2014286 668.602369,93.2014286 C668.192893,93.2014286 667.783418,92.9971429 667.57868,92.5885714 L646.900169,63.1714286 C643.829103,58.6771429 638.71066,55 631.544839,55 C620.898477,55 608,64.1928571 608,77.0628571 C608,80.5357143 609.433164,84.4171429 611.890017,87.89 L646.695431,137.327143 C647.05941,137.871905 647.099852,138.416667 647.104345,138.817952 L647.104907,178.388571 C647.104907,191.462857 657.751269,198 668.602369,198 Z M652.86444,182 C652.047151,182 651.229862,180.776316 651.229862,177.513158 L651.229862,138.151316 C651.229862,137.335526 651.229862,136.111842 650.208251,134.480263 L615.473477,85.3289474 C613.430255,82.4736842 612,78.8026316 612,75.7434211 C612,66.3618421 622.624754,58 632.227898,58 C632.840864,58 636.518664,58.2039474 636.518664,59.6315789 C636.518664,59.8355263 636.314342,60.0394737 635.905697,60.2434211 C632.43222,62.6907895 628.550098,66.7697368 628.550098,72.0723684 C628.550098,74.1118421 629.163065,75.9473684 630.59332,77.9868421 L657.972495,116.532895 C658.994106,117.960526 660.424361,118.572368 662.058939,118.572368 C665.328094,118.572368 668.801572,116.328947 668.801572,112.453947 C668.801572,110.006579 667.779961,106.743421 667.779961,103.684211 C667.779961,102.052632 667.984283,100.625 669.005894,99.4013158 L693.72888,64.5263158 C696.793713,60.6513158 700.880157,58 705.579568,58 C708.440079,58 715.795678,59.4276316 716,62.0789474 C716,62.4868421 715.795678,62.4868421 715.591356,62.6907895 L672.275049,123.875 C668.10025,129.828058 667.987417,134.815756 667.984368,137.898823 L667.984283,164.664474 C667.984283,167.111842 667.166994,167.519737 665.532417,168.335526 C660.220039,170.782895 656.133595,174.453947 654.499018,180.164474 C654.294695,180.980263 653.681729,182 652.86444,182 Z M800.5,198 C811.16,198 822.025,191.462857 822.025,178.388571 L822.025,96.8785714 C822.025,96.2657143 822.435,95.8571429 823.05,95.8571429 L842.73,95.8571429 C855.44,95.8571429 862,85.6428571 862,75.4285714 C862,65.2142857 855.44,55 842.73,55 L758.27,55 C745.56,55 739,65.2142857 739,75.4285714 C739,85.6428571 745.56,95.8571429 758.27,95.8571429 L777.95,95.8571429 C778.565,95.8571429 778.975,96.2657143 778.975,96.8785714 L778.975,178.388571 C778.975,191.462857 789.635,198 800.5,198 Z M784.391844,182 C783.576241,182 782.760638,180.776316 782.760638,177.513158 L782.760638,96.1381579 C782.760638,85.9407895 791.120567,85.7368421 791.120567,79.4144737 C791.120567,73.2960526 785.003546,72.8881579 781.129433,72.6842105 L763.797872,72.6842105 C756.253546,72.6842105 750.952128,76.5592105 747.893617,81.4539474 C747.689716,81.8618421 747.281915,82.0657895 746.670213,82.0657895 C745.242908,82.0657895 743,80.2302632 743,74.7236842 C743,66.3618421 748.301418,58 758.496454,58 L842.503546,58 C852.698582,58 858,66.3618421 858,74.7236842 C858,80.2302632 855.757092,82.0657895 854.329787,82.0657895 C853.718085,82.0657895 853.310284,81.8618421 853.106383,81.4539474 C850.047872,76.5592105 844.746454,72.6842105 837.202128,72.6842105 L814.77305,72.6842105 C807.024823,72.6842105 799.480496,77.1710526 799.480496,86.1447368 L799.480496,164.664474 C799.480496,167.111842 798.664894,167.519737 797.033688,168.335526 C791.73227,170.782895 787.654255,174.453947 786.02305,180.164474 C785.819149,180.980263 785.207447,182 784.391844,182 Z M937,200 C978.902703,200 1013,166.905556 1013,126 C1013,85.0944444 978.902703,52 937,52 C895.097297,52 861,85.0944444 861,126 C861,166.905556 895.097297,200 937,200 Z M936.808511,177 C927.602291,177 917.986907,175.160473 908.576105,169.028716 C905.711948,167.189189 902.438625,166.16723 899.369885,166.16723 C894.664484,166.16723 889.140753,169.233108 886.685761,173.116554 C886.276596,173.72973 885.86743,174.138514 885.458265,174.138514 C885.0491,174.138514 884.435352,173.72973 883.821604,173.116554 C871.95581,160.853041 865,144.297297 865,125.902027 C865,87.2719595 897.324059,56 937.013093,56 C947.855974,56 957.880524,58.4527027 967.291326,62.5405405 C968.518822,62.9493243 969.13257,63.5625 969.13257,64.1756757 C969.13257,64.3800676 968.927987,64.5844595 968.723404,64.7888514 C965.450082,67.4459459 963.199673,71.5337838 963.199673,75.6216216 C963.199673,78.8918919 964.631751,81.9577703 968.109656,84.6148649 C980.793781,94.6300676 990,107.302365 990,125.902027 C990,154.108108 966.06383,177 936.808511,177 Z M936.84375,162 C956.75,162 973,144.731377 973,125.837472 C973,111.006772 962.640625,97.5981941 949.640625,93.9413093 C948.421875,93.3318284 948.015625,92.7223476 948.015625,91.9097065 C948.015625,91.503386 948.21875,90.8939052 948.421875,90.2844244 C951.46875,86.8306998 953.09375,83.7832957 953.09375,80.9390519 C953.09375,75.6568849 947.8125,72 936.84375,72 C906.578125,72 882,95.5665914 882,124.82167 C882,137.823928 885.453125,144.731377 890.328125,152.857788 C891.953125,155.498871 894.59375,156.717833 897.234375,156.717833 C901.703125,156.717833 906.375,153.670429 907.59375,149.607223 C907.796875,148.794582 908.203125,148.591422 908.609375,148.591422 C909.015625,148.591422 909.625,148.997743 910.234375,149.607223 C917.140625,156.920993 926.6875,162 936.84375,162 Z M937,159 C918.85,159 904,143.103226 904,125.967742 C904,108.832258 918.85,95 937,95 C955.15,95 970,108.832258 970,125.967742 C970,143.103226 955.15,159 937,159 Z M1137.42025,198 C1148.10736,198 1159,191.462857 1159,178.388571 L1159,74.6114286 C1159,61.5371429 1148.10736,55 1137.42025,55 C1126.52761,55 1115.84049,61.5371429 1115.84049,74.6114286 L1115.83954,119.30082 C1115.83478,119.820992 1115.80624,119.962857 1115.63497,119.962857 C1115.42945,119.962857 1115.0184,119.758571 1114.60736,119.145714 L1061.78834,60.3114286 C1058.29448,56.2257143 1052.12883,55 1046.57975,55 C1035.68712,55 1025,61.5371429 1025,74.6114286 L1025,178.388571 C1025,191.462857 1035.68712,198 1046.57975,198 C1057.26687,198 1068.15951,191.462857 1068.15951,178.388571 L1068.15951,133.854286 C1068.15951,133.037143 1068.15951,132.832857 1068.36503,132.832857 C1068.57055,132.832857 1068.9816,133.037143 1069.39264,133.65 L1122.00613,192.892857 C1125.5,196.978571 1131.66564,198 1137.42025,198 Z M1122.94366,188 C1122.73944,188 1122.12676,187.794629 1121.71831,187.178515 L1064.53521,122.075829 C1062.49296,119.816746 1060.04225,113.244866 1060.04225,108.93207 C1060.04225,105.440758 1056.3662,103.592417 1052.89437,103.592417 C1049.21831,103.592417 1045.74648,105.440758 1045.74648,108.93207 L1045.74648,165.409163 C1045.74648,167.873618 1044.92958,168.28436 1043.29577,169.105845 C1037.98592,171.5703 1033.90141,175.266983 1032.26761,181.017378 C1032.06338,181.838863 1031.4507,182.865719 1030.6338,182.865719 C1029.8169,182.865719 1029,181.633491 1029,178.347551 L1029,74.0189573 C1029,63.3396524 1037.78169,58 1046.76761,58 C1048.80986,58 1051.05634,58.4107425 1053.09859,59.0268562 C1054.11972,59.4375987 1054.73239,60.0537125 1054.73239,60.6698262 C1054.73239,61.28594 1054.32394,61.6966825 1053.50704,62.107425 C1049.42254,63.9557662 1046.15493,67.4470774 1046.15493,72.1706161 C1046.15493,74.4296998 1047.38028,77.3048973 1049.62676,79.563981 L1117.42958,156.372828 C1118.4507,157.605055 1119.67606,158.015798 1120.90141,158.015798 C1125.19014,158.015798 1129.07042,153.908373 1129.07042,150.006319 C1129.07042,148.979463 1128.8662,147.747235 1128.0493,146.92575 C1120.28873,138.094787 1119.26761,129.674566 1119.26761,124.129542 L1119.26761,74.0189573 C1119.26761,63.3396524 1128.0493,58 1137.03521,58 C1139.07746,58 1141.32394,58.4107425 1143.3662,59.0268562 C1144.38732,59.4375987 1145,60.0537125 1145,60.6698262 C1145,61.28594 1144.59155,61.6966825 1143.77465,62.107425 C1139.48592,63.9557662 1136.01408,67.8578199 1136.01408,74.0189573 L1136.01408,166.230648 C1135.60563,168.695103 1134.99296,169.311216 1133.35915,170.132701 C1127.43662,173.21327 1123.35211,178.963665 1123.35211,186.973144 C1123.35211,187.589258 1123.35211,188 1122.94366,188 Z M1258.8202,198 C1271.47071,198 1278,187.785714 1278,177.571429 C1278,167.357143 1271.47071,157.142857 1258.8202,157.142857 L1220.86869,157.142857 C1220.25657,157.142857 1219.84848,156.734286 1219.84848,156.121429 L1219.84848,147.95 C1219.84848,147.337143 1220.25657,146.928571 1220.86869,146.928571 L1254.73939,146.928571 C1267.3899,146.928571 1273.91919,136.714286 1273.91919,126.5 C1273.91919,116.285714 1267.3899,106.071429 1254.73939,106.071429 L1220.86869,106.071429 C1220.25657,106.071429 1219.84848,105.662857 1219.84848,105.05 L1219.84848,96.8785714 C1219.84848,96.2657143 1220.25657,95.8571429 1220.86869,95.8571429 L1258.8202,95.8571429 C1271.47071,95.8571429 1278,85.6428571 1278,75.4285714 C1278,65.2142857 1271.47071,55 1258.8202,55 L1198.42424,55 C1187.6101,55 1177,61.5371429 1177,74.6114286 L1177,178.388571 C1177,191.462857 1187.6101,198 1198.42424,198 L1258.8202,198 Z M1183.0719,185 C1181.84314,185 1180,181.523349 1180,177.84219 L1180,73.9516908 C1180,63.3172303 1188.8061,58 1197.81699,58 L1258.43573,58 C1268.67538,58 1274,66.3848631 1274,74.7697262 C1274,80.2914654 1271.74728,82.1320451 1270.31373,82.1320451 C1269.69935,82.1320451 1269.28976,81.9275362 1269.08497,81.5185185 C1266.01307,76.610306 1260.68845,72.7246377 1253.11111,72.7246377 L1207.23747,72.7246377 C1202.32244,72.7246377 1196.79303,77.0193237 1196.79303,81.1095008 L1196.79303,108.922705 C1196.79303,113.4219 1199.04575,115.466989 1202.32244,115.466989 C1207.85185,115.466989 1209.08061,109.127214 1215.42919,109.127214 L1254.33987,109.127214 C1264.57952,109.127214 1269.90414,117.512077 1269.90414,125.89694 C1269.90414,131.41868 1267.65142,133.259259 1266.21786,133.259259 C1265.60349,133.259259 1265.1939,133.05475 1264.98911,132.645733 C1261.91721,127.73752 1256.59259,123.851852 1249.01525,123.851852 L1207.23747,123.851852 C1202.32244,123.851852 1196.79303,128.146538 1196.79303,132.236715 L1196.79303,160.049919 C1196.79303,164.549114 1199.04575,166.594203 1202.32244,166.594203 C1207.85185,166.594203 1209.08061,160.254428 1215.42919,160.254428 L1258.43573,160.254428 C1268.67538,160.254428 1274,168.639291 1274,177.024155 C1274,182.545894 1271.74728,184.386473 1270.31373,184.386473 C1269.69935,184.386473 1269.28976,184.181965 1269.08497,183.772947 C1266.01307,178.864734 1260.68845,174.979066 1253.11111,174.979066 L1200.27451,174.979066 C1192.08279,174.979066 1186.55338,179.069243 1183.68627,184.590982 C1183.48148,184.795491 1183.27669,185 1183.0719,185 Z M1304.6439,107 C1309.3561,107 1328,93.9090909 1328,74.0681818 C1328,62.4090909 1318.57561,53 1306.89756,53 C1295.21951,53 1286,62.4090909 1286,74.0681818 C1286,82.25 1290.50732,89.2045455 1297.26829,92.6818182 C1300.34146,93.2954545 1297.67805,107 1304.6439,107 Z M1295.83432,88 C1295.62722,88 1295.21302,87.794702 1294.79882,87.589404 C1291.27811,84.7152318 1289,79.7880795 1289,74.4503311 C1289,64.8013245 1296.66272,57 1306.39645,57 C1316.13018,57 1324,64.5960265 1324,74.2450331 C1324,74.6556291 1324,74.8609272 1323.7929,74.8609272 C1323.5858,74.8609272 1323.3787,74.6556291 1322.9645,74.0397351 C1320.47929,70.5496689 1315.92308,67.6754967 1310.53846,67.6754967 C1302.25444,67.6754967 1295.62722,74.4503311 1295.62722,82.6622517 C1295.62722,84.7152318 1296.24852,86.1523179 1296.24852,87.589404 C1296.24852,87.794702 1296.04142,88 1295.83432,88 Z M1373.09227,198 C1398.37124,198 1421,180.028169 1421,153.070423 C1421,107.323944 1372.88841,109.774648 1372.88841,97.7253521 C1372.88841,95.6830986 1374.11159,93.8450704 1376.35408,93.8450704 C1377.16953,93.8450704 1379.81974,94.2535211 1384.10086,97.9295775 C1387.56652,100.992958 1391.23605,102.21831 1395.10944,102.21831 C1405.91416,102.21831 1416.51502,91.5985915 1416.51502,80.9788732 C1416.51502,77.5070423 1415.29185,73.8309859 1412.64163,70.7676056 C1400.61373,56.8802817 1389.19742,53 1376.35408,53 C1349.85193,53 1332.11588,71.584507 1332.11588,97.7253521 C1332.11588,145.71831 1379.41202,139.387324 1379.41202,153.070423 C1379.41202,155.521127 1376.7618,157.15493 1373.09227,157.15493 C1369.62661,157.15493 1364.73391,151.232394 1358.41416,144.492958 C1355.15236,141.021127 1351.27897,140.204225 1347.40558,140.204225 C1336.60086,140.204225 1326,150.823944 1326,161.443662 C1326,164.915493 1326.40773,168.387324 1328.85408,171.65493 C1339.86266,186.15493 1353.11373,198 1373.09227,198 Z M1372.08537,175 C1361.09756,175 1352.59756,167.230241 1346.37805,158.642612 C1343.68293,154.962199 1339.12195,154.348797 1335.18293,154.348797 C1333.52439,154.348797 1332.07317,154.757732 1330.82927,154.757732 C1330.20732,154.757732 1330,154.553265 1330,154.14433 C1330,153.735395 1330.20732,153.121993 1330.62195,152.304124 C1333.73171,147.19244 1339.95122,143.30756 1345.96341,143.30756 C1349.07317,143.30756 1352.18293,143.920962 1354.46341,146.37457 C1362.96341,155.575601 1367.52439,160.278351 1372.08537,160.278351 C1377.89024,160.278351 1382.2439,157.21134 1382.2439,152.508591 C1382.2439,145.556701 1375.19512,142.489691 1366.4878,138.809278 C1353.42683,133.493127 1334.14634,124.087629 1334.14634,97.0979381 C1334.14634,73.1752577 1350.73171,56 1375.40244,56 C1377.47561,56 1379.7561,56 1382.03659,56.4089347 C1383.07317,56.6134021 1383.69512,56.8178694 1383.69512,57.4312715 C1383.69512,57.8402062 1383.28049,58.4536082 1382.65854,59.2714777 C1381,61.7250859 1380.37805,63.9742268 1380.37805,66.8367698 C1380.37805,69.6993127 1381.41463,72.766323 1383.90244,75.2199313 C1384.10976,75.628866 1384.31707,76.0378007 1384.31707,76.4467354 C1384.31707,76.8556701 1384.10976,77.2646048 1384.10976,77.6735395 C1383.28049,79.9226804 1382.86585,82.1718213 1382.86585,84.6254296 C1382.86585,86.4656357 1383.07317,88.5103093 1383.69512,90.3505155 C1383.90244,91.1683849 1384.10976,91.5773196 1384.10976,91.9862543 C1384.10976,92.395189 1383.90244,92.5996564 1383.69512,92.5996564 C1383.4878,92.5996564 1383.07317,92.5996564 1382.86585,92.395189 C1381.41463,91.5773196 1379.96341,90.7594502 1378.92683,90.3505155 C1377.89024,89.9415808 1377.68293,88.5103093 1377.26829,87.4879725 C1374.78049,81.5584192 1368.35366,76.8556701 1362.13415,76.8556701 C1352.39024,76.8556701 1349.07317,89.7371134 1349.07317,97.0979381 C1349.07317,115.908935 1360.47561,120.816151 1375.81707,127.563574 C1384.73171,131.448454 1398,137.17354 1398,152.508591 C1398,166.003436 1385.76829,175 1372.08537,175 Z" id="SMITTYTONE’S"></path>
            <path d="M233.092275,438 C258.371245,438 281,420.028169 281,393.070423 C281,347.323944 232.888412,349.774648 232.888412,337.725352 C232.888412,335.683099 234.111588,333.84507 236.354077,333.84507 C237.169528,333.84507 239.819742,334.253521 244.100858,337.929577 C247.566524,340.992958 251.236052,342.21831 255.109442,342.21831 C265.914163,342.21831 276.515021,331.598592 276.515021,320.978873 C276.515021,317.507042 275.291845,313.830986 272.641631,310.767606 C260.613734,296.880282 249.197425,293 236.354077,293 C209.851931,293 192.11588,311.584507 192.11588,337.725352 C192.11588,385.71831 239.412017,379.387324 239.412017,393.070423 C239.412017,395.521127 236.761803,397.15493 233.092275,397.15493 C229.626609,397.15493 224.733906,391.232394 218.414163,384.492958 C215.152361,381.021127 211.27897,380.204225 207.405579,380.204225 C196.600858,380.204225 186,390.823944 186,401.443662 C186,404.915493 186.407725,408.387324 188.854077,411.65493 C199.862661,426.15493 213.113734,438 233.092275,438 Z M233.466463,415 C222.640244,415 214.265244,407.230241 208.137195,398.642612 C205.481707,394.962199 200.987805,394.348797 197.106707,394.348797 C195.472561,394.348797 194.042683,394.757732 192.817073,394.757732 C192.204268,394.757732 192,394.553265 192,394.14433 C192,393.735395 192.204268,393.121993 192.612805,392.304124 C195.676829,387.19244 201.804878,383.30756 207.728659,383.30756 C210.792683,383.30756 213.856707,383.920962 216.103659,386.37457 C224.478659,395.575601 228.972561,400.278351 233.466463,400.278351 C239.185976,400.278351 243.47561,397.21134 243.47561,392.508591 C243.47561,385.556701 236.530488,382.489691 227.95122,378.809278 C215.082317,373.493127 196.085366,364.087629 196.085366,337.097938 C196.085366,313.175258 212.426829,296 236.734756,296 C238.777439,296 241.02439,296 243.271341,296.408935 C244.292683,296.613402 244.905488,296.817869 244.905488,297.431271 C244.905488,297.840206 244.496951,298.453608 243.884146,299.271478 C242.25,301.725086 241.637195,303.974227 241.637195,306.83677 C241.637195,309.699313 242.658537,312.766323 245.109756,315.219931 C245.314024,315.628866 245.518293,316.037801 245.518293,316.446735 C245.518293,316.85567 245.314024,317.264605 245.314024,317.67354 C244.496951,319.92268 244.088415,322.171821 244.088415,324.62543 C244.088415,326.465636 244.292683,328.510309 244.905488,330.350515 C245.109756,331.168385 245.314024,331.57732 245.314024,331.986254 C245.314024,332.395189 245.109756,332.599656 244.905488,332.599656 C244.70122,332.599656 244.292683,332.599656 244.088415,332.395189 C242.658537,331.57732 241.228659,330.75945 240.207317,330.350515 C239.185976,329.941581 238.981707,328.510309 238.573171,327.487973 C236.121951,321.558419 229.789634,316.85567 223.661585,316.85567 C214.060976,316.85567 210.792683,329.737113 210.792683,337.097938 C210.792683,355.908935 222.027439,360.816151 237.143293,367.563574 C245.926829,371.448454 259,377.17354 259,392.508591 C259,406.003436 246.948171,415 233.466463,415 Z M366.5,440 C408.127027,440 442,407.129167 442,366.5 C442,325.870833 408.127027,293 366.5,293 C324.872973,293 291,325.870833 291,366.5 C291,407.129167 324.872973,440 366.5,440 Z M365.808511,417 C356.602291,417 346.986907,415.160473 337.576105,409.028716 C334.711948,407.189189 331.438625,406.16723 328.369885,406.16723 C323.664484,406.16723 318.140753,409.233108 315.685761,413.116554 C315.276596,413.72973 314.86743,414.138514 314.458265,414.138514 C314.0491,414.138514 313.435352,413.72973 312.821604,413.116554 C300.95581,400.853041 294,384.297297 294,365.902027 C294,327.271959 326.324059,296 366.013093,296 C376.855974,296 386.880524,298.452703 396.291326,302.540541 C397.518822,302.949324 398.13257,303.5625 398.13257,304.175676 C398.13257,304.380068 397.927987,304.584459 397.723404,304.788851 C394.450082,307.445946 392.199673,311.533784 392.199673,315.621622 C392.199673,318.891892 393.631751,321.95777 397.109656,324.614865 C409.793781,334.630068 419,347.302365 419,365.902027 C419,394.108108 395.06383,417 365.808511,417 Z M366.84375,402 C386.75,402 403,384.731377 403,365.837472 C403,351.006772 392.640625,337.598194 379.640625,333.941309 C378.421875,333.331828 378.015625,332.722348 378.015625,331.909707 C378.015625,331.503386 378.21875,330.893905 378.421875,330.284424 C381.46875,326.8307 383.09375,323.783296 383.09375,320.939052 C383.09375,315.656885 377.8125,312 366.84375,312 C336.578125,312 312,335.566591 312,364.82167 C312,377.823928 315.453125,384.731377 320.328125,392.857788 C321.953125,395.498871 324.59375,396.717833 327.234375,396.717833 C331.703125,396.717833 336.375,393.670429 337.59375,389.607223 C337.796875,388.794582 338.203125,388.591422 338.609375,388.591422 C339.015625,388.591422 339.625,388.997743 340.234375,389.607223 C347.140625,396.920993 356.6875,402 366.84375,402 Z M366.5,399 C348.625,399 334,383.351613 334,366.483871 C334,349.616129 348.625,336 366.5,336 C384.375,336 399,349.616129 399,366.483871 C399,383.351613 384.375,399 366.5,399 Z M476.511156,438 C487.1643,438 498.022312,431.462857 498.022312,418.388571 L498.022312,387.95 C498.022312,387.337143 498.432049,386.928571 499.046653,386.928571 L532.64503,386.928571 C545.346856,386.928571 551.902637,376.714286 551.902637,366.5 C551.902637,356.285714 545.346856,346.071429 532.64503,346.071429 L499.046653,346.071429 C498.432049,346.071429 498.022312,345.662857 498.022312,345.05 L498.022312,336.878571 C498.022312,336.265714 498.432049,335.857143 499.046653,335.857143 L536.742394,335.857143 C549.444219,335.857143 556,325.642857 556,315.428571 C556,305.214286 549.444219,295 536.742394,295 L476.511156,295 C465.653144,295 455,301.537143 455,314.611429 L455,418.388571 C455,431.462857 465.653144,438 476.511156,438 Z M460.628009,423 C459.814004,423 459,421.776316 459,418.513158 L459,314.907895 C459,304.302632 467.750547,299 476.704595,299 L536.533917,299 C546.708972,299 552,307.361842 552,315.723684 C552,321.230263 549.761488,323.065789 548.33698,323.065789 C547.726477,323.065789 547.319475,322.861842 547.115974,322.453947 C544.063457,317.559211 538.772429,313.684211 531.242888,313.684211 L486.065646,313.684211 C481.181619,313.684211 475.68709,317.967105 475.68709,322.046053 L475.68709,349.782895 C475.68709,354.269737 477.925602,356.309211 481.181619,356.309211 C486.676149,356.309211 487.897155,349.986842 494.205689,349.986842 L532.463895,349.986842 C542.63895,349.986842 547.929978,358.348684 547.929978,366.710526 C547.929978,372.217105 545.691466,374.052632 544.266958,374.052632 C543.656455,374.052632 543.249453,373.848684 543.045952,373.440789 C539.993435,368.546053 534.702407,364.671053 527.172867,364.671053 L486.065646,364.671053 C481.181619,364.671053 475.68709,368.953947 475.68709,373.032895 L475.68709,405.664474 C475.68709,408.111842 474.873085,408.519737 473.245077,409.335526 C467.954048,411.782895 463.884026,415.453947 462.256018,421.164474 C462.052516,421.980263 461.442013,423 460.628009,423 Z M625,438 C635.573333,438 646.35,431.462857 646.35,418.388571 L646.35,336.878571 C646.35,336.265714 646.756667,335.857143 647.366667,335.857143 L666.886667,335.857143 C679.493333,335.857143 686,325.642857 686,315.428571 C686,305.214286 679.493333,295 666.886667,295 L583.113333,295 C570.506667,295 564,305.214286 564,315.428571 C564,325.642857 570.506667,335.857143 583.113333,335.857143 L602.633333,335.857143 C603.243333,335.857143 603.65,336.265714 603.65,336.878571 L603.65,418.388571 C603.65,431.462857 614.223333,438 625,438 Z M608.391844,423 C607.576241,423 606.760638,421.776316 606.760638,418.513158 L606.760638,337.138158 C606.760638,326.940789 615.120567,326.736842 615.120567,320.414474 C615.120567,314.296053 609.003546,313.888158 605.129433,313.684211 L587.797872,313.684211 C580.253546,313.684211 574.952128,317.559211 571.893617,322.453947 C571.689716,322.861842 571.281915,323.065789 570.670213,323.065789 C569.242908,323.065789 567,321.230263 567,315.723684 C567,307.361842 572.301418,299 582.496454,299 L666.503546,299 C676.698582,299 682,307.361842 682,315.723684 C682,321.230263 679.757092,323.065789 678.329787,323.065789 C677.718085,323.065789 677.310284,322.861842 677.106383,322.453947 C674.047872,317.559211 668.746454,313.684211 661.202128,313.684211 L638.77305,313.684211 C631.024823,313.684211 623.480496,318.171053 623.480496,327.144737 L623.480496,405.664474 C623.480496,408.111842 622.664894,408.519737 621.033688,409.335526 C615.73227,411.782895 611.654255,415.453947 610.02305,421.164474 C609.819149,421.980263 609.207447,423 608.391844,423 Z M822.485849,438 C831.666274,438 840.23467,430.237143 844.314858,413.894286 L868.387972,319.514286 C868.795991,317.88 869,316.245714 869,314.611429 C869,302.15 856.555425,295 846.150943,295 C837.582547,295 829.42217,299.494286 826.770047,309.708571 L816.569575,349.748571 C816.365566,350.77 816.161557,351.178571 815.957547,351.178571 C815.753538,351.178571 815.345519,350.77 814.9375,349.748571 L801.676887,320.74 C798.004717,312.568571 791.068396,309.708571 782.5,309.708571 C774.543632,309.708571 767.199292,312.16 763.323113,320.74 L750.0625,349.748571 C749.654481,350.77 749.246462,351.178571 749.042453,351.178571 C748.838443,351.178571 748.634434,350.77 748.430425,349.748571 L738.229953,309.708571 C735.57783,299.494286 727.417453,295 718.849057,295 C708.444575,295 696,302.15 696,314.611429 C696,316.245714 696.204009,317.88 696.612028,319.514286 L720.685142,413.894286 C724.76533,430.237143 733.333726,438 742.514151,438 C751.082547,438 760.058962,431.054286 765.975236,417.98 L781.683962,383.66 C781.887972,383.047143 782.295991,382.638571 782.5,382.638571 C782.704009,382.638571 782.908019,383.047143 783.316038,383.66 L799.024764,417.98 C804.941038,431.054286 813.917453,438 822.485849,438 Z M806.749319,425 C806.340599,425 805.93188,424.796117 805.523161,423.980583 C804.092643,421.941748 802.662125,419.495146 801.435967,416.640777 L782.839237,376.679612 C781.613079,373.825243 781,370.970874 781,368.116505 C781,359.145631 786.517711,351.194175 790.400545,351.194175 C791.626703,351.194175 792.648501,351.805825 793.26158,353.436893 L807.771117,384.834951 C808.792916,386.873786 810.427793,387.68932 812.47139,387.68932 C815.945504,387.68932 821.258856,384.834951 821.258856,380.757282 C821.258856,374.640777 816.558583,371.378641 816.558583,363.834951 C816.558583,362.203883 816.762943,360.368932 817.376022,358.126214 L829.433243,310.825243 C831.476839,302.669903 838.220708,299 845.373297,299 C848.438692,299 851.912807,299.815534 854.978202,301.242718 C855.79564,301.650485 856,302.058252 856,302.466019 C856,303.07767 855.386921,303.68932 854.773842,303.893204 C851.095368,304.708738 847.621253,307.970874 846.190736,312.048544 L821.871935,407.058252 C821.463215,408.281553 820.237057,409.097087 819.215259,409.504854 C813.084469,411.951456 808.588556,417.048544 807.566757,423.980583 C807.362398,424.796117 807.158038,425 806.749319,425 Z M726.197753,420 C725.788764,420 725.58427,419.59129 725.175281,418.773869 L699.408989,318.026801 C699.204494,317.005025 699,315.574539 699,313.939698 C699,303.721943 709.429213,298 718.222472,298 C720.062921,298 721.085393,298.204355 722.721348,298.613065 C724.152809,299.021776 724.766292,299.839196 724.766292,300.656616 C724.766292,301.269682 724.357303,301.882747 723.74382,302.291457 C719.449438,304.539363 715.973034,308.0134 715.973034,313.939698 C715.973034,314.552764 716.177528,316.187605 716.382022,316.80067 L732.946067,382.80737 C733.559551,385.259631 735.808989,386.281407 738.467416,386.281407 C741.739326,386.281407 746.851685,384.646566 746.851685,380.355109 C746.851685,374.837521 745.420225,372.79397 745.420225,369.728643 C745.420225,367.889447 745.829213,365.641541 747.465169,362.167504 L766.074157,321.500838 C769.141573,314.757119 775.276404,312.713568 782.024719,312.713568 C784.069663,312.713568 786.319101,312.917923 788.364045,313.530988 C789.386517,313.939698 790,314.757119 790,315.370184 C790,315.98325 789.591011,316.39196 788.773034,316.80067 C786.319101,317.822446 785.501124,319.252931 784.274157,321.909548 L746.033708,405.695142 C745.624719,406.716918 743.375281,407.329983 743.170787,407.329983 C735.808989,408.760469 729.674157,412.643216 727.424719,418.773869 C727.01573,419.59129 726.606742,420 726.197753,420 Z M982.572816,438 C993.174757,438 1005,429.011429 1005,417.162857 C1005,414.302857 1004.38835,411.238571 1002.75728,408.174286 L950.970874,305.622857 C947.504854,298.677143 939.349515,295 931.194175,295 C923.446602,295 915.699029,298.268571 912.029126,305.622857 L860.242718,408.174286 C858.815534,411.238571 858,414.098571 858,416.958571 C858,427.99 869.009709,438 880.427184,438 C886.747573,438 892.660194,434.731429 896.330097,427.581429 L903.058252,414.302857 C904.07767,412.055714 905.912621,411.442857 907.951456,411.442857 L955.048544,411.442857 C957.087379,411.442857 958.92233,412.055714 959.941748,414.302857 L966.669903,427.581429 C970.135922,434.322857 976.048544,438 982.572816,438 Z M863.225933,418 C862.408644,418 862,415.952218 862,414.313993 C862,413.699659 862.204322,413.085324 862.204322,412.675768 C862.408644,411.651877 862.817289,410.423208 863.430255,409.399317 L915.328094,306.600683 C918.392927,300.662116 924.726916,298 931.265226,298 C933.717092,298 936.168959,298.409556 938.416503,299.228669 C938.825147,299.433447 939.02947,299.638225 939.02947,299.843003 C939.02947,300.25256 938.620825,300.662116 938.212181,300.866894 C933.921415,303.938567 931.265226,307.419795 931.265226,312.539249 C931.265226,314.382253 931.67387,316.430034 932.695481,318.477816 L965.591356,383.802048 C965.795678,384.416382 966,385.030717 966,385.440273 C966,387.078498 964.774067,388.511945 963.139489,388.511945 L901.02554,388.511945 C895.917485,388.511945 890.605108,390.354949 887.948919,395.883959 L884.475442,403.460751 C883.862475,404.68942 882.840864,406.532423 880.797642,406.532423 C874.667976,406.532423 868.53831,410.013652 864.247544,416.976109 C863.8389,417.590444 863.430255,418 863.225933,418 Z M907.61244,379 C909.669856,379 911.727273,378.179916 913.373206,376.539749 C916.253589,373.669456 919.339713,371.619247 920.779904,371.619247 L941.971292,371.619247 C942.588517,371.619247 943,371.209205 943,370.799163 C943,370.594142 942.794258,370.1841 942.588517,369.774059 C931.066986,348.041841 930.861244,346.401674 930.861244,344.761506 C930.861244,342.506276 931.066986,340.046025 931.272727,337.995816 C931.272727,333.690377 927.77512,330 923.043062,330 C920.985646,330 919.133971,330.820084 918.311005,332.665272 L900.411483,370.389121 C900.205742,371.004184 900,371.619247 900,372.23431 C900,375.719665 903.909091,379 907.61244,379 Z M936.380588,367.999804 L927.784314,368 C927.196078,368 927,368 927,367.803922 C927,367.607843 927,367.411765 927.196078,367.215686 L931.509804,358.588235 C931.705882,358.196078 931.705882,358 931.901961,358 C931.901961,358 932.098039,358.196078 932.294118,358.588235 L936.803922,367.215686 C937,367.411765 937,367.607843 937,367.803922 C937,367.980392 936.841176,367.998039 936.380588,367.999804 Z M967.625,420 C967.25,420 967.04375,419.67 966.7025,419.01 L962.208333,410.222222 C962,410.018519 962,409.407407 962,409 C962,407.981481 962.208333,406.962963 962.833333,405.944444 C964.916667,402.685185 967.833333,400.037037 971.583333,398.203704 C972,398 972.208333,398 972.416667,398 C973.041667,398 973.25,398.407407 973.458333,398.814815 L976.791667,405.537037 C977,405.944444 977,406.148148 977,406.555556 C977,407.166667 976.791667,407.777778 976.166667,408.185185 C972.833333,410.833333 970.333333,413.888889 968.875,417.962963 C968.458333,419.388889 968.041667,420 967.625,420 Z M1102.3221,438 C1114.16105,438 1126,427.377143 1126,415.732857 C1126,412.055714 1124.77528,407.97 1121.9176,404.292857 L1099.46442,374.467143 C1099.2603,374.262857 1099.2603,374.058571 1099.2603,373.854286 C1099.2603,373.445714 1099.66854,372.832857 1099.87266,372.628571 C1107.62921,364.457143 1112.52809,353.425714 1112.52809,341.168571 C1112.52809,315.837143 1091.50375,295 1065.78464,295 L1038.43258,295 C1027.61423,295 1017,301.537143 1017,314.611429 L1017,418.388571 C1017,431.462857 1027.61423,438 1038.43258,438 C1049.04682,438 1059.86517,431.462857 1059.86517,418.388571 L1059.86517,396.121429 C1059.86517,394.895714 1060.06929,394.282857 1060.27341,394.282857 C1060.47753,394.282857 1060.88577,394.691429 1061.08989,395.1 L1087.62547,430.237143 C1091.70787,435.752857 1097.01498,438 1102.3221,438 Z M1088.62366,424 C1088.41935,424 1088.01075,423.590909 1087.39785,422.977273 L1061.45161,388.409091 C1059.2043,385.545455 1058.1828,384.113636 1058.1828,381.25 L1058.1828,372.863636 C1058.1828,366.318182 1053.07527,363.045455 1047.96774,363.045455 C1042.86022,363.045455 1037.75269,366.318182 1037.75269,372.863636 L1037.75269,404.977273 C1037.75269,407.431818 1036.93548,407.840909 1035.30108,408.659091 C1029.98925,411.113636 1025.90323,414.795455 1024.26882,420.522727 C1024.06452,421.340909 1023.45161,422.363636 1022.63441,422.363636 C1021.8172,422.363636 1021,421.136364 1021,417.863636 L1021,313.954545 C1021,303.318182 1029.78495,298 1038.77419,298 L1066.15054,298 C1069.82796,298 1073.50538,298.409091 1076.97849,299.431818 C1078.2043,299.840909 1079.02151,300.454545 1079.02151,301.068182 C1079.02151,301.272727 1078.8172,301.477273 1078.6129,301.681818 C1075.34409,304.340909 1073.70968,307.613636 1073.70968,311.704545 C1073.70968,315.181818 1075.13978,318.454545 1078,319.886364 C1085.15054,323.568182 1090.46237,331.75 1090.46237,340.545455 C1090.46237,353.022727 1080.45161,362.636364 1071.05376,363.863636 C1069.41935,364.068182 1068.60215,365.704545 1068.60215,367.340909 C1068.60215,368.772727 1069.21505,370.409091 1070.03226,371.431818 L1095.97849,406.409091 C1096.5914,407.431818 1097,407.840909 1097,408.454545 C1097,409.272727 1096.5914,409.886364 1095.77419,410.704545 C1091.89247,414.386364 1089.23656,420.522727 1089.23656,422.772727 C1089.23656,423.386364 1089.03226,424 1088.62366,424 Z M1044.15054,356 C1052.11828,356 1051.30108,349.306604 1056.4086,349.306604 L1065.39785,349.306604 C1070.70968,349.306604 1075,345.45283 1075,340.584906 C1075,336.528302 1072.13978,333.283019 1068.05376,332.066038 C1067.23656,331.863208 1067.03226,331.457547 1067.03226,331.051887 C1067.03226,330.646226 1067.23656,330.037736 1067.44086,329.834906 C1068.46237,328.009434 1068.66667,326.589623 1068.66667,324.15566 C1068.66667,318.679245 1065.39785,313 1059.26882,313 L1048.23656,313 C1042.51613,313 1037,316.245283 1037,322.330189 L1037,350.726415 C1037,354.174528 1040.47312,356 1044.15054,356 Z M1066,346 L1061.03448,346 C1060.41379,346 1060,345.607843 1060,345.019608 L1060,336.980392 C1060,336.392157 1060.41379,336 1061.03448,336 L1066,336 C1069.31034,336 1072,338.352941 1072,341.098039 C1072,343.843137 1069.31034,346 1066,346 Z M1217.8202,438 C1230.47071,438 1237,427.785714 1237,417.571429 C1237,407.357143 1230.47071,397.142857 1217.8202,397.142857 L1179.86869,397.142857 C1179.25657,397.142857 1178.84848,396.734286 1178.84848,396.121429 L1178.84848,387.95 C1178.84848,387.337143 1179.25657,386.928571 1179.86869,386.928571 L1213.73939,386.928571 C1226.3899,386.928571 1232.91919,376.714286 1232.91919,366.5 C1232.91919,356.285714 1226.3899,346.071429 1213.73939,346.071429 L1179.86869,346.071429 C1179.25657,346.071429 1178.84848,345.662857 1178.84848,345.05 L1178.84848,336.878571 C1178.84848,336.265714 1179.25657,335.857143 1179.86869,335.857143 L1217.8202,335.857143 C1230.47071,335.857143 1237,325.642857 1237,315.428571 C1237,305.214286 1230.47071,295 1217.8202,295 L1157.42424,295 C1146.6101,295 1136,301.537143 1136,314.611429 L1136,418.388571 C1136,431.462857 1146.6101,438 1157.42424,438 L1217.8202,438 Z M1142.0719,425 C1140.84314,425 1139,421.523349 1139,417.84219 L1139,313.951691 C1139,303.31723 1147.8061,298 1156.81699,298 L1217.43573,298 C1227.67538,298 1233,306.384863 1233,314.769726 C1233,320.291465 1230.74728,322.132045 1229.31373,322.132045 C1228.69935,322.132045 1228.28976,321.927536 1228.08497,321.518519 C1225.01307,316.610306 1219.68845,312.724638 1212.11111,312.724638 L1166.23747,312.724638 C1161.32244,312.724638 1155.79303,317.019324 1155.79303,321.109501 L1155.79303,348.922705 C1155.79303,353.4219 1158.04575,355.466989 1161.32244,355.466989 C1166.85185,355.466989 1168.08061,349.127214 1174.42919,349.127214 L1213.33987,349.127214 C1223.57952,349.127214 1228.90414,357.512077 1228.90414,365.89694 C1228.90414,371.41868 1226.65142,373.259259 1225.21786,373.259259 C1224.60349,373.259259 1224.1939,373.05475 1223.98911,372.645733 C1220.91721,367.73752 1215.59259,363.851852 1208.01525,363.851852 L1166.23747,363.851852 C1161.32244,363.851852 1155.79303,368.146538 1155.79303,372.236715 L1155.79303,400.049919 C1155.79303,404.549114 1158.04575,406.594203 1161.32244,406.594203 C1166.85185,406.594203 1168.08061,400.254428 1174.42919,400.254428 L1217.43573,400.254428 C1227.67538,400.254428 1233,408.639291 1233,417.024155 C1233,422.545894 1230.74728,424.386473 1229.31373,424.386473 C1228.69935,424.386473 1228.28976,424.181965 1228.08497,423.772947 C1225.01307,418.864734 1219.68845,414.979066 1212.11111,414.979066 L1159.27451,414.979066 C1151.08279,414.979066 1145.55338,419.069243 1142.68627,424.590982 C1142.48148,424.795491 1142.27669,425 1142.0719,425 Z" id="SOFTWARE"></path>
            <path d="M445.587983,678 C471.133047,678 494,659.780282 494,632.450704 C494,586.073239 445.381974,588.557746 445.381974,576.342254 C445.381974,574.271831 446.618026,572.408451 448.88412,572.408451 C449.708155,572.408451 452.386266,572.822535 456.712446,576.549296 C460.214592,579.65493 463.922747,580.897183 467.83691,580.897183 C478.755365,580.897183 489.467811,570.130986 489.467811,559.364789 C489.467811,555.84507 488.23176,552.11831 485.553648,549.012676 C473.399142,534.933803 461.862661,531 448.88412,531 C422.103004,531 404.180258,549.840845 404.180258,576.342254 C404.180258,624.997183 451.974249,618.578873 451.974249,632.450704 C451.974249,634.935211 449.296137,636.591549 445.587983,636.591549 C442.085837,636.591549 437.141631,630.587324 430.755365,623.75493 C427.459227,620.235211 423.545064,619.407042 419.630901,619.407042 C408.712446,619.407042 398,630.173239 398,640.939437 C398,644.459155 398.412017,647.978873 400.88412,651.291549 C412.008584,665.991549 425.399142,678 445.587983,678 Z M446.085366,655 C435.097561,655 426.597561,647.164948 420.378049,638.505155 C417.682927,634.793814 413.121951,634.175258 409.182927,634.175258 C407.52439,634.175258 406.073171,634.587629 404.829268,634.587629 C404.207317,634.587629 404,634.381443 404,633.969072 C404,633.556701 404.207317,632.938144 404.621951,632.113402 C407.731707,626.958763 413.95122,623.041237 419.963415,623.041237 C423.073171,623.041237 426.182927,623.659794 428.463415,626.134021 C436.963415,635.412371 441.52439,640.154639 446.085366,640.154639 C451.890244,640.154639 456.243902,637.061856 456.243902,632.319588 C456.243902,625.309278 449.195122,622.216495 440.487805,618.505155 C427.426829,613.14433 408.146341,603.659794 408.146341,576.443299 C408.146341,552.319588 424.731707,535 449.402439,535 C451.47561,535 453.756098,535 456.036585,535.412371 C457.073171,535.618557 457.695122,535.824742 457.695122,536.443299 C457.695122,536.85567 457.280488,537.474227 456.658537,538.298969 C455,540.773196 454.378049,543.041237 454.378049,545.927835 C454.378049,548.814433 455.414634,551.907216 457.902439,554.381443 C458.109756,554.793814 458.317073,555.206186 458.317073,555.618557 C458.317073,556.030928 458.109756,556.443299 458.109756,556.85567 C457.280488,559.123711 456.865854,561.391753 456.865854,563.865979 C456.865854,565.721649 457.073171,567.783505 457.695122,569.639175 C457.902439,570.463918 458.109756,570.876289 458.109756,571.28866 C458.109756,571.701031 457.902439,571.907216 457.695122,571.907216 C457.487805,571.907216 457.073171,571.907216 456.865854,571.701031 C455.414634,570.876289 453.963415,570.051546 452.926829,569.639175 C451.890244,569.226804 451.682927,567.783505 451.268293,566.752577 C448.780488,560.773196 442.353659,556.030928 436.134146,556.030928 C426.390244,556.030928 423.073171,569.020619 423.073171,576.443299 C423.073171,595.412371 434.47561,600.360825 449.817073,607.164948 C458.731707,611.082474 472,616.85567 472,632.319588 C472,645.927835 459.768293,655 446.085366,655 Z M561,678 C571.746667,678 582.7,671.371429 582.7,658.114286 L582.7,575.464286 C582.7,574.842857 583.113333,574.428571 583.733333,574.428571 L603.573333,574.428571 C616.386667,574.428571 623,564.071429 623,553.714286 C623,543.357143 616.386667,533 603.573333,533 L518.426667,533 C505.613333,533 499,543.357143 499,553.714286 C499,564.071429 505.613333,574.428571 518.426667,574.428571 L538.266667,574.428571 C538.886667,574.428571 539.3,574.842857 539.3,575.464286 L539.3,658.114286 C539.3,671.371429 550.046667,678 561,678 Z M545.111702,663 C544.281915,663 543.452128,661.756579 543.452128,658.440789 L543.452128,575.753289 C543.452128,565.391447 551.957447,565.184211 551.957447,558.759868 C551.957447,552.542763 545.734043,552.128289 541.792553,551.921053 L524.159574,551.921053 C516.484043,551.921053 511.090426,555.858553 507.978723,560.832237 C507.771277,561.246711 507.356383,561.453947 506.734043,561.453947 C505.281915,561.453947 503,559.588816 503,553.993421 C503,545.496711 508.393617,537 518.765957,537 L604.234043,537 C614.606383,537 620,545.496711 620,553.993421 C620,559.588816 617.718085,561.453947 616.265957,561.453947 C615.643617,561.453947 615.228723,561.246711 615.021277,560.832237 C611.909574,555.858553 606.515957,551.921053 598.840426,551.921053 L576.021277,551.921053 C568.138298,551.921053 560.462766,556.480263 560.462766,565.598684 L560.462766,645.384868 C560.462766,647.871711 559.632979,648.286184 557.973404,649.115132 C552.579787,651.601974 548.430851,655.332237 546.771277,661.134868 C546.56383,661.963816 545.941489,663 545.111702,663 Z M732.267684,678 C743.01387,678 755,668.885714 755,656.871429 C755,653.971429 754.380028,650.864286 752.726768,647.757143 L700.235784,543.771429 C696.722607,536.728571 688.456311,533 680.190014,533 C672.337032,533 664.48405,536.314286 660.764216,543.771429 L608.273232,647.757143 C606.82663,650.864286 606,653.764286 606,656.664286 C606,667.85 617.159501,678 628.732316,678 C635.138696,678 641.131761,674.685714 644.851595,667.435714 L651.67129,653.971429 C652.704577,651.692857 654.564494,651.071429 656.631068,651.071429 L704.368932,651.071429 C706.435506,651.071429 708.295423,651.692857 709.32871,653.971429 L716.148405,667.435714 C719.661581,674.271429 725.654646,678 732.267684,678 Z M611.237721,658 C610.412574,658 610,655.935154 610,654.283276 C610,653.663823 610.206287,653.044369 610.206287,652.631399 C610.412574,651.598976 610.825147,650.360068 611.444008,649.327645 L663.840864,545.672355 C666.935167,539.6843 673.330059,537 679.931238,537 C682.40668,537 684.882122,537.412969 687.151277,538.238908 C687.563851,538.445392 687.770138,538.651877 687.770138,538.858362 C687.770138,539.271331 687.357564,539.6843 686.94499,539.890785 C682.612967,542.988055 679.931238,546.498294 679.931238,551.66041 C679.931238,553.518771 680.343811,555.583618 681.375246,557.648464 L714.587426,623.517065 C714.793713,624.136519 715,624.755973 715,625.168942 C715,626.820819 713.762279,628.266212 712.111984,628.266212 L649.400786,628.266212 C644.243615,628.266212 638.880157,630.124573 636.198428,635.699659 L632.691552,643.33959 C632.072692,644.578498 631.041257,646.43686 628.978389,646.43686 C622.789784,646.43686 616.601179,649.947099 612.269155,656.967577 C611.856582,657.587031 611.444008,658 611.237721,658 Z M655.61244,618 C657.669856,618 659.727273,617.179916 661.373206,615.539749 C664.253589,612.669456 667.339713,610.619247 668.779904,610.619247 L689.971292,610.619247 C690.588517,610.619247 691,610.209205 691,609.799163 C691,609.594142 690.794258,609.1841 690.588517,608.774059 C679.066986,587.041841 678.861244,585.401674 678.861244,583.761506 C678.861244,581.506276 679.066986,579.046025 679.272727,576.995816 C679.272727,572.690377 675.77512,569 671.043062,569 C668.985646,569 667.133971,569.820084 666.311005,571.665272 L648.411483,609.389121 C648.205742,610.004184 648,610.619247 648,611.23431 C648,614.719665 651.909091,618 655.61244,618 Z M685.318647,607.999784 L675.862745,608 C675.215686,608 675,608 675,607.784314 C675,607.568627 675,607.352941 675.215686,607.137255 L679.960784,597.647059 C680.176471,597.215686 680.176471,597 680.392157,597 C680.392157,597 680.607843,597.215686 680.823529,597.647059 L685.784314,607.137255 C686,607.352941 686,607.568627 686,607.784314 C686,607.978431 685.825294,607.997843 685.318647,607.999784 Z M716.625,660 C716.25,660 716.04375,659.67 715.7025,659.01 L711.208333,650.222222 C711,650.018519 711,649.407407 711,649 C711,647.981481 711.208333,646.962963 711.833333,645.944444 C713.916667,642.685185 716.833333,640.037037 720.583333,638.203704 C721,638 721.208333,638 721.416667,638 C722.041667,638 722.25,638.407407 722.458333,638.814815 L725.791667,645.537037 C726,645.944444 726,646.148148 726,646.555556 C726,647.166667 725.791667,647.777778 725.166667,648.185185 C721.833333,650.833333 719.333333,653.888889 717.875,657.962963 C717.458333,659.388889 717.041667,660 716.625,660 Z M833.40118,680 C855.082596,680 875.938053,671.722222 892.250737,653.097222 C895.554572,649.372222 897,645.026389 897,640.8875 C897,628.263889 884.19764,620.193056 872.427729,620.193056 C867.884956,620.193056 863.548673,622.055556 860.451327,626.194444 C852.811209,636.127778 842.486726,639.645833 833.40118,639.645833 C815.230088,639.645833 800.362832,622.676389 800.362832,605.5 C800.362832,588.323611 815.230088,574.458333 833.40118,574.458333 C842.486726,574.458333 852.811209,577.976389 860.451327,587.909722 C863.548673,592.048611 867.884956,593.911111 872.427729,593.911111 C884.19764,593.911111 897,582.736111 897,570.1125 C897,565.973611 895.554572,561.627778 892.250737,557.902778 C875.938053,539.277778 855.082596,531 833.40118,531 C792.103245,531 757,564.938889 757,605.5 C757,646.061111 792.103245,680 833.40118,680 Z M832.784884,657 C823.453488,657 813.707364,655.130068 804.168605,648.896959 C801.265504,647.027027 797.947674,645.988176 794.837209,645.988176 C790.689922,645.988176 786.542636,647.650338 782.187984,652.844595 C781.773256,653.260135 781.358527,653.675676 780.943798,653.675676 C780.52907,653.675676 780.114341,653.467905 779.492248,652.844595 C767.465116,640.378378 760,623.548986 760,605.057432 C760,566.412162 793.593023,534 832.992248,534 C843.775194,534 854.350775,536.701014 864.096899,540.648649 C865.133721,541.064189 865.54845,541.47973 865.54845,541.89527 C865.54845,542.518581 864.926357,543.141892 864.304264,543.765203 C861.608527,546.258446 859.742248,549.998311 859.742248,553.738176 C859.742248,556.85473 861.193798,560.179054 864.511628,563.087838 C866.792636,564.95777 867,565.581081 867,566.204392 C867,567.035473 866.377907,567.866554 865.963178,568.697635 C864.304264,571.606419 863.474806,573.684122 863.474806,575.969595 C863.474806,578.670608 864.926357,580.956081 864.926357,583.241554 C864.926357,583.864865 864.718992,584.280405 864.304264,584.695946 C863.060078,584.695946 862.23062,583.864865 860.156977,581.787162 C856.424419,577.839527 851.447674,574.307432 846.263566,572.64527 C845.434109,572.4375 844.397287,571.606419 844.397287,570.775338 C844.397287,570.567568 844.604651,570.152027 844.812016,569.736486 C847.922481,566.204392 849.581395,563.087838 849.581395,560.179054 C849.581395,554.777027 844.189922,551.037162 832.992248,551.037162 C802.094961,551.037162 777.003876,575.138514 777.003876,605.057432 C777.003876,618.35473 780.52907,625.418919 785.505814,633.72973 C787.164729,636.430743 789.860465,637.677365 792.556202,637.677365 C797.118217,637.677365 801.887597,634.560811 803.131783,630.405405 C803.339147,629.574324 803.753876,629.366554 804.168605,629.366554 C804.583333,629.366554 805.205426,629.782095 805.827519,630.405405 C812.877907,637.885135 822.624031,643.079392 832.992248,643.079392 C841.908915,643.079392 851.655039,640.170608 860.364341,631.236486 C862.23062,629.366554 863.682171,628.327703 864.304264,628.327703 C864.926357,628.327703 865.133721,629.574324 865.133721,629.782095 C865.133721,631.859797 863.889535,633.9375 863.889535,636.015203 C863.889535,638.300676 865.963178,641.83277 865.963178,644.326014 C865.963178,645.157095 865.755814,645.988176 863.682171,647.650338 C855.802326,654.298986 843.775194,657 832.784884,657 Z M1000.92844,678 C1012.34168,678 1025,668.057143 1025,655.421429 C1025,651.485714 1023.75492,647.342857 1020.64222,643.407143 L985.779964,600.528571 L1016.69946,569.664286 C1020.84973,565.521429 1022.50984,560.757143 1022.50984,556.2 C1022.50984,544.807143 1011.30411,533 999.268336,533 C994.703041,533 989.930233,534.657143 985.779964,538.8 L954.237925,570.285714 C953.615385,570.907143 953.200358,571.321429 952.992844,571.321429 C952.785331,571.321429 952.577818,570.907143 952.577818,570.285714 L952.577818,552.885714 C952.577818,539.628571 941.579606,533 930.788909,533 C919.790698,533 909,539.628571 909,552.885714 L909,658.114286 C909,671.371429 919.790698,678 930.788909,678 C941.579606,678 952.577818,671.371429 952.577818,658.114286 L952.577818,633.671429 C952.577818,632.635714 953.200358,631.185714 954.030411,631.185714 C954.237925,631.185714 954.445438,631.392857 954.652952,631.6 L986.610018,670.957143 C990.760286,675.928571 995.740608,678 1000.92844,678 Z M986.189873,664 C985.983122,664 985.56962,663.587662 984.949367,662.969156 L954.970464,625.858766 C952.696203,620.498377 952.696203,618.436688 952.696203,611.839286 C952.696203,605.654221 946.907173,602.355519 941.324895,602.355519 C935.535865,602.355519 929.953586,605.654221 929.953586,611.839286 L929.953586,644.826299 C929.953586,647.300325 929.126582,647.712662 927.472574,648.537338 C922.097046,651.011364 917.962025,654.722403 916.308017,660.49513 C916.101266,661.319805 915.481013,662.350649 914.654008,662.350649 C913.827004,662.350649 913,661.113636 913,657.814935 L913,553.081169 C913,542.36039 921.890295,537 930.987342,537 C933.054852,537 935.329114,537.412338 937.396624,538.030844 C938.43038,538.443182 939.050633,539.061688 939.050633,539.680195 C939.050633,540.298701 938.637131,540.711039 937.810127,541.123377 C933.468354,543.185065 929.953586,546.896104 929.953586,553.081169 L929.953586,589.779221 C929.953586,593.284091 933.468354,595.13961 937.189873,595.13961 C946.080169,595.13961 945.253165,584.831169 952.2827,577.821429 L988.464135,541.741883 C991.772152,538.443182 995.700422,537 999.21519,537 C1003.14346,537 1007.27848,538.649351 1010.5865,541.329545 C1010.79325,541.535714 1011,541.741883 1011,542.154221 C1011,542.772727 1010.37975,543.803571 1009.75949,544.422078 L963.240506,590.603896 C960.345992,593.077922 958.278481,596.376623 958.278481,599.675325 C958.278481,601.530844 958.898734,603.386364 960.345992,605.241883 L994.046414,646.475649 C994.666667,647.094156 994.873418,647.712662 994.873418,648.331169 C994.873418,649.155844 994.253165,649.774351 993.42616,650.599026 C989.49789,654.310065 986.810127,660.49513 986.810127,662.762987 C986.810127,663.381494 986.603376,664 986.189873,664 Z" id="STACK"></path>
        </g>
    </g>
</svg>