<?xml version="1.0" encoding="UTF-8"?>
<svg width="1424px" height="732px" viewBox="0 0 1424 732" version="1.1" xmlns="http://www.w3.org/2000/svg" xmlns:xlink="http://www.w3.org/1999/xlink">
    <title>pipeline</title>
    <g id="Page-1" stroke="none" stroke-width="1" fill="none" fill-rule="evenodd">
        <path d="M495.092857,676.762137 C518.292857,673.023908 533,658.27867 533,636.264653 C533,618.784233 522.770294,607.561835 514.208033,598.93955 L512.444321,597.171612 C512.251956,596.979117 512.060942,596.78789 511.871429,596.597886 C501.514286,585.590877 497.992857,577.699059 497.992857,571.053318 C497.992857,561.915424 504.414286,556.51576 514.357143,553.815927 C523.678571,551.323774 527.407143,548.208583 526.578571,540.524445 C525.75,533.671025 521.4,530.140475 513.321429,531.178872 C490.121429,533.878704 475,550.285377 475,573.130112 C475,591.61358 486.392857,603.035947 494.885714,612.173841 C505.242857,622.557812 510.007143,629.411232 510.007143,637.510729 C510.007143,647.271661 501.307143,650.594532 491.157143,654.332761 C483.907143,657.032593 480.385714,660.770823 481.421429,667.624243 C482.457143,674.269984 487.014286,678.008214 495.092857,676.762137 Z M575,677 C582.291667,677 586.458333,672.834522 586.458333,665.544936 L586.458333,553.910128 L598.541667,553.910128 C605.833333,553.910128 610,549.74465 610,542.455064 C610,535.165478 605.833333,531 598.541667,531 L551.458333,531 C544.166667,531 540,535.165478 540,542.455064 C540,549.74465 544.166667,553.910128 551.458333,553.910128 L563.541667,553.910128 L563.541667,665.544936 C563.541667,672.834522 567.708333,677 575,677 Z M632.349206,676 C639.571429,676 643.698413,671.834522 643.698413,664.544936 L643.698413,614.142653 L676.301587,614.142653 L676.301587,664.336662 C676.301587,671.626248 680.428571,675.791726 687.650794,675.791726 C694.873016,675.791726 699,671.626248 699,664.336662 L699,573.737518 C699,547.286733 686,530 660,530 C634,530 621,547.286733 621,573.737518 L621,664.544936 C621,671.834522 625.126984,676 632.349206,676 Z M676,591 L643,591 L643,573.652174 C643,560.021739 648.012658,553 659.5,553 C670.987342,553 676,560.021739 676,573.652174 L676,591 Z M786.078653,676 C817.752971,676 849.013245,656.450142 855.637938,625.045584 C857.501133,616.102564 851.911548,610.695157 844.872811,610.695157 C839.490247,610.695157 835.349814,613.814815 833.900662,618.390313 C827.068946,639.811966 808.436995,653.122507 786.078653,653.122507 C757.716683,653.122507 735.979407,631.2849 735.979407,603 C735.979407,574.7151 757.716683,552.877493 786.078653,552.877493 C808.436995,552.877493 827.068946,566.188034 833.900662,587.609687 C835.349814,592.185185 839.490247,595.304843 844.872811,595.304843 C851.911548,595.304843 857.501133,589.897436 855.637938,580.954416 C849.427288,549.549858 817.752971,530 786.078653,530 C745.709426,530 713,562.652422 713,603 C713,643.347578 745.709426,676 786.078653,676 Z M937.523035,677 C945.243902,677 949,672.857143 949,665.607143 L949,654.007143 C949,628.528571 941.696477,613.407143 924.585366,604.707143 C941.696477,596.007143 949,581.092857 949,555.614286 L949,543.392857 C949,535.935714 945.243902,532 937.523035,532 C930.219512,532 926.04607,535.935714 926.04607,543.392857 L926.04607,555.614286 C926.04607,584.407143 914.777778,594.557143 894.95393,594.557143 L894.95393,543.392857 C894.95393,535.935714 890.98916,532 883.476965,532 C876.173442,532 872,535.935714 872,543.392857 L872,665.607143 C872,672.857143 876.173442,677 883.476965,677 C890.98916,677 894.95393,672.857143 894.95393,665.607143 L894.95393,615.271429 C914.777778,615.271429 926.04607,625.421429 926.04607,654.007143 L926.04607,665.607143 C926.04607,672.857143 930.219512,677 937.523035,677 Z" id="STACK" fill="#4E65AE" fill-rule="nonzero"></path>
        <path d="M309.439286,439.760508 C333.039286,435.996674 348,421.150442 348,398.985643 C348,381.385494 337.593919,370.086231 328.884034,361.40489 L326.507143,359.047186 L326.507143,359.047186 C315.971429,347.964787 312.389286,340.018916 312.389286,333.327656 C312.389286,324.127174 318.921429,318.690525 329.035714,315.972201 C338.517857,313.462978 342.310714,310.32645 341.467857,302.589681 C340.625,295.689319 336.2,292.134588 327.982143,293.180097 C304.382143,295.898421 289,312.417469 289,335.418675 C289,354.028741 300.589286,365.529344 309.228571,374.729826 C319.764286,385.18492 324.610714,392.085282 324.610714,400.240255 C324.610714,410.068042 315.760714,413.413672 305.435714,417.177506 C298.060714,419.89583 294.478571,423.659664 295.532143,430.560026 C296.585714,437.251286 301.221429,441.015119 309.439286,439.760508 Z M432,440 C472.668555,440 506,406.506365 506,365.685997 C506,325.074965 472.668555,292 432,292 C391.331445,292 358,325.074965 358,365.685997 C358,406.506365 391.331445,440 432,440 Z M431.894949,418 C403.321212,418 380,394.516129 380,365.790323 C380,337.274194 403.111111,314 431.894949,314 C460.678788,314 484,337.274194 484,365.790323 C484,394.516129 460.468687,418 431.894949,418 Z M529.449814,439 C537.360595,439 540.899628,434.38 540.899628,426.4 L540.899628,376.84 L562.550186,376.84 C569.836431,376.84 574,372.64 574,365.29 C574,357.94 569.836431,353.74 562.550186,353.74 L540.899628,353.74 L540.899628,337.15 C540.899628,322.66 547.561338,315.52 561.509294,315.1 C569.420074,314.89 574,311.53 574,303.55 C574,295.57 569.420074,292 561.509294,292 C534.654275,292 518,310.06 518,337.15 L518,426.4 C518,434.38 521.539033,439 529.449814,439 Z M622,439 C629.291667,439 633.458333,434.805991 633.458333,427.466476 L633.458333,315.067047 L645.541667,315.067047 C652.833333,315.067047 657,310.873039 657,303.533524 C657,296.194009 652.833333,292 645.541667,292 L598.458333,292 C591.166667,292 587,296.194009 587,303.533524 C587,310.873039 591.166667,315.067047 598.458333,315.067047 L610.541667,315.067047 L610.541667,427.466476 C610.541667,434.805991 614.708333,439 622,439 Z M780.446181,439 C787.798611,439 792,435.01 792,427.45 L792,303.55 C792,296.2 787.798611,292 780.446181,292 C772.883681,292 768.892361,296.2 768.892361,303.55 L768.892361,415.27 C750.826389,413.59 743.053819,401.2 743.053819,376.21 L743.053819,303.97 C743.053819,296.41 739.0625,292.42 731.5,292.42 C723.9375,292.42 719.946181,296.41 719.946181,303.97 L719.946181,376.21 C719.946181,401.2 712.173611,413.59 694.107639,415.27 L694.107639,303.55 C694.107639,296.2 690.116319,292 682.553819,292 C675.201389,292 671,296.2 671,303.55 L671,427.45 C671,435.01 675.201389,439 682.553819,439 C704.611111,439 723.727431,430.6 731.5,415.27 C739.272569,430.6 758.388889,439 780.446181,439 Z M819.494709,439 C826.809524,439 830.989418,434.805991 830.989418,427.466476 L830.989418,376.718973 L864.010582,376.718973 L864.010582,427.256776 C864.010582,434.596291 868.190476,438.7903 875.505291,438.7903 C882.820106,438.7903 887,434.596291 887,427.256776 L887,336.03709 C887,309.405136 873.833333,292 847.5,292 C821.166667,292 808,309.405136 808,336.03709 L808,427.466476 C808,434.805991 812.179894,439 819.494709,439 Z M864,354 L831,354 L831,336.195652 C831,322.206522 836.012658,315 847.5,315 C858.987342,315 864,322.206522 864,336.195652 L864,354 Z M966.445378,439 C972.747899,439 978,434.59 978,427.45 L978,423.88 C978,405.61 972.537815,390.49 962.663866,379.15 C969.386555,369.7 973.798319,358.15 973.798319,346.6 C973.798319,314.26 949.218487,292 913.714286,292 C906.571429,292 903,296.2 903,302.92 L903,427.45 C903,435.01 906.991597,439 914.554622,439 C922.117647,439 926.109244,435.01 926.109244,427.45 L926.109244,382.51 C944.386555,387.13 954.890756,401.83 954.890756,423.88 L954.890756,427.45 C954.890756,434.59 960.142857,439 966.445378,439 Z M945.25641,366 C939.717949,363.286957 933.564103,361.408696 927,360.365217 L927,318 C943.410256,321.547826 951,333.026087 951,347.217391 C951,353.895652 948.948718,360.573913 945.25641,366 Z M1064.10073,439 C1096.21805,439 1127.91553,419.316239 1134.63287,387.696581 C1136.52213,378.692308 1130.85437,373.247863 1123.71719,373.247863 C1118.25934,373.247863 1114.061,376.388889 1112.59158,380.995726 C1105.66432,402.564103 1086.77178,415.965812 1064.10073,415.965812 C1039.33052,415.965812 1019.38839,399.632479 1014.5603,376.807692 L1086.35194,376.807692 C1093.69904,376.807692 1097.89738,372.619658 1097.89738,365.290598 C1097.89738,357.961538 1093.69904,353.773504 1086.35194,353.773504 L1014.5603,353.773504 C1019.80823,331.15812 1039.54043,315.034188 1064.10073,315.034188 C1086.77178,315.034188 1105.66432,328.435897 1112.59158,350.004274 C1114.061,354.611111 1118.25934,357.752137 1123.71719,357.752137 C1130.85437,357.752137 1136.52213,352.307692 1134.63287,343.303419 C1128.33536,311.683761 1096.21805,292 1064.10073,292 C1023.1669,292 990,324.876068 990,365.5 C990,406.123932 1023.1669,439 1064.10073,439 Z" id="SOFTWARE" fill="#4E65AE" fill-rule="nonzero"></path>
        <path d="M181.092857,198.762137 C204.292857,195.023908 219,180.27867 219,158.264653 C219,140.784233 208.770294,129.561835 200.208033,120.93955 L197.871429,118.597886 L197.871429,118.597886 C187.514286,107.590877 183.992857,99.6990594 183.992857,93.0533183 C183.992857,83.9154243 190.414286,78.5157597 200.357143,75.8159274 C209.678571,73.3237745 213.407143,70.2085834 212.578571,62.5244453 C211.75,55.6710248 207.4,52.1404748 199.321429,53.1788719 C176.121429,55.8787042 161,72.2853774 161,95.1301124 C161,113.61358 172.392857,125.035947 180.885714,134.173841 C191.242857,144.557812 196.007143,151.411232 196.007143,159.510729 C196.007143,169.271661 187.307143,172.594532 177.157143,176.332761 C169.907143,179.032593 166.385714,182.770823 167.421429,189.624243 C168.457143,196.269984 173.014286,200.008214 181.092857,198.762137 Z M342.541667,198 C349.833333,198 354,193.828571 354,186.528571 L354,63.4714286 C354,55.9628571 349.833333,52 342.541667,52 C320.666667,52 301.708333,63.2628571 294,76.82 C286.291667,63.2628571 267.333333,52 245.458333,52 C238.166667,52 234,55.9628571 234,63.4714286 L234,186.528571 C234,193.828571 238.166667,198 245.458333,198 C252.958333,198 256.916667,193.828571 256.916667,186.528571 L256.916667,75.5685714 C274.833333,77.2371429 282.541667,89.5428571 282.541667,114.362857 L282.541667,186.111429 C282.541667,193.62 286.5,197.582857 294,197.582857 C301.5,197.582857 305.458333,193.62 305.458333,186.111429 L305.458333,114.362857 C305.458333,89.5428571 313.166667,77.2371429 331.083333,75.5685714 L331.083333,186.528571 C331.083333,193.828571 335.041667,198 342.541667,198 Z M383.5,198 C390.818182,198 395,193.840456 395,186.561254 L395,63.4387464 C395,56.1595442 390.818182,52 383.5,52 C376.181818,52 372,56.1595442 372,63.4387464 L372,186.561254 C372,193.840456 376.181818,198 383.5,198 Z M446,198 C453.291667,198 457.458333,193.834522 457.458333,186.544936 L457.458333,74.9101284 L469.541667,74.9101284 C476.833333,74.9101284 481,70.7446505 481,63.4550642 C481,56.1654779 476.833333,52 469.541667,52 L422.458333,52 C415.166667,52 411,56.1654779 411,63.4550642 C411,70.7446505 415.166667,74.9101284 422.458333,74.9101284 L434.541667,74.9101284 L434.541667,186.544936 C434.541667,193.834522 438.708333,198 446,198 Z M532,198 C539.291667,198 543.458333,193.834522 543.458333,186.544936 L543.458333,74.9101284 L555.541667,74.9101284 C562.833333,74.9101284 567,70.7446505 567,63.4550642 C567,56.1654779 562.833333,52 555.541667,52 L508.458333,52 C501.166667,52 497,56.1654779 497,63.4550642 C497,70.7446505 501.166667,74.9101284 508.458333,74.9101284 L520.541667,74.9101284 L520.541667,186.544936 C520.541667,193.834522 524.708333,198 532,198 Z M622.5,198 C629.814815,198 633.994709,193.834522 633.994709,186.544936 L633.994709,154.054208 C652.595238,149.680456 662,133.851641 662,111.566334 L662,63.4550642 C662,56.1654779 657.820106,52 650.505291,52 C643.190476,52 639.010582,56.1654779 639.010582,63.4550642 L639.010582,111.566334 C639.010582,125.312411 633.994709,132.393723 622.5,132.393723 C611.005291,132.393723 605.989418,125.312411 605.989418,111.566334 L605.989418,63.6633381 C605.989418,56.3737518 601.809524,52.2082739 594.494709,52.2082739 C587.179894,52.2082739 583,56.3737518 583,63.6633381 L583,111.566334 C583,133.851641 592.404762,149.680456 611.005291,154.054208 L611.005291,186.544936 C611.005291,193.834522 615.185185,198 622.5,198 Z M712,198 C719.291667,198 723.458333,193.834522 723.458333,186.544936 L723.458333,74.9101284 L735.541667,74.9101284 C742.833333,74.9101284 747,70.7446505 747,63.4550642 C747,56.1654779 742.833333,52 735.541667,52 L688.458333,52 C681.166667,52 677,56.1654779 677,63.4550642 C677,70.7446505 681.166667,74.9101284 688.458333,74.9101284 L700.541667,74.9101284 L700.541667,186.544936 C700.541667,193.834522 704.708333,198 712,198 Z M820.5,198 C860.893768,198 894,164.732673 894,124.188119 C894,83.8514851 860.893768,51 820.5,51 C780.106232,51 747,83.8514851 747,124.188119 C747,164.732673 780.106232,198 820.5,198 Z M820.39596,176 C792.09697,176 769,152.741935 769,124.292339 C769,96.0504032 791.888889,73 820.39596,73 C848.90303,73 872,96.0504032 872,124.292339 C872,152.741935 848.694949,176 820.39596,176 Z M918.494709,198 C926.018519,198 929.989418,193.834522 929.989418,186.544936 L929.989418,75.743224 C947.962963,77.4094151 963.010582,94.4878745 963.010582,124.062767 L963.010582,186.336662 C963.010582,193.834522 966.981481,197.791726 974.505291,197.791726 C982.029101,197.791726 986,193.834522 986,186.336662 L986,63.4550642 C986,56.1654779 981.820106,52 974.505291,52 C967.190476,52 963.010582,56.1654779 963.010582,63.4550642 L963.010582,71.78602 C952.769841,60.1226819 936.050265,52.2082739 918.494709,52.2082739 C911.179894,52.2082739 907,56.1654779 907,63.6633381 L907,186.544936 C907,193.834522 911.179894,198 918.494709,198 Z M1073.58969,198 C1105.48551,198 1136.96439,178.450142 1143.63541,147.045584 C1145.51163,138.102564 1139.88296,132.695157 1132.795,132.695157 C1127.37479,132.695157 1123.20541,135.814815 1121.74612,140.390313 C1114.86663,161.811966 1096.10439,175.122507 1073.58969,175.122507 C1048.99031,175.122507 1029.18571,158.900285 1024.39092,136.230769 L1095.68745,136.230769 C1102.98388,136.230769 1107.15326,132.071225 1107.15326,124.792023 C1107.15326,117.512821 1102.98388,113.353276 1095.68745,113.353276 L1024.39092,113.353276 C1029.60265,90.8917379 1049.19877,74.8774929 1073.58969,74.8774929 C1096.10439,74.8774929 1114.86663,88.1880342 1121.74612,109.609687 C1123.20541,114.185185 1127.37479,117.304843 1132.795,117.304843 C1139.88296,117.304843 1145.51163,111.897436 1143.63541,102.954416 C1137.38132,71.5498575 1105.48551,52 1073.58969,52 C1032.93816,52 1000,84.6524217 1000,125 C1000,165.347578 1032.93816,198 1073.58969,198 Z M1176.29657,104.933435 L1195.4781,69.3538747 C1198.81402,62.9412794 1196.72907,56.1149684 1188.59777,53.6326735 C1181.71743,51.5640944 1175.46259,54.666963 1172.75215,61.4932741 L1158.99149,97.0728347 C1156.28106,103.899146 1155.44708,109.691167 1162.32741,112.173462 C1169.20774,114.655757 1172.96065,111.346031 1176.29657,104.933435 Z M1224.09286,198.762137 C1247.29286,195.023908 1262,180.27867 1262,158.264653 C1262,140.784233 1251.77029,129.561835 1243.20803,120.93955 L1240.87143,118.597886 L1240.87143,118.597886 C1230.51429,107.590877 1226.99286,99.6990594 1226.99286,93.0533183 C1226.99286,83.9154243 1233.41429,78.5157597 1243.35714,75.8159274 C1252.67857,73.3237745 1256.40714,70.2085834 1255.57857,62.5244453 C1254.75,55.6710248 1250.4,52.1404748 1242.32143,53.1788719 C1219.12143,55.8787042 1204,72.2853774 1204,95.1301124 C1204,113.61358 1215.39286,125.035947 1223.88571,134.173841 C1234.24286,144.557812 1239.00714,151.411232 1239.00714,159.510729 C1239.00714,169.271661 1230.30714,172.594532 1220.15714,176.332761 C1212.90714,179.032593 1209.38571,182.770823 1210.42143,189.624243 C1211.45714,196.269984 1216.01429,200.008214 1224.09286,198.762137 Z" id="SMITTYTONE’S" fill="#4E65AE" fill-rule="nonzero"></path>
    </g>
</svg>