<?xml version="1.0" encoding="UTF-8"?>
<svg width="1424px" height="733px" viewBox="0 0 1424 733" version="1.1" xmlns="http://www.w3.org/2000/svg" xmlns:xlink="http://www.w3.org/1999/xlink">
    <!-- Generator: Sketch 46.2 (44496) - http://www.bohemiancoding.com/sketch -->
    <title>Slice Copy 2</title>
    <desc>Created with Sketch.</desc>
    <defs></defs>
    <g id="Page-1" stroke="none" stroke-width="1" fill="none" fill-rule="evenodd">
        <g id="Stop" fill="#4E65AE">
            <path d="M9.21020993,67.7083146 C8.28918894,73.4646958 7.59842319,78.7605665 7.59842319,82.2143952 C7.59842319,95.1086891 13.3548044,105.930686 30.8542033,125.962892 C55.4915148,154.284288 58.7150883,159.119648 58.7150883,167.869348 C58.7150883,178.000578 50.4258994,184.447725 37.5316055,184.447725 L0,184.447725 L0,221.288565 L42.5972209,221.288565 C62.168917,221.288565 76.6749976,216.22295 87.2667391,206.091719 C96.7072042,196.651254 102.463585,182.375428 102.463585,168.099603 C102.463585,157.968372 100.161033,149.679183 94.634907,139.547952 C89.7995468,130.798253 84.9641866,124.811616 64.4714695,101.325581 C54.5704938,90.0430736 51.3469203,84.0564372 51.3469203,77.379035 C51.3469203,75.0764825 51.8074308,71.3923985 52.4981966,67.7083146 L9.21020993,67.7083146 Z M118.244802,67.7083146 L226.925279,67.7083146 C252.944122,67.7083146 263.766118,70.4713775 272.976328,80.142098 C282.186538,89.1220526 285.640367,100.634815 285.640367,121.357787 L285.640367,221.288565 L243.503657,221.288565 L243.503657,122.969574 C243.503657,108.463493 239.589317,104.549154 225.543747,104.549154 L160.381512,104.549154 L160.381512,221.288565 L118.244802,221.288565 L118.244802,67.7083146 Z M221.399153,126.883913 L221.399153,221.288565 L182.486016,221.288565 L182.486016,126.883913 L221.399153,126.883913 Z M347.720351,126.883913 L305.583641,126.883913 L305.583641,221.288565 L347.720351,221.288565 L347.720351,126.883913 Z M347.720351,67.7083146 L305.583641,67.7083146 L305.583641,104.549154 L347.720351,104.549154 L347.720351,67.7083146 Z M414.511836,126.883913 L372.835636,126.883913 L372.835636,167.178582 C372.835636,186.520023 375.598699,197.342019 382.736612,206.321974 C391.025801,216.68346 402.538563,221.288565 420.498473,221.288565 L459.87212,221.288565 L459.87212,184.447725 L432.471746,184.447725 C417.73541,184.447725 414.511836,180.993897 414.511836,165.106285 L414.511836,126.883913 Z M464.70748,67.7083146 L365.697724,67.7083146 L365.697724,104.549154 L464.70748,104.549154 L464.70748,67.7083146 Z M529.409205,126.883913 L487.733005,126.883913 L487.733005,167.178582 C487.733005,186.520023 490.496068,197.342019 497.633981,206.321974 C505.92317,216.68346 517.435932,221.288565 535.395842,221.288565 L574.769489,221.288565 L574.769489,184.447725 L547.369115,184.447725 C532.632779,184.447725 529.409205,180.993897 529.409205,165.106285 L529.409205,126.883913 Z M579.604849,67.7083146 L480.595093,67.7083146 L480.595093,104.549154 L579.604849,104.549154 L579.604849,67.7083146 Z M719.688973,67.7083146 L677.552263,67.7083146 L677.552263,104.549154 C677.552263,121.588043 671.335371,129.646976 658.671332,129.646976 C646.007294,129.646976 639.790402,121.818298 639.790402,105.930686 L639.790402,67.7083146 L597.653691,67.7083146 L597.653691,97.8717521 C597.653691,122.739319 601.568031,135.633613 612.620283,147.837141 C623.90279,160.040669 639.329891,166.257561 658.441077,166.257561 C678.012773,166.257561 694.13064,159.580159 704.952637,147.146375 C716.004889,134.252081 719.688973,121.127532 719.688973,94.4179234 L719.688973,67.7083146 Z M693.209619,184.447725 L622.981769,184.447725 L622.981769,221.288565 L693.209619,221.288565 L693.209619,184.447725 Z M787.012438,126.883913 L745.336238,126.883913 L745.336238,167.178582 C745.336238,186.520023 748.099301,197.342019 755.237214,206.321974 C763.526403,216.68346 775.039165,221.288565 792.999075,221.288565 L832.372722,221.288565 L832.372722,184.447725 L804.972348,184.447725 C790.236012,184.447725 787.012438,180.993897 787.012438,165.106285 L787.012438,126.883913 Z M837.208082,67.7083146 L738.198326,67.7083146 L738.198326,104.549154 L837.208082,104.549154 L837.208082,67.7083146 Z M924.952795,64.7149963 C945.906023,64.7149963 965.938229,72.0831643 980.214055,84.9774582 C996.331922,99.7137941 1004.39086,119.746001 1004.39086,145.074078 C1004.39086,191.125128 971.924866,224.281883 926.564582,224.281883 C879.822767,224.281883 846.435756,191.355383 846.435756,145.074078 C846.435756,99.0230283 879.822767,64.7149963 924.952795,64.7149963 Z M925.18305,99.9440493 C903.308802,99.9440493 890.184253,116.522427 890.184253,144.153057 C890.184253,172.013942 903.539057,189.05283 925.643561,189.05283 C947.287554,189.05283 960.642359,172.244197 960.642359,145.074078 C960.642359,116.982938 947.287554,99.9440493 925.18305,99.9440493 Z M1020.08314,67.7083146 L1020.08314,221.288565 L1062.21985,221.288565 L1062.21985,104.549154 L1082.25206,104.549154 C1094.68584,104.549154 1098.83043,108.463493 1098.83043,120.206511 L1098.83043,221.288565 L1140.96714,221.288565 L1140.96714,118.134214 C1140.96714,82.6749057 1124.84928,67.7083146 1086.62691,67.7083146 L1020.08314,67.7083146 Z M1265.32244,126.883913 L1161.93784,126.883913 L1161.93784,221.288565 L1265.32244,221.288565 L1265.32244,184.447725 L1204.07455,184.447725 L1204.07455,163.724753 L1265.32244,163.724753 L1265.32244,126.883913 Z M1265.32244,67.7083146 L1161.93784,67.7083146 L1161.93784,104.549154 L1265.32244,104.549154 L1265.32244,67.7083146 Z M1318.06674,67.7083146 L1281.91667,67.7083146 L1281.91667,121.588043 L1299.64632,121.588043 L1318.06674,67.7083146 Z M1330.74662,67.7083146 C1329.8256,73.4646958 1329.13484,78.7605665 1329.13484,82.2143952 C1329.13484,95.1086891 1334.89122,105.930686 1352.39062,125.962892 C1377.02793,154.284288 1380.2515,159.119648 1380.2515,167.869348 C1380.2515,178.000578 1371.96231,184.447725 1359.06802,184.447725 L1321.53641,184.447725 L1321.53641,221.288565 L1364.13364,221.288565 C1383.70533,221.288565 1398.21141,216.22295 1408.80315,206.091719 C1418.24362,196.651254 1424,182.375428 1424,168.099603 C1424,157.968372 1421.69745,149.679183 1416.17132,139.547952 C1411.33596,130.798253 1406.5006,124.811616 1386.00788,101.325581 C1376.10691,90.0430736 1372.88333,84.0564372 1372.88333,77.379035 C1372.88333,75.0764825 1373.34385,71.3923985 1374.03461,67.7083146 L1330.74662,67.7083146 Z" id="smittytone’s"></path>
            <path d="M189.21039,287.708373 C188.289351,293.464867 187.598572,298.760841 187.598572,302.214737 C187.598572,315.109283 193.355066,325.931492 210.854807,345.96409 C235.4926,374.286039 238.716236,379.121494 238.716236,387.871365 C238.716236,398.002794 230.426885,404.450067 217.532339,404.450067 L180,404.450067 L180,441.291627 L222.598054,441.291627 C242.170133,441.291627 256.676497,436.225912 267.268446,426.094483 C276.709095,416.653834 282.465589,402.377729 282.465589,388.101624 C282.465589,377.970195 280.162992,369.680844 274.636758,359.549415 C269.801303,350.799545 264.965848,344.812791 244.47273,321.326297 C234.571561,310.043569 231.347924,304.056815 231.347924,297.379283 C231.347924,295.076685 231.808444,291.392529 232.499223,287.708373 L189.21039,287.708373 Z M369.800689,284.714996 C390.754326,284.714996 410.786924,292.083308 425.063029,304.977854 C441.181212,319.714478 449.240303,339.747077 449.240303,365.075649 C449.240303,411.1276 416.773678,444.285004 371.412507,444.285004 C324.669778,444.285004 291.282114,411.357859 291.282114,365.075649 C291.282114,319.023699 324.669778,284.714996 369.800689,284.714996 Z M370.030949,319.944738 C348.156272,319.944738 335.031466,336.52344 335.031466,364.15461 C335.031466,392.01604 348.386532,409.055262 370.491468,409.055262 C392.135885,409.055262 405.49095,392.2463 405.49095,365.075649 C405.49095,336.98396 392.135885,319.944738 370.030949,319.944738 Z M569.660093,346.885129 L466.043205,346.885129 L466.043205,441.291627 L508.18074,441.291627 L508.18074,383.726689 L569.660093,383.726689 L569.660093,346.885129 Z M569.660093,287.708373 L466.043205,287.708373 L466.043205,324.549933 L569.660093,324.549933 L569.660093,287.708373 Z M636.362707,346.885129 L594.685692,346.885129 L594.685692,387.180585 C594.685692,406.522405 597.448809,417.344613 604.586862,426.324743 C612.876213,436.686432 624.3892,441.291627 642.349461,441.291627 L681.723878,441.291627 L681.723878,404.450067 L654.322968,404.450067 C639.586344,404.450067 636.362707,400.996171 636.362707,385.108248 L636.362707,346.885129 Z M686.559333,287.708373 L587.54764,287.708373 L587.54764,324.549933 L686.559333,324.549933 L686.559333,287.708373 Z M893.574968,287.708373 L830.253536,443.824484 L782.129248,330.306427 L808.37886,285.636035 L830.253536,350.339025 L850.055875,287.708373 L893.574968,287.708373 Z M749.202104,287.708373 L795.484314,401.45669 L770.386001,443.824484 L703.610673,287.708373 L749.202104,287.708373 Z M962.162076,287.708373 L1010.28636,441.291627 L865.9135,441.291627 L896.998567,346.885129 L935.221685,346.885129 L918.873243,404.450067 L958.24766,404.450067 L916.800905,287.708373 L962.162076,287.708373 Z M1013.27368,287.708373 L1013.27368,324.549933 L1064.62161,324.549933 C1074.75303,324.549933 1079.35823,328.003829 1079.35823,335.602401 C1079.35823,343.661493 1074.52278,346.885129 1063.00979,346.885129 L1013.27368,346.885129 L1013.27368,383.726689 L1048.96394,383.726689 C1068.0755,383.726689 1074.06226,389.022663 1074.06226,405.140846 L1074.06226,441.291627 L1116.19979,441.291627 L1116.19979,400.765911 C1116.19979,390.173962 1113.89719,382.114871 1108.83148,376.358377 C1104.6868,371.292663 1100.31187,369.220325 1090.87122,367.147987 C1102.84472,364.38487 1108.60122,361.621753 1114.12745,355.40474 C1119.65369,348.957467 1123.10758,339.056298 1123.10758,328.924868 C1123.10758,317.411881 1118.73265,306.589673 1111.36434,299.68188 C1101.69343,290.70175 1090.4107,287.708373 1066.00316,287.708373 L1013.27368,287.708373 Z M1244.52113,346.885129 L1141.1345,346.885129 L1141.1345,441.291627 L1244.52113,441.291627 L1244.52113,404.450067 L1183.27203,404.450067 L1183.27203,383.726689 L1244.52113,383.726689 L1244.52113,346.885129 Z M1244.52113,287.708373 L1141.1345,287.708373 L1141.1345,324.549933 L1244.52113,324.549933 L1244.52113,287.708373 Z" id="software"></path>
            <path d="M419.569416,508.714996 C418.612474,514.695881 417.894768,520.198295 417.894768,523.786826 C417.894768,537.184008 423.875653,548.428072 442.057543,569.241551 C467.65573,598.667504 471.005025,603.691447 471.005025,612.782392 C471.005025,623.30875 462.392551,630.007341 448.995369,630.007341 L410,630.007341 L410,668.285004 L454.258548,668.285004 C474.593556,668.285004 489.665386,663.021825 500.670214,652.495468 C510.478865,642.686817 516.45975,627.854222 516.45975,613.021628 C516.45975,602.495271 514.067396,593.882796 508.325747,583.356439 C503.301803,574.265494 498.27786,568.045374 476.98591,543.643364 C466.698788,531.920829 463.349493,525.700709 463.349493,518.762883 C463.349493,516.370529 463.827963,512.542763 464.54567,508.714996 L419.569416,508.714996 Z M573.378658,570.198492 L530.077052,570.198492 L530.077052,612.064686 C530.077052,632.160459 532.947877,643.404523 540.364174,652.734703 C548.976648,663.500296 560.938418,668.285004 579.598779,668.285004 L620.508031,668.285004 L620.508031,630.007341 L592.039019,630.007341 C576.727954,630.007341 573.378658,626.41881 573.378658,609.911568 L573.378658,570.198492 Z M625.531974,508.714996 L522.660755,508.714996 L522.660755,546.992659 L625.531974,546.992659 L625.531974,508.714996 Z M736.623314,508.714996 L689.493941,508.714996 L732.556312,630.007341 L691.64706,630.007341 L708.632773,570.198492 L668.919697,570.198492 L636.622919,668.285004 L786.623511,668.285004 L736.623314,508.714996 Z M893.389498,508.714996 L873.53296,508.714996 C841.953888,508.714996 821.379644,517.088235 805.350873,536.466302 C793.389103,550.820426 786.451277,570.198492 786.451277,589.098088 C786.451277,607.758449 793.149868,626.658045 805.350873,640.772933 C821.140409,659.67253 842.193124,668.285004 871.858312,668.285004 L893.389498,668.285004 L893.389498,630.007341 L879.035374,630.007341 C861.810426,630.007341 852.001775,626.658045 843.150065,617.088629 C835.973003,609.433097 831.906002,599.38521 831.906002,588.619618 C831.906002,577.375554 836.212239,566.609962 843.628536,558.954429 C852.001775,550.58119 861.810426,546.992659 877.121491,546.992659 L893.389498,546.992659 L893.389498,508.714996 Z M1010.3086,508.714996 L958.155288,508.714996 L907.198149,570.198492 L907.198149,604.169918 L958.155288,668.285004 L1014.61484,668.285004 L946.911224,584.791851 L1010.3086,508.714996 Z" id="STACK"></path>
        </g>
    </g>
</svg>