<?xml version="1.0" encoding="UTF-8"?>
<svg width="1424px" height="732px" viewBox="0 0 1424 732" version="1.1" xmlns="http://www.w3.org/2000/svg" xmlns:xlink="http://www.w3.org/1999/xlink">
    <title>data</title>
    <g id="Page-1" stroke="none" stroke-width="1" fill="none" fill-rule="evenodd">
        <g id="Data" fill="#4E65AE" fill-rule="nonzero">
            <path d="M491.067568,677.084584 C511.96332,677.084584 516,673.51375 516,655.65958 L516,602.097071 C516,591.146513 514.812741,587.337624 511.488417,584.242901 C507.689189,580.910123 503.889961,580.195956 492.492278,580.195956 L431.704633,580.195956 C415.249228,580.195956 413.222862,577.629455 413.18398,559.330301 L413.183398,558.770952 C413.183398,541.392894 415.557915,538.298171 429.092664,538.298171 L477.77027,538.298171 C491.779923,538.298171 494.629344,540.678727 495.579151,551.629284 C495.816602,557.81873 496.054054,559.96123 497.003861,561.865675 C498.19112,565.198453 501.752896,567.102898 506.027027,567.102898 C512.913127,567.102898 516,562.579842 516,552.819562 L516,536.631782 C516,522.348446 510.776062,518.301501 492.967181,518.301501 L415.795367,518.301501 C404.397683,518.301501 401.073359,519.015667 397.274131,522.586501 C394.187259,525.91928 393,529.490114 393,539.488449 L393,578.529567 C393,596.145681 397.274131,600.192626 414.608108,600.192626 L458.299228,600.192626 C471.596525,600.192626 475.633205,601.62096 477.295367,606.382072 C478.007722,608.762628 478.720077,614.952073 478.720077,618.046796 L478.720077,637.329299 C478.720077,653.590877 476.160086,656.786631 462.976133,656.84892 L430.754826,656.849858 C416.180039,656.849858 413.241573,654.283357 413.184262,639.91095 L413.183398,632.568187 C412.945946,622.569852 410.333977,618.999018 403.447876,618.522907 C400.598456,618.284851 397.986486,619.475129 395.849421,621.141519 C393.750517,623.479565 393.025896,625.587981 393,633.78158 L393,653.993191 C393,672.085416 397.511583,677.084584 413.183398,677.084584 L491.067568,677.084584 Z M591.77119,677.084584 C605.772659,677.084584 610.281607,672.58178 610.281607,658.12541 L610.281607,597.456053 C610.281607,585.606569 609.095042,582.762693 602.924903,580.155806 C593.717157,576.707606 593.217637,575.712226 593.195953,560.298727 L593.195068,558.826735 C593.195068,540.81552 595.330886,538.208634 609.569668,538.208634 L626.656206,538.208634 C639.945736,538.208634 643.742745,536.312716 643.980058,528.729046 C644.217371,524.700222 642.318867,521.145377 639.233797,519.486449 C636.623354,518.53849 634.72485,518.301501 628.317398,518.301501 L540.511574,518.301501 C530.307114,518.301501 526.272792,520.908387 526.035479,527.781088 C525.560853,535.127768 529.832488,538.208634 539.799635,538.208634 L551.9026,538.208634 C565.19213,538.208634 567.327947,538.682613 569.938391,541.763479 C572.786147,544.844344 573.260773,546.503272 573.260773,558.589746 L573.260773,657.88842 C573.260773,672.34479 578.007034,677.084584 591.77119,677.084584 Z M761.002774,678.08322 C763.851584,678.08322 766.462992,676.897895 768.362199,675.001376 C770.261405,672.630728 770.736207,670.023014 770.736207,660.54042 L770.736979,604.974357 C770.741417,602.80228 770.771377,599.62353 770.973607,595.584647 C771.211008,585.627922 770.024004,583.731403 760.053171,579.227171 C754.479414,576.676147 753.903863,575.259471 753.881473,561.660878 L753.880751,542.245052 C753.880751,529.680614 753.168548,526.361706 749.607537,522.805733 C746.283926,519.012695 742.248112,518.301501 730.615474,518.301501 L688.595535,518.301501 C668.891269,518.301501 665.330257,521.857474 665.330257,541.770922 L665.330257,561.210241 C665.330257,575.908263 665.330257,576.145328 655.834226,580.17543 C649.271146,582.984199 648.030926,585.561866 648,597.035467 L648,651.531955 C648,663.622263 648.474802,666.704106 650.374008,670.260079 C652.748016,674.764312 658.208234,677.13496 665.805059,677.13496 C673.401884,677.13496 678.387301,675.712571 681.23611,672.867793 C684.559721,669.074755 685.509324,665.518782 685.509324,652.243149 L685.509324,621.661782 C685.509324,601.985398 686.933729,600.325944 704.501387,600.325944 L732.277279,600.325944 C748.895334,600.325944 751.031941,602.696593 751.031941,621.661782 L751.031941,660.54042 C751.031941,674.290182 752.931148,678.08322 761.002774,678.08322 Z M724.975369,581.215553 L710.788177,581.215553 C697.783251,581.215553 694,578.117512 694,567.631837 C694,540.941027 694.945813,539.272851 710.788177,539.272851 L725.921182,539.272851 C740.108374,539.272851 742,541.89427 742,560.005891 C742,570.491566 741.763547,574.304539 740.108374,576.687647 C737.743842,579.547377 732.778325,581.215553 724.975369,581.215553 Z M876.706246,677.084584 C895.257229,677.084584 900.489557,673.037639 900.489557,658.278192 L900.489557,633.044298 C900.489557,622.569852 897.873393,618.999018 890.500567,618.999018 C883.841239,618.999018 880.511576,623.522075 880.749409,632.568187 C880.984864,655.428666 879.588617,657.290499 859.945284,657.32545 L842.696111,657.325969 C821.505181,657.325969 820.12777,655.92606 820.102341,631.41364 L820.101965,592.812903 C820.101965,590.194291 819.864132,587.575679 819.150633,585.90929 C818.199301,583.052623 817.010135,582.338456 810.588641,579.243734 C804.880646,576.625122 803.929314,574.482622 803.453648,564.960398 L803.454646,562.228324 C803.459835,557.746892 803.492008,554.578102 803.691481,552.581507 C804.880646,540.202616 807.258977,538.298171 822.955963,538.298171 L859.344429,538.298171 C877.895412,538.298171 880.749409,540.440671 880.987242,554.00984 C880.987242,563.294009 884.079073,567.102898 890.7384,567.102898 C897.873393,567.102898 900.965223,563.055953 900.72739,553.771785 L900.727778,552.447628 C900.730682,549.188597 900.755371,546.322045 900.965223,544.011505 C901.203057,530.680392 900.251724,527.109558 897.159894,523.538724 C893.592397,519.253723 889.787067,518.301501 878.133245,518.301501 L804.642813,518.301501 C787.280996,518.301501 783,522.348446 783,539.488449 L783,654.469302 C783,672.799583 787.518829,677.084584 806.783311,677.084584 L876.706246,677.084584 Z M1023.23425,679.081855 C1026.09252,679.081855 1028.7126,677.894051 1030.61811,675.756002 C1032.28543,673.617954 1033,670.767223 1033,662.452591 L1033,599.736506 C1033,584.532607 1030.8563,580.969193 1021.32874,580.494071 C1009.77419,579.788515 1007.79106,577.685959 1007.75255,564.966196 L1007.75197,531.31896 C1007.75197,521.10384 1004.8937,517.302865 997.509843,517.302865 C990.364173,517.302865 987.744094,521.10384 987.744094,531.31896 L987.744094,560.301393 C987.744094,577.705106 985.409604,580.673145 971.958272,580.730765 L950.824803,580.731632 C934.318307,580.731632 932.28565,578.868964 932.246648,561.543826 L932.246063,531.794081 C932.246063,521.816523 929.149606,517.302865 922.480315,517.302865 C915.096457,517.302865 912,521.578962 912,531.31896 L912,657.938933 C912,672.430149 917.001969,678.131612 930.340551,678.131612 C945.108268,678.131612 949.395669,673.617954 949.395669,656.988689 L949.395669,621.35455 C949.395669,604.012603 951.777559,601.161872 965.830709,601.161872 L993.46063,601.161872 C1010.61024,601.161872 1012.99213,603.537481 1012.99213,621.829672 L1012.99213,663.877956 C1012.99213,675.04332 1015.85039,679.081855 1023.23425,679.081855 Z" id="STACK"></path>
            <path d="M281.864865,445.391542 C302.930502,445.391542 307,441.79825 307,423.831789 L307,369.932409 C307,358.91298 305.803089,355.080135 302.451737,351.965949 C298.621622,348.61221 294.791506,347.893551 283.301158,347.893551 L222.019305,347.893551 C205.262548,347.893551 203.34749,345.25847 203.34749,326.333799 C203.34749,308.846444 205.741313,305.732258 219.3861,305.732258 L268.459459,305.732258 C282.583012,305.732258 285.455598,308.127786 286.413127,319.147215 C286.65251,325.375588 286.891892,327.531563 287.849421,329.447985 C289.046332,332.801725 292.637066,334.718147 296.945946,334.718147 C303.888031,334.718147 307,330.166644 307,320.344979 L307,304.055388 C307,289.68222 301.733591,285.609823 283.779923,285.609823 L205.980695,285.609823 C194.490347,285.609823 191.138996,286.328481 187.30888,289.921773 C184.196911,293.275512 183,296.868804 183,306.930022 L183,346.216682 C183,363.943589 187.30888,368.015987 204.783784,368.015987 L248.830116,368.015987 C262.235521,368.015987 266.305019,369.453303 267.980695,374.244359 C268.698842,376.639887 269.416988,382.86826 269.416988,385.982447 L269.416988,405.386224 C269.416988,421.750076 266.836185,424.965928 253.545045,425.028609 L221.061776,425.029553 C206.220077,425.029553 203.34749,422.394473 203.34749,407.542199 L203.34749,400.595168 C203.108108,390.53395 200.474903,386.940658 193.532819,386.461552 C190.660232,386.222 188.027027,387.419764 185.872587,389.096633 C183.718147,391.492161 183,393.648136 183,402.272037 L183,422.15492 C183,440.360933 187.548263,445.391542 203.34749,445.391542 L281.864865,445.391542 Z M422.852998,445.391542 C438.44294,445.391542 443,440.600486 443,425.508659 L443,308.606892 C443,297.34791 442.040619,293.275512 438.44294,289.921773 C434.365571,286.328481 431.967118,285.609823 419.974855,285.609823 L342.984526,285.609823 C330.992263,285.609823 328.11412,286.328481 324.03675,289.203115 C320.028489,292.735503 319.033417,296.499393 319,306.18422 L319,424.310895 C319,441.079591 323.317215,445.391542 340.106383,445.391542 L422.852998,445.391542 Z M406.765436,425.418827 L358.52,425.418827 C343.076,425.418827 341.039768,422.85129 341,403.851522 L341,326.347757 C341,309.200841 343.4,306.581173 359.24,306.581173 L388.52,306.581173 C404.36,306.581173 407,308.724538 407,320.87027 C407,331.110789 408.2,333.016002 416.84,335.873821 C423.8,338.255337 425,341.113157 425,354.449647 L425,405.890395 C425,422.394301 422.64776,425.360289 406.765436,425.418827 L406.765436,425.418827 Z M473.643902,445.391542 C487.268293,445.391542 492.287805,440.383458 492.287805,425.836167 L492.287805,390.06414 C492.287805,370.031806 493.721951,368.123964 510.453659,368.123964 L538.658537,368.123964 C548.936585,368.123964 553,365.262202 553,357.869316 C553,350.714911 548.697561,347.853149 538.180488,347.853149 L494.917073,347.853149 C483.682927,347.853149 480.57561,347.376189 477.946341,344.037466 C475.830388,341.222618 475.101945,337.94632 475.07863,327.85417 L475.078049,327.343854 C475.078049,308.98088 477.707317,305.880638 492.287805,305.880638 L539.136585,305.880638 C548.219512,305.880638 552.282927,303.257356 552.760976,296.818391 C553.717073,289.187025 548.936585,285.609823 538.897561,285.609823 L476.75122,285.609823 C459.780488,285.609823 455,290.140946 455,305.880638 L455,425.597687 C455,434.421453 456.434146,438.714097 460.019512,441.575859 C463.126829,443.960661 468.146341,445.391542 473.643902,445.391542 Z M629.328573,445.391542 C643.448699,445.391542 647.995858,440.860418 647.995858,426.313127 L647.995858,365.262202 C647.995858,353.338193 646.799237,350.476431 640.576809,347.853149 C631.291031,344.383262 630.787278,343.381622 630.76541,327.871183 L630.764518,326.389933 C630.764518,308.26544 632.918436,305.642158 647.277885,305.642158 L664.509225,305.642158 C677.911378,305.642158 681.740565,303.734316 681.979889,296.10295 C682.219213,292.048787 680.30462,288.471585 677.193406,286.802224 C674.56084,285.848303 672.646247,285.609823 666.184494,285.609823 L577.634554,285.609823 C567.343615,285.609823 563.275104,288.233105 563.03578,295.14903 C562.557132,302.541915 566.864966,305.642158 576.916581,305.642158 L589.122114,305.642158 C602.524267,305.642158 604.678184,306.119118 607.31075,309.21936 C610.18264,312.319603 610.661288,313.988964 610.661288,326.151453 L610.661288,426.074647 C610.661288,440.621938 615.447772,445.391542 629.328573,445.391542 Z M861,422.013983 L861,301.786536 C861,288.905024 858.612994,284.611187 850.735876,284.611187 C843.813559,284.611187 840.710452,288.666478 840.710452,298.446885 L840.710452,406.031366 C840.710452,415.573227 839.99435,419.151424 838.084746,421.298343 C835.69774,424.160901 830.685028,425.353634 822.569209,425.353634 L809.918079,425.353634 C793.848757,425.353634 791.114609,422.314241 791.061533,403.967999 L791.060734,300.116711 C791.060734,288.905024 788.435028,284.611187 781.035311,284.611187 C773.874294,284.611187 771.009887,288.427931 771.009887,298.685432 L771.009887,406.985552 C771.009887,423.044504 768.670383,425.309288 750.557941,425.352978 L750.004237,425.353634 C732.753347,425.353634 729.539483,422.78184 729.476931,407.222487 L729.475989,366.194097 C729.475989,353.312585 728.521186,350.92712 721.837571,348.064561 C713.109555,344.52846 712.307521,342.856092 712.289857,331.996615 L712.289548,302.263629 C712.289548,294.391594 712.050847,292.721769 711.573446,290.336303 C710.141243,286.996652 706.560734,284.611187 702.025424,284.611187 C695.103107,284.611187 692,289.143571 692,298.685432 L692,421.775436 C692,441.336251 696.05791,445.391542 715.631356,445.391542 L835.45904,445.391542 C857.419492,445.391542 861,442.05189 861,422.013983 Z M986.921496,446.390177 C989.793467,446.390177 992.426106,445.197445 994.340753,443.289073 C996.2554,440.903607 996.734062,438.279596 996.734062,428.737735 L996.73484,372.824384 C996.739315,370.638732 996.769518,367.440114 996.973393,363.375988 C997.212724,353.357034 996.016069,351.448662 985.964173,346.916278 C980.3451,344.34931 979.76487,342.923781 979.742298,329.240196 L979.74157,309.703021 C979.74157,297.060056 979.023577,293.720404 975.433614,290.142207 C972.082982,286.325462 968.014357,285.609823 956.287144,285.609823 L913.925579,285.609823 C894.061117,285.609823 890.471154,289.18802 890.471154,309.225928 L890.471154,328.786743 C890.471154,343.576627 890.471154,343.815174 880.897919,347.870464 C874.281481,350.696788 873.031177,353.290566 873,364.835877 L873,419.672967 C873,431.83884 873.478662,434.939944 875.393309,438.518142 C877.786617,443.050526 883.291228,445.435991 890.949816,445.435991 C898.608404,445.435991 903.634352,444.004712 906.506322,441.142154 C909.856955,437.32541 910.814278,433.747212 910.814278,420.388607 L910.814278,389.616106 C910.814278,369.816744 912.250263,368.146919 929.960748,368.146919 L957.96246,368.146919 C974.715622,368.146919 976.869599,370.532384 976.869599,389.616106 L976.869599,428.737735 C976.869599,442.573433 978.784246,446.390177 986.921496,446.390177 Z M949.62069,348.523874 L935.137931,348.523874 C921.862069,348.523874 918,345.425834 918,334.940159 C918,308.249349 918.965517,306.581173 935.137931,306.581173 L950.586207,306.581173 C965.068966,306.581173 967,309.202592 967,327.314213 C967,337.799888 966.758621,341.612861 965.068966,343.995969 C962.655172,346.855699 957.586207,348.523874 949.62069,348.523874 Z M1122.9265,446.390177 C1129.88201,446.390177 1133,441.857793 1133,432.315933 L1133,365.522907 C1133,352.164302 1132.52031,350.733023 1123.40619,347.393371 C1116.77553,344.567048 1115.52254,342.205816 1115.49188,330.666392 L1115.4913,307.317556 C1115.4913,296.582963 1114.29207,292.289125 1109.97485,289.18802 C1106.37718,286.325462 1102.7795,285.609823 1091.26692,285.609823 L1032.98453,285.609823 C1022.67118,285.609823 1017.39458,286.802555 1013.79691,289.90366 C1009.7739,293.198783 1009.01978,296.493905 1009,309.183412 L1009,426.35227 C1009,440.426514 1014.03675,445.435991 1027.70793,445.435991 C1042.81818,445.435991 1046.65571,441.142154 1046.65571,423.728258 L1046.65571,385.560815 C1046.65571,370.77093 1049.294,367.908372 1063.68472,367.908372 L1094.14507,367.908372 C1110.2147,367.908372 1112.853,371.009477 1112.853,388.900466 L1112.853,432.077386 C1112.853,442.573433 1115.73114,446.390177 1122.9265,446.390177 Z M1088.86834,348.523071 L1053.88,348.523874 C1048.36,348.523874 1043.56,347.085839 1041.4,344.209768 C1039.50954,341.61393 1039.01511,338.785737 1039,327.946666 L1039,327.432688 C1039,310.415935 1041.64,306.581173 1053.64,306.581173 L1088.44,306.581173 C1102.84,306.581173 1105,309.457244 1105,328.151705 C1105,345.710118 1102.88298,348.469637 1088.86834,348.523071 Z M1227.50122,445.391542 C1237.75426,445.391542 1242.04623,442.996014 1242.76156,436.288535 C1243,433.174349 1242.04623,430.299715 1239.90024,428.383293 C1237.51582,425.987765 1234.6545,425.508659 1227.26277,425.508659 L1202.94161,425.508659 C1184.76511,425.508659 1182.71376,423.630373 1182.67455,405.695094 L1182.67397,392.21082 C1183.15085,380.712285 1182.91241,384.066024 1182.91241,382.628707 C1183.38929,375.921229 1183.62774,374.244359 1185.29684,372.088384 C1187.68127,368.974198 1191.01946,368.255539 1201.27251,368.255539 L1226.57242,368.254708 C1236.19113,368.245558 1235.60827,368.135763 1238.23114,366.818223 C1241.09246,365.380906 1243,361.787614 1243,358.194322 C1243,353.882371 1240.61557,350.289079 1237.03893,349.091315 C1234.6545,348.133104 1232.50852,347.893551 1224.16302,347.893551 L1186.48905,347.893551 C1166.42409,347.893551 1165.28865,346.954408 1165.26794,327.410847 L1165.26764,326.812905 C1165.26764,308.367339 1167.41363,305.732258 1182.67397,305.732258 L1230.12409,305.732258 C1238.94647,305.732258 1242.76156,302.857624 1242.76156,296.629252 C1242.76156,289.203115 1238.70803,285.609823 1230.36253,285.609823 L1166.6983,285.609823 C1156.6837,285.609823 1152.63017,286.807587 1148.81509,290.879984 C1145.76787,293.941388 1145.02493,297.928796 1145,307.848913 L1145,425.508659 C1145,440.840038 1150.0073,445.391542 1166.45985,445.391542 L1227.50122,445.391542 Z" id="SOFTWARE"></path>
            <path d="M98.8648649,211.701228 C119.930502,211.701228 124,208.107936 124,190.141476 L124,136.242095 C124,125.222666 122.803089,121.389821 119.451737,118.275635 C115.621622,114.921896 111.791506,114.203237 100.301158,114.203237 L39.019305,114.203237 C22.2625483,114.203237 20.3474903,111.568157 20.3474903,92.6434852 C20.3474903,75.1561307 22.7413127,72.0419442 36.3861004,72.0419442 L85.4594595,72.0419442 C99.5830116,72.0419442 102.455598,74.4374723 103.413127,85.4569012 C103.65251,91.685274 103.891892,93.8412492 104.849421,95.7576716 C106.046332,99.1114109 109.637066,101.027833 113.945946,101.027833 C120.888031,101.027833 124,96.47633 124,86.6546652 L124,70.3650746 C124,55.9919065 118.733591,51.9195089 100.779923,51.9195089 L22.980695,51.9195089 C11.4903475,51.9195089 8.13899614,52.6381673 4.30888031,56.2314593 C1.1969112,59.5851985 0,63.1784906 0,73.2397082 L0,112.526368 C0,130.253275 4.30888031,134.325673 21.7837838,134.325673 L65.8301158,134.325673 C79.2355212,134.325673 83.3050193,135.76299 84.980695,140.554046 C85.6988417,142.949574 86.4169884,149.177946 86.4169884,152.292133 L86.4169884,171.69591 C86.4169884,188.059762 83.8361846,191.275614 70.5450447,191.338295 L38.0617761,191.33924 C23.2200772,191.33924 20.3474903,188.704159 20.3474903,173.851885 L20.3474903,166.904854 C20.1081081,156.843636 17.4749035,153.250344 10.5328185,152.771239 C7.66023166,152.531686 5.02702703,153.72945 2.87258687,155.406319 C0.718146718,157.801847 0,159.957823 0,168.581723 L0,188.464606 C0,206.670619 4.54826255,211.701228 20.3474903,211.701228 L98.8648649,211.701228 Z M295.213277,213.698499 C301.658192,213.698499 305,208.689022 305,200.101348 L305,77.0113432 C305,65.3225637 304.283898,61.0287263 300.94209,57.9276215 C297.122881,53.8723307 292.826271,52.9181446 281.368644,52.9181446 L160.108757,52.9181446 C148.65113,52.9181446 145.309322,53.6337842 141.251412,56.7348889 C137.193503,60.3130867 136,64.8454706 136,76.2957036 L136,190.798033 C136,200.578441 136.477401,203.440999 138.864407,206.78065 C141.728814,210.597395 147.218927,212.744313 154.618644,212.744313 C169.179379,212.744313 173.475989,207.973383 173.475989,191.513673 L173.475989,136.647973 C173.237288,126.151926 173.237288,126.151926 172.998588,123.289368 C172.282486,119.472624 170.134181,116.610066 165.360169,114.94024 C157.823597,111.880483 156.561221,109.51741 156.528898,99.3731602 L156.528249,91.5626809 C156.528249,76.5342501 159.870056,72.9560523 173.475989,72.9560523 L198.300847,72.9560523 C212.479661,72.9560523 215.194904,75.9954451 215.247791,93.1843803 L215.248588,200.339894 C215.248588,209.881755 218.112994,213.698499 225.512712,213.698499 C232.435028,213.698499 235.538136,209.404662 235.538136,199.624255 L235.538136,93.4710531 C235.538136,75.580064 237.686441,72.7175058 253.440678,72.7175058 L265.137006,72.7175058 C283.278249,72.7175058 284.949153,74.3873314 284.949153,93.4710531 L284.949153,199.624255 C284.949153,209.643208 287.813559,213.698499 295.213277,213.698499 Z M349.49359,209.115396 C352.576923,206.247821 354,202.185424 354,196.211311 L354,135.753283 C354,119.503695 353.762821,118.308872 346.647436,115.202333 C337.582436,111.455369 336.945562,110.462424 336.923713,96.2547797 L336.923077,63.5859935 C336.923077,54.7443057 333.839744,50.9208731 327.435897,50.9208731 C320.557692,50.9208731 317,54.9832702 317,63.347029 L317,196.211311 C317,208.159537 321.980769,212.699864 335.025641,212.699864 C344.038462,212.699864 346.173077,212.221935 349.49359,209.115396 Z M422.328573,212.699864 C436.448699,212.699864 440.995858,208.16874 440.995858,193.621449 L440.995858,132.570524 C440.995858,120.646515 439.799237,117.784753 433.576809,115.161471 C424.003842,111.584268 423.764518,110.630348 423.764518,93.698255 C423.764518,75.5737615 425.918436,72.9504795 440.277885,72.9504795 L457.509225,72.9504795 C470.911378,72.9504795 474.740565,71.0426381 474.979889,63.4112724 C475.219213,59.3571094 473.30462,55.7799067 470.193406,54.1105455 C467.56084,53.1566248 465.646247,52.9181446 459.184494,52.9181446 L370.634554,52.9181446 C360.343615,52.9181446 356.275104,55.5414266 356.03578,62.4573517 C355.557132,69.8502372 359.864966,72.9504795 369.916581,72.9504795 L382.122114,72.9504795 C395.524267,72.9504795 397.678184,73.4274399 400.31075,76.5276822 C403.143299,79.5854554 403.647726,81.2512813 403.661014,92.965823 L403.661288,193.382969 C403.661288,207.93026 408.447772,212.699864 422.328573,212.699864 Z M553.328573,212.699864 C567.448699,212.699864 571.995858,208.16874 571.995858,193.621449 L571.995858,132.570524 C571.995858,120.646515 570.799237,117.784753 564.576809,115.161471 C555.291031,111.691584 554.787278,110.689944 554.76541,95.1795045 L554.764518,93.698255 C554.764518,75.5737615 556.918436,72.9504795 571.277885,72.9504795 L588.509225,72.9504795 C601.911378,72.9504795 605.740565,71.0426381 605.979889,63.4112724 C606.219213,59.3571094 604.30462,55.7799067 601.193406,54.1105455 C598.56084,53.1566248 596.646247,52.9181446 590.184494,52.9181446 L501.634554,52.9181446 C491.343615,52.9181446 487.275104,55.5414266 487.03578,62.4573517 C486.557132,69.8502372 490.864966,72.9504795 500.916581,72.9504795 L513.122114,72.9504795 C526.524267,72.9504795 528.678184,73.4274399 531.31075,76.5276822 C534.18264,79.6279245 534.661288,81.2972857 534.661288,93.4597748 L534.661288,193.382969 C534.661288,207.93026 539.447772,212.699864 553.328573,212.699864 Z M674.879493,212.699864 C690.063425,212.699864 693.919662,208.159537 693.919662,188.80341 L693.919662,153.675623 C693.919662,138.142929 696.570825,135.275354 709.344609,135.03639 C728.384778,134.558461 732,130.735028 732,111.617865 L732,65.0197807 C732,55.2222348 728.866808,50.9208731 721.636364,50.9208731 C714.40592,50.9208731 711.513742,54.7443057 711.513742,64.7808162 L711.513742,96.5630994 C711.513742,112.413617 709.387775,114.680004 691.572167,114.723747 L659.454545,114.724404 C641.320592,114.724404 638.540848,112.382313 638.487066,97.0322455 L638.486258,65.0197807 C638.486258,54.7443057 635.835095,50.9208731 628.363636,50.9208731 C621.133192,50.9208731 618,55.2222348 618,65.0197807 L618,111.378901 C618,120.698517 618.723044,124.282985 620.410148,127.389524 C623.302326,132.168815 628.363636,134.319496 636.799154,134.558461 C653.911205,135.03639 656.080338,136.709141 656.080338,153.675623 L656.080338,189.281339 C656.080338,197.406133 656.321353,201.946459 657.526427,204.575069 C660.17759,209.832289 666.20296,212.699864 674.879493,212.699864 Z M810.328573,212.699864 C824.448699,212.699864 828.995858,208.16874 828.995858,193.621449 L828.995858,132.570524 C828.995858,120.646515 827.799237,117.784753 821.576809,115.161471 C812.003842,111.584268 811.764518,110.630348 811.764518,93.698255 C811.764518,75.5737615 813.918436,72.9504795 828.277885,72.9504795 L845.509225,72.9504795 C858.911378,72.9504795 862.740565,71.0426381 862.979889,63.4112724 C863.219213,59.3571094 861.30462,55.7799067 858.193406,54.1105455 C855.56084,53.1566248 853.646247,52.9181446 847.184494,52.9181446 L758.634554,52.9181446 C748.343615,52.9181446 744.275104,55.5414266 744.03578,62.4573517 C743.557132,69.8502372 747.864966,72.9504795 757.916581,72.9504795 L770.122114,72.9504795 C783.524267,72.9504795 785.678184,73.4274399 788.31075,76.5276822 C791.18264,79.6279245 791.661288,81.2972857 791.661288,93.4597748 L791.661288,193.382969 C791.661288,207.93026 796.447772,212.699864 810.328573,212.699864 Z M977.852998,211.701228 C993.44294,211.701228 998,206.910172 998,191.818345 L998,74.9165779 C998,63.6575962 997.040619,59.5851985 993.44294,56.2314593 C989.365571,52.6381673 986.967118,51.9195089 974.974855,51.9195089 L897.984526,51.9195089 C885.992263,51.9195089 883.11412,52.6381673 879.03675,55.5128009 C875.028489,59.0451897 874.033417,62.8090796 874,72.4939067 L874,190.620581 C874,207.389277 878.317215,211.701228 895.106383,211.701228 L977.852998,211.701228 Z M959.765436,192.727149 L911.52,192.727149 C896.076,192.727149 894.039768,190.138036 894,170.978606 L894,92.8235489 C894,75.5325412 896.4,72.8908595 912.24,72.8908595 L941.52,72.8908595 C957.36,72.8908595 960,75.0522354 960,87.3000325 C960,97.6266066 961.2,99.5478296 969.84,102.429664 C976.8,104.831193 978,107.713028 978,121.161589 L978,173.034612 C978,189.677207 975.64776,192.668119 959.765436,192.727149 L959.765436,192.727149 Z M1119.66263,213.698499 C1126.87475,213.698499 1130,209.643208 1130,199.385708 L1130,74.625878 C1130,56.7348889 1125.67273,52.9181446 1105.71919,52.9181446 L1033.59798,52.9181446 C1014.60606,52.9181446 1011,56.7348889 1011,77.2498897 L1011,194.376231 C1011,207.734836 1016.04848,212.744313 1029.27071,212.744313 C1038.64646,212.744313 1042.01212,211.790127 1045.13737,207.734836 C1048.02222,203.918092 1048.74343,199.862801 1048.74343,189.366754 L1048.74343,132.354136 C1048.74343,121.142449 1046.8202,117.325705 1040.8101,114.94024 C1035.52121,113.270414 1035.0404,112.554775 1033.35758,110.169309 C1031.79848,107.959246 1031.68385,107.182474 1031.67542,98.5436785 L1031.67475,87.9844831 C1031.67475,76.2957036 1035.0404,73.4331454 1049.70505,73.4331454 L1090.09293,73.4331454 C1107.16162,73.4331454 1109.80606,75.8186106 1109.80606,90.8470413 L1109.80606,199.147162 C1109.80606,209.881755 1112.45051,213.698499 1119.66263,213.698499 Z M1225.34307,211.701228 C1235.70073,211.701228 1240.0365,209.3057 1240.75912,202.598221 C1241,199.484035 1240.0365,196.609401 1237.86861,194.692979 C1235.45985,192.297451 1232.56934,191.818345 1225.10219,191.818345 L1200.53285,191.818345 C1182.17088,191.818345 1180.0986,189.94006 1180.05899,172.00478 L1180.05839,158.520506 C1180.54015,147.021971 1180.29927,150.375711 1180.29927,148.938394 C1180.78102,142.230915 1181.0219,140.554046 1182.70803,138.39807 C1185.11679,135.283884 1188.48905,134.565226 1198.84672,134.565226 L1224.40479,134.564394 C1234.12165,134.555244 1233.53285,134.445449 1236.18248,133.127909 C1239.07299,131.690592 1241,128.0973 1241,124.504008 C1241,120.192057 1238.59124,116.598765 1234.9781,115.401001 C1232.56934,114.44279 1230.40146,114.203237 1221.9708,114.203237 L1183.91241,114.203237 C1163.6427,114.203237 1162.49567,113.264095 1162.47476,93.7205328 L1162.47445,93.1225908 C1162.47445,74.6770251 1164.64234,72.0419442 1180.05839,72.0419442 L1227.9927,72.0419442 C1236.90511,72.0419442 1240.75912,69.1673106 1240.75912,62.9389378 C1240.75912,55.5128009 1236.66423,51.9195089 1228.23358,51.9195089 L1163.91971,51.9195089 C1153.80292,51.9195089 1149.70803,53.1172729 1145.85401,57.1896705 C1142.7757,60.2510741 1142.02519,64.2384825 1142,74.1585992 L1142,191.818345 C1142,207.149725 1147.05839,211.701228 1163.67883,211.701228 L1225.34307,211.701228 Z M1282.88462,102.849932 C1288.10256,102.849932 1290,100.007304 1290,91.4794188 L1290,66.3695358 C1290,54.7621371 1286.67949,51.9195089 1273.39744,51.9195089 C1256.55769,51.9195089 1253,54.0514801 1253,65.4219931 C1253,77.0293918 1255.60897,79.6351344 1267.70513,80.5826771 C1274.34615,80.8195628 1276.00641,83.1884197 1276.00641,91.0056474 C1275.76923,100.007304 1277.66667,102.849932 1282.88462,102.849932 Z M1400.86486,211.701228 C1421.9305,211.701228 1426,208.107936 1426,190.141476 L1426,136.242095 C1426,125.222666 1424.80309,121.389821 1421.45174,118.275635 C1417.62162,114.921896 1413.79151,114.203237 1402.30116,114.203237 L1341.01931,114.203237 C1324.43012,114.203237 1322.38728,111.620595 1322.34808,93.2063521 L1322.34749,92.6434852 C1322.34749,75.1561307 1324.74131,72.0419442 1338.3861,72.0419442 L1387.45946,72.0419442 C1401.58301,72.0419442 1404.4556,74.4374723 1405.41313,85.4569012 C1405.65251,91.685274 1405.89189,93.8412492 1406.84942,95.7576716 C1408.04633,99.1114109 1411.63707,101.027833 1415.94595,101.027833 C1422.88803,101.027833 1426,96.47633 1426,86.6546652 L1426,70.3650746 C1426,55.9919065 1420.73359,51.9195089 1402.77992,51.9195089 L1324.98069,51.9195089 C1313.49035,51.9195089 1310.139,52.6381673 1306.30888,56.2314593 C1303.19691,59.5851985 1302,63.1784906 1302,73.2397082 L1302,112.526368 C1302,130.253275 1306.30888,134.325673 1323.78378,134.325673 L1367.83012,134.325673 C1381.23552,134.325673 1385.30502,135.76299 1386.98069,140.554046 C1387.69884,142.949574 1388.41699,149.177946 1388.41699,152.292133 L1388.41699,171.69591 C1388.41699,188.059762 1385.83618,191.275614 1372.54504,191.338295 L1340.06178,191.33924 C1325.36849,191.33924 1322.40614,188.756597 1322.34836,174.293798 L1322.34749,166.904854 C1322.10811,156.843636 1319.4749,153.250344 1312.53282,152.771239 C1309.66023,152.531686 1307.02703,153.72945 1304.87259,155.406319 C1302.75662,157.75907 1302.02611,159.880747 1302,168.125878 L1302,188.464606 C1302,206.670619 1306.54826,211.701228 1322.34749,211.701228 L1400.86486,211.701228 Z" id="SMITTYTONE’S"></path>
        </g>
    </g>
</svg>