<?xml version="1.0" encoding="UTF-8"?>
<svg width="1424px" height="732px" viewBox="0 0 1424 732" version="1.1" xmlns="http://www.w3.org/2000/svg" xmlns:xlink="http://www.w3.org/1999/xlink">
    <title>marvin</title>
    <g id="Page-1" stroke="none" stroke-width="1" fill="none" fill-rule="evenodd">
        <g id="Marvin" fill="#4E65AE" fill-rule="nonzero">
            <path d="M497.75,676.782265 C524.43,676.782265 546.28,657.258936 546.28,627.8591 C546.28,614.766985 541.91,602.363929 532.48,594.095225 C523.74,586.51558 512.24,583.070286 495.45,578.246876 C488.32,576.1797 485.1,571.815662 485.1,566.073506 C485.1,560.561037 489.01,556.196999 497.29,556.196999 L526.73,556.196999 L526.73,518.298772 L505.34,518.298772 C494.76,518.298772 487.86,518.298772 481.19,519.676889 C459.8,524.040928 446,541.726767 446,565.84382 C446,578.706248 449.91,589.960873 458.42,598.68895 C466.24,606.727967 475.67,609.713888 496.37,616.604475 C501.89,618.441965 507.18,622.576317 507.18,628.777844 C507.18,634.290314 502.81,638.884038 493.15,638.884038 L446.46,638.884038 L446.46,676.782265 L497.75,676.782265 Z M612.13,676.782265 L612.13,556.196999 L647.78,556.196999 L647.78,518.298772 L537.38,518.298772 L537.38,556.196999 L573.03,556.196999 L573.03,676.782265 L612.13,676.782265 Z M678.14,676.782265 L678.14,653.813643 L712.64,653.813643 L712.64,676.782265 L751.74,676.782265 L751.74,518.298772 C686.19,518.298772 639.04,552.062647 639.04,627.629413 L639.04,676.782265 L678.14,676.782265 Z M714.64,615.915416 L680.6,615.915416 C682.9,590.420246 693.48,572.275034 714.64,564.00633 L714.64,615.915416 Z M849.87,676.782265 L849.87,638.884038 L847.57,638.884038 C834.46,638.884038 825.26,636.35749 817.9,631.304393 C807.78,624.413806 800.42,611.321692 800.42,597.540518 C800.42,583.759345 807.78,570.667231 817.9,563.776644 C825.26,558.723547 834.46,556.196999 847.57,556.196999 L849.87,556.196999 L849.87,518.298772 L847.57,518.298772 C834.92,518.298772 827.1,519.217517 819.97,521.055007 C786.39,529.553397 761.32,560.561037 761.32,597.540518 C761.32,634.060628 786.16,665.297954 819.74,674.02603 C827.1,675.86352 835.38,676.782265 847.57,676.782265 L849.87,676.782265 Z M901.93,676.782265 L901.93,619.360709 L902.39,619.360709 C924.7,619.360709 935.28,634.290314 935.28,657.258936 L935.28,676.782265 L974.38,676.782265 L974.38,657.258936 C974.38,629.237217 964.49,603.052988 939.42,592.717108 L938.27,592.257735 L976.68,518.298772 L935.28,518.298772 L901.93,582.151542 L901.93,518.298772 L862.83,518.298772 L862.83,676.782265 L901.93,676.782265 Z" id="stack"></path>
            <path d="M228.637615,445.391542 C255.775229,445.391542 278,425.585266 278,395.759345 C278,382.47749 273.555046,369.894679 263.963303,361.506139 C255.073394,353.816644 243.376147,350.321419 226.298165,345.428104 C219.045872,343.330969 215.770642,338.903683 215.770642,333.078308 C215.770642,327.485948 219.747706,323.058663 228.169725,323.058663 L258.114679,323.058663 L258.114679,284.611187 L236.357798,284.611187 C225.59633,284.611187 218.577982,284.611187 211.793578,286.009277 C190.036697,290.436562 176,308.378718 176,332.845293 C176,345.894134 179.977064,357.311869 188.633028,366.166439 C196.587156,374.321965 206.178899,377.35116 227.233945,384.34161 C232.848624,386.20573 238.229358,390.4 238.229358,396.691405 C238.229358,402.283765 233.784404,406.944065 223.958716,406.944065 L176.46789,406.944065 L176.46789,445.391542 L228.637615,445.391542 Z M368.767313,449.386085 C415.770083,449.386085 453,412.103683 453,365.267667 C453,318.664666 415.770083,281.61528 368.767313,281.61528 C321.99723,281.61528 285,318.664666 285,365.267667 C285,412.103683 321.99723,449.386085 368.767313,449.386085 Z M369.5,410.439291 C344.803665,410.439291 325,390.062489 325,365.23558 C325,340.642888 344.803665,319.563438 369.5,319.563438 C393.730366,319.563438 414,340.642888 414,365.23558 C414,390.062489 393.730366,410.439291 369.5,410.439291 Z M503.471264,445.391542 L503.471264,383.642565 L545.264368,383.642565 L545.264368,346.360164 L503.471264,346.360164 L503.471264,323.058663 L565,323.058663 L565,284.611187 L464,284.611187 L464,445.391542 L503.471264,445.391542 Z M653.833333,445.391542 L653.833333,323.058663 L690,323.058663 L690,284.611187 L578,284.611187 L578,323.058663 L614.166667,323.058663 L614.166667,445.391542 L653.833333,445.391542 Z M828.397172,447.388813 C855.616967,447.388813 884,428.785656 884,384.603157 L884,284.611187 L844.449871,284.611187 L844.449871,384.603157 C844.449871,401.578538 839.564267,409.019801 828.164524,409.019801 C816.764781,409.019801 811.879177,401.578538 811.879177,384.603157 L811.879177,284.611187 L775.120823,284.611187 L775.120823,384.603157 C775.120823,401.578538 770.235219,409.019801 758.835476,409.019801 C747.435733,409.019801 742.550129,401.578538 742.550129,384.603157 L742.550129,284.611187 L703,284.611187 L703,384.603157 C703,428.785656 731.383033,447.388813 758.602828,447.388813 C771.863753,447.388813 785.357326,442.970563 793.5,432.273748 C801.642674,442.970563 815.136247,447.388813 828.397172,447.388813 Z M936.55102,445.391542 L936.55102,422.090041 L971.44898,422.090041 L971.44898,445.391542 L1011,445.391542 L1011,284.611187 C944.693878,284.611187 897,318.864393 897,395.52633 L897,445.391542 L936.55102,445.391542 Z M972,383.476126 L937,383.476126 C939.364865,357.480665 950.243243,338.979391 972,330.548431 L972,383.476126 Z M1063.55975,445.391542 L1063.55975,402.283765 L1064.02516,402.283765 C1082.1761,402.283765 1095.44025,416.963711 1095.44025,434.905866 L1095.44025,445.391542 L1135,445.391542 L1135,434.905866 C1135,412.070396 1126.62264,395.0603 1111.96226,384.34161 C1125.45912,375.254025 1133.37107,361.273124 1133.37107,342.864939 C1133.37107,311.407913 1110.33333,289.038472 1078.68553,285.543247 C1073.79874,285.077217 1068.67925,284.611187 1049.59748,284.611187 L1024,284.611187 L1024,445.391542 L1063.55975,445.391542 Z M1064.46154,365.500682 L1064,365.500682 L1064,322.559345 L1064.46154,322.559345 C1080.38462,322.559345 1094,328.594344 1094,344.610302 C1094,360.62626 1080.38462,365.500682 1064.46154,365.500682 Z M1248,445.391542 L1248,406.944065 L1185.77064,406.944065 L1185.77064,383.642565 L1227.88073,383.642565 L1227.88073,346.360164 L1185.77064,346.360164 L1185.77064,323.058663 L1248,323.058663 L1248,284.611187 L1146,284.611187 L1146,445.391542 L1248,445.391542 Z" id="software"></path>
            <path d="M52.6376147,213.706685 C79.7752294,213.706685 102,193.900409 102,164.074488 C102,150.792633 97.5550459,138.209823 87.9633028,129.821282 C79.0733945,122.131787 67.3761468,118.636562 50.2981651,113.743247 C43.0458716,111.646112 39.7706422,107.218827 39.7706422,101.393452 C39.7706422,95.8010914 43.7477064,91.3738063 52.1697248,91.3738063 L82.1146789,91.3738063 L82.1146789,52.9263302 L60.3577982,52.9263302 C49.5963303,52.9263302 42.5779817,52.9263302 35.793578,54.3244202 C14.0366972,58.7517053 0,76.6938608 0,101.160437 C0,114.209277 3.97706422,125.627012 12.6330275,134.481583 C20.587156,142.637108 30.1788991,145.666303 51.233945,152.656753 C56.8486239,154.520873 62.2293578,158.715143 62.2293578,165.006548 C62.2293578,170.598909 57.7844037,175.259209 47.9587156,175.259209 L0.467889908,175.259209 L0.467889908,213.706685 L52.6376147,213.706685 Z M153.652062,213.706685 L153.652062,92.5388813 L154.118557,92.5388813 C168.813144,93.4709413 186.306701,103.956617 186.306701,126.326057 L186.306701,213.706685 L222.693299,213.706685 L222.693299,126.326057 C222.693299,103.956617 240.186856,93.4709413 254.881443,92.5388813 L255.347938,92.5388813 L255.347938,213.706685 L295,213.706685 L295,52.9263302 L255.347938,52.9263302 C235.521907,52.9263302 215.695876,62.2469304 204.5,75.9948158 C193.304124,62.2469304 173.478093,52.9263302 153.652062,52.9263302 L114,52.9263302 L114,213.706685 L153.652062,213.706685 Z M347,213.706685 L347,52.9263302 L307,52.9263302 L307,213.706685 L347,213.706685 Z M433.833333,213.706685 L433.833333,91.3738063 L470,91.3738063 L470,52.9263302 L358,52.9263302 L358,91.3738063 L394.166667,91.3738063 L394.166667,213.706685 L433.833333,213.706685 Z M557.833333,213.706685 L557.833333,91.3738063 L594,91.3738063 L594,52.9263302 L482,52.9263302 L482,91.3738063 L518.166667,91.3738063 L518.166667,213.706685 L557.833333,213.706685 Z M684.833333,213.706685 L684.833333,134.481583 L728,52.9263302 L686,52.9263302 L665,92.5388813 L644,52.9263302 L602,52.9263302 L645.166667,134.481583 L645.166667,213.706685 L684.833333,213.706685 Z M811.833333,213.706685 L811.833333,91.3738063 L848,91.3738063 L848,52.9263302 L736,52.9263302 L736,91.3738063 L772.166667,91.3738063 L772.166667,213.706685 L811.833333,213.706685 Z M934.767313,216.702592 C981.770083,216.702592 1019,179.420191 1019,132.584175 C1019,85.9811733 981.770083,48.9317872 934.767313,48.9317872 C887.99723,48.9317872 851,85.9811733 851,132.584175 C851,179.420191 887.99723,216.702592 934.767313,216.702592 Z M934.5,177.755798 C909.803665,177.755798 890,157.378996 890,132.552088 C890,107.959396 909.803665,86.8799454 934.5,86.8799454 C958.730366,86.8799454 979,107.959396 979,132.552088 C979,157.378996 958.730366,177.755798 934.5,177.755798 Z M1067.83838,213.706685 L1067.83838,101.859482 C1092.67879,110.015007 1104.16162,131.685402 1104.16162,163.841473 L1104.16162,213.706685 L1144,213.706685 L1144,52.9263302 L1104.16162,52.9263302 L1104.16162,80.655116 C1085.88283,63.1789905 1060.33939,52.9263302 1028,52.9263302 L1028,213.706685 L1067.83838,213.706685 Z M1258,213.706685 L1258,175.259209 L1195.77064,175.259209 L1195.77064,151.957708 L1237.88073,151.957708 L1237.88073,114.675307 L1195.77064,114.675307 L1195.77064,91.3738063 L1258,91.3738063 L1258,52.9263302 L1156,52.9263302 L1156,213.706685 L1258,213.706685 Z M1277.98907,108.849932 C1297.25683,108.849932 1313,94.3538621 1313,74.4802183 C1313,58.5813032 1302.6612,49.9304229 1290.91257,49.9304229 C1279.16393,49.9304229 1270,58.5813032 1270,70.0378744 C1270,79.3901774 1276.10929,88.9762879 1287.62295,89.6777106 C1287.62295,96.2243227 1282.9235,102.537127 1277.98907,106.979471 L1277.98907,108.849932 Z M1374.63761,213.706685 C1401.77523,213.706685 1424,193.900409 1424,164.074488 C1424,150.792633 1419.55505,138.209823 1409.9633,129.821282 C1401.07339,122.131787 1389.37615,118.636562 1372.29817,113.743247 C1365.04587,111.646112 1361.77064,107.218827 1361.77064,101.393452 C1361.77064,95.8010914 1365.74771,91.3738063 1374.16972,91.3738063 L1404.11468,91.3738063 L1404.11468,52.9263302 L1382.3578,52.9263302 C1371.59633,52.9263302 1364.57798,52.9263302 1357.79358,54.3244202 C1336.0367,58.7517053 1322,76.6938608 1322,101.160437 C1322,114.209277 1325.97706,125.627012 1334.63303,134.481583 C1342.58716,142.637108 1352.1789,145.666303 1373.23394,152.656753 C1378.84862,154.520873 1384.22936,158.715143 1384.22936,165.006548 C1384.22936,170.598909 1379.7844,175.259209 1369.95872,175.259209 L1322.46789,175.259209 L1322.46789,213.706685 L1374.63761,213.706685 Z" id="smittytone’s"></path>
        </g>
    </g>
</svg>