<?xml version="1.0" encoding="UTF-8"?>
<svg width="1424px" height="732px" viewBox="0 0 1424 732" version="1.1" xmlns="http://www.w3.org/2000/svg" xmlns:xlink="http://www.w3.org/1999/xlink">
    <title>countdown</title>
    <g id="Page-1" stroke="none" stroke-width="1" fill="none" fill-rule="evenodd">
        <g id="Countdown" fill="#4E65AE">
            <path d="M14.4460227,213.708049 C8.88160097,213.708049 5.08287001,212.748384 3.04971591,210.829025 C1.0165618,208.909667 0,205.177636 0,199.632822 L0,154.528116 C0,152.395495 0.588535781,150.636109 1.765625,149.249905 C2.94271422,147.863702 4.38730205,147.17061 6.09943182,147.17061 C9.95172381,147.17061 11.8778409,149.623088 11.8778409,154.528116 L11.8778409,178.519981 C11.8778409,186.62394 13.8574613,192.861762 17.8167614,197.233635 C21.7760615,201.605508 27.393903,203.791412 34.6704545,203.791412 C41.5189736,203.791412 46.8157957,201.605508 50.5610795,197.233635 C54.3063634,192.861762 56.1789773,186.62394 56.1789773,178.519981 L56.1789773,161.885621 C56.1789773,154.421448 55.3764285,148.450199 53.7713068,143.971695 C52.1661852,139.493191 49.5445258,136.294308 45.90625,134.374949 C42.2679742,132.45559 37.4526815,131.495925 31.4602273,131.495925 L14.4460227,131.495925 C8.88160097,131.495925 5.08287001,130.482946 3.04971591,128.456956 C1.0165618,126.430966 0,122.645621 0,117.100807 L0,71.9961005 C0,66.4512862 1.0165618,62.7192557 3.04971591,60.7998969 C5.08287001,58.8805381 8.88160097,57.9208731 14.4460227,57.9208731 L98.5539773,57.9208731 C104.118399,57.9208731 107.91713,58.8805381 109.950284,60.7998969 C111.983438,62.7192557 113,66.4512862 113,71.9961005 L113,106.544386 C113,108.677007 112.411464,110.329763 111.234375,111.502705 C110.057286,112.675646 108.612698,113.262108 106.900568,113.262108 C105.188438,113.262108 103.797354,112.675646 102.727273,111.502705 C101.657192,110.329763 101.122159,108.677007 101.122159,106.544386 L101.122159,94.0686162 C101.122159,85.7513948 99.1425387,79.3003134 95.1832386,74.7151785 C91.2239385,70.1300437 85.82011,67.8375106 78.9715909,67.8375106 C71.6950394,67.8375106 66.1842043,70.2899878 62.4389205,75.1950158 C58.6936366,80.1000439 56.8210227,87.4574755 56.8210227,97.2675315 C56.8210227,108.35716 58.8541463,116.301054 62.9204545,121.099451 C66.9867628,125.897848 73.6211661,128.29701 82.8238636,128.29701 L98.5539773,128.29701 C104.118399,128.29701 107.91713,129.256675 109.950284,131.176034 C111.983438,133.095393 113,136.827423 113,142.372238 L113,199.632822 C113,203.471539 112.571974,206.350534 111.715909,208.269893 C110.859844,210.189252 109.415256,211.575435 107.382102,212.428483 C105.348948,213.281531 102.406269,213.708049 98.5539773,213.708049 L14.4460227,213.708049 Z M142.789809,214.706685 C141.074301,214.706685 139.680472,214.120077 138.60828,212.946844 C137.536088,211.773611 137,210.120444 137,207.987293 L137,71.9995991 C137,66.4534066 138.018567,62.7204484 140.055732,60.8006125 C142.092898,58.8807767 145.899123,57.9208731 151.474522,57.9208731 L324.525478,57.9208731 C330.100877,57.9208731 333.907102,58.9341046 335.944268,60.960598 C337.981433,62.9870915 339,66.6667217 339,71.9995991 L339,199.348075 C339,204.894267 337.981433,208.680553 335.944268,210.707047 C333.907102,212.73354 330.100877,213.746772 324.525478,213.746772 L298.471338,213.746772 C292.895938,213.746772 289.143322,212.73354 287.213376,210.707047 C285.28343,208.680553 284.318471,204.894267 284.318471,199.348075 L284.318471,92.797717 C284.318471,84.9050584 282.495772,78.7723414 278.850318,74.3993819 C275.204865,70.0264224 270.272855,67.8399755 264.05414,67.8399755 C257.620987,67.8399755 252.581759,70.0264224 248.936306,74.3993819 C245.290852,78.7723414 243.468153,84.9050584 243.468153,92.797717 L243.468153,199.348075 C243.468153,203.187746 243.039282,206.120785 242.181529,208.147278 C241.323775,210.173772 239.929946,211.613627 238,212.466888 C236.070054,213.320148 233.175179,213.746772 229.315287,213.746772 L202.93949,213.746772 C197.364091,213.746772 193.611475,212.73354 191.681529,210.707047 C189.751583,208.680553 188.786624,204.894267 188.786624,199.348075 L188.786624,92.797717 C188.786624,84.6917433 187.071142,78.5056983 183.640127,74.2393964 C180.209112,69.9730945 175.169885,67.8399755 168.522293,67.8399755 C155.441548,67.8399755 148.901274,76.2657954 148.901274,93.117688 L148.901274,207.987293 C148.901274,209.907129 148.311577,211.506968 147.132166,212.786859 C145.952754,214.066749 144.505316,214.706685 142.789809,214.706685 Z M378.491525,43.9399727 C372.909577,43.9399727 369.09888,42.9243387 367.059322,40.8930403 C365.019764,38.8617419 364,35.066478 364,29.507135 L364,14.112108 C364,8.55276495 365.019764,4.81095554 367.059322,2.88656755 C369.09888,0.962179562 372.909577,-5.68434189e-14 378.491525,-5.68434189e-14 L406.508475,-5.68434189e-14 C410.372901,-5.68434189e-14 413.324849,0.427635361 415.364407,1.28291891 C417.403965,2.13820246 418.853103,3.52801738 419.711864,5.45240537 C420.570626,7.37679336 421,10.263332 421,14.112108 L421,29.507135 C421,35.066478 419.980236,38.8617419 417.940678,40.8930403 C415.90112,42.9243387 412.090423,43.9399727 406.508475,43.9399727 L378.491525,43.9399727 Z M378.491525,213.708049 C372.909577,213.708049 369.09888,212.748384 367.059322,210.829025 C365.019764,208.909667 364,205.177636 364,199.632822 L364,71.9961005 C364,66.4512862 365.019764,62.7192557 367.059322,60.7998969 C369.09888,58.8805381 372.909577,57.9208731 378.491525,57.9208731 L406.508475,57.9208731 C410.372901,57.9208731 413.324849,58.3473909 415.364407,59.2004393 C417.403965,60.0534876 418.853103,61.4396704 419.711864,63.3590292 C420.570626,65.278388 421,68.1573829 421,71.9961005 L421,199.632822 C421,205.177636 419.980236,208.909667 417.940678,210.829025 C415.90112,212.748384 412.090423,213.708049 406.508475,213.708049 L378.491525,213.708049 Z M464.267206,213.708049 C458.936546,213.708049 455.258445,212.694101 453.232794,210.666173 C451.207142,208.638245 450.194332,204.956011 450.194332,199.619359 L450.194332,72.1807575 L446.995951,72.1807575 C444.650461,72.1807575 442.731451,71.5403689 441.238866,70.2595725 C439.746281,68.9787762 439,67.2710733 439,65.1364127 C439,60.2266932 442.624795,57.7718703 449.874494,57.7718703 L462.02834,57.7718703 C473.755794,57.7718703 482.178112,55.5305103 487.295547,51.047723 C492.412981,46.5649357 494.97166,39.0937356 494.97166,28.6338985 L494.97166,19.3481712 C494.97166,17.2135106 495.558024,15.452442 496.730769,14.0649126 C497.903515,12.6773832 499.342771,11.9836289 501.048583,11.9836289 C502.754394,11.9836289 504.08704,12.6240175 505.046559,13.9048139 C506.006078,15.1856102 506.48583,17.0000446 506.48583,19.3481712 L506.48583,57.7718703 L510.643725,57.7718703 C512.989216,57.7718703 514.801613,58.4122589 516.080972,59.6930553 C517.36033,60.9738517 518,62.788286 518,65.1364127 C518,67.2710733 517.36033,68.9787762 516.080972,70.2595725 C514.801613,71.5403689 513.095827,72.1807575 510.963563,72.1807575 L506.48583,72.1807575 L506.48583,199.619359 C506.48583,205.169477 505.526325,208.905077 503.607287,210.826272 C501.68825,212.747466 497.956843,213.708049 492.412955,213.708049 L464.267206,213.708049 Z M554.267206,213.708049 C548.936546,213.708049 545.258445,212.694101 543.232794,210.666173 C541.207142,208.638245 540.194332,204.956011 540.194332,199.619359 L540.194332,72.1807575 L536.995951,72.1807575 C534.650461,72.1807575 532.731451,71.5403689 531.238866,70.2595725 C529.746281,68.9787762 529,67.2710733 529,65.1364127 C529,60.2266932 532.624795,57.7718703 539.874494,57.7718703 L552.02834,57.7718703 C563.755794,57.7718703 572.178112,55.5305103 577.295547,51.047723 C582.412981,46.5649357 584.97166,39.0937356 584.97166,28.6338985 L584.97166,19.3481712 C584.97166,17.2135106 585.558024,15.452442 586.730769,14.0649126 C587.903515,12.6773832 589.342771,11.9836289 591.048583,11.9836289 C592.754394,11.9836289 594.08704,12.6240175 595.046559,13.9048139 C596.006078,15.1856102 596.48583,17.0000446 596.48583,19.3481712 L596.48583,57.7718703 L600.643725,57.7718703 C602.989216,57.7718703 604.801613,58.4122589 606.080972,59.6930553 C607.36033,60.9738517 608,62.788286 608,65.1364127 C608,67.2710733 607.36033,68.9787762 606.080972,70.2595725 C604.801613,71.5403689 603.095827,72.1807575 600.963563,72.1807575 L596.48583,72.1807575 L596.48583,199.619359 C596.48583,205.169477 595.526325,208.905077 593.607287,210.826272 C591.68825,212.747466 587.956843,213.708049 582.412955,213.708049 L554.267206,213.708049 Z M695.745042,272.627558 C690.409794,272.627558 686.728528,271.666028 684.701133,269.74294 C682.673739,267.819852 681.660057,264.08057 681.660057,258.524981 L681.660057,228.717262 C681.660057,223.161674 680.48632,219.315555 678.13881,217.178791 C675.791301,215.042026 671.523166,213.97366 665.334278,213.97366 L639.405099,213.97366 C633.856441,213.97366 630.068471,212.958711 628.041076,210.928785 C626.013682,208.898859 625,205.106158 625,199.55057 L625,71.9863534 C625,66.4307651 626.013682,62.6914829 628.041076,60.7683947 C630.068471,58.8453064 633.856441,57.8837767 639.405099,57.8837767 L667.575071,57.8837767 C673.123729,57.8837767 676.858347,58.8453064 678.779037,60.7683947 C680.699726,62.6914829 681.660057,66.4307651 681.660057,71.9863534 L681.660057,176.153113 C681.660057,181.922378 682.08687,186.356098 682.94051,189.454407 C683.79415,192.552716 685.3947,195.170213 687.74221,197.306978 C689.876309,199.443743 692.383838,201.046292 695.264873,202.114675 C698.145907,203.183057 701.080249,203.71724 704.067989,203.71724 C711.110517,203.71724 716.552389,201.366834 720.393768,196.665952 C724.235147,191.965069 726.155807,185.127525 726.155807,176.153113 L726.155807,64.2940388 C726.155807,62.1572741 726.742676,60.3944696 727.916431,59.0055726 C729.090185,57.6166755 730.530681,56.9222374 732.23796,56.9222374 C733.94524,56.9222374 735.332384,57.5632572 736.399433,58.845316 C737.466483,60.1273749 738,61.9435976 738,64.2940388 L738,258.524981 C738,264.08057 736.986318,267.819852 734.958924,269.74294 C732.931529,271.666028 729.143559,272.627558 723.594901,272.627558 L695.745042,272.627558 Z M782.267206,213.708049 C776.936546,213.708049 773.258445,212.694101 771.232794,210.666173 C769.207142,208.638245 768.194332,204.956011 768.194332,199.619359 L768.194332,72.1807575 L764.995951,72.1807575 C762.650461,72.1807575 760.731451,71.5403689 759.238866,70.2595725 C757.746281,68.9787762 757,67.2710733 757,65.1364127 C757,60.2266932 760.624795,57.7718703 767.874494,57.7718703 L780.02834,57.7718703 C791.755794,57.7718703 800.178112,55.5305103 805.295547,51.047723 C810.412981,46.5649357 812.97166,39.0937356 812.97166,28.6338985 L812.97166,19.3481712 C812.97166,17.2135106 813.558024,15.452442 814.730769,14.0649126 C815.903515,12.6773832 817.342771,11.9836289 819.048583,11.9836289 C820.754394,11.9836289 822.08704,12.6240175 823.046559,13.9048139 C824.006078,15.1856102 824.48583,17.0000446 824.48583,19.3481712 L824.48583,57.7718703 L828.643725,57.7718703 C830.989216,57.7718703 832.801613,58.4122589 834.080972,59.6930553 C835.36033,60.9738517 836,62.788286 836,65.1364127 C836,67.2710733 835.36033,68.9787762 834.080972,70.2595725 C832.801613,71.5403689 831.095827,72.1807575 828.963563,72.1807575 L824.48583,72.1807575 L824.48583,199.619359 C824.48583,205.169477 823.526325,208.905077 821.607287,210.826272 C819.68825,212.747466 815.956843,213.708049 810.412955,213.708049 L782.267206,213.708049 Z M871.441261,213.708049 C865.878673,213.708049 862.081194,212.748384 860.048711,210.829025 C858.016227,208.909667 857,205.177636 857,199.632822 L857,71.9961005 C857,66.4512862 858.016227,62.7192557 860.048711,60.7998969 C862.081194,58.8805381 865.878673,57.9208731 871.441261,57.9208731 L954.558739,57.9208731 C958.409761,57.9208731 961.35147,58.3473909 963.383954,59.2004393 C965.416438,60.0534876 966.86055,61.4396704 967.716332,63.3590292 C968.572115,65.278388 969,68.1573829 969,71.9961005 L969,199.632822 C969,203.471539 968.572115,206.350534 967.716332,208.269893 C966.86055,210.189252 965.416438,211.575435 963.383954,212.428483 C961.35147,213.281531 958.409761,213.708049 954.558739,213.708049 L871.441261,213.708049 Z M935.022222,203.721692 C941.604971,203.721692 946.91356,201.59129 950.948148,197.330423 C954.982736,193.069556 957,187.530512 957,180.713124 L957,90.5962347 C957,84.2049339 954.92965,78.8256699 950.788889,74.458281 C946.648127,70.0908922 941.498796,67.9072306 935.340741,67.9072306 C928.970339,67.9072306 923.821007,70.0376322 919.892593,74.2984993 C915.964178,78.5593665 914,84.2049307 914,91.2353615 L914,180.393561 C914,187.423991 915.911092,193.069556 919.733333,197.330423 C923.555575,201.59129 928.65182,203.721692 935.022222,203.721692 Z M999.811429,214.706685 C997.874276,214.706685 996.421433,214.173405 995.452857,213.10683 C994.484281,212.040254 994,210.333759 994,207.987293 L994,71.9995991 C994,66.4534066 995.022371,62.7204484 997.067143,60.8006125 C999.111915,58.8807767 1002.93235,57.9208731 1008.52857,57.9208731 L1092.47143,57.9208731 C1096.34573,57.9208731 1099.30523,58.2941689 1101.35,59.0407718 C1103.39477,59.7873746 1104.84761,61.1739019 1105.70857,63.2003954 C1106.56953,65.2268888 1107,68.1599273 1107,71.9995991 L1107,199.348075 C1107,204.894267 1105.97763,208.680553 1103.93286,210.707047 C1101.88809,212.73354 1098.06765,213.746772 1092.47143,213.746772 L1064.38286,213.746772 C1058.78664,213.746772 1054.9662,212.73354 1052.92143,210.707047 C1050.87666,208.680553 1049.85429,204.894267 1049.85429,199.348075 L1049.85429,94.0776011 C1049.85429,85.9716275 1047.86335,79.5722706 1043.88143,74.8793385 C1039.8995,70.1864064 1034.4648,67.8399755 1027.57714,67.8399755 C1024.13332,67.8399755 1020.85097,68.5865671 1017.73,70.0797728 C1014.60903,71.5729785 1011.97239,73.5994415 1009.82,76.1592227 C1008.31333,78.2923736 1007.29096,80.6921324 1006.75286,83.3585712 C1006.21476,86.0250099 1005.94571,89.7046401 1005.94571,94.3975722 L1005.94571,207.987293 C1005.94571,212.46691 1003.90097,214.706685 999.811429,214.706685 Z M1146.12034,213.708049 C1140.7717,213.708049 1137.08119,212.695069 1135.04871,210.66908 C1133.01623,208.64309 1132,204.964374 1132,199.632822 L1132,71.9961005 C1132,66.4512862 1133.01623,62.7192557 1135.04871,60.7998969 C1137.08119,58.8805381 1140.7717,57.9208731 1146.12034,57.9208731 L1229.55874,57.9208731 C1233.40976,57.9208731 1236.35147,58.3473909 1238.38395,59.2004393 C1240.41644,60.0534876 1241.86055,61.4396704 1242.71633,63.3590292 C1243.57212,65.278388 1244,68.1573829 1244,71.9961005 L1244,129.576576 C1244,135.121391 1242.98377,138.906736 1240.95129,140.932726 C1238.91881,142.958715 1235.12133,143.971695 1229.55874,143.971695 L1166.01719,143.971695 C1158.1012,143.971695 1152.43173,146.050969 1149.0086,150.20958 C1145.58547,154.368191 1143.87393,161.13916 1143.87393,170.522692 C1143.87393,176.494031 1144.14135,181.185726 1144.67622,184.59792 C1145.21108,188.010113 1146.12034,190.889108 1147.40401,193.234991 C1149.11558,196.433922 1151.68289,198.993029 1155.10602,200.912388 C1158.52915,202.831747 1162.27314,203.791412 1166.33811,203.791412 C1172.54253,203.791412 1177.57018,201.658823 1181.4212,197.393581 C1185.27223,193.128339 1187.19771,187.583608 1187.19771,180.759221 L1187.19771,169.882909 C1187.19771,165.83093 1187.30468,163.165193 1187.51862,161.885621 C1187.73257,160.606048 1188.3744,159.433125 1189.44413,158.366814 C1191.79753,156.020931 1195.43455,154.848007 1200.3553,154.848007 L1229.55874,154.848007 C1233.40976,154.848007 1236.35147,155.274525 1238.38395,156.127573 C1240.41644,156.980622 1241.86055,158.366805 1242.71633,160.286163 C1243.57212,162.205522 1244,165.084517 1244,168.923235 L1244,199.632822 C1244,205.177636 1242.98377,208.909667 1240.95129,210.829025 C1238.91881,212.748384 1235.12133,213.708049 1229.55874,213.708049 L1146.12034,213.708049 Z M1165.32353,133.81719 C1172.00984,133.81719 1177.2941,131.577553 1181.17647,127.098213 C1185.05884,122.618873 1187,116.646509 1187,109.180943 L1187,93.1833799 C1187,85.7178132 1185.00492,79.6388001 1181.01471,74.9461582 C1177.02449,70.2535163 1171.79415,67.9072306 1165.32353,67.9072306 C1158.63722,67.9072306 1153.24512,70.2001916 1149.14706,74.7861826 C1145.049,79.3721736 1143,85.5045113 1143,93.1833799 L1143,106.301381 C1143,114.833458 1144.99508,121.552367 1148.98529,126.458311 C1152.97551,131.364255 1158.42153,133.81719 1165.32353,133.81719 Z M1285.5463,89.8772169 C1280.79319,89.8772169 1278.41667,86.9883353 1278.41667,81.2104853 L1278.41667,66.1239524 C1278.41667,63.3420247 1277.60649,61.2021123 1275.98611,59.7041512 C1274.36573,58.2061901 1272.04322,57.4572208 1269.01852,57.4572208 L1266.75,57.4572208 C1263.72529,57.4572208 1261.51081,56.6547537 1260.10648,55.0497954 C1258.70215,53.444837 1258,50.8234444 1258,47.1855389 L1258,28.2471253 C1258,24.1812309 1258.70215,21.4528427 1260.10648,20.0618788 C1261.51081,18.6709149 1264.26541,17.9754434 1268.37037,17.9754434 L1282.62963,17.9754434 C1286.73459,17.9754434 1289.48919,18.6709149 1290.89352,20.0618788 C1292.29785,21.4528427 1293,24.1812309 1293,28.2471253 L1293,81.2104853 C1293,83.9924131 1292.35186,86.1323254 1291.05556,87.6302865 C1289.75925,89.1282476 1287.92285,89.8772169 1285.5463,89.8772169 Z M1325.44602,213.708049 C1319.8816,213.708049 1316.08287,212.748384 1314.04972,210.829025 C1312.01656,208.909667 1311,205.177636 1311,199.632822 L1311,154.528116 C1311,152.395495 1311.58854,150.636109 1312.76563,149.249905 C1313.94271,147.863702 1315.3873,147.17061 1317.09943,147.17061 C1320.95172,147.17061 1322.87784,149.623088 1322.87784,154.528116 L1322.87784,178.519981 C1322.87784,186.62394 1324.85746,192.861762 1328.81676,197.233635 C1332.77606,201.605508 1338.3939,203.791412 1345.67045,203.791412 C1352.51897,203.791412 1357.8158,201.605508 1361.56108,197.233635 C1365.30636,192.861762 1367.17898,186.62394 1367.17898,178.519981 L1367.17898,161.885621 C1367.17898,154.421448 1366.37643,148.450199 1364.77131,143.971695 C1363.16619,139.493191 1360.54453,136.294308 1356.90625,134.374949 C1353.26797,132.45559 1348.45268,131.495925 1342.46023,131.495925 L1325.44602,131.495925 C1319.8816,131.495925 1316.08287,130.482946 1314.04972,128.456956 C1312.01656,126.430966 1311,122.645621 1311,117.100807 L1311,71.9961005 C1311,66.4512862 1312.01656,62.7192557 1314.04972,60.7998969 C1316.08287,58.8805381 1319.8816,57.9208731 1325.44602,57.9208731 L1409.55398,57.9208731 C1415.1184,57.9208731 1418.91713,58.8805381 1420.95028,60.7998969 C1422.98344,62.7192557 1424,66.4512862 1424,71.9961005 L1424,106.544386 C1424,108.677007 1423.41146,110.329763 1422.23438,111.502705 C1421.05729,112.675646 1419.6127,113.262108 1417.90057,113.262108 C1416.18844,113.262108 1414.79735,112.675646 1413.72727,111.502705 C1412.65719,110.329763 1412.12216,108.677007 1412.12216,106.544386 L1412.12216,94.0686162 C1412.12216,85.7513948 1410.14254,79.3003134 1406.18324,74.7151785 C1402.22394,70.1300437 1396.82011,67.8375106 1389.97159,67.8375106 C1382.69504,67.8375106 1377.1842,70.2899878 1373.43892,75.1950158 C1369.69364,80.1000439 1367.82102,87.4574755 1367.82102,97.2675315 C1367.82102,108.35716 1369.85415,116.301054 1373.92045,121.099451 C1377.98676,125.897848 1384.62117,128.29701 1393.82386,128.29701 L1409.55398,128.29701 C1415.1184,128.29701 1418.91713,129.256675 1420.95028,131.176034 C1422.98344,133.095393 1424,136.827423 1424,142.372238 L1424,199.632822 C1424,203.471539 1423.57197,206.350534 1422.71591,208.269893 C1421.85984,210.189252 1420.41526,211.575435 1418.3821,212.428483 C1416.34895,213.281531 1413.40627,213.708049 1409.55398,213.708049 L1325.44602,213.708049 Z" id="smittytone’s"></path>
            <path d="M185.967752,475.552676 C180.202367,475.552676 176.266442,474.556198 174.159859,472.56321 C172.053276,470.570222 171,466.695027 171,460.937507 L171,414.102534 C171,411.888103 171.609791,410.061225 172.829392,408.621845 C174.048993,407.182465 175.545753,406.462786 177.319717,406.462786 C181.311138,406.462786 183.306818,409.009343 183.306818,414.102534 L183.306818,439.014754 C183.306818,447.42959 185.357934,453.906703 189.460227,458.446285 C193.562521,462.985868 199.383255,465.255625 206.922604,465.255625 C214.018463,465.255625 219.506584,462.985868 223.387131,458.446285 C227.267679,453.906703 229.207924,447.42959 229.207924,439.014754 L229.207924,421.742281 C229.207924,413.991774 228.37639,407.791461 226.713299,403.141157 C225.050207,398.490853 222.333864,395.169257 218.564189,393.176269 C214.794514,391.183281 209.805314,390.186803 203.596437,390.186803 L185.967752,390.186803 C180.202367,390.186803 176.266442,389.134964 174.159859,387.031255 C172.053276,384.927546 171,380.99699 171,375.239471 L171,328.404497 C171,322.646977 172.053276,318.771782 174.159859,316.778794 C176.266442,314.785807 180.202367,313.789328 185.967752,313.789328 L273.113329,313.789328 C278.878714,313.789328 282.814639,314.785807 284.921222,316.778794 C287.027805,318.771782 288.081081,322.646977 288.081081,328.404497 L288.081081,364.278094 C288.081081,366.492524 287.47129,368.208682 286.251689,369.426619 C285.032088,370.644556 283.535328,371.253515 281.761364,371.253515 C279.987399,371.253515 278.546074,370.644556 277.437346,369.426619 C276.328619,368.208682 275.774263,366.492524 275.774263,364.278094 L275.774263,351.323739 C275.774263,342.68746 273.723147,335.988908 269.620854,331.227882 C265.518561,326.466856 259.919569,324.086379 252.82371,324.086379 C245.28436,324.086379 239.574497,326.632936 235.69395,331.726126 C231.813402,336.819317 229.873157,344.458988 229.873157,354.645369 C229.873157,366.160408 231.979709,374.409038 236.192875,379.391507 C240.406041,384.373976 247.280051,386.865173 256.815111,386.865173 L273.113329,386.865173 C278.878714,386.865173 282.814639,387.861652 284.921222,389.85464 C287.027805,391.847627 288.081081,395.722823 288.081081,401.480342 L288.081081,460.937507 C288.081081,464.923482 287.637597,467.912919 286.750614,469.905907 C285.863632,471.898894 284.366872,473.338252 282.260289,474.224025 C280.153706,475.109797 277.10475,475.552676 273.113329,475.552676 L185.967752,475.552676 Z M327.995086,475.552676 C322.229701,475.552676 318.293776,474.556198 316.187193,472.56321 C314.08061,470.570222 313.027334,466.695027 313.027334,460.937507 L313.027334,328.404497 C313.027334,322.646977 314.08061,318.771782 316.187193,316.778794 C318.293776,314.785807 322.229701,313.789328 327.995086,313.789328 L414.142813,313.789328 C418.134234,313.789328 421.18319,314.232207 423.289773,315.11798 C425.396356,316.003752 426.893116,317.44311 427.780098,319.436098 C428.667081,321.429085 429.110565,324.418522 429.110565,328.404497 L429.110565,460.937507 C429.110565,464.923482 428.667081,467.912919 427.780098,469.905907 C426.893116,471.898894 425.396356,473.338252 423.289773,474.224025 C421.18319,475.109797 418.134234,475.552676 414.142813,475.552676 L327.995086,475.552676 Z M393.853194,465.255625 C400.727307,465.255625 406.270863,463.041228 410.484029,458.612367 C414.697196,454.183506 416.803747,448.426072 416.803747,441.339894 L416.803747,347.669947 C416.803747,341.026655 414.64176,335.435302 410.317721,330.895719 C405.993682,326.356136 400.616433,324.086379 394.185811,324.086379 C387.533443,324.086379 382.156194,326.300776 378.0539,330.729638 C373.951607,335.158499 371.900491,341.026652 371.900491,348.334273 L371.900491,441.007731 C371.900491,448.315352 373.896172,454.183506 377.887592,458.612367 C381.879013,463.041228 387.200827,465.255625 393.853194,465.255625 Z M472.01812,475.552676 C466.252735,475.552676 462.31681,474.500838 460.210227,472.397129 C458.103644,470.293419 457.050369,466.362864 457.050369,460.605344 L457.050369,328.072334 L454.722052,328.072334 C452.28285,328.072334 450.231734,327.408015 448.568643,326.079356 C446.905551,324.750698 446.074017,323.0899 446.074017,321.096912 C446.074017,319.103925 446.905551,317.387767 448.568643,315.948387 C450.231734,314.509007 452.28285,313.789328 454.722052,313.789328 L457.050369,313.789328 L457.050369,268.947332 C457.050369,263.189812 458.103644,259.259257 460.210227,257.155548 C462.31681,255.051839 466.252735,254 472.01812,254 L522.243243,254 C527.343392,254 529.893428,255.992958 529.893428,259.978933 C529.893428,261.97192 529.172765,263.521999 527.731419,264.629214 C526.290073,265.736429 524.238957,266.290029 521.57801,266.290029 L493.970823,266.290029 C476.896413,266.290029 468.359337,274.151139 468.359337,289.873597 C468.359337,297.624104 470.521324,303.547617 474.845362,307.644314 C479.169401,311.74101 485.322749,313.789328 493.30559,313.789328 L518.917076,313.789328 C522.908497,313.789328 525.846581,314.342927 527.731419,315.450143 C529.616256,316.557358 530.558661,318.328876 530.558661,320.76475 C530.558661,322.97918 529.727127,324.750698 528.064036,326.079356 C526.400944,327.408015 524.017215,328.072334 520.912776,328.072334 L515.923526,328.072334 L515.923526,460.605344 C515.923526,464.59132 515.480041,467.636116 514.593059,469.739825 C513.706077,471.843534 512.264752,473.338252 510.269042,474.224025 C508.273332,475.109797 505.279811,475.552676 501.288391,475.552676 L472.01812,475.552676 Z M574.13145,475.552676 C568.58781,475.552676 564.762756,474.500838 562.656173,472.397129 C560.54959,470.293419 559.496314,466.473584 559.496314,460.937507 L559.496314,328.73666 L556.170147,328.73666 C553.730946,328.73666 551.735266,328.072341 550.183047,326.743682 C548.630828,325.415024 547.85473,323.643506 547.85473,321.429075 C547.85473,316.335885 551.624348,313.789328 559.163698,313.789328 L571.803133,313.789328 C583.99914,313.789328 592.757959,311.464211 598.079853,306.813906 C603.401747,302.163602 606.062654,294.413211 606.062654,283.562501 L606.062654,273.929776 C606.062654,271.715345 606.672445,269.888467 607.892045,268.449088 C609.111646,267.009708 610.608406,266.290029 612.382371,266.290029 C614.156336,266.290029 615.542225,266.954348 616.54008,268.283006 C617.537935,269.611664 618.036855,271.493902 618.036855,273.929776 L618.036855,313.789328 L622.360872,313.789328 C624.800074,313.789328 626.684883,314.453647 628.015356,315.782306 C629.34583,317.110964 630.011057,318.993202 630.011057,321.429075 C630.011057,323.643506 629.34583,325.415024 628.015356,326.743682 C626.684883,328.072341 624.910945,328.73666 622.693489,328.73666 L618.036855,328.73666 L618.036855,460.937507 C618.036855,466.695027 617.039015,470.570222 615.043305,472.56321 C613.047594,474.556198 609.167105,475.552676 603.40172,475.552676 L574.13145,475.552676 Z M662.607494,475.552676 C657.063854,475.552676 653.183365,474.500838 650.965909,472.397129 C648.748453,470.293419 647.639742,466.473584 647.639742,460.937507 L647.639742,328.404497 C647.639742,322.86842 648.748453,319.048585 650.965909,316.944876 C653.183365,314.841167 657.063854,313.789328 662.607494,313.789328 L689.549447,313.789328 C695.314832,313.789328 699.195322,314.785807 701.191032,316.778794 C703.186742,318.771782 704.184582,322.646977 704.184582,328.404497 L704.184582,439.346917 C704.184582,447.54031 706.013956,453.906703 709.672758,458.446285 C713.33156,462.985868 718.597939,465.255625 725.472052,465.255625 C732.346165,465.255625 737.557108,463.041228 741.105037,458.612367 C744.652966,454.183506 746.426904,447.761753 746.426904,439.346917 L746.426904,328.404497 C746.426904,322.646977 747.48018,318.771782 749.586763,316.778794 C751.693346,314.785807 755.5184,313.789328 761.062039,313.789328 L788.336609,313.789328 C794.101994,313.789328 797.982484,314.785807 799.978194,316.778794 C801.973904,318.771782 802.971744,322.646977 802.971744,328.404497 L802.971744,439.346917 C802.971744,447.761753 804.690247,454.183506 808.127303,458.612367 C811.56436,463.041228 816.719867,465.255625 823.59398,465.255625 C830.468093,465.255625 835.623601,463.096588 839.060657,458.778448 C842.497714,454.460309 844.216216,447.983196 844.216216,439.346917 L844.216216,319.768261 C844.216216,317.775273 844.826007,316.114475 846.045608,314.785817 C847.265209,313.457158 848.761969,312.792839 850.535934,312.792839 C852.309898,312.792839 853.751223,313.401798 854.859951,314.619735 C855.968679,315.837672 856.523034,317.55383 856.523034,319.768261 L856.523034,460.937507 C856.523034,464.923482 856.07955,467.912919 855.192568,469.905907 C854.305585,471.898894 852.808825,473.338252 850.702242,474.224025 C848.595659,475.109797 845.546703,475.552676 841.555283,475.552676 L662.607494,475.552676 Z M896.437039,475.552676 C890.671654,475.552676 886.735729,474.556198 884.629146,472.56321 C882.522563,470.570222 881.469287,466.695027 881.469287,460.937507 L881.469287,397.162224 C881.469287,391.404705 882.522563,387.529509 884.629146,385.536522 C886.735729,383.543534 890.671654,382.547055 896.437039,382.547055 L963.958231,382.547055 C971.05409,382.547055 976.486775,380.000498 980.25645,374.907308 C984.026124,369.814117 985.910934,362.506606 985.910934,352.984554 C985.910934,343.905389 983.859818,336.819317 979.757525,331.726126 C975.655231,326.632936 969.945368,324.086379 962.627764,324.086379 C955.753651,324.086379 950.320966,326.245416 946.329545,330.563556 C942.338125,334.881696 940.342445,340.583769 940.342445,347.669947 L940.342445,356.306183 C940.342445,362.063703 939.289169,365.938898 937.182586,367.931886 C935.076003,369.924874 931.140078,370.921352 925.374693,370.921352 L896.437039,370.921352 C890.671654,370.921352 886.735729,369.924874 884.629146,367.931886 C882.522563,365.938898 881.469287,362.063703 881.469287,356.306183 L881.469287,328.404497 C881.469287,322.646977 882.522563,318.771782 884.629146,316.778794 C886.735729,314.785807 890.671654,313.789328 896.437039,313.789328 L983.915233,313.789328 C989.680619,313.789328 993.561108,314.785807 995.556818,316.778794 C997.552528,318.771782 998.550369,322.646977 998.550369,328.404497 L998.550369,460.937507 C998.550369,466.473584 997.552528,470.293419 995.556818,472.397129 C993.561108,474.500838 989.680619,475.552676 983.915233,475.552676 L896.437039,475.552676 Z M916.726658,465.255625 C923.822517,465.255625 929.421509,462.985868 933.523802,458.446285 C937.626095,453.906703 939.677211,447.76175 939.677211,440.011243 L939.677211,417.092 C939.677211,410.005822 937.626095,404.248389 933.523802,399.819528 C929.421509,395.390666 923.933388,393.176269 917.059275,393.176269 C909.741671,393.176269 904.031808,395.335306 899.929515,399.653446 C895.827222,403.971586 893.776106,410.005819 893.776106,417.756326 L893.776106,439.346917 C893.776106,447.761753 895.71635,454.183506 899.596898,458.612367 C903.477446,463.041228 909.187309,465.255625 916.726658,465.255625 Z M1039.79484,475.552676 C1034.02946,475.552676 1030.09353,474.556198 1027.98695,472.56321 C1025.88036,470.570222 1024.82709,466.695027 1024.82709,460.937507 L1024.82709,328.404497 C1024.82709,322.646977 1025.88036,318.771782 1027.98695,316.778794 C1030.09353,314.785807 1034.02946,313.789328 1039.79484,313.789328 L1063.07801,313.789328 C1066.18245,313.789328 1068.73248,314.453647 1070.72819,315.782306 C1072.7239,317.110964 1074.2761,319.325361 1075.38483,322.425564 C1075.60657,319.103918 1076.60441,316.834161 1078.37838,315.616224 C1080.15234,314.398287 1083.47848,313.789328 1088.35688,313.789328 L1109.97697,313.789328 C1112.19442,313.789328 1113.91292,314.342927 1115.13252,315.450143 C1116.35213,316.557358 1116.96192,317.996716 1116.96192,319.768261 C1116.96192,323.532793 1114.41188,325.415031 1109.31173,325.415031 C1102.88111,325.636474 1097.78104,326.577593 1094.01136,328.238416 C1090.24169,329.899239 1087.58078,332.556515 1086.02856,336.210326 C1084.47634,339.864136 1083.70025,345.01261 1083.70025,351.655902 L1083.70025,460.937507 C1083.70025,466.695027 1082.64697,470.570222 1080.54039,472.56321 C1078.4338,474.556198 1074.49788,475.552676 1068.73249,475.552676 L1039.79484,475.552676 Z M1152.5519,475.552676 C1147.00826,475.552676 1143.18321,474.500838 1141.07663,472.397129 C1138.97004,470.293419 1137.91677,466.473584 1137.91677,460.937507 L1137.91677,328.404497 C1137.91677,322.646977 1138.97004,318.771782 1141.07663,316.778794 C1143.18321,314.785807 1147.00826,313.789328 1152.5519,313.789328 L1239.03225,313.789328 C1243.02367,313.789328 1246.07262,314.232207 1248.17921,315.11798 C1250.28579,316.003752 1251.78255,317.44311 1252.66953,319.436098 C1253.55652,321.429085 1254,324.418522 1254,328.404497 L1254,388.193825 C1254,393.951345 1252.94672,397.8819 1250.84014,399.985609 C1248.73356,402.089318 1244.79763,403.141157 1239.03225,403.141157 L1173.17414,403.141157 C1164.96955,403.141157 1159.09338,405.300194 1155.54545,409.618334 C1151.99753,413.936474 1150.22359,420.967186 1150.22359,430.71068 C1150.22359,436.911086 1150.50077,441.78276 1151.05513,445.325849 C1151.60949,448.868938 1152.5519,451.858375 1153.88237,454.294249 C1155.65634,457.615895 1158.31724,460.273172 1161.86517,462.266159 C1165.4131,464.259147 1169.29359,465.255625 1173.50676,465.255625 C1179.93738,465.255625 1185.14832,463.041228 1189.13974,458.612367 C1193.13116,454.183506 1195.12684,448.426072 1195.12684,441.339894 L1195.12684,430.046355 C1195.12684,425.838936 1195.23771,423.07094 1195.45946,421.742281 C1195.68121,420.413623 1196.34643,419.195704 1197.45516,418.088489 C1199.89436,415.652615 1203.66398,414.434697 1208.76413,414.434697 L1239.03225,414.434697 C1243.02367,414.434697 1246.07262,414.877576 1248.17921,415.763348 C1250.28579,416.649121 1251.78255,418.088479 1252.66953,420.081467 C1253.55652,422.074454 1254,425.063891 1254,429.049866 L1254,460.937507 C1254,466.695027 1252.94672,470.570222 1250.84014,472.56321 C1248.73356,474.556198 1244.79763,475.552676 1239.03225,475.552676 L1152.5519,475.552676 Z M1172.84152,392.511943 C1179.71564,392.511943 1185.14832,390.186826 1189.13974,385.536522 C1193.13116,380.886217 1195.12684,374.685904 1195.12684,366.935397 L1195.12684,350.327251 C1195.12684,342.576743 1193.07573,336.265711 1188.97343,331.393963 C1184.87114,326.522216 1179.49389,324.086379 1172.84152,324.086379 C1165.96741,324.086379 1160.42385,326.466856 1156.21069,331.227882 C1151.99752,335.988908 1149.89097,342.3553 1149.89097,350.327251 L1149.89097,363.945931 C1149.89097,372.803653 1151.94209,379.779005 1156.04438,384.872196 C1160.14667,389.965386 1165.74566,392.511943 1172.84152,392.511943 Z" id="software"></path>
            <path d="M405.910448,730.704461 C400.167135,730.704461 396.246279,729.711798 394.147761,727.72644 C392.049243,725.741083 391,721.880723 391,716.145246 L391,669.489581 C391,667.283628 391.607457,665.463744 392.822388,664.029875 C394.03732,662.596006 395.528349,661.879082 397.295522,661.879082 C401.271662,661.879082 403.259701,664.41589 403.259701,669.489581 L403.259701,694.306424 C403.259701,702.689044 405.302965,709.141359 409.389552,713.663562 C413.47614,718.185765 419.274589,720.446833 426.785075,720.446833 C433.853767,720.446833 439.320876,718.185765 443.186567,713.663562 C447.052258,709.141359 448.985075,702.689044 448.985075,694.306424 L448.985075,677.100079 C448.985075,669.379245 448.156725,663.20267 446.5,658.57017 C444.843275,653.937669 442.137332,650.62879 438.38209,648.643432 C434.626847,646.658075 429.656747,645.665411 423.471642,645.665411 L405.910448,645.665411 C400.167135,645.665411 396.246279,644.617599 394.147761,642.521944 C392.049243,640.426289 391,636.510782 391,630.775305 L391,584.119639 C391,578.384162 392.049243,574.523803 394.147761,572.538446 C396.246279,570.553088 400.167135,569.560424 405.910448,569.560424 L492.722388,569.560424 C498.4657,569.560424 502.386557,570.553088 504.485075,572.538446 C506.583593,574.523803 507.632836,578.384162 507.632836,584.119639 L507.632836,619.855894 C507.632836,622.061846 507.025379,623.771434 505.810448,624.984708 C504.595516,626.197982 503.104486,626.80461 501.337313,626.80461 C499.57014,626.80461 498.134334,626.197982 497.029851,624.984708 C495.925368,623.771434 495.373134,622.061846 495.373134,619.855894 L495.373134,606.951135 C495.373134,598.34792 493.329871,591.675013 489.243284,586.932215 C485.156696,582.189417 479.57914,579.818053 472.510448,579.818053 C464.999962,579.818053 459.31196,582.354861 455.446269,587.428552 C451.580578,592.502243 449.647761,600.112665 449.647761,610.260048 C449.647761,621.731002 451.746248,629.948052 455.943284,634.911446 C460.140319,639.874839 466.988012,642.356499 476.486567,642.356499 L492.722388,642.356499 C498.4657,642.356499 502.386557,643.349162 504.485075,645.33452 C506.583593,647.319877 507.632836,651.180236 507.632836,656.915713 L507.632836,716.145246 C507.632836,720.115961 507.191049,723.093953 506.307463,725.07931 C505.423876,727.064668 503.932846,728.498515 501.834328,729.380896 C499.73581,730.263277 496.698527,730.704461 492.722388,730.704461 L405.910448,730.704461 Z M555.014925,730.704461 C549.49251,730.704461 545.6821,729.65665 543.583582,727.560994 C541.485064,725.465339 540.435821,721.660128 540.435821,716.145246 L540.435821,584.45053 L537.122388,584.45053 C534.692525,584.45053 532.704485,583.788755 531.158209,582.465183 C529.611933,581.141611 528.838806,579.376876 528.838806,577.170923 C528.838806,572.097232 532.593992,569.560424 540.104478,569.560424 L552.695522,569.560424 C564.844837,569.560424 573.570123,567.244209 578.871642,562.611708 C584.173161,557.979208 586.823881,550.258489 586.823881,539.449321 L586.823881,529.853475 C586.823881,527.647522 587.431337,525.827638 588.646269,524.393769 C589.8612,522.9599 591.35223,522.242976 593.119403,522.242976 C594.886576,522.242976 596.267159,522.904752 597.261194,524.228324 C598.255229,525.551895 598.752239,527.426927 598.752239,529.853475 L598.752239,569.560424 L603.059701,569.560424 C605.489564,569.560424 607.367158,570.2222 608.692537,571.545772 C610.017917,572.869343 610.680597,574.744375 610.680597,577.170923 C610.680597,579.376876 610.017917,581.141611 608.692537,582.465183 C607.367158,583.788755 605.600011,584.45053 603.391045,584.45053 L598.752239,584.45053 L598.752239,716.145246 C598.752239,721.880723 597.758219,725.741083 595.770149,727.72644 C593.78208,729.711798 589.916447,730.704461 584.173134,730.704461 L555.014925,730.704461 Z M646.134328,730.704461 C640.391016,730.704461 636.47016,729.711798 634.371642,727.72644 C632.273124,725.741083 631.223881,721.880723 631.223881,716.145246 L631.223881,652.614127 C631.223881,646.87865 632.273124,643.018291 634.371642,641.032934 C636.47016,639.047576 640.391016,638.054912 646.134328,638.054912 L713.397015,638.054912 C720.465707,638.054912 725.877593,635.518105 729.632836,630.444414 C733.388078,625.370723 735.265672,618.091188 735.265672,608.605591 C735.265672,599.561185 733.222408,592.502243 729.135821,587.428552 C725.049233,582.354861 719.36123,579.818053 712.071642,579.818053 C705.223846,579.818053 699.81196,581.968825 695.835821,586.270432 C691.859682,590.57204 689.871642,596.252283 689.871642,603.311331 L689.871642,611.914504 C689.871642,617.649981 688.822399,621.51034 686.723881,623.495698 C684.625363,625.481055 680.704506,626.473719 674.961194,626.473719 L646.134328,626.473719 C640.391016,626.473719 636.47016,625.481055 634.371642,623.495698 C632.273124,621.51034 631.223881,617.649981 631.223881,611.914504 L631.223881,584.119639 C631.223881,578.384162 632.273124,574.523803 634.371642,572.538446 C636.47016,570.553088 640.391016,569.560424 646.134328,569.560424 L733.277612,569.560424 C739.020924,569.560424 742.886557,570.553088 744.874627,572.538446 C746.862697,574.523803 747.856716,578.384162 747.856716,584.119639 L747.856716,716.145246 C747.856716,721.660128 746.862697,725.465339 744.874627,727.560994 C742.886557,729.65665 739.020924,730.704461 733.277612,730.704461 L646.134328,730.704461 Z M666.346269,720.446833 C673.414961,720.446833 678.992517,718.185765 683.079104,713.663562 C687.165692,709.141359 689.208955,703.019932 689.208955,695.299098 L689.208955,672.467602 C689.208955,665.408553 687.165692,659.673162 683.079104,655.261257 C678.992517,650.849352 673.525407,648.643432 666.677612,648.643432 C659.388023,648.643432 653.70002,650.794204 649.613433,655.095812 C645.526845,659.397419 643.483582,665.40855 643.483582,673.129384 L643.483582,694.637315 C643.483582,703.019936 645.416399,709.417102 649.28209,713.829008 C653.147781,718.240913 658.835783,720.446833 666.346269,720.446833 Z M788.943284,730.704461 C783.199971,730.704461 779.279115,729.65665 777.180597,727.560994 C775.082079,725.465339 774.032836,721.549832 774.032836,715.814355 L774.032836,584.119639 C774.032836,578.384162 775.082079,574.523803 777.180597,572.538446 C779.279115,570.553088 783.199971,569.560424 788.943284,569.560424 L875.092537,569.560424 C880.83585,569.560424 884.756706,570.553088 886.855224,572.538446 C888.953742,574.523803 890.002985,578.384162 890.002985,584.119639 L890.002985,623.826589 C890.002985,629.562066 888.953742,633.422425 886.855224,635.407782 C884.756706,637.39314 880.83585,638.385804 875.092537,638.385804 L846.265672,638.385804 C840.522359,638.385804 836.601503,637.39314 834.502985,635.407782 C832.404467,633.422425 831.355224,629.562066 831.355224,623.826589 L831.355224,606.620244 C831.355224,598.458219 829.367184,591.950756 825.391045,587.09766 C821.414905,582.244565 816.003019,579.818053 809.155224,579.818053 C801.865635,579.818053 796.232856,582.134269 792.256716,586.766769 C788.280577,591.39927 786.292537,598.017029 786.292537,606.620244 L786.292537,694.637315 C786.292537,702.79934 788.3358,709.141359 792.422388,713.663562 C796.508976,718.185765 802.086532,720.446833 809.155224,720.446833 C816.003019,720.446833 821.414905,718.130617 825.391045,713.498117 C829.367184,708.865616 831.355224,702.578745 831.355224,694.637315 L831.355224,664.526212 C831.355224,658.790735 832.404467,654.875228 834.502985,652.779573 C836.601503,650.683918 840.522359,649.636106 846.265672,649.636106 L875.092537,649.636106 C880.83585,649.636106 884.756706,650.683918 886.855224,652.779573 C888.953742,654.875228 890.002985,658.790735 890.002985,664.526212 L890.002985,715.814355 C890.002985,721.549832 888.953742,725.465339 886.855224,727.560994 C884.756706,729.65665 880.83585,730.704461 875.092537,730.704461 L788.943284,730.704461 Z M922.143284,731.697135 C920.376111,731.697135 918.940304,731.035359 917.835821,729.711788 C916.731338,728.388216 916.179104,726.513184 916.179104,724.086636 L916.179104,524.559215 C916.179104,518.823738 917.228348,514.963379 919.326866,512.978021 C921.425384,510.992664 925.34624,510 931.089552,510 L959.916418,510 C965.438834,510 969.304467,511.10296 971.513433,513.308912 C973.722399,515.514865 974.826866,519.264928 974.826866,524.559215 L974.826866,607.612918 C974.826866,616.216133 976.870129,622.833892 980.956716,627.466392 C985.043304,632.098893 990.841753,634.415109 998.352239,634.415109 C1005.42093,634.415109 1010.99849,632.043745 1015.08507,627.300947 C1019.17166,622.558149 1021.21493,615.995538 1021.21493,607.612918 L1021.21493,574.523793 C1021.21493,572.759031 1021.76716,571.325183 1022.87164,570.222207 C1023.97612,569.119231 1025.41193,568.567751 1027.1791,568.567751 C1028.94628,568.567751 1030.43731,569.174378 1031.65224,570.387652 C1032.86717,571.600926 1033.47463,572.979626 1033.47463,574.523793 L1033.47463,611.914504 C1033.47463,622.944267 1028.72542,631.767946 1019.22687,638.385804 C1024.74928,638.606399 1028.50447,639.764507 1030.49254,641.860162 C1032.48061,643.955817 1033.47463,647.871324 1033.47463,653.606801 L1033.47463,716.145246 C1033.47463,721.880723 1032.42538,725.741083 1030.32687,727.72644 C1028.22835,729.711798 1024.30749,730.704461 1018.56418,730.704461 L989.40597,730.704461 C983.883554,730.704461 980.073145,729.65665 977.974627,727.560994 C975.876109,725.465339 974.826866,721.660128 974.826866,716.145246 L974.826866,663.202647 C974.826866,655.040622 972.783603,648.698603 968.697015,644.1764 C964.610427,639.654197 958.811978,637.39313 951.301493,637.39313 C944.2328,637.39313 938.655244,639.654197 934.568657,644.1764 C930.482069,648.698603 928.438806,655.040622 928.438806,663.202647 L928.438806,724.086636 C928.438806,726.292589 927.831349,728.112473 926.616418,729.546342 C925.401486,730.980211 923.910457,731.697135 922.143284,731.697135 Z" id="stack"></path>
        </g>
    </g>
</svg>