<?xml version="1.0" encoding="UTF-8"?>
<svg width="1424px" height="732px" viewBox="0 0 1424 732" version="1.1" xmlns="http://www.w3.org/2000/svg" xmlns:xlink="http://www.w3.org/1999/xlink">
    <title>quicksilver</title>
    <g id="Page-1" stroke="none" stroke-width="1" fill="none" fill-rule="evenodd">
        <g id="Quicksilver" fill="#4E65AE" fill-rule="nonzero">
            <path d="M95.869305,197.153031 C113.125423,182.995739 116.737169,161.8595 114.329338,147.901606 C110.717593,125.568977 97.6751778,116.396647 75.6033989,108.221309 L71.5903482,106.82552 C68.7812127,105.828527 53.7322726,103.236347 52.7290099,96.8555956 C52.3277048,94.2634154 53.130315,92.468829 53.9329251,91.4718366 C55.7387979,89.8766488 57.9459758,89.2784534 60.5544588,90.2754458 C62.1596791,90.6742427 72.7942634,94.8616108 74.3994837,95.4598062 C79.4157971,97.0549941 83.8301529,97.2543925 87.8432036,95.4598062 C94.6653898,92.468829 99.2803981,87.882664 100.885618,81.5019127 C102.691491,75.1211613 100.885618,67.3446206 96.27061,62.3596586 C85.2347206,50.5951483 63.9655519,48.6011635 51.7257472,50.5951483 C36.6768071,53.1873286 22.029172,60.7644708 14.2037232,77.91274 C7.98349458,91.8706336 10.9932826,105.42973 19.2200366,119.387624 C4.37174895,130.952736 -0.845216961,155.478749 1.56261346,169.835439 C4.77305402,187.781302 14.4043757,199.745211 32.4631039,206.125962 C49.5185694,212.107917 78.6131869,211.509721 95.869305,197.153031 Z M43.8096264,202.17625 C28.9362148,198.765942 18.0826443,191.744719 12.0528828,176.298031 C7.63105777,165.064075 10.6459385,146.808897 18.2836363,135.976154 C22.9064534,129.155538 27.1272864,123.739167 34.5639922,124.14038 C37.7798649,124.340986 42.8046661,126.146443 45.0155787,132.164634 C46.8245071,136.979186 44.4126025,141.593132 40.5937536,146.608291 C35.9709365,152.626481 31.9510956,160.450129 35.9709365,169.276808 C39.3878013,176.498637 46.422523,180.310158 54.2612129,181.112583 C61.4969266,182.115615 72.1495051,180.71137 78.5812507,173.088329 C82.8020837,167.872564 83.4050598,161.051948 81.7971234,155.234364 C77.9782745,143.197983 63.305855,139.787675 54.864189,136.377367 C53.0552606,135.574942 48.4324435,133.368272 48.4324435,133.368272 C48.4324435,133.368272 48.0304594,129.957964 46.422523,127.9519 C50.8443481,130.559783 57.4770856,133.769484 65.9187516,136.577973 C68.9336324,137.581005 69.5366085,134.170697 66.9237119,133.368272 C61.4969266,131.562815 55.0651811,129.155538 48.6334355,125.143411 C40.1917695,120.128253 39.1868093,118.523402 35.3679604,114.310669 C33.1570478,111.903392 31.5491115,114.912488 32.1520876,115.915519 C32.7550637,117.119157 32.9560558,117.720976 36.9758968,121.131284 C34.7649842,120.529465 31.7501035,121.131284 31.7501035,121.131284 C20.0925647,107.690659 18.4846283,98.4627669 21.298517,87.2288113 C24.7153818,74.390005 33.760024,65.7639319 47.4274832,61.5511986 C58.4820459,58.1408906 77.7772825,59.9463478 88.0278769,67.7699954 C91.8467258,70.7790907 93.8566463,75.5936431 92.650694,80.0069828 C91.6457338,84.2197161 88.630853,87.2288113 85.0129962,88.6330558 C78.5812507,90.6391193 68.5316483,84.2197161 62.5018868,82.6148653 C57.8790697,81.2106208 51.8493083,82.2136526 47.4274832,87.2288113 C44.6135946,90.2379066 42.8046661,95.8548844 44.2116105,100.870043 C46.8245071,110.298542 56.8741095,112.705818 65.7177596,115.714913 L70.5415687,117.52037 C87.4249008,123.538561 101.09236,129.957964 105.112201,149.015567 C107.92609,161.051948 104.107241,178.705307 92.851686,190.139869 C77.9782745,204.984739 56.8741095,205.185345 43.8096264,202.17625 Z M38.2428931,97.8540246 C39.4360704,97.8540246 40.0326591,97.2695518 40.231522,95.3213094 C40.4303849,91.4248246 42.4190138,85.9697458 47.589449,82.4629095 C55.9416904,76.6181823 64.2939318,79.7353701 73.0438991,83.2422065 C75.6291166,84.2163277 77.4188827,85.9697458 80.6006889,85.9697458 C83.5836323,85.9697458 87.1631643,84.2163277 87.9586159,81.0991398 C88.3563417,79.7353701 85.7711241,78.5664247 85.1745354,79.9301944 C84.180221,82.073261 81.1972776,83.4370307 79.0097858,82.6577337 C72.8450362,80.1250186 71.8507217,79.5405459 66.2825607,77.5923035 C57.7314564,74.8647641 52.1632955,75.0595883 44.4076427,80.7094913 C40.6292478,83.4370307 37.4474415,89.4765822 37.0497157,95.1264852 C36.8508528,96.8799034 37.2485786,97.8540246 38.2428931,97.8540246 Z M39.224423,178.140352 C38.050018,176.95191 33.352398,171.801993 32.177993,167.642446 C30.2206514,161.898308 31.1993222,156.748392 32.3737272,153.579213 C34.3310689,148.825444 35.5054739,146.448559 39.224423,141.694791 C40.5945622,140.110201 41.7689672,138.129464 41.9647013,136.346801 C42.1604355,133.969916 41.573233,130.404589 39.4201572,129.810368 C37.4628155,129.810368 37.6585497,131.394958 38.050018,132.385326 C38.6372205,133.771842 39.0286888,134.960285 38.6372205,136.544874 C38.050018,138.525611 34.3310689,143.081306 33.1566639,144.86397 C30.0249172,150.013886 29.0462464,153.183065 28.4590439,156.946466 C27.0889047,164.275193 28.4590439,172.000067 37.0713472,180.319163 C38.2457522,181.705678 40.5945622,179.328794 39.224423,178.140352 Z M90.1259622,186.389685 C100.905091,175.522686 104.098907,158.333069 100.705478,147.466071 C99.7074101,143.909598 96.9128211,136.203908 90.1259622,131.264363 C87.7306002,129.683709 85.7344653,132.647436 87.7306002,133.635345 C96.9128211,139.365217 101.304318,154.579015 96.9128211,168.607323 C91.9224837,183.821122 80.7441278,192.119557 66.9707965,194.68812 C58.7866431,196.071193 49.6044222,195.676029 43.6160173,193.897793 C40.8214284,192.909884 40.0229744,196.071193 42.4183363,196.86152 C56.7905081,200.417993 76.7518579,199.825247 90.1259622,186.389685 Z M53.7624648,171.307806 C49.7565397,170.516227 44.9494297,167.943595 43.5473559,163.787804 C41.3440971,157.653066 46.1512072,153.101486 51.559206,144.789905 C56.7669086,146.570958 70.9879425,149.737274 72.7906088,158.444645 C73.3914975,161.413067 72.7906088,164.777278 69.786165,167.7457 C66.1808324,171.307806 58.9701673,172.495175 53.7624648,171.307806 Z M160.217909,192.918524 L177.002782,135.839085 L197.784054,192.918524 C199.782253,198.125771 205.776851,207.138314 217.366406,207.138314 L277.712022,207.138314 C291.699417,207.138314 301.690413,192.718246 296.694915,178.899013 L254.532911,63.338184 C251.935253,56.5287071 244.941555,49.9195089 235.749839,49.9195089 C228.156682,49.9195089 218.964966,53.9250835 215.767847,64.9404138 L206.576131,96.7847324 L194.387115,63.338184 C191.189997,54.7261985 182.99738,49.9195089 175.604043,49.9195089 C168.810166,49.9195089 159.018989,53.3242473 155.422231,64.9404138 L120.853385,181.302358 C117.256626,194.120197 125.649063,203.933855 134.441139,206.737757 C144.432135,209.942217 156.82097,205.135527 160.217909,192.918524 Z M137.407217,198.21808 C131.007611,196.614501 127.807808,189.3984 129.407709,183.986324 L164.005579,66.9251211 C165.805468,61.1121505 171.005148,58.9072306 175.804853,58.9072306 C180.404569,58.9072306 185.004286,63.1166231 186.004225,66.3237794 L205.203043,119.241857 L203.803129,124.653933 L184.404323,71.5354082 C184.004348,70.3327246 183.204397,69.7313829 182.204459,70.1322774 C181.404508,70.5331719 181.20452,71.9363028 181.404508,72.7380918 L202.00324,129.865562 L200.003363,137.282111 C197.803498,145.099554 202.00324,154.119681 210.002747,156.324601 C210.60271,156.525048 211.202673,156.725496 212.002624,156.725496 L217.602279,172.159935 C218.202242,173.162171 218.802205,173.963961 219.802144,173.563066 C220.802082,173.162171 221.00207,172.360382 220.602094,170.756804 L215.602402,156.725496 C216.802328,156.725496 217.402291,156.525048 218.802205,156.324601 L223.401922,169.554121 C224.801836,172.761277 226.401737,174.966197 230.201503,174.966197 L260.999607,174.966197 L236.601109,107.215021 L225.601787,144.899107 C223.60191,151.31342 217.202304,154.520576 211.202673,152.916998 C204.803067,151.112972 201.403277,144.69866 203.403153,138.484795 L224.201873,67.1255684 C226.401737,60.1099141 232.801343,58.9072306 235.801159,58.9072306 C239.200949,58.9072306 244.200641,60.9117032 246.400506,66.5242266 L288.197933,182.182298 C291.197748,190.801531 285.398105,198.017632 277.19861,198.017632 L217.402291,198.017632 C211.002685,198.017632 207.402907,193.407345 206.402969,190.200189 L176.204828,107.014574 L151.606343,190.400636 C149.806453,196.814949 143.406847,200.022105 137.407217,198.21808 Z M276.461007,195.720327 C284.192086,195.720327 286.174414,188.903614 284.390319,184.091816 L244.149059,72.4180127 C243.752593,71.2150633 243.157895,70.6135886 241.968498,71.0145718 C241.175567,71.4155549 240.779101,72.8189959 241.175567,73.6209622 L281.416827,185.094274 C282.606224,188.502631 281.020361,192.512462 276.461007,192.512462 L217.38763,192.512462 C216.594698,192.512462 216,193.314429 216,194.316886 C216,195.118853 216.594698,195.720327 217.189397,195.720327 L276.461007,195.720327 Z M148.513952,190.765562 L173.927825,104.189437 C174.127934,103.182738 173.927825,102.176039 173.127388,101.974699 C172.326951,101.57202 171.126295,102.176039 170.926186,103.182738 L145.512313,189.557523 C144.711876,192.57762 141.710238,193.986999 139.108818,193.18164 C138.308381,192.9803 137.307835,193.18164 137.107725,194.389678 C136.707507,195.195038 137.507944,196.000397 138.108271,196.201737 C143.311112,198.013795 147.513406,194.792358 148.513952,190.765562 Z M221.781885,144.776111 L233.929449,104.173982 C234.131909,103.173929 233.929449,102.173877 232.917152,101.973867 C232.107315,101.573846 231.095017,102.173877 230.892558,103.173929 L218.744994,143.776059 C217.935156,146.776216 214.898265,148.176289 212.266293,147.376247 C211.456455,147.176237 210.241699,147.376247 210.03924,148.3763 C209.83678,149.176342 210.444158,150.176394 211.253996,150.376405 C216.315481,151.976489 220.769588,148.57631 221.781885,144.776111 Z M248,166.759891 L232.693878,166.759891 C231.469388,166.759891 230.44898,164.363165 230.44898,164.363165 L228,157.372715 C230.244898,155.375443 232.489796,151.580628 233.714286,148.58472 L237.183673,136.800819 L248,166.759891 Z M330.6,207.703956 C342,207.703956 351,198.493189 351,187.280081 L351,70.343384 C351,59.3305102 342,49.9195089 330.6,49.9195089 C319.2,49.9195089 310,59.3305102 310,70.343384 L310,187.280081 C310,198.493189 319.2,207.703956 330.6,207.703956 Z M330.5,198.716235 C324.155172,198.716235 319,193.902151 319,187.282787 L319,70.1400917 C319,63.9219007 324.353448,58.9072306 330.5,58.9072306 C336.646552,58.9072306 342,63.7213139 342,70.1400917 L342,187.282787 C342,193.902151 336.646552,198.716235 330.5,198.716235 Z M330.764706,196.718963 C336.058824,196.718963 339,192.498105 339,188.47824 L339,71.0981832 C339,70.4952035 338.215686,69.8922237 337.431373,69.8922237 C336.647059,69.8922237 335.862745,70.4952035 335.862745,71.2991765 L335.862745,188.47824 C335.862745,191.292145 333.509804,193.503071 330.764706,193.503071 C329.980392,193.503071 329,194.106051 329,195.31201 C329,196.115983 329.980392,196.718963 330.764706,196.718963 Z M418.689905,207.703956 C429.956695,207.703956 439.211558,198.504714 439.211558,187.305635 L439.211558,108.312138 C439.211558,99.1128953 433.578163,94.1133068 432.169814,92.9134056 L450.478347,92.9134056 C461.745137,92.9134056 471,83.9141464 471,72.5150848 C471,61.1160231 461.745137,51.9167804 450.478347,51.9167804 L383.078802,51.9167804 C375.031095,51.9167804 370.001278,55.7164676 367.586966,58.11627 C359.941644,66.5155786 360.142837,78.914558 368.190544,86.9138995 L394.144399,112.511792 C396.759903,115.111578 397.967059,117.311397 397.967059,122.710953 L397.967059,187.305635 C397.967059,198.504714 407.221922,207.703956 418.689905,207.703956 Z M418.702828,198.716235 C412.258597,198.716235 407.02266,193.915826 407.02266,187.315264 L407.02266,118.309389 C407.02266,114.709083 406.015749,112.108861 403.39778,109.50864 L374.398744,80.7061879 C369.766953,76.1057962 369.968336,68.9051832 374.398744,64.3047915 C376.412566,62.1046042 380.238828,60.904502 383.863707,60.904502 L450.521215,60.904502 C457.166827,60.904502 462,66.1049448 462,72.5054897 C462,78.7060176 457.166827,84.1064773 450.521215,84.1064773 L410.446157,84.1064773 L426.758115,100.307857 C429.174702,102.708061 430.181613,105.308282 430.181613,108.308538 L430.181613,187.315264 C430.181613,193.915826 424.945676,198.716235 418.702828,198.716235 Z M449.76834,81.8758527 C453.783784,81.8758527 458,78.9386887 458,73.6517936 C458,72.8685499 457.397683,71.8894952 456.594595,71.8894952 C455.590734,71.8894952 454.787645,72.8685499 454.787645,73.6517936 C454.787645,76.3931466 452.579151,78.7428778 449.76834,78.7428778 L407.606178,78.7428778 C406.803089,78.7428778 406,79.5261215 406,80.3093652 C406,81.0926089 406.803089,81.8758527 407.405405,81.8758527 L449.76834,81.8758527 Z M407.393003,104.879773 L387.793,85.3860547 C387.401,84.606306 386.029,84.8012432 385.441,85.3860547 C384.853,85.9708663 384.853,86.9455522 385.441,87.5303638 L405.433003,107.21902 C407.197003,108.973454 408.961003,106.634208 407.393003,104.879773 Z M418.8,196.718963 C424,196.718963 427,192.484425 427,188.451531 L427,111.826548 C427,106.180497 425.4,104.365695 424.4,103.559116 C422.8,101.744314 420.4,103.760761 422,105.575563 C422.8,106.785431 423.8,107.59201 423.8,111.826548 L423.8,188.451531 C423.8,191.274557 421.6,193.492648 418.8,193.492648 C417.8,193.492648 417,194.097582 417,195.30745 C417,196.114029 417.8,196.718963 418.8,196.718963 Z M538.689905,207.703956 C549.956695,207.703956 559.211558,198.504714 559.211558,187.305635 L559.211558,108.312138 C559.211558,99.1128953 553.578163,94.1133068 552.169814,92.9134056 L570.478347,92.9134056 C581.745137,92.9134056 591,83.9141464 591,72.5150848 C591,61.1160231 581.745137,51.9167804 570.478347,51.9167804 L503.078802,51.9167804 C495.031095,51.9167804 490.001278,55.7164676 487.586966,58.11627 C479.941644,66.5155786 480.142837,78.914558 488.190544,86.9138995 L514.144399,112.511792 C516.759903,115.111578 517.967059,117.311397 517.967059,122.710953 L517.967059,187.305635 C517.967059,198.504714 527.221922,207.703956 538.689905,207.703956 Z M538.702828,198.716235 C532.258597,198.716235 527.02266,193.915826 527.02266,187.315264 L527.02266,118.309389 C527.02266,114.709083 526.015749,112.108861 523.39778,109.50864 L494.398744,80.7061879 C489.766953,76.1057962 489.968336,68.9051832 494.398744,64.3047915 C496.412566,62.1046042 500.238828,60.904502 503.863707,60.904502 L570.521215,60.904502 C577.166827,60.904502 582,66.1049448 582,72.5054897 C582,78.7060176 577.166827,84.1064773 570.521215,84.1064773 L530.446157,84.1064773 L546.758115,100.307857 C549.174702,102.708061 550.181613,105.308282 550.181613,108.308538 L550.181613,187.315264 C550.181613,193.915826 544.945676,198.716235 538.702828,198.716235 Z M569.76834,81.8758527 C573.783784,81.8758527 578,78.9386887 578,73.6517936 C578,72.8685499 577.397683,71.8894952 576.594595,71.8894952 C575.590734,71.8894952 574.787645,72.8685499 574.787645,73.6517936 C574.787645,76.3931466 572.579151,78.7428778 569.76834,78.7428778 L527.606178,78.7428778 C526.803089,78.7428778 526,79.5261215 526,80.3093652 C526,81.0926089 526.803089,81.8758527 527.405405,81.8758527 L569.76834,81.8758527 Z M527.393003,104.879773 L507.793,85.3860547 C507.401,84.606306 506.029,84.8012432 505.441,85.3860547 C504.853,85.9708663 504.853,86.9455522 505.441,87.5303638 L525.433003,107.21902 C527.197003,108.973454 528.961003,106.634208 527.393003,104.879773 Z M538.8,196.718963 C544,196.718963 547,192.484425 547,188.451531 L547,111.826548 C547,106.180497 545.4,104.365695 544.4,103.559116 C542.8,101.744314 540.4,103.760761 542,105.575563 C542.8,106.785431 543.8,107.59201 543.8,111.826548 L543.8,188.451531 C543.8,191.274557 541.6,193.492648 538.8,193.492648 C537.8,193.492648 537,194.097582 537,195.30745 C537,196.114029 537.8,196.718963 538.8,196.718963 Z M674.937783,197.88941 L729.92105,82.8687205 C736.319103,69.4895779 727.321841,52.9154161 711.526648,52.9154161 L622.753665,52.9154161 C606.158715,52.9154161 597.96121,70.6877101 603.959384,81.8702771 L641.348006,150.762877 C643.347397,154.157585 646.346484,157.352604 648.545815,158.151359 L637.94904,180.117116 C633.1505,190.500928 637.349223,202.681938 647.546119,207.674156 C657.942955,212.666373 670.139244,208.073533 674.937783,197.88941 Z M651.3752,199.665699 C645.55859,196.86646 643.35229,190.268253 645.959736,184.269883 L659.39811,156.077545 C665.615865,155.877599 673.438203,151.878686 674.240494,142.081349 C674.641639,138.282381 670.830757,132.284011 675.243357,123.086511 L693.294905,85.0968347 L641.948281,85.0968347 L669.226175,135.683087 C672.635912,142.081349 670.229039,148.279664 664.813574,151.278849 C659.39811,154.278034 652.177491,152.278577 648.968327,146.480153 L612.664659,79.6983018 C607.65034,70.3008556 614.870959,61.9031378 622.292151,61.9031378 L711.547026,61.9031378 C720.773372,61.9031378 725.587118,71.1006383 721.575663,79.6983018 L667.019875,194.267167 C664.211856,199.865645 656.991237,202.264993 651.3752,199.665699 Z M664.988628,192.967036 L720.11561,77.2477635 C722.120227,73.2297332 720.716995,68.0062939 715.905913,65.9972787 C715.304528,65.7963772 714.101757,65.7963772 713.700834,67.0017863 C713.29991,68.0062939 713.901296,69.0108014 714.502681,69.2117029 C717.108684,70.015309 718.511916,73.2297332 717.108684,75.8414529 L662.182163,191.560725 C660.979392,193.971544 657.571543,195.176953 655.166002,193.770642 C654.364155,193.569741 653.361846,193.569741 653.161384,194.77515 C652.760461,195.578756 653.161384,196.382362 653.762769,196.784165 C658.774313,199.194983 663.184472,196.583263 664.988628,192.967036 Z M664.044088,147.692984 C664.843244,147.093966 665.242822,146.095602 664.843244,145.296911 C664.643455,144.498219 663.444721,144.498219 662.645565,144.697892 C660.248096,146.095602 657.051472,145.097238 655.652949,142.701164 L621.089451,78.8058704 C619.890717,76.8091424 617.093671,78.4065248 618.292405,80.2035799 L653.055692,144.298547 C654.454215,147.892657 659.44894,150.28873 664.044088,147.692984 Z M693.926391,81.8758527 C696.691203,81.8758527 696.691203,78.8799454 693.926391,78.8799454 L642.382406,78.8799454 C641.59246,78.8799454 641,79.6289222 641,80.377899 C641,81.1268759 641.59246,81.8758527 642.184919,81.8758527 L693.926391,81.8758527 Z M669.6,115.829468 L658,93.8594816 L680,93.8594816 L669.6,115.829468 Z M800.689905,207.703956 C811.956695,207.703956 821.211558,198.504714 821.211558,187.305635 L821.211558,108.312138 C821.211558,99.1128953 815.578163,94.1133068 814.169814,92.9134056 L832.478347,92.9134056 C843.745137,92.9134056 853,83.9141464 853,72.5150848 C853,61.1160231 843.745137,51.9167804 832.478347,51.9167804 L765.078802,51.9167804 C757.031095,51.9167804 752.001278,55.7164676 749.586966,58.11627 C741.941644,66.5155786 742.142837,78.914558 750.190544,86.9138995 L776.144399,112.511792 C778.759903,115.111578 779.967059,117.311397 779.967059,122.710953 L779.967059,187.305635 C779.967059,198.504714 789.221922,207.703956 800.689905,207.703956 Z M800.702828,198.716235 C794.258597,198.716235 789.02266,193.915826 789.02266,187.315264 L789.02266,118.309389 C789.02266,114.709083 788.015749,112.108861 785.39778,109.50864 L756.398744,80.7061879 C751.766953,76.1057962 751.968336,68.9051832 756.398744,64.3047915 C758.412566,62.1046042 762.238828,60.904502 765.863707,60.904502 L832.521215,60.904502 C839.166827,60.904502 844,66.1049448 844,72.5054897 C844,78.7060176 839.166827,84.1064773 832.521215,84.1064773 L792.446157,84.1064773 L808.758115,100.307857 C811.174702,102.708061 812.181613,105.308282 812.181613,108.308538 L812.181613,187.315264 C812.181613,193.915826 806.945676,198.716235 800.702828,198.716235 Z M832.76834,81.8758527 C836.783784,81.8758527 841,78.9386887 841,73.6517936 C841,72.8685499 840.397683,71.8894952 839.594595,71.8894952 C838.590734,71.8894952 837.787645,72.8685499 837.787645,73.6517936 C837.787645,76.3931466 835.579151,78.7428778 832.76834,78.7428778 L790.606178,78.7428778 C789.803089,78.7428778 789,79.5261215 789,80.3093652 C789,81.0926089 789.803089,81.8758527 790.405405,81.8758527 L832.76834,81.8758527 Z M789.393003,104.879773 L769.793,85.3860547 C769.401,84.606306 768.029,84.8012432 767.441,85.3860547 C766.853,85.9708663 766.853,86.9455522 767.441,87.5303638 L787.433003,107.21902 C789.197003,108.973454 790.961003,106.634208 789.393003,104.879773 Z M801.8,196.718963 C807,196.718963 810,192.484425 810,188.451531 L810,111.826548 C810,106.180497 808.4,104.365695 807.4,103.559116 C805.8,101.744314 803.4,103.760761 805,105.575563 C805.8,106.785431 806.8,107.59201 806.8,111.826548 L806.8,188.451531 C806.8,191.274557 804.6,193.492648 801.8,193.492648 C800.8,193.492648 800,194.097582 800,195.30745 C800,196.114029 800.8,196.718963 801.8,196.718963 Z M935,210.699864 C979.509901,210.699864 1016,174.414861 1016,129.910603 C1016,85.4063456 979.509901,48.9208731 935,48.9208731 C923.170792,48.9208731 910.539604,51.5269783 898.309406,57.7415368 C892.89604,60.5481116 889.287129,66.1612612 888.084158,70.3711234 C881.868812,70.571593 877.056931,73.1776982 872.846535,77.9889693 C865.027228,87.2105722 854,106.054717 854,129.910603 C854,174.414861 890.490099,210.699864 935,210.699864 Z M935,201.712142 C895.490251,201.712142 863,169.4665 863,129.810368 C863,110.783437 871.222841,93.5590563 880.047354,83.5448818 C883.256267,79.9397789 889.473538,77.936944 893.885794,81.1414799 C894.487465,82.7437478 896.693593,87.1499846 900.103064,88.7522525 C900.303621,91.7565049 900.905292,94.1599068 897.495822,98.3658601 C891.278552,106.176916 886.264624,116.791941 886.264624,129.810368 C886.264624,156.84864 908.125348,178.67954 935,178.67954 C962.075209,178.67954 983.935933,156.84864 983.935933,129.810368 C983.935933,102.97238 962.075209,81.1414799 935,81.1414799 C926.376045,81.1414799 917.150418,83.7451652 913.339833,86.1485672 C908.727019,89.1528195 901.908078,87.7508351 898.29805,82.7437478 C894.688022,77.3360935 895.690808,69.9256043 902.309192,66.120218 C910.532033,61.3134142 921.963788,57.9085948 935,57.9085948 C974.710306,57.9085948 1007,90.3545205 1007,129.810368 C1007,169.4665 974.710306,201.712142 935,201.712142 Z M976.731764,94.3184525 C967.34156,83.5000535 952.756775,74.8854025 934.575741,74.8854025 C923.786996,74.8854025 913.198043,78.6918762 910.201169,80.4949427 C908.802628,81.696987 905.406171,82.2980092 903.208464,78.8922169 C902.009714,76.8888097 899.212632,78.6918762 900.21159,80.4949427 C904.00763,86.5051643 909.801586,84.5017571 911.59971,83.5000535 C918.592415,79.8939205 925.385329,78.090854 934.575741,78.090854 C951.558026,78.090854 964.944061,85.7038015 974.134474,96.121519 C975.732807,98.1249262 977.730722,95.5204968 976.731764,94.3184525 Z M934.5,169.755798 C912.665829,169.755798 895,152.11407 895,130.309686 C895,120.00216 898.969849,111.676849 904.130653,105.135534 C906.31407,102.558653 908.100503,99.3871061 908.298995,97.6031111 C911.276382,97.6031111 914.849246,96.2155594 917.429648,95.0262294 C921.796482,92.6475694 927.751256,90.8635744 934.5,90.8635744 C956.334171,90.8635744 974,108.505303 974,130.309686 C974,152.11407 956.334171,169.755798 934.5,169.755798 Z M895.382348,162.944208 C889.107969,156.808623 883.238389,143.745765 883.238389,130.089141 C883.238389,117.026284 887.893573,106.932257 894.572751,98.2236853 C895.382348,96.8382306 893.560754,94.8590098 891.94156,96.4423865 C885.667181,103.567582 880,116.234595 880,130.089141 C880,144.537454 885.667181,156.808623 892.953556,164.923429 C894.572751,167.100572 897.203942,164.527585 895.382348,162.944208 Z M934.898253,198.716235 C972.974726,198.716235 1004,167.838278 1004,129.942605 C1004,120.518813 1002.3883,113.501096 999.769281,106.282872 C998.761967,103.876798 995.941487,104.678823 996.747338,107.285403 C999.164892,114.102615 1000.77659,120.919826 1000.77659,129.942605 C1000.77659,166.434735 971.16156,195.508135 934.898253,195.508135 C919.184153,195.508135 906.89492,190.294974 896.620317,183.277257 C894.404226,181.873713 893.195449,184.881306 894.605688,185.883837 C904.678829,192.901555 918.579764,198.716235 934.898253,198.716235 Z M1129.49662,207.703956 C1140.75338,207.703956 1150,198.493189 1150,187.280081 L1150,70.343384 C1150,59.3305102 1140.75338,49.9195089 1129.49662,49.9195089 C1118.03885,49.9195089 1108.79223,59.3305102 1108.79223,70.343384 L1108.79223,122.404242 L1069.59459,60.1314465 C1065.37331,53.7239562 1059.34291,49.9195089 1051.70439,49.9195089 C1040.24662,49.9195089 1031,59.3305102 1031,70.5436181 L1031,187.280081 C1031,198.493189 1040.24662,207.703956 1051.70439,207.703956 L1129.49662,207.703956 Z M1129.53187,198.716235 L1051.66932,198.716235 C1045.23108,198.716235 1040,193.902151 1040,187.282787 L1040,70.3406785 C1040,63.9219007 1045.23108,58.9072306 1051.66932,58.9072306 C1055.89442,58.9072306 1059.31474,60.9130986 1061.72908,64.7242479 L1124.3008,162.008849 C1128.12351,167.825866 1126.31275,174.645818 1121.08167,178.055794 C1115.6494,181.465769 1108.60757,180.061662 1104.98606,174.846405 L1063.33865,109.655693 L1063.33865,169.029387 C1063.33865,172.439363 1066.55777,175.648752 1069.97809,175.648752 L1101.16335,175.648752 C1103.98008,180.262248 1109.00996,183.271051 1114.64343,183.271051 C1123.09363,183.271051 1129.73307,176.651686 1129.73307,168.427627 C1129.73307,165.418825 1128.3247,162.410023 1126.71514,159.200634 C1126.71514,159.200634 1122.08765,150.976575 1120.0757,146.563665 C1118.26494,143.153689 1117.86255,138.74078 1117.86255,134.528457 L1117.86255,70.1400917 C1117.86255,63.9219007 1123.29482,58.9072306 1129.53187,58.9072306 C1135.76892,58.9072306 1141,63.7213139 1141,70.1400917 L1141,187.282787 C1141,193.902151 1135.76892,198.716235 1129.53187,198.716235 Z M1118.28382,175.385763 C1122.8477,172.589068 1122.64927,166.995679 1120.66497,163.799456 L1060.73933,69.3111285 C1060.5409,68.9116007 1059.74718,68.7118368 1058.75504,69.1113646 C1058.15975,69.5108924 1057.76289,70.5097119 1058.15975,71.1090037 L1117.88696,165.797095 C1119.67283,167.994498 1118.87911,171.390484 1116.49796,172.788832 C1115.90267,173.18836 1115.30738,174.187179 1116.1011,175.185999 C1116.49796,175.78529 1117.49011,175.985054 1118.28382,175.385763 Z M1127.87558,196.718963 C1133.02765,196.718963 1136,192.498105 1136,188.47824 L1136,71.0981832 C1136,70.4952035 1135.40553,69.8922237 1134.6129,69.8922237 C1133.82028,69.8922237 1132.82949,70.4952035 1132.82949,71.2991765 L1132.82949,188.47824 C1132.82949,191.292145 1130.64977,193.503071 1127.87558,193.503071 L1051.3871,193.503071 C1050.59447,193.503071 1050,194.508037 1050,195.31201 C1050,196.115983 1050.59447,196.718963 1051.18894,196.718963 L1127.87558,196.718963 Z M1060,174.109685 L1060,106.607232 C1060,104.224793 1057,104.224793 1057,106.805769 L1057,174.109685 C1057,176.293588 1060,176.293588 1060,174.109685 Z M1088,166.759891 L1073.22619,166.759891 C1072.0119,166.759891 1071,165.761255 1071,164.363165 L1071,140.795362 L1088,166.759891 Z M1242.37555,206.705321 C1253.78908,206.705321 1263,197.529711 1263,186.159934 C1263,174.989627 1253.78908,165.814018 1242.37555,165.814018 L1210.33757,165.814018 C1209.13615,165.814018 1208.13496,164.816669 1208.13496,163.420381 L1208.13496,148.460148 C1208.13496,147.462799 1208.93591,146.465451 1210.33757,146.465451 L1235.36724,146.465451 C1246.78077,146.465451 1254.79027,139.085069 1256.5924,129.111581 C1258.1943,119.736502 1251.78671,112.15665 1249.5841,109.763013 L1232.76416,93.2070224 L1238.97152,93.2070224 C1250.38505,93.2070224 1259.59596,84.0314131 1259.59596,72.4621665 C1259.59596,61.2918595 1250.38505,51.9167804 1238.97152,51.9167804 L1182.30434,51.9167804 C1175.49627,51.9167804 1169.68938,55.706706 1165.88487,60.6934502 C1160.27823,68.2733014 1160.6787,79.8425479 1167.48677,86.8239898 L1186.50932,105.574148 C1183.10529,105.574148 1178.09935,107.169906 1174.29484,110.361422 C1170.08986,113.752409 1167.0863,119.736502 1167.0863,125.720595 L1167.0863,186.159934 C1167.0863,197.529711 1176.29722,206.705321 1187.71075,206.705321 L1242.37555,206.705321 Z M1242.39406,197.717599 L1187.7661,197.717599 C1181.36282,197.717599 1176.16016,192.924147 1176.16016,186.133424 L1176.16016,125.616098 C1176.16016,119.424557 1181.36282,114.231651 1187.566,114.231651 L1208.57675,114.231651 L1174.35924,80.4777626 C1166.95545,73.0878581 1172.75842,60.904502 1182.36333,60.904502 L1238.99232,60.904502 C1245.19549,60.904502 1250.59826,66.0974079 1250.59826,72.2889495 C1250.59826,78.6802183 1245.9959,84.0728513 1238.99232,84.0728513 L1210.77788,84.0728513 L1243.19447,116.029195 C1249.19754,122.02101 1248.19703,127.61337 1246.79631,130.609277 C1244.59519,134.803547 1241.19344,137.4 1235.39047,137.4 L1205.97542,137.4 C1201.57316,137.4 1199.37204,141.394543 1199.37204,143.990996 L1199.37204,168.157981 C1199.37204,171.553342 1202.57368,174.748977 1205.97542,174.748977 L1242.39406,174.748977 C1249.19754,174.748977 1254,179.742156 1254,186.133424 C1254,192.324966 1249.19754,197.717599 1242.39406,197.717599 Z M1205.51229,87.1954619 L1202.15376,83.930189 C1201.36352,82.9097912 1201.75864,82.5016321 1203.14156,82.5016321 L1238.70246,82.5016321 C1243.04879,82.5016321 1247,79.2363592 1247,73.7262112 C1247,72.909893 1246.40732,71.8894952 1245.61708,71.8894952 C1244.43171,71.8894952 1243.83903,72.909893 1243.83903,73.7262112 C1243.83903,76.583325 1241.86343,79.2363592 1238.70246,79.2363592 L1198.79523,79.2363592 C1196.62207,79.2363592 1194.64646,80.8689957 1197.21475,83.5220299 L1202.944,89.440337 C1204.12937,90.6648143 1206.89521,89.0321779 1205.51229,87.1954619 Z M1214.65924,111.950457 L1196.91203,94.4918598 C1195.13731,92.7063214 1192.9682,95.0870392 1194.54573,96.8725776 L1212.29294,114.331175 C1213.67328,115.918321 1215.84238,113.33921 1214.65924,111.950457 Z M1194.5814,174.748977 C1195.56977,174.748977 1196.16279,173.762183 1196.16279,173.170106 L1196.16279,144.355715 C1196.16279,139.224385 1200.11628,134.685132 1205.84884,134.685132 L1235.69767,134.685132 C1239.84884,134.685132 1244,131.724749 1244,126.39606 C1244,125.606625 1243.40698,124.81719 1242.61628,124.81719 C1241.43023,124.81719 1240.83721,125.606625 1240.83721,126.39606 C1240.83721,129.159084 1238.46512,131.52739 1235.69767,131.52739 L1205.84884,131.52739 C1199.12791,131.52739 1193,136.65872 1193,144.355715 L1193,173.170106 C1193,173.762183 1193.59302,174.748977 1194.5814,174.748977 Z M1242.62617,194.721692 C1246.81308,194.721692 1251,191.725784 1251,186.333151 C1251,185.534243 1250.40187,184.735334 1249.60436,184.735334 C1248.4081,184.735334 1247.80997,185.534243 1247.80997,186.333151 C1247.80997,189.129332 1245.41745,191.526057 1242.62617,191.526057 L1188.39564,191.526057 C1187.59813,191.526057 1187,192.324966 1187,193.323602 C1187,194.12251 1187.59813,194.721692 1188.19626,194.721692 L1242.62617,194.721692 Z M1299.13551,108.437537 L1311.39252,80.0745264 C1312.59813,77.6944136 1313,75.1159581 1313,72.3391598 C1313,60.6369385 1303.35514,50.9181446 1291.5,50.9181446 C1279.64486,50.9181446 1270,60.6369385 1270,72.3391598 C1270,79.6778409 1273.21495,85.8264657 1279.44393,89.7933203 L1276.02804,98.3220579 C1273.21495,104.669025 1276.22897,112.404392 1282.45794,114.784505 C1288.88785,117.561303 1296.7243,114.586162 1299.13551,108.437537 Z M1285.02797,108.326008 C1282.28671,107.337431 1281.11189,104.371701 1282.28671,101.01054 L1288.35664,86.3796046 C1281.5035,84.7978818 1277,79.2618521 1277,72.341815 C1277,64.4332012 1283.26573,57.9085948 1291.0979,57.9085948 C1298.73427,57.9085948 1305,64.4332012 1305,72.341815 C1305,74.1212532 1304.8042,75.5052606 1304.21678,77.0869833 L1292.07692,105.557993 C1291.0979,108.128293 1287.96503,109.710015 1285.02797,108.326008 Z M1290.95506,101.788108 L1301.77509,76.9955282 C1302.38755,75.6071438 1303,73.8220781 1303,72.235353 C1303,69.4585841 1301.77509,66.6818152 1300.95849,65.6901121 C1299.52942,63.7067057 1297.07961,65.8884527 1298.30452,67.4751778 C1298.91697,68.2685403 1299.73358,70.053606 1299.73358,72.235353 C1299.73358,73.4253968 1299.12112,74.6154406 1298.71282,75.8054844 L1288.09694,100.598064 C1287.48449,102.383129 1289.9343,103.969854 1290.95506,101.788108 Z M1291,75.8840382 C1292.6,75.8840382 1294,74.5310478 1294,72.9847731 C1294,71.2452141 1292.6,69.8922237 1291,69.8922237 C1289.2,69.8922237 1288,71.2452141 1288,72.9847731 C1288,74.5310478 1289.2,75.8840382 1291,75.8840382 Z M1405.8693,197.153031 C1423.12542,182.995739 1426.73717,161.8595 1424.32934,147.901606 C1420.71759,125.568977 1407.67518,116.396647 1385.6034,108.221309 L1381.59035,106.82552 C1378.78121,105.828527 1363.73227,103.236347 1362.72901,96.8555956 C1362.3277,94.2634154 1363.13031,92.468829 1363.93293,91.4718366 C1365.7388,89.8766488 1367.94598,89.2784534 1370.55446,90.2754458 C1372.15968,90.6742427 1382.79426,94.8616108 1384.39948,95.4598062 C1389.4158,97.0549941 1393.83015,97.2543925 1397.8432,95.4598062 C1404.66539,92.468829 1409.2804,87.882664 1410.88562,81.5019127 C1412.69149,75.1211613 1410.88562,67.3446206 1406.27061,62.3596586 C1395.23472,50.5951483 1373.96555,48.6011635 1361.72575,50.5951483 C1346.67681,53.1873286 1332.02917,60.7644708 1324.20372,77.91274 C1317.98349,91.8706336 1320.99328,105.42973 1329.22004,119.387624 C1314.37175,130.952736 1309.15478,155.478749 1311.56261,169.835439 C1314.77305,187.781302 1324.40438,199.745211 1342.4631,206.125962 C1359.51857,212.107917 1388.61319,211.509721 1405.8693,197.153031 Z M1353.80963,202.17625 C1338.93621,198.765942 1328.08264,191.744719 1322.05288,176.298031 C1317.63106,165.064075 1320.64594,146.808897 1328.28364,135.976154 C1332.90645,129.155538 1337.12729,123.739167 1344.56399,124.14038 C1347.77986,124.340986 1352.80467,126.146443 1355.01558,132.164634 C1356.82451,136.979186 1354.4126,141.593132 1350.59375,146.608291 C1345.97094,152.626481 1341.9511,160.450129 1345.97094,169.276808 C1349.3878,176.498637 1356.42252,180.310158 1364.26121,181.112583 C1371.49693,182.115615 1382.14951,180.71137 1388.58125,173.088329 C1392.80208,167.872564 1393.40506,161.051948 1391.79712,155.234364 C1387.97827,143.197983 1373.30586,139.787675 1364.86419,136.377367 C1363.05526,135.574942 1358.43244,133.368272 1358.43244,133.368272 C1358.43244,133.368272 1358.03046,129.957964 1356.42252,127.9519 C1360.84435,130.559783 1367.47709,133.769484 1375.91875,136.577973 C1378.93363,137.581005 1379.53661,134.170697 1376.92371,133.368272 C1371.49693,131.562815 1365.06518,129.155538 1358.63344,125.143411 C1350.19177,120.128253 1349.18681,118.523402 1345.36796,114.310669 C1343.15705,111.903392 1341.54911,114.912488 1342.15209,115.915519 C1342.75506,117.119157 1342.95606,117.720976 1346.9759,121.131284 C1344.76498,120.529465 1341.7501,121.131284 1341.7501,121.131284 C1330.09256,107.690659 1328.48463,98.4627669 1331.29852,87.2288113 C1334.71538,74.390005 1343.76002,65.7639319 1357.42748,61.5511986 C1368.48205,58.1408906 1387.77728,59.9463478 1398.02788,67.7699954 C1401.84673,70.7790907 1403.85665,75.5936431 1402.65069,80.0069828 C1401.64573,84.2197161 1398.63085,87.2288113 1395.013,88.6330558 C1388.58125,90.6391193 1378.53165,84.2197161 1372.50189,82.6148653 C1367.87907,81.2106208 1361.84931,82.2136526 1357.42748,87.2288113 C1354.61359,90.2379066 1352.80467,95.8548844 1354.21161,100.870043 C1356.82451,110.298542 1366.87411,112.705818 1375.71776,115.714913 L1380.54157,117.52037 C1397.4249,123.538561 1411.09236,129.957964 1415.1122,149.015567 C1417.92609,161.051948 1414.10724,178.705307 1402.85169,190.139869 C1387.97827,204.984739 1366.87411,205.185345 1353.80963,202.17625 Z M1349.24289,97.8540246 C1350.43607,97.8540246 1351.03266,97.2695518 1351.23152,95.3213094 C1351.43038,91.4248246 1353.41901,85.9697458 1358.58945,82.4629095 C1366.94169,76.6181823 1375.29393,79.7353701 1384.0439,83.2422065 C1386.62912,84.2163277 1388.41888,85.9697458 1391.60069,85.9697458 C1394.58363,85.9697458 1398.16316,84.2163277 1398.95862,81.0991398 C1399.35634,79.7353701 1396.77112,78.5664247 1396.17454,79.9301944 C1395.18022,82.073261 1392.19728,83.4370307 1390.00979,82.6577337 C1383.84504,80.1250186 1382.85072,79.5405459 1377.28256,77.5923035 C1368.73146,74.8647641 1363.1633,75.0595883 1355.40764,80.7094913 C1351.62925,83.4370307 1348.44744,89.4765822 1348.04972,95.1264852 C1347.85085,96.8799034 1348.24858,97.8540246 1349.24289,97.8540246 Z M1350.22442,178.140352 C1349.05002,176.95191 1344.3524,171.801993 1343.17799,167.642446 C1341.22065,161.898308 1342.19932,156.748392 1343.37373,153.579213 C1345.33107,148.825444 1346.50547,146.448559 1350.22442,141.694791 C1351.59456,140.110201 1352.76897,138.129464 1352.9647,136.346801 C1353.16044,133.969916 1352.57323,130.404589 1350.42016,129.810368 C1348.46282,129.810368 1348.65855,131.394958 1349.05002,132.385326 C1349.63722,133.771842 1350.02869,134.960285 1349.63722,136.544874 C1349.05002,138.525611 1345.33107,143.081306 1344.15666,144.86397 C1341.02492,150.013886 1340.04625,153.183065 1339.45904,156.946466 C1338.0889,164.275193 1339.45904,172.000067 1348.07135,180.319163 C1349.24575,181.705678 1351.59456,179.328794 1350.22442,178.140352 Z M1401.12596,186.389685 C1411.90509,175.522686 1415.09891,158.333069 1411.70548,147.466071 C1410.70741,143.909598 1407.91282,136.203908 1401.12596,131.264363 C1398.7306,129.683709 1396.73447,132.647436 1398.7306,133.635345 C1407.91282,139.365217 1412.30432,154.579015 1407.91282,168.607323 C1402.92248,183.821122 1391.74413,192.119557 1377.9708,194.68812 C1369.78664,196.071193 1360.60442,195.676029 1354.61602,193.897793 C1351.82143,192.909884 1351.02297,196.071193 1353.41834,196.86152 C1367.79051,200.417993 1387.75186,199.825247 1401.12596,186.389685 Z M1364.76246,171.307806 C1360.75654,170.516227 1355.94943,167.943595 1354.54736,163.787804 C1352.3441,157.653066 1357.15121,153.101486 1362.55921,144.789905 C1367.76691,146.570958 1381.98794,149.737274 1383.79061,158.444645 C1384.3915,161.413067 1383.79061,164.777278 1380.78616,167.7457 C1377.18083,171.307806 1369.97017,172.495175 1364.76246,171.307806 Z" id="SMITTYTONE’S"></path>
            <path d="M513.869305,667.452504 C531.125423,653.206729 534.737169,631.938388 532.329338,617.893258 C528.717593,595.421049 515.675178,586.191392 493.603399,577.964958 L489.590348,576.560445 C486.781213,575.557222 471.732273,572.94884 470.72901,566.528209 C470.327705,563.919828 471.130315,562.114026 471.932925,561.110802 C473.738798,559.505644 475.945976,558.90371 478.554459,559.906934 C480.159679,560.308223 490.794263,564.521762 492.399484,565.123696 C497.415797,566.728854 501.830153,566.929499 505.843204,565.123696 C512.66539,562.114026 517.280398,557.499197 518.885618,551.078566 C520.691491,544.657935 518.885618,536.832791 514.27061,531.816673 C503.234721,519.978634 481.965552,517.972187 469.725747,519.978634 C454.676807,522.587016 440.029172,530.211515 432.203723,547.466961 C425.983495,561.512091 428.993283,575.155932 437.220037,589.201063 C422.371749,600.838457 417.154783,625.517757 419.562613,639.964177 C422.773054,658.022202 432.404376,670.060885 450.463104,676.481516 C467.518569,682.500858 496.613187,681.898923 513.869305,667.452504 Z M461.809626,670.556877 C446.936215,667.146569 436.082644,660.125347 430.052883,644.678658 C425.631058,633.444703 428.645938,615.189525 436.283636,604.356782 C440.906453,597.536166 445.127286,592.119795 452.563992,592.521007 C455.779865,592.721614 460.804666,594.527071 463.015579,600.545261 C464.824507,605.359814 462.412603,609.97376 458.593754,614.988918 C453.970937,621.007109 449.951096,628.830756 453.970937,637.657436 C457.387801,644.879264 464.422523,648.690785 472.261213,649.493211 C479.496927,650.496242 490.149505,649.091998 496.581251,641.468957 C500.802084,636.253191 501.40506,629.432576 499.797123,623.614991 C495.978275,611.57861 481.305855,608.168302 472.864189,604.757995 C471.055261,603.955569 466.432443,601.748899 466.432443,601.748899 C466.432443,601.748899 466.030459,598.338591 464.422523,596.332528 C468.844348,598.94041 475.477086,602.150112 483.918752,604.958601 C486.933632,605.961633 487.536609,602.551325 484.923712,601.748899 C479.496927,599.943442 473.065181,597.536166 466.633436,593.524039 C458.19177,588.50888 457.186809,586.904029 453.36796,582.691296 C451.157048,580.28402 449.549111,583.293115 450.152088,584.296147 C450.755064,585.499785 450.956056,586.101604 454.975897,589.511912 C452.764984,588.910093 449.750104,589.511912 449.750104,589.511912 C438.092565,576.071287 436.484628,566.843394 439.298517,555.609439 C442.715382,542.770633 451.760024,534.144559 465.427483,529.931826 C476.482046,526.521518 495.777282,528.326975 506.027877,536.150623 C509.846726,539.159718 511.856646,543.974271 510.650694,548.38761 C509.645734,552.600344 506.630853,555.609439 503.012996,557.013683 C496.581251,559.019747 486.531648,552.600344 480.501887,550.995493 C475.87907,549.591248 469.849308,550.59428 465.427483,555.609439 C462.613595,558.618534 460.804666,564.235512 462.21161,569.250671 C464.824507,578.679169 474.874109,581.086445 483.71776,584.095541 L488.541569,585.900998 C505.424901,591.919188 519.09236,598.338591 523.112201,617.396195 C525.92609,629.432576 522.107241,647.085934 510.851686,658.520496 C495.978275,673.365366 474.874109,673.565972 461.809626,670.556877 Z M456.242893,566.234652 C457.43607,566.234652 458.032659,565.650179 458.231522,563.701937 C458.430385,559.805452 460.419014,554.350373 465.589449,550.843537 C473.94169,544.99881 482.293932,548.115998 491.043899,551.622834 C493.629117,552.596955 495.418883,554.350373 498.600689,554.350373 C501.583632,554.350373 505.163164,552.596955 505.958616,549.479767 C506.356342,548.115998 503.771124,546.947052 503.174535,548.310822 C502.180221,550.453889 499.197278,551.817658 497.009786,551.038361 C490.845036,548.505646 489.850722,547.921173 484.282561,545.972931 C475.731456,543.245392 470.163295,543.440216 462.407643,549.090119 C458.629248,551.817658 455.447442,557.85721 455.049716,563.507113 C454.850853,565.260531 455.248579,566.234652 456.242893,566.234652 Z M457.224423,647.519615 C456.050018,646.331173 451.352398,641.181257 450.177993,637.021709 C448.220651,631.277571 449.199322,626.127655 450.373727,622.958476 C452.331069,618.204707 453.505474,615.827823 457.224423,611.074054 C458.594562,609.489464 459.768967,607.508727 459.964701,605.726064 C460.160435,603.349179 459.573233,599.783853 457.420157,599.189632 C455.462816,599.189632 455.65855,600.774221 456.050018,601.76459 C456.637221,603.151106 457.028689,604.339548 456.637221,605.924138 C456.050018,607.904875 452.331069,612.46057 451.156664,614.243233 C448.024917,619.393149 447.046246,622.562329 446.459044,626.325729 C445.088905,633.654456 446.459044,641.37933 455.071347,649.698426 C456.245752,651.084942 458.594562,648.708057 457.224423,647.519615 Z M508.125962,655.587675 C518.905091,644.560868 522.098907,627.118463 518.705478,616.091655 C517.70741,612.482881 514.912821,604.663872 508.125962,599.651687 C505.7306,598.047788 503.734465,601.055099 505.7306,602.057536 C514.912821,607.871671 519.304318,623.309202 514.912821,637.543808 C509.922484,652.981339 498.744128,661.40181 484.970797,664.008147 C476.786643,665.411559 467.604422,665.010584 461.616017,663.206197 C458.821428,662.20376 458.022974,665.411559 460.418336,666.213508 C474.790508,669.822282 494.751858,669.22082 508.125962,655.587675 Z M471.762465,640.670578 C467.75654,639.849681 462.94943,637.181767 461.547356,632.872058 C459.344097,626.510107 464.151207,621.78995 469.559206,613.170532 C474.766909,615.01755 488.987942,618.301138 490.790609,627.331004 C491.391498,630.409367 490.790609,633.898179 487.786165,636.976542 C484.180832,640.670578 476.970167,641.901924 471.762465,640.670578 Z M585.689905,677.08322 C596.956695,677.08322 606.211558,667.883977 606.211558,656.684899 L606.211558,577.691401 C606.211558,568.492159 600.578163,563.49257 599.169814,562.292669 L617.478347,562.292669 C628.745137,562.292669 638,553.29341 638,541.894348 C638,530.495286 628.745137,521.296044 617.478347,521.296044 L550.078802,521.296044 C542.031095,521.296044 537.001278,525.095731 534.586966,527.495533 C526.941644,535.894842 527.142837,548.293821 535.190544,556.293163 L561.144399,581.891056 C563.759903,584.490842 564.967059,586.690661 564.967059,592.090216 L564.967059,656.684899 C564.967059,667.883977 574.221922,677.08322 585.689905,677.08322 Z M585.702828,668.095498 C579.258597,668.095498 574.02266,663.295089 574.02266,656.694527 L574.02266,587.688653 C574.02266,584.088346 573.015749,581.488125 570.39778,578.887903 L541.398744,550.085451 C536.766953,545.48506 536.968336,538.284446 541.398744,533.684055 C543.412566,531.483868 547.238828,530.283765 550.863707,530.283765 L617.521215,530.283765 C624.166827,530.283765 629,535.484208 629,541.884753 C629,548.085281 624.166827,553.485741 617.521215,553.485741 L577.446157,553.485741 L593.758115,569.68712 C596.174702,572.087324 597.181613,574.687546 597.181613,577.687801 L597.181613,656.694527 C597.181613,663.295089 591.945676,668.095498 585.702828,668.095498 Z M617.76834,550.25648 C621.783784,550.25648 626,547.319316 626,542.032421 C626,541.249177 625.397683,540.270123 624.594595,540.270123 C623.590734,540.270123 622.787645,541.249177 622.787645,542.032421 C622.787645,544.773774 620.579151,547.123505 617.76834,547.123505 L575.606178,547.123505 C574.803089,547.123505 574,547.906749 574,548.689993 C574,549.473236 574.803089,550.25648 575.405405,550.25648 L617.76834,550.25648 Z M575.366612,574.259037 L554.914435,554.765318 C554.505392,553.985569 553.073739,554.180506 552.460174,554.765318 C551.846609,555.35013 551.846609,556.324816 552.460174,556.909627 L573.321394,576.598283 C575.16209,578.352718 577.002786,576.013471 575.366612,574.259037 Z M585.8,665.099591 C591,665.099591 594,660.9101 594,656.92011 L594,581.110287 C594,575.5243 592.4,573.728804 591.4,572.930806 C589.8,571.13531 587.4,573.130305 589,574.925801 C589.8,576.122798 590.8,576.920796 590.8,581.110287 L590.8,656.92011 C590.8,659.713103 588.6,661.907598 585.8,661.907598 C584.8,661.907598 584,662.506097 584,663.703094 C584,664.501092 584.8,665.099591 585.8,665.099591 Z M738.390039,673.744456 C744.599396,668.106282 746.201811,659.447658 743.998491,652.198578 L737.38853,631.055427 C741.995472,626.826797 745,621.792713 745,614.94636 C745,604.072739 736.787624,595.212752 725.971324,594.205935 L707.944158,536.414656 C705.340234,527.756033 695.926047,519.298772 683.907936,519.298772 C671.088618,519.298772 662.275337,528.561486 660.072016,536.414656 L624.017684,651.795851 C620.612552,662.669472 626.020702,673.945819 636.236096,677.771722 C647.052396,681.798989 659.671413,675.959452 662.876242,664.884469 L668.885298,645.553588 L712.350799,675.153999 C720.763476,680.792173 730.778569,680.389446 738.390039,673.744456 Z M647.397759,609.175989 L647,609.175989 L669.07563,539.420537 C670.865546,533.856 677.030812,529.28513 683.991597,529.28513 C690.753501,529.28513 696.719888,533.657266 698.708683,539.221804 L718,599.835515 L714.817927,599.835515 L696.521008,542.004072 C696.123249,539.818004 692.941176,540.612938 693.338936,542.600273 L711.436975,599.835515 L693.935574,599.835515 L683.991597,568.435625 L674.047619,599.835515 L670.666667,599.835515 L682.201681,563.666022 C682.59944,561.678687 679.616246,560.68502 679.019608,563.069821 L667.285714,599.835515 L661.120448,599.835515 C656.546218,599.835515 650.182073,602.220317 647.397759,609.175989 Z M687,600.188267 L681,600.188267 L684,589.203274 L687,600.188267 Z M717.916859,668.103786 L654.224018,624.555227 C651.411085,622.740703 649,619.313271 649,614.877769 C649,608.426131 654.023095,603.184175 660.65358,603.184175 L724.34642,603.184175 C731.981524,603.184175 736,609.434199 736,614.877769 C736,620.119725 731.981524,626.571364 724.547344,626.571364 L692.600462,626.571364 L708.272517,637.055276 C709.277136,633.627843 713.69746,629.192342 720.729792,629.797183 L729.369515,657.015032 C730.575058,661.450534 725.752887,665.281194 721.935335,662.86183 L658.242494,619.716498 C656.635104,618.305202 654.625866,621.127794 656.233256,622.135862 L719.524249,665.281194 C723.542725,667.902172 727.159353,666.490876 727.159353,666.490876 C730.575058,665.07958 733.990762,661.652148 732.182448,655.402123 L724.547344,631.208479 C727.963048,632.418161 729.771363,637.055276 730.374134,639.071413 L735.397229,654.595668 C737.205543,660.845693 734.39261,665.886035 730.575058,668.3054 C725.351039,671.531219 720.127021,669.716695 717.916859,668.103786 Z M639.449612,668.426943 C634.106246,666.637623 630.939807,660.673222 632.325124,654.907634 L646.376196,610.174625 L646.574099,610.174625 C644.990879,616.337839 646.574099,621.506987 651.125855,626.079695 L657.458732,630.254776 L648.355221,658.883901 C647.365708,662.263729 643.605562,663.456609 641.824441,662.263729 C641.230733,661.866102 640.043319,662.263729 639.845416,663.257796 C639.647514,664.053049 639.845416,665.047116 640.439124,665.245929 C645.188782,667.234063 649.93844,664.649489 651.323757,660.275595 L660.229366,632.242909 L663,634.03223 L654.490196,661.070849 C652.511172,667.234063 645.584587,670.613891 639.449612,668.426943 Z M719.39,623.156889 C723.695,623.156889 728,620.160982 728,614.768349 C728,613.969441 727.385,613.170532 726.565,613.170532 C725.335,613.170532 724.72,613.969441 724.72,614.768349 C724.72,617.564529 722.26,619.961255 719.39,619.961255 L688.64,619.961255 C687.615,619.961255 687,620.760164 687,621.559072 C687,622.557708 687.615,623.156889 688.435,623.156889 L719.39,623.156889 Z M738.390039,673.744456 C744.599396,668.106282 746.201811,659.447658 743.998491,652.198578 L737.38853,631.055427 C741.995472,626.826797 745,621.792713 745,614.94636 C745,604.072739 736.787624,595.212752 725.971324,594.205935 L707.944158,536.414656 C705.340234,527.756033 695.926047,519.298772 683.907936,519.298772 C671.088618,519.298772 662.275337,528.561486 660.072016,536.414656 L624.017684,651.795851 C620.612552,662.669472 626.020702,673.945819 636.236096,677.771722 C647.052396,681.798989 659.671413,675.959452 662.876242,664.884469 L668.885298,645.553588 L712.350799,675.153999 C720.763476,680.792173 730.778569,680.389446 738.390039,673.744456 Z M647.397759,609.175989 L647,609.175989 L669.07563,539.420537 C670.865546,533.856 677.030812,529.28513 683.991597,529.28513 C690.753501,529.28513 696.719888,533.657266 698.708683,539.221804 L718,599.835515 L714.817927,599.835515 L696.521008,542.004072 C696.123249,539.818004 692.941176,540.612938 693.338936,542.600273 L711.436975,599.835515 L693.935574,599.835515 L683.991597,568.435625 L674.047619,599.835515 L670.666667,599.835515 L682.201681,563.666022 C682.59944,561.678687 679.616246,560.68502 679.019608,563.069821 L667.285714,599.835515 L661.120448,599.835515 C656.546218,599.835515 650.182073,602.220317 647.397759,609.175989 Z M687,600.188267 L681,600.188267 L684,589.203274 L687,600.188267 Z M717.916859,668.103786 L654.224018,624.555227 C651.411085,622.740703 649,619.313271 649,614.877769 C649,608.426131 654.023095,603.184175 660.65358,603.184175 L724.34642,603.184175 C731.981524,603.184175 736,609.434199 736,614.877769 C736,620.119725 731.981524,626.571364 724.547344,626.571364 L692.600462,626.571364 L708.272517,637.055276 C709.277136,633.627843 713.69746,629.192342 720.729792,629.797183 L729.369515,657.015032 C730.575058,661.450534 725.752887,665.281194 721.935335,662.86183 L658.242494,619.716498 C656.635104,618.305202 654.625866,621.127794 656.233256,622.135862 L719.524249,665.281194 C723.542725,667.902172 727.159353,666.490876 727.159353,666.490876 C730.575058,665.07958 733.990762,661.652148 732.182448,655.402123 L724.547344,631.208479 C727.963048,632.418161 729.771363,637.055276 730.374134,639.071413 L735.397229,654.595668 C737.205543,660.845693 734.39261,665.886035 730.575058,668.3054 C725.351039,671.531219 720.127021,669.716695 717.916859,668.103786 Z M639.449612,668.426943 C634.106246,666.637623 630.939807,660.673222 632.325124,654.907634 L646.376196,610.174625 L646.574099,610.174625 C644.990879,616.337839 646.574099,621.506987 651.125855,626.079695 L657.458732,630.254776 L648.355221,658.883901 C647.365708,662.263729 643.605562,663.456609 641.824441,662.263729 C641.230733,661.866102 640.043319,662.263729 639.845416,663.257796 C639.647514,664.053049 639.845416,665.047116 640.439124,665.245929 C645.188782,667.234063 649.93844,664.649489 651.323757,660.275595 L660.229366,632.242909 L663,634.03223 L654.490196,661.070849 C652.511172,667.234063 645.584587,670.613891 639.449612,668.426943 Z M719.39,623.156889 C723.695,623.156889 728,620.160982 728,614.768349 C728,613.969441 727.385,613.170532 726.565,613.170532 C725.335,613.170532 724.72,613.969441 724.72,614.768349 C724.72,617.564529 722.26,619.961255 719.39,619.961255 L688.64,619.961255 C687.615,619.961255 687,620.760164 687,621.559072 C687,622.557708 687.615,623.156889 688.435,623.156889 L719.39,623.156889 Z M834.057535,680.079127 C852.114906,680.079127 866.159529,673.664099 872.981203,670.256115 C885.822,663.841087 887.828375,650.008683 881.207338,639.784731 C874.586302,629.56078 861.143592,628.758902 853.118094,634.171582 C849.707257,636.577217 841.681758,639.183323 834.057535,639.183323 C811.987414,639.183323 794.331317,621.341526 794.331317,599.289866 C794.331317,577.238207 811.987414,559.39641 834.057535,559.39641 C841.681758,559.39641 850.108532,562.202985 853.118094,564.207681 C862.949329,570.42224 874.385665,567.816135 880.605426,559.997819 C888.630925,549.773868 885.220088,534.939116 873.98439,528.925027 C861.946142,522.509999 850.108532,518.300136 834.057535,518.300136 C789.516018,518.300136 753,554.785609 753,599.289866 C753,643.794124 789.516018,680.079127 834.057535,680.079127 Z M834.10115,671.091405 C794.535895,671.091405 762,638.845763 762,599.189632 C762,559.733784 794.535895,527.287858 834.10115,527.287858 C848.561548,527.287858 861.616073,531.894378 870.252144,536.901466 C876.076471,540.306285 877.683182,548.317625 874.068083,553.725279 C870.252144,559.333217 863.423623,559.934067 859.206007,557.330382 C853.582519,553.925563 844.143093,550.520743 834.10115,550.520743 C807.188743,550.520743 785.297308,572.351644 785.297308,599.189632 C785.297308,626.227903 807.188743,648.058804 834.10115,648.058804 C844.745609,648.058804 853.180841,644.653984 858.201813,641.649732 C862.821107,638.845763 870.452983,639.24633 874.268922,645.254835 C877.482343,650.462206 876.076471,657.872695 871.256339,660.876947 C862.620268,666.284601 849.164064,671.091405 834.10115,671.091405 Z M871.688703,552.082028 C874.263057,548.138816 872.678839,542.535304 870.104484,540.459929 C868.718293,539.629779 866.341966,541.705154 868.124212,543.157917 C869.906457,544.818216 870.302512,547.723741 869.114348,549.799116 C868.124212,552.082028 865.35183,553.327253 863.17353,552.497103 C861.589311,551.87449 860.005093,554.36494 861.787339,555.402627 C864.163666,557.062927 868.916321,556.440315 871.688703,552.082028 Z M802.319961,640.618038 C790.861015,631.986381 782.216546,617.332639 782.216546,599.467118 C782.216546,570.761843 805.536507,547.476445 834.284391,547.476445 C839.511278,547.476445 844.9392,548.480126 847.552644,549.082334 C850.166088,549.684543 850.970225,546.6735 848.557815,546.071291 C844.738166,545.067611 839.913347,544.264666 834.284391,544.264666 C803.928234,544.264666 779,568.955217 779,599.467118 C779,618.737793 789.051707,634.595952 801.113756,643.62908 C802.923064,645.23497 804.732371,642.6254 802.319961,640.618038 Z M834.392389,668.095498 C848.844904,668.095498 859.282832,664.267709 869.921489,658.425295 C871.326595,657.619444 874.337535,652.985805 872.330242,648.150703 C871.728054,646.539003 868.917842,646.740465 869.52003,649.359479 C870.122218,651.172642 870.122218,654.396043 867.914195,655.604819 C859.483561,660.842845 848.041987,664.872097 834.392389,664.872097 C824.757378,664.872097 816.928933,662.857471 810.304863,660.238458 C808.09684,659.231145 807.293922,662.253083 808.699028,662.857471 C815.523827,665.87941 824.15519,668.095498 834.392389,668.095498 Z M987.362816,677.08322 C998.783394,677.08322 1008,667.841784 1008,656.390439 C1008,651.970622 1005.99639,646.747202 1003.19134,642.930087 L962.31769,589.289578 L995.377256,554.533743 C1003.3917,545.895009 1002.79061,532.836458 994.776173,525.202228 C986.561372,517.367098 974.33935,516.965296 965.323105,526.206732 L938.074007,554.935544 L938.074007,539.867985 C938.074007,528.818442 929.057762,519.376106 917.637184,519.376106 C906.216606,519.376106 897,528.818442 897,539.867985 L897,656.390439 C897,667.841784 906.216606,677.08322 917.637184,677.08322 L987.362816,677.08322 Z M987.425139,668.095498 L917.632163,668.095498 C910.211645,668.095498 906,662.259407 906,656.423316 L906,539.500256 C906,533.664165 911.414972,528.431808 917.632163,528.431808 C923.849353,528.431808 929.264325,533.261676 929.264325,539.500256 L929.264325,572.906845 L926.055453,576.126757 L926.055453,540.506479 C926.055453,537.8903 922.84658,537.8903 922.84658,540.10399 L922.84658,579.950403 C921.242144,581.962848 920.640481,584.579026 920.439926,587.195205 C920.439926,590.817606 921.242144,593.635029 922.84658,596.049963 L922.84658,642.73869 C922.84658,645.556113 926.055453,645.556113 926.055453,642.73869 L926.055453,600.477343 L929.264325,604.502233 L929.264325,638.311311 C929.264325,641.732467 932.473198,644.952379 935.882625,644.952379 L964.160813,644.952379 L926.857671,595.848719 C924.651571,592.830051 923.648799,591.018851 923.648799,587.39645 C923.648799,584.579026 924.852126,581.962848 926.657116,580.151647 L972.182994,532.054209 C976.194085,527.62683 983.414048,526.620608 988.628466,531.65172 C992.037893,534.871632 994.444547,542.116435 989.029575,547.952526 L950.322551,588.603917 L996.249538,648.97727 C999.45841,653.404649 999.859519,658.033272 997.452865,662.259407 C995.647874,665.680564 992.037893,668.095498 987.425139,668.095498 Z M947.092448,589.528301 L946.089397,588.146525 L986.612655,546.495851 C989.421198,543.732299 990.223638,538.205195 986.412045,534.652057 C986.010824,534.257264 984.807163,534.059867 984.205333,534.652057 C983.402892,535.63904 983.804112,536.626023 984.205333,537.020816 C986.612655,539.192178 986.010824,542.350523 984.205333,544.324489 L944.083295,585.777767 C942.879634,586.962146 942.679024,588.541319 943.481464,589.725698 L944.885736,591.502267 C946.089397,593.278836 948.496719,591.30487 947.092448,589.528301 Z M970.705297,642.637691 L931.842969,591.964736 C930.433455,589.953905 928.017145,592.366902 929.426659,593.975568 L967.886268,644.648522 C969.094423,646.056104 971.913452,644.045273 970.705297,642.637691 Z M946,636.139154 L940.315789,636.139154 C938.842105,636.139154 938,634.916335 938,633.693516 L938,626.152797 L946,636.139154 Z M986.579144,665.099591 C993.158555,665.099591 997.54483,657.472868 993.357932,651.853177 C992.959179,651.45177 992.361051,650.849661 991.563547,651.251067 C990.36729,651.853177 990.167914,652.856693 990.766042,653.2581 C993.95606,657.673571 989.769162,661.888339 986.579144,661.888339 L917.395633,661.888339 C916.598128,661.888339 916,662.691152 916,663.694668 C916,664.497481 916.598128,665.099591 917.196257,665.099591 L986.579144,665.099591 Z" id="STACK"></path>
            <path d="M279.701492,435.603973 C297.108979,421.181232 300.752407,399.648689 298.323455,385.429084 C294.680028,362.677718 281.523206,353.333407 259.257815,345.004781 L255.209562,343.582821 C252.375785,342.567135 237.194836,339.926351 236.182773,333.425961 C235.777948,330.785177 236.587598,328.956943 237.397249,327.941257 C239.218963,326.316159 241.445502,325.706747 244.076866,326.722433 C245.696167,327.128708 256.424038,331.394589 258.043339,332.004001 C263.103655,333.629098 267.556733,333.832235 271.604986,332.004001 C278.487016,328.956943 283.142507,324.284787 284.761808,317.784397 C286.583522,311.284006 284.761808,303.361655 280.106317,298.283225 C268.973622,286.29813 247.517881,284.266758 235.17071,286.29813 C219.989762,288.938914 205.213638,296.658128 197.319545,314.127927 C191.044753,328.347531 194.080943,342.160861 202.379861,356.380465 C187.401326,368.162422 182.138597,393.148298 184.567549,407.774177 C187.806151,426.056525 197.521958,438.244757 215.739096,444.745147 C232.944171,450.839263 262.294004,450.229852 279.701492,435.603973 Z M227.16181,438.843905 C212.133467,435.386232 201.166838,428.267493 195.074267,412.606266 C190.606381,401.216284 193.652667,382.707562 201.369924,371.724364 C206.040896,364.809017 210.305696,359.317419 217.819867,359.724204 C221.069239,359.927596 226.146381,361.758129 228.380324,367.859906 C230.208096,372.741327 227.771067,377.419355 223.912439,382.504169 C219.241467,388.605946 215.179753,396.538255 219.241467,405.487527 C222.693924,412.809659 229.801924,416.674117 237.722267,417.487688 C245.033353,418.50465 255.796896,417.080903 262.295639,409.351986 C266.560439,404.063779 267.169696,397.148433 265.54501,391.250049 C261.686382,379.046496 246.861124,375.588823 238.331524,372.131149 C236.503753,371.317579 231.832781,369.080261 231.832781,369.080261 C231.832781,369.080261 231.42661,365.622588 229.801924,363.588662 C234.26981,366.232765 240.971639,369.487046 249.501239,372.334542 C252.547524,373.351504 253.156782,369.893831 250.516667,369.080261 C245.033353,367.249728 238.53461,364.809017 232.035867,360.741166 C223.506267,355.656353 222.490839,354.029212 218.63221,349.757969 C216.398267,347.317258 214.773581,350.368146 215.382839,351.385109 C215.992096,352.605465 216.195181,353.215642 220.256896,356.673315 C218.022953,356.063138 214.976667,356.673315 214.976667,356.673315 C203.197696,343.046015 201.57301,333.689957 204.41621,322.299975 C207.868667,309.282852 217.007524,300.536972 230.817353,296.265728 C241.987067,292.808055 261.483296,294.638588 271.840667,302.570897 C275.699296,305.621786 277.730153,310.503207 276.511639,314.977843 C275.49621,319.249086 272.449924,322.299975 268.794382,323.723723 C262.295639,325.757648 252.141353,319.249086 246.048781,317.621946 C241.37781,316.198198 235.285239,317.215161 230.817353,322.299975 C227.974153,325.350863 226.146381,331.045854 227.567981,336.130668 C230.208096,345.690118 240.362381,348.130828 249.298153,351.181717 L254.17221,353.01225 C271.23141,359.114026 285.041239,365.622588 289.102953,384.94488 C291.946153,397.148433 288.087524,415.046977 276.714724,426.640352 C261.686382,441.691401 240.362381,441.894793 227.16181,438.843905 Z M221.267264,332.545703 C222.483837,332.545703 223.092123,331.934663 223.294885,329.897864 C223.497647,325.824266 225.525269,320.121229 230.797085,316.454991 C239.313096,310.344595 247.829107,313.603473 256.750642,317.269711 C259.38655,318.28811 261.21141,320.121229 264.455604,320.121229 C267.497037,320.121229 271.146756,318.28811 271.957804,315.029232 C272.363329,313.603473 269.727421,312.381394 269.119134,313.807153 C268.105323,316.047632 265.063891,317.473391 262.833507,316.658671 C256.54788,314.010833 255.534069,313.399793 249.856729,311.362994 C241.137956,308.511476 235.460615,308.715156 227.552891,314.621872 C223.700409,317.473391 220.456215,323.787467 220.050691,329.694184 C219.847928,331.527303 220.253453,332.545703 221.267264,332.545703 Z M223.026168,414.778312 C221.767876,413.566567 216.734712,408.315672 215.476421,404.074565 C213.379269,398.217797 214.427845,392.966902 215.686136,389.735582 C217.783288,384.888602 219.041579,382.465112 223.026168,377.618132 C224.494174,376.002472 225.752465,373.982897 225.96218,372.16528 C226.171895,369.74179 225.54275,366.106555 223.235883,365.500682 C221.138731,365.500682 221.348446,367.116342 221.767876,368.12613 C222.397022,369.539832 222.816452,370.751577 222.397022,372.367237 C221.767876,374.386812 217.783288,379.031835 216.524997,380.849452 C213.169554,386.100347 212.120978,389.331667 211.491833,393.16886 C210.023826,400.641287 211.491833,408.51763 220.719301,416.999845 C221.977592,418.413547 224.494174,415.990057 223.026168,414.778312 Z M273.931306,423.714725 C284.887142,412.528108 288.133315,394.832915 284.684256,383.646298 C283.669827,379.985223 280.829425,372.052895 273.931306,366.96807 C271.496676,365.340925 269.467817,368.391821 271.496676,369.408786 C280.829425,375.307184 285.292913,390.968447 280.829425,405.409352 C275.757279,421.070615 264.395671,429.613122 250.396547,432.257232 C242.078227,433.680983 232.745478,433.274197 226.658903,431.44366 C223.818501,430.426695 223.006958,433.680983 225.441588,434.494555 C240.049369,438.15563 260.337954,437.54545 273.931306,423.714725 Z M237.762465,407.980265 C233.75654,407.159368 228.94943,404.491453 227.547356,400.181744 C225.344097,393.819793 230.151207,389.099636 235.559206,380.480218 C240.766909,382.327236 254.987942,385.610824 256.790609,394.64069 C257.391498,397.719053 256.790609,401.207865 253.786165,404.286229 C250.180832,407.980265 242.970167,409.21161 237.762465,407.980265 Z M390,447.388813 C435.059406,447.388813 472,410.655847 472,365.602154 C472,320.548462 435.059406,283.612551 390,283.612551 C378.024752,283.612551 365.237624,286.25083 352.856436,292.542112 C347.376238,295.383336 343.722772,301.065784 342.50495,305.327619 C336.212871,305.530564 331.341584,308.168843 327.079208,313.039513 C319.163366,322.374963 308,341.451751 308,365.602154 C308,410.655847 344.940594,447.388813 390,447.388813 Z M390,439.399727 C349.941504,439.399727 317,406.706229 317,366.499318 C317,347.208123 325.337047,329.744515 334.284123,319.591255 C337.537604,315.936081 343.841226,313.905429 348.314763,317.154473 C348.924791,318.778994 351.16156,323.246429 354.618384,324.87095 C354.821727,327.916929 355.431755,330.353711 351.97493,334.61808 C345.671309,342.537623 340.587744,353.300079 340.587744,366.499318 C340.587744,393.913121 362.752089,416.047228 390,416.047228 C417.451253,416.047228 439.615599,393.913121 439.615599,366.499318 C439.615599,339.28858 417.451253,317.154473 390,317.154473 C381.256267,317.154473 371.902507,319.79432 368.038997,322.231103 C363.362117,325.277081 356.448468,323.855624 352.788301,318.778994 C349.128134,313.296234 350.144847,305.782821 356.855153,301.924582 C365.192201,297.051017 376.78273,293.598909 390,293.598909 C430.261838,293.598909 463,326.495472 463,366.499318 C463,406.706229 430.261838,439.399727 390,439.399727 Z M432.728281,330.008766 C423.216126,319.190367 408.441928,310.575716 390.024777,310.575716 C379.095918,310.575716 368.369446,314.38219 365.333652,316.185256 C363.916948,317.387301 360.476381,317.988323 358.250132,314.582531 C357.035814,312.579123 354.202407,314.38219 355.214338,316.185256 C359.059677,322.195478 364.928879,320.192071 366.750356,319.190367 C373.833875,315.584234 380.715008,313.781168 390.024777,313.781168 C407.22761,313.781168 420.787491,321.394115 430.097259,331.811833 C431.71635,333.81524 433.740212,331.210811 432.728281,330.008766 Z M390.5,406.444748 C368.113065,406.444748 350,388.356393 350,366 C350,355.431523 354.070352,346.895446 359.361809,340.188528 C361.600503,337.546409 363.432161,334.29457 363.635678,332.46541 C366.688442,332.46541 370.351759,331.042731 372.997487,329.823291 C377.474874,327.384412 383.580402,325.555252 390.5,325.555252 C412.886935,325.555252 431,343.643607 431,366 C431,388.356393 412.886935,406.444748 390.5,406.444748 Z M350.382348,399.55267 C344.107969,393.241783 338.238389,379.805701 338.238389,365.758888 C338.238389,352.322805 342.893573,341.940378 349.572751,332.98299 C350.382348,331.557951 348.560754,329.522181 346.94156,331.150797 C340.667181,338.479569 335,351.508497 335,365.758888 C335,380.620009 340.667181,393.241783 347.953556,401.58844 C349.572751,403.827788 352.203942,401.181286 350.382348,399.55267 Z M390.270055,435.405184 C428.692678,435.405184 460,404.198739 460,365.89992 C460,356.375875 458.373646,349.283501 455.73082,341.988488 C454.714348,339.556817 451.868228,340.367374 452.681405,343.001685 C455.120937,349.891419 456.747291,356.781154 456.747291,365.89992 C456.747291,402.780264 426.863029,432.162956 390.270055,432.162956 C374.413099,432.162956 362.012147,426.894336 351.644138,419.801962 C349.4079,418.383487 348.188135,421.423076 349.611195,422.436272 C359.77591,429.528646 373.803216,435.405184 390.270055,435.405184 Z M507.080627,445.391542 C518.658355,445.391542 527.798666,436.07436 527.798666,424.731704 L527.798666,385.64005 C527.798666,384.627313 528.611139,383.614576 530.032965,383.614576 L555.422718,383.614576 C567.000446,383.614576 575.125167,376.120321 576.95323,365.992949 C578.578174,356.47322 572.078397,348.776418 569.844099,346.345849 L552.782184,329.534412 L559.078843,329.534412 C570.656571,329.534412 580,320.21723 580,308.469479 C580,297.126823 570.656571,287.607094 559.078843,287.607094 L501.596441,287.607094 C494.690428,287.607094 488.800005,291.455495 484.940762,296.519181 C479.253457,304.215983 479.659693,315.963734 486.565706,323.052894 L505.861919,342.092353 C502.408913,342.092353 497.330962,343.712732 493.471719,346.953491 C489.206241,350.396797 486.15947,356.47322 486.15947,362.549643 L486.15947,424.731704 C486.15947,436.07436 495.5029,445.391542 507.080627,445.391542 Z M507.061352,436.40382 C500.545311,436.40382 495.251028,431.526762 495.251028,424.820806 L495.251028,362.435103 C495.251028,356.135569 500.545311,350.852089 506.857726,350.852089 L528.238484,350.852089 L493.418392,316.50947 C485.88422,308.990672 491.789382,296.594816 501.563443,296.594816 L559.189676,296.594816 C565.502091,296.594816 571,301.878296 571,308.177829 C571,314.680574 566.316596,320.167264 559.189676,320.167264 L530.478373,320.167264 L563.465828,352.680986 C569.574616,358.777309 568.556485,364.46721 567.131101,367.515372 C564.891212,371.782798 561.429565,374.424538 555.524404,374.424538 L525.591342,374.424538 C521.111564,374.424538 518.871675,378.488753 518.871675,381.130493 L518.871675,424.820806 C518.871675,431.526762 513.373766,436.40382 507.061352,436.40382 Z M524.698806,321.88714 L521.274423,318.621867 C520.468686,317.601469 520.871555,317.19331 522.281595,317.19331 L558.539761,317.19331 C562.971315,317.19331 567,313.928037 567,308.417889 C567,307.601571 566.395697,306.581173 565.58996,306.581173 C564.381355,306.581173 563.777052,307.601571 563.777052,308.417889 C563.777052,311.275003 561.762709,313.928037 558.539761,313.928037 L517.850041,313.928037 C515.634264,313.928037 513.619922,315.560674 516.238567,318.213708 L522.08016,324.132015 C523.288766,325.356492 526.108846,323.723856 524.698806,321.88714 Z M534.643008,347.640771 L516.050696,330.182174 C514.191465,328.396635 511.919071,330.777353 513.571721,332.562891 L532.164033,350.021489 C533.610102,351.608634 535.882496,349.029523 534.643008,347.640771 Z M506.812287,432.409277 C512.249147,432.409277 515.269625,428.155933 515.269625,424.105128 L515.269625,380.558984 C515.269625,375.292939 519.296928,370.634514 525.136519,370.634514 L555.542662,370.634514 C559.771331,370.634514 564,367.596411 564,362.127825 C564,361.317664 563.395904,360.507503 562.590444,360.507503 C561.382253,360.507503 560.778157,361.317664 560.778157,362.127825 C560.778157,364.963388 558.361775,367.39387 555.542662,367.39387 L525.136519,367.39387 C518.290102,367.39387 512.047782,372.659916 512.047782,380.558984 L512.047782,424.105128 C512.047782,426.940691 509.631399,429.168634 506.812287,429.168634 C506.006826,429.168634 505,429.776254 505,430.991495 C505,431.801656 506.006826,432.409277 506.812287,432.409277 Z M647.209996,445.391542 C658.580151,445.391542 667.91992,436.07436 667.91992,424.731704 L667.91992,344.725469 C667.91992,335.408287 662.234843,330.344602 660.813574,329.129317 L679.290075,329.129317 C690.66023,329.129317 700,320.014683 700,308.469479 C700,296.924276 690.66023,287.607094 679.290075,287.607094 L611.272185,287.607094 C603.150646,287.607094 598.074684,291.455495 595.638222,293.886064 C587.92276,302.393056 588.125799,314.950997 596.247338,323.052894 L622.439301,348.978965 C625.078802,351.612082 626.297033,353.840104 626.297033,359.308884 L626.297033,424.731704 C626.297033,436.07436 635.636802,445.391542 647.209996,445.391542 Z M647.227034,436.40382 C640.711988,436.40382 635.418513,431.53384 635.418513,424.837618 L635.418513,354.831658 C635.418513,351.179173 634.400538,348.541267 631.7538,345.903362 L602.436093,316.683483 C597.753404,312.016419 597.956999,304.711449 602.436093,300.044385 C604.472045,297.812311 608.340353,296.594816 612.005067,296.594816 L679.395074,296.594816 C686.113715,296.594816 691,301.870627 691,308.363934 C691,314.654324 686.113715,320.133052 679.395074,320.133052 L638.879632,320.133052 L655.370842,336.569234 C657.813984,339.004223 658.83196,341.642129 658.83196,344.685867 L658.83196,424.837618 C658.83196,431.53384 653.538485,436.40382 647.227034,436.40382 Z M679.610039,316.567531 C683.702703,316.567531 688,313.630367 688,308.343472 C688,307.560228 687.3861,306.581173 686.567568,306.581173 C685.544402,306.581173 684.725869,307.560228 684.725869,308.343472 C684.725869,311.084825 682.474903,313.434556 679.610039,313.434556 L636.637066,313.434556 C635.818533,313.434556 635,314.2178 635,315.001043 C635,315.784287 635.818533,316.567531 636.432432,316.567531 L679.610039,316.567531 Z M636.366612,340.441365 L615.914435,320.100093 C615.505392,319.286443 614.073739,319.489855 613.460174,320.100093 C612.846609,320.710332 612.846609,321.727395 613.460174,322.337633 L634.321394,342.882318 C636.16209,344.713032 638.002786,342.27208 636.366612,340.441365 Z M647.8,432.409277 C653,432.409277 656,428.174738 656,424.141845 L656,347.516862 C656,341.870811 654.4,340.056008 653.4,339.24943 C651.8,337.434627 649.4,339.451074 651,341.265877 C651.8,342.475745 652.8,343.282323 652.8,347.516862 L652.8,424.141845 C652.8,426.96487 650.6,429.182962 647.8,429.182962 C646.8,429.182962 646,429.787896 646,430.997764 C646,431.804343 646.8,432.409277 647.8,432.409277 Z M832.534441,445.391542 C841.46954,445.391542 848.780076,439.717108 851.826133,432.421407 L901.578392,313.866268 C906.452083,302.314742 897.923124,289.344607 889.191095,286.912707 C875.382304,283.062198 866.853346,289.547265 862.588866,299.680183 L832.1283,371.6239 L828.879173,363.922882 L849.795428,315.892852 C853.856837,306.16525 848.780076,287.520682 829.285314,287.520682 L783.594463,287.520682 C764.099701,287.520682 759.02294,306.570567 762.881278,315.082218 L783.797534,363.922882 L780.751477,371.421241 L750.493981,299.072208 C746.838713,289.952582 735.263698,282.251564 723.079471,287.115365 C712.519808,291.573849 707.646117,304.341325 711.098315,312.852976 L761.256715,432.218748 C764.505842,440.325083 771.816378,445.391542 780.751477,445.391542 C789.280436,445.391542 796.590972,439.919766 799.433958,433.029382 L806.338353,416.614055 L813.039678,432.218748 C816.898016,440.730399 824.208552,445.391542 832.534441,445.391542 Z M832.690263,436.40382 C827.007692,436.40382 823.354611,432.947765 821.325121,428.271925 L771.805577,312.595718 C769.167241,306.2935 773.023271,296.535226 783.170718,296.535226 L830.660773,296.535226 C839.387578,296.535226 844.258353,305.886905 841.214119,312.595718 L832.081416,333.738645 L828.225386,342.887027 C827.41359,345.123298 825.181151,346.952975 823.151662,346.952975 L839.184629,308.733068 C839.996425,307.106689 837.15514,305.073716 836.140395,307.513284 L819.498581,346.54638 C815.439602,345.733191 809.757031,339.634269 809.757031,329.469401 C809.757031,327.843022 809.95998,325.60675 810.974725,323.777074 L812.395367,320.117721 L800.421379,320.117721 L832.284365,394.727858 L871.656461,301.414363 C873.8889,296.331928 880.180317,293.07917 886.471735,295.315442 C892.357254,297.551713 895.401489,304.870418 893.371999,310.359447 L843.649506,428.475222 C841.822965,433.151062 837.966935,436.40382 832.690263,436.40382 Z M780.491407,436.40382 C775.610747,436.40382 771.543529,433.55678 769.713282,429.28622 L719.889871,310.72734 C717.042819,303.40638 721.516758,297.50894 726.397419,295.47534 C733.515049,292.6283 739.615875,297.30558 741.242762,300.96606 L780.491407,394.51166 L784.355264,385.36046 C787.405676,378.44622 796.760276,380.27646 801.234215,389.63102 L785.77879,425.62574 C784.355264,428.8795 782.728377,429.8963 780.491407,429.8963 C778.66116,429.8963 778.457799,433.15006 780.288046,433.15006 C783.948542,433.15006 786.998955,431.11646 788.015759,428.8795 L802.657741,394.51166 C803.471184,399.3923 802.657741,402.4427 802.047658,404.06958 L791.676254,428.8795 C789.642646,433.35342 785.77879,436.40382 780.491407,436.40382 Z M832.259731,433.407913 C836.139378,433.407913 839.202257,431.374899 840.019024,429.138584 L890.862817,308.987483 C891.679584,306.751168 888.616705,305.53136 887.799938,307.767675 L837.772913,425.885763 C836.547761,429.138584 834.710034,430.155091 832.668115,430.155091 C830.626195,430.155091 830.422003,433.407913 832.259731,433.407913 Z M778.782781,397.805763 L740.338755,307.935635 C739.316308,305.704097 736.044476,306.312698 737.271413,309.152838 L775.919928,399.4287 C776.942376,401.457371 779.805229,400.240169 778.782781,397.805763 Z M830.782736,397.798211 L796.012312,316.826757 L812.98846,316.826757 C815.238311,316.826757 815.238311,313.571623 812.98846,313.571623 L793.557929,313.571623 C792.330737,313.571623 791.717142,314.792299 792.126205,315.606082 L827.91929,399.425778 C828.941949,401.460237 831.805396,400.239562 830.782736,397.798211 Z M1001.28168,441.020792 C1007.59283,435.347379 1009.22151,426.634639 1006.98207,419.340252 L1000.26375,398.064957 C1004.94622,393.809898 1008,388.744351 1008,381.855208 C1008,370.913627 999.652995,361.998265 988.659379,360.985156 L970.336685,302.832681 C967.690074,294.119941 958.121556,285.609823 945.906427,285.609823 C932.876956,285.609823 923.919195,294.930428 921.679754,302.832681 L885.034367,418.935009 C881.573414,429.876589 887.070222,441.223413 897.453082,445.073229 C908.446698,449.125666 921.272583,443.249632 924.529951,432.10543 L930.637516,412.653731 L974.815566,442.439145 C983.366156,448.112557 993.545431,447.707313 1001.28168,441.020792 Z M909.403361,376.485675 L909,376.485675 L931.386555,304.986337 C933.201681,299.282686 939.453782,294.597544 946.512605,294.597544 C953.369748,294.597544 959.420168,299.078984 961.436975,304.782635 L981,366.91169 L977.773109,366.91169 L959.218487,307.634461 C958.815126,305.393741 955.588235,306.208548 955.991597,308.245566 L974.344538,366.91169 L956.596639,366.91169 L946.512605,334.726803 L936.428571,366.91169 L933,366.91169 L944.697479,329.837959 C945.10084,327.800941 942.07563,326.782432 941.470588,329.226853 L929.571429,366.91169 L923.319328,366.91169 C918.680672,366.91169 912.226891,369.356112 909.403361,376.485675 Z M950,366.499318 L943,366.499318 L946.5,355.514325 L950,366.499318 Z M980.709007,435.413472 L916.284065,391.864913 C913.438799,390.05039 911,386.622957 911,382.187455 C911,375.735817 916.080831,370.493861 922.787529,370.493861 L987.212471,370.493861 C994.935335,370.493861 999,376.743886 999,382.187455 C999,387.429412 994.935335,393.88105 987.415704,393.88105 L955.101617,393.88105 L970.953811,404.364962 C971.969977,400.937529 976.441109,396.502028 983.554273,397.106869 L992.293303,424.324719 C993.512702,428.76022 988.635104,432.59088 984.773672,430.171516 L920.34873,387.026184 C918.722864,385.614888 916.690531,388.43748 918.316397,389.445549 L982.334873,432.59088 C986.399538,435.211858 990.057737,433.800563 990.057737,433.800563 C993.512702,432.389267 996.967667,428.961834 995.138568,422.711809 L987.415704,398.518165 C990.87067,399.727847 992.699769,404.364962 993.309469,406.381099 L998.3903,421.905354 C1000.2194,428.155379 997.374134,433.195721 993.512702,435.615086 C988.228637,438.840905 982.944573,437.026382 980.709007,435.413472 Z M901.689922,436.723957 C896.174189,434.904309 892.905607,428.838816 894.335612,422.975507 L908.839945,377.484311 L909.044231,377.484311 C907.40994,383.751987 909.044231,389.008747 913.742818,393.658958 L920.279982,397.904803 L910.882808,427.019169 C909.861376,430.456281 905.979935,431.66938 904.141358,430.456281 C903.528499,430.051915 902.302781,430.456281 902.098494,431.467197 C901.894208,432.275929 902.098494,433.286844 902.711353,433.489028 C907.614226,435.510859 912.517099,432.882478 913.947104,428.43445 L923.139991,399.926634 L926,401.746282 L917.215686,429.243183 C915.172822,435.510859 908.022799,438.947971 901.689922,436.723957 Z M982.39,390.466576 C986.695,390.466576 991,387.470668 991,382.078035 C991,381.279127 990.385,380.480218 989.565,380.480218 C988.335,380.480218 987.72,381.279127 987.72,382.078035 C987.72,384.874216 985.26,387.270941 982.39,387.270941 L951.64,387.270941 C950.615,387.270941 950,388.06985 950,388.868759 C950,389.867394 950.615,390.466576 951.435,390.466576 L982.39,390.466576 Z M1042.70399,445.391542 C1053.85226,445.391542 1063.37896,435.871812 1063.37896,425.339346 L1063.37896,389.285904 L1090.13479,434.859075 C1096.41836,445.594089 1109.39088,448.024658 1119.12028,442.35333 C1128.44428,437.087097 1132.0928,424.326609 1126.01193,413.591595 L1104.52619,376.93051 C1115.06636,368.423518 1122.56611,354.852841 1122.56611,338.243951 C1122.56611,310.494954 1099.86419,287.607094 1072.09487,287.607094 L1040.87973,287.607094 C1037.8393,287.607094 1033.78538,288.417284 1030.33955,290.442758 C1019.39398,297.126823 1017.56972,310.697501 1022.83981,319.609588 L1039.05547,347.156038 C1030.74495,347.966228 1021.82633,356.878315 1021.82633,366.803139 L1021.82633,425.136799 C1021.82633,435.871812 1031.35303,445.391542 1042.70399,445.391542 Z M1042.8601,436.40382 C1036.39186,436.40382 1030.93429,431.526762 1030.93429,424.820806 L1030.93429,367.718582 C1030.93429,360.606206 1036.59399,355.932358 1042.65796,355.932358 L1072.37141,355.932358 C1082.07376,355.932358 1090.15905,347.803928 1090.15905,338.049811 C1090.15905,328.295695 1081.87163,319.760843 1072.37141,320.370475 L1069.33943,320.573686 C1065.09465,320.776896 1059.83921,324.637901 1062.87119,330.124592 L1075.80766,352.274565 C1075.80766,352.274565 1073.98847,352.680986 1072.37141,352.680986 L1060.4456,352.680986 L1041.44517,320.167264 C1040.23238,317.931946 1037.40252,319.760843 1038.61532,321.386529 L1056.40296,352.680986 L1052.56245,352.680986 L1030.53003,314.477363 C1027.29591,309.193883 1029.31723,301.065453 1035.3812,298.017291 C1037.20039,297.001237 1038.81745,296.594816 1040.83877,296.594816 L1071.96715,296.594816 C1094.2017,296.594816 1113,315.290206 1113,338.049811 C1113,361.62226 1093.5953,379.504807 1072.37141,379.504807 L1061.45627,379.504807 C1057.61575,379.504807 1054.38164,383.1626 1054.38164,386.820394 L1054.38164,425.024017 C1054.38164,431.12034 1049.1262,436.40382 1042.8601,436.40382 Z M1093.69029,327.053631 C1089.85272,319.171842 1081.9756,313.571623 1072.07871,313.571623 C1067.02927,313.571623 1062.78774,315.230947 1059.15215,317.305102 C1056.72842,318.549595 1058.54621,322.075659 1060.76797,320.416335 C1062.78774,318.549595 1067.6352,316.890271 1072.07871,316.890271 C1080.56176,316.890271 1087.02504,321.660828 1090.66063,328.090708 C1092.27645,330.78711 1094.90216,329.335201 1093.69029,327.053631 Z M1041.82111,433.407913 C1047.28446,433.407913 1050.31965,429.133209 1050.31965,425.062063 L1050.31965,386.996848 C1050.31965,379.872342 1056.59238,376.411868 1060.6393,376.411868 L1070.7566,376.411868 C1092.20528,376.411868 1109,358.90594 1109,338.143096 C1109,332.647049 1107.78592,327.965231 1106.3695,324.097642 C1105.56012,321.654954 1102.32258,322.265626 1103.13196,324.911871 C1104.54839,328.575903 1105.76246,333.054163 1105.76246,338.143096 C1105.76246,357.481039 1089.77713,373.154952 1071.56598,373.154952 L1060.6393,373.154952 C1052.95015,373.154952 1047.08211,379.668785 1047.08211,387.200405 L1047.08211,425.062063 C1047.08211,427.911866 1044.65396,430.150996 1041.82111,430.150996 C1041.01173,430.150996 1040,430.761668 1040,431.983012 C1040,432.797241 1041.01173,433.407913 1041.82111,433.407913 Z M1081.63469,343.530696 L1072,327.552524 C1075.56065,327.552524 1078.91185,328.986462 1081.21579,332.468884 C1083.93864,336.361003 1083.10084,341.072515 1081.63469,343.530696 Z M1097.56115,430.232135 L1078.26274,397.675123 C1076.82563,394.844078 1076.82563,392.013034 1077.23623,388.979772 L1100.64068,428.816612 C1103.92551,434.478701 1110.08458,433.467614 1112.95881,431.849874 C1114.60122,431.041004 1112.75351,428.007743 1110.70048,429.221047 C1109.05807,430.232135 1105.77323,430.434352 1103.51491,426.996655 L1079.08395,385.542075 C1080.11046,383.722118 1081.95818,382.306596 1084.0112,381.497726 C1091.40208,378.666681 1096.73994,382.306596 1098.79296,385.542075 L1118.50197,418.907957 C1121.5815,423.963393 1119.73378,431.445439 1114.60122,434.680919 C1108.85276,438.118616 1101.05128,436.298659 1097.56115,430.232135 Z M1219.17135,445.391542 C1230.69788,445.391542 1240,436.03834 1240,424.448503 C1240,413.061996 1230.69788,403.708795 1219.17135,403.708795 L1186.81616,403.708795 C1185.60284,403.708795 1184.59174,402.692142 1184.59174,401.268829 L1184.59174,386.019043 C1184.59174,385.002391 1185.40062,383.985739 1186.81616,383.985739 L1212.09365,383.985739 C1223.62019,383.985739 1231.70898,376.462511 1233.52896,366.295987 C1235.14672,356.739455 1228.67568,349.012897 1226.45127,346.572931 L1209.46479,329.696502 L1215.73361,329.696502 C1227.26014,329.696502 1236.56226,320.3433 1236.56226,308.550133 C1236.56226,297.163626 1227.26014,287.607094 1215.73361,287.607094 L1158.50537,287.607094 C1151.62989,287.607094 1145.76552,291.470373 1141.92334,296.553635 C1136.26118,304.280193 1136.66562,316.07336 1143.5411,323.189927 L1162.75199,342.302992 C1159.31425,342.302992 1154.25875,343.929635 1150.41657,347.182923 C1146.16996,350.639541 1143.13666,356.739455 1143.13666,362.839369 L1143.13666,424.448503 C1143.13666,436.03834 1152.43877,445.391542 1163.96531,445.391542 L1219.17135,445.391542 Z M1219.25423,435.405184 L1163.9681,435.405184 C1157.48767,435.405184 1152.22233,430.541755 1152.22233,423.651898 L1152.22233,362.251107 C1152.22233,355.969178 1157.48767,350.700463 1163.76559,350.700463 L1185.02948,350.700463 L1150.39971,316.453817 C1142.90672,308.956031 1148.7796,296.594816 1158.50024,296.594816 L1215.8115,296.594816 C1222.08941,296.594816 1227.55727,301.863531 1227.55727,308.14546 C1227.55727,314.630032 1222.89947,320.101389 1215.8115,320.101389 L1187.25713,320.101389 L1220.06428,352.524249 C1226.13968,358.603535 1225.12711,364.277536 1223.70952,367.317179 C1221.48188,371.572679 1218.03915,374.207036 1212.16626,374.207036 L1182.39681,374.207036 C1177.94152,374.207036 1175.71387,378.259894 1175.71387,380.894251 L1175.71387,405.414039 C1175.71387,408.858968 1178.95408,412.101254 1182.39681,412.101254 L1219.25423,412.101254 C1226.13968,412.101254 1231,417.167326 1231,423.651898 C1231,429.933827 1226.13968,435.405184 1219.25423,435.405184 Z M1181.69881,321.88714 L1178.27442,318.621867 C1177.46869,317.601469 1177.87155,317.19331 1179.28159,317.19331 L1215.53976,317.19331 C1219.97131,317.19331 1224,313.928037 1224,308.417889 C1224,307.601571 1223.3957,306.581173 1222.58996,306.581173 C1221.38135,306.581173 1220.77705,307.601571 1220.77705,308.417889 C1220.77705,311.275003 1218.76271,313.928037 1215.53976,313.928037 L1174.85004,313.928037 C1172.63426,313.928037 1170.61992,315.560674 1173.23857,318.213708 L1179.08016,324.132015 C1180.28877,325.356492 1183.10885,323.723856 1181.69881,321.88714 Z M1191.64301,347.640771 L1173.0507,330.182174 C1171.19146,328.396635 1168.91907,330.777353 1170.57172,332.562891 L1189.16403,350.021489 C1190.6101,351.608634 1192.8825,349.029523 1191.64301,347.640771 Z M1170.6124,412.436562 C1171.62016,412.436562 1172.22481,411.430032 1172.22481,410.826114 L1172.22481,381.435435 C1172.22481,376.201479 1176.25581,371.57144 1182.10078,371.57144 L1212.53488,371.57144 C1216.76744,371.57144 1221,368.55185 1221,363.116587 C1221,362.311363 1220.39535,361.506139 1219.58915,361.506139 C1218.37984,361.506139 1217.77519,362.311363 1217.77519,363.116587 C1217.77519,365.934872 1215.35659,368.350544 1212.53488,368.350544 L1182.10078,368.350544 C1175.24806,368.350544 1169,373.5845 1169,381.435435 L1169,410.826114 C1169,411.430032 1169.60465,412.436562 1170.6124,412.436562 Z M1219.49533,432.409277 C1223.74766,432.409277 1228,429.41337 1228,424.020737 C1228,423.221828 1227.39252,422.42292 1226.58255,422.42292 C1225.3676,422.42292 1224.76012,423.221828 1224.76012,424.020737 C1224.76012,426.816917 1222.33022,429.213643 1219.49533,429.213643 L1164.41745,429.213643 C1163.60748,429.213643 1163,430.012551 1163,431.011187 C1163,431.810095 1163.60748,432.409277 1164.21495,432.409277 L1219.49533,432.409277 Z" id="SOFTWARE"></path>
        </g>
    </g>
</svg>