<?xml version="1.0" encoding="UTF-8"?>
<svg width="1424px" height="732px" viewBox="0 0 1424 732" version="1.1" xmlns="http://www.w3.org/2000/svg" xmlns:xlink="http://www.w3.org/1999/xlink">
    <title>countdown2</title>
    <g id="Page-1" stroke="none" stroke-width="1" fill="none" fill-rule="evenodd">
        <g id="Countdown-2" fill="#4E65AE" fill-rule="nonzero">
            <path d="M506.496774,677 C510.634409,677 513.419355,676.245127 514.851613,674.735382 C516.283871,673.225637 517,670.404798 517,666.272864 L517,666.272864 L517,601.910045 C517,599.049475 516.721505,596.864318 516.164516,595.354573 C515.607527,593.844828 514.573118,592.811844 513.06129,592.255622 C511.549462,591.6994 509.36129,591.421289 506.496774,591.421289 L506.496774,591.421289 L484.296774,591.421289 C476.976344,591.421289 471.247312,589.196402 467.109677,584.746627 C462.972043,580.296852 460.903226,574.178411 460.903226,566.391304 L460.903226,566.391304 L460.903226,550.181409 C460.903226,545.731634 461.897849,541.718891 463.887097,538.143178 C465.876344,534.567466 468.621505,531.786357 472.122581,529.79985 C475.623656,527.813343 479.602151,526.82009 484.058065,526.82009 C491.219355,526.82009 496.908602,529.084708 501.125806,533.613943 C505.343011,538.143178 507.451613,544.301349 507.451613,552.088456 L507.451613,552.088456 L507.451613,570.205397 C507.451613,571.635682 507.889247,572.827586 508.764516,573.781109 C509.639785,574.734633 510.713978,575.211394 511.987097,575.211394 C513.419355,575.211394 514.612903,574.734633 515.567742,573.781109 C516.522581,572.827586 517,571.635682 517,570.205397 L517,570.205397 L517,528.488756 C517,524.356822 516.283871,521.575712 514.851613,520.145427 C513.419355,518.715142 510.634409,518 506.496774,518 L506.496774,518 L416.503226,518 C412.524731,518 409.77957,518.715142 408.267742,520.145427 C406.755914,521.575712 406,524.356822 406,528.488756 L406,528.488756 L406,583.077961 C406,585.938531 406.278495,588.123688 406.835484,589.633433 C407.392473,591.143178 408.426882,592.176162 409.93871,592.732384 C411.450538,593.288606 413.63871,593.566717 416.503226,593.566717 L416.503226,593.566717 L438.941935,593.566717 C443.397849,593.566717 447.376344,594.55997 450.877419,596.546477 C454.378495,598.532984 457.123656,601.274363 459.112903,604.770615 C461.102151,608.266867 462.096774,612.23988 462.096774,616.689655 L462.096774,616.689655 L462.096774,644.341829 C462.096774,649.109445 461.141935,653.281109 459.232258,656.856822 C457.322581,660.432534 454.617204,663.213643 451.116129,665.20015 C447.615054,667.186657 443.556989,668.17991 438.941935,668.17991 C431.780645,668.17991 426.091398,665.994753 421.874194,661.624438 C417.656989,657.254123 415.548387,651.413793 415.548387,644.103448 L415.548387,644.103448 L415.548387,614.305847 C415.548387,613.034483 415.070968,611.961769 414.116129,611.087706 C413.16129,610.213643 411.967742,609.776612 410.535484,609.776612 C409.262366,609.776612 408.188172,610.213643 407.312903,611.087706 C406.437634,611.961769 406,613.034483 406,614.305847 L406,614.305847 L406,666.272864 C406,670.404798 406.716129,673.225637 408.148387,674.735382 C409.580645,676.245127 412.365591,677 416.503226,677 L416.503226,677 L506.496774,677 Z M604.057654,677 C608.192843,677 610.976143,676.245127 612.407555,674.735382 C613.838966,673.225637 614.554672,670.484258 614.554672,666.511244 L614.554672,666.511244 L614.554672,554.233883 C614.554672,545.493253 616.622266,538.778861 620.757455,534.090705 C624.892644,529.402549 630.936382,527.058471 638.888668,527.058471 L638.888668,527.058471 L642.228628,527.058471 C645.409543,527.058471 647,525.548726 647,522.529235 C647,521.098951 646.602386,519.986507 645.807157,519.191904 C645.011928,518.397301 643.819085,518 642.228628,518 L642.228628,518 L532.248509,518 C530.658052,518 529.385686,518.397301 528.431412,519.191904 C527.477137,519.986507 527,521.098951 527,522.529235 C527,523.8006 527.477137,524.873313 528.431412,525.747376 C529.385686,526.621439 530.658052,527.058471 532.248509,527.058471 L532.248509,527.058471 L538.451292,527.058471 C541.15507,527.058471 543.779324,527.614693 546.324056,528.727136 C548.868787,529.83958 551.095427,531.428786 553.003976,533.494753 C555.389662,536.037481 557.099404,538.898051 558.133201,542.076462 C559.166998,545.254873 559.683897,549.307346 559.683897,554.233883 L559.683897,554.233883 L559.683897,666.511244 C559.683897,670.484258 560.439364,673.225637 561.950298,674.735382 C563.461233,676.245127 566.204771,677 570.180915,677 L570.180915,677 L604.057654,677 Z M662.772234,677 C664.04483,677 665.158351,676.442786 666.112798,675.328358 C667.067245,674.21393 667.544469,673.0199 667.544469,671.746269 L667.544469,671.746269 L667.544469,623.507463 C667.544469,619.368159 668.578453,615.547264 670.646421,612.044776 C672.714389,608.542289 675.458424,605.756219 678.878525,603.686567 C682.298626,601.616915 686.076645,600.58209 690.212581,600.58209 C694.348518,600.58209 698.166305,601.616915 701.665944,603.686567 C705.165582,605.756219 707.949385,608.542289 710.017354,612.044776 C712.085322,615.547264 713.119306,619.368159 713.119306,623.507463 L713.119306,623.507463 L713.119306,665.776119 C713.119306,669.756219 713.87491,672.502488 715.386117,674.014925 C716.897325,675.527363 719.641359,676.283582 723.618221,676.283582 L723.618221,676.283582 L757.501085,676.283582 C761.637021,676.283582 764.420824,675.527363 765.852495,674.014925 C767.284165,672.502488 768,669.756219 768,665.776119 L768,665.776119 L768,527.746269 C768,523.606965 767.284165,520.781095 765.852495,519.268657 C764.420824,517.756219 761.637021,517 757.501085,517 L757.501085,517 L667.544469,517 C663.885756,517 661.380333,517.79602 660.0282,519.38806 C658.676067,520.9801 658,523.766169 658,527.746269 L658,527.746269 L658,671.746269 C658,673.0199 658.516992,674.21393 659.550976,675.328358 C660.58496,676.442786 661.658713,677 662.772234,677 Z M690.120419,593 C685.624782,593 681.65096,592.002976 678.198953,590.008929 C674.746946,588.014881 672.017452,585.183333 670.010471,581.514286 C668.00349,577.845238 667,573.697619 667,569.071429 L667,569.071429 L667,548.732143 C667,544.425 668.00349,540.556548 670.010471,537.126786 C672.017452,533.697024 674.787086,530.985119 678.319372,528.991071 C681.851658,526.997024 685.78534,526 690.120419,526 C694.294939,526 698.148342,526.997024 701.680628,528.991071 C705.212914,530.985119 707.982548,533.736905 709.989529,537.246429 C711.99651,540.755952 713,544.584524 713,548.732143 L713,548.732143 L713,570.028571 C713,576.888095 710.91274,582.431548 706.73822,586.658929 C702.5637,590.88631 697.024433,593 690.120419,593 Z M882.501085,676 C886.637021,676 889.420824,675.245127 890.852495,673.735382 C892.284165,672.225637 893,669.404798 893,665.272864 L893,665.272864 L893,605.916042 C893,601.784108 892.284165,599.002999 890.852495,597.572714 C889.420824,596.142429 886.637021,595.427286 882.501085,595.427286 L882.501085,595.427286 L848.618221,595.427286 C844.641359,595.427286 841.897325,596.142429 840.386117,597.572714 C838.87491,599.002999 838.119306,601.784108 838.119306,605.916042 L838.119306,605.916042 L838.119306,643.58021 C838.119306,648.188906 837.164859,652.281109 835.255965,655.856822 C833.347072,659.432534 830.682574,662.213643 827.262473,664.20015 C823.842372,666.186657 819.905278,667.17991 815.451193,667.17991 C811.156182,667.17991 807.258858,666.146927 803.759219,664.08096 C800.259581,662.014993 797.515546,659.154423 795.527115,655.49925 C793.538684,651.844078 792.544469,647.712144 792.544469,643.103448 L792.544469,643.103448 L792.544469,548.943028 C792.544469,544.493253 793.538684,540.52024 795.527115,537.023988 C797.515546,533.527736 800.219812,530.786357 803.639913,528.79985 C807.060014,526.813343 810.997108,525.82009 815.451193,525.82009 C819.746204,525.82009 823.643529,526.813343 827.143167,528.79985 C830.642805,530.786357 833.347072,533.567466 835.255965,537.143178 C837.164859,540.718891 838.119306,544.811094 838.119306,549.41979 L838.119306,549.41979 L838.119306,574.926537 C838.119306,578.89955 838.87491,581.64093 840.386117,583.150675 C841.897325,584.66042 844.641359,585.415292 848.618221,585.415292 L848.618221,585.415292 L882.501085,585.415292 C886.637021,585.415292 889.420824,584.66042 890.852495,583.150675 C892.284165,581.64093 893,578.89955 893,574.926537 L893,574.926537 L893,527.488756 C893,524.628186 892.72162,522.443028 892.164859,520.933283 C891.608098,519.423538 890.574114,518.390555 889.062907,517.834333 C887.551699,517.278111 885.364425,517 882.501085,517 L882.501085,517 L793.498915,517 C789.522054,517 786.778019,517.715142 785.266811,519.145427 C783.755604,520.575712 783,523.356822 783,527.488756 L783,527.488756 L783,665.272864 C783,669.404798 783.715835,672.225637 785.147505,673.735382 C786.579176,675.245127 789.362979,676 793.498915,676 L793.498915,676 L882.501085,676 Z M912.772234,677 C914.04483,677 915.158351,676.481674 916.112798,675.445022 C917.067245,674.40837 917.544469,673.09262 917.544469,671.497771 L917.544469,671.497771 L917.544469,612.647845 C917.544469,608.182268 918.538684,604.195146 920.527115,600.686478 C922.515546,597.177811 925.259581,594.426696 928.759219,592.433135 C932.258858,590.439574 936.156182,589.442793 940.451193,589.442793 C944.746204,589.442793 948.60376,590.439574 952.023861,592.433135 C955.443962,594.426696 958.10846,597.177811 960.017354,600.686478 C961.926247,604.195146 962.880694,608.182268 962.880694,612.647845 L962.880694,612.647845 L962.880694,665.756315 C962.880694,669.743437 963.636298,672.494552 965.147505,674.009658 C966.658713,675.524765 969.402748,676.282318 973.37961,676.282318 L973.37961,676.282318 L1007.26247,676.282318 C1011.39841,676.282318 1014.18221,675.524765 1015.61388,674.009658 C1017.04555,672.494552 1017.76139,669.743437 1017.76139,665.756315 L1017.76139,665.756315 L1017.76139,600.925706 C1017.76139,598.054978 1016.92625,595.822189 1015.25597,594.22734 C1013.58568,592.632491 1011.23933,591.835067 1008.21692,591.835067 L1008.21692,591.835067 L1004.39913,591.835067 C1009.33044,588.804854 1012.83008,585.216444 1014.89805,581.069837 C1016.96602,576.923229 1018,571.660228 1018,565.280832 L1018,565.280832 L1018,522.219911 C1018,520.465577 1017.56255,518.990342 1016.68764,517.794205 C1015.81273,516.598068 1014.73897,516 1013.46638,516 C1012.03471,516 1010.84165,516.598068 1009.8872,517.794205 C1008.93275,518.990342 1008.45553,520.465577 1008.45553,522.219911 L1008.45553,522.219911 L1008.45553,565.280832 C1008.45553,569.746409 1007.50108,573.733531 1005.59219,577.242199 C1003.6833,580.750867 1000.97903,583.501981 997.479393,585.495542 C993.979754,587.489104 990.002892,588.485884 985.548807,588.485884 C981.253796,588.485884 977.39624,587.489104 973.976139,585.495542 C970.556038,583.501981 967.851772,580.750867 965.863341,577.242199 C963.87491,573.733531 962.880694,569.746409 962.880694,565.280832 L962.880694,565.280832 L962.880694,527.243685 C962.880694,523.097078 962.164859,520.306092 960.733189,518.870728 C959.301518,517.435364 956.517715,516.717682 952.381779,516.717682 L952.381779,516.717682 L918.498915,516.717682 C914.522054,516.717682 911.778019,517.435364 910.266811,518.870728 C908.755604,520.306092 908,523.097078 908,527.243685 L908,527.243685 L908,671.258544 C908,673.012878 908.437455,674.40837 909.312364,675.445022 C910.187274,676.481674 911.340564,677 912.772234,677 Z" id="STACK"></path>
            <path d="M286.402151,447 C290.577061,447 293.387097,446.24038 294.832258,444.721139 C296.277419,443.201899 297,440.363318 297,436.205397 L297,436.205397 L297,371.437781 C297,368.55922 296.718996,366.36032 296.156989,364.841079 C295.594982,363.321839 294.551254,362.282359 293.025806,361.722639 C291.500358,361.162919 289.292473,360.883058 286.402151,360.883058 L286.402151,360.883058 L264.002151,360.883058 C256.615771,360.883058 250.835125,358.644178 246.660215,354.166417 C242.485305,349.688656 240.397849,343.531734 240.397849,335.695652 L240.397849,335.695652 L240.397849,319.383808 C240.397849,314.906047 241.401434,310.868066 243.408602,307.269865 C245.415771,303.671664 248.185663,300.873063 251.71828,298.874063 C255.250896,296.875062 259.265233,295.875562 263.76129,295.875562 C270.987097,295.875562 276.727599,298.154423 280.982796,302.712144 C285.237993,307.269865 287.365591,313.466767 287.365591,321.302849 L287.365591,321.302849 L287.365591,339.533733 C287.365591,340.973013 287.807168,342.172414 288.690323,343.131934 C289.573477,344.091454 290.657348,344.571214 291.941935,344.571214 C293.387097,344.571214 294.591398,344.091454 295.554839,343.131934 C296.51828,342.172414 297,340.973013 297,339.533733 L297,339.533733 L297,297.554723 C297,293.396802 296.277419,290.598201 294.832258,289.158921 C293.387097,287.71964 290.577061,287 286.402151,287 L286.402151,287 L195.597849,287 C191.583513,287 188.81362,287.71964 187.288172,289.158921 C185.762724,290.598201 185,293.396802 185,297.554723 L185,297.554723 L185,352.487256 C185,355.365817 185.281004,357.564718 185.843011,359.083958 C186.405018,360.603198 187.448746,361.642679 188.974194,362.202399 C190.499642,362.762119 192.707527,363.041979 195.597849,363.041979 L195.597849,363.041979 L218.23871,363.041979 C222.734767,363.041979 226.749104,364.041479 230.28172,366.04048 C233.814337,368.03948 236.584229,370.798101 238.591398,374.316342 C240.598566,377.834583 241.602151,381.832584 241.602151,386.310345 L241.602151,386.310345 L241.602151,414.136432 C241.602151,418.934033 240.63871,423.131934 238.711828,426.730135 C236.784946,430.328336 234.055197,433.126937 230.522581,435.125937 C226.989964,437.124938 222.895341,438.124438 218.23871,438.124438 C211.012903,438.124438 205.272401,435.925537 201.017204,431.527736 C196.762007,427.129935 194.634409,421.252874 194.634409,413.896552 L194.634409,413.896552 L194.634409,383.911544 C194.634409,382.632184 194.152688,381.552724 193.189247,380.673163 C192.225806,379.793603 191.021505,379.353823 189.576344,379.353823 C188.291756,379.353823 187.207885,379.793603 186.324731,380.673163 C185.441577,381.552724 185,382.632184 185,383.911544 L185,383.911544 L185,436.205397 C185,440.363318 185.722581,443.201899 187.167742,444.721139 C188.612903,446.24038 191.422939,447 195.597849,447 L195.597849,447 L286.402151,447 Z M411.455338,447 C415.609296,447 418.405229,446.24038 419.843137,444.721139 C421.281046,443.201899 422,440.363318 422,436.205397 L422,436.205397 L422,297.794603 C422,293.636682 421.281046,290.798101 419.843137,289.278861 C418.405229,287.75962 415.609296,287 411.455338,287 L411.455338,287 L322.544662,287 C318.390704,287 315.594771,287.75962 314.156863,289.278861 C312.718954,290.798101 312,293.636682 312,297.794603 L312,297.794603 L312,436.205397 C312,440.363318 312.718954,443.201899 314.156863,444.721139 C315.594771,446.24038 318.390704,447 322.544662,447 L322.544662,447 L411.455338,447 Z M389.857143,438 C382.873016,438 377.31746,435.844857 373.190476,431.53457 C369.063492,427.224283 367,421.477234 367,414.293423 L367,414.293423 L367,319.467116 C367,314.997189 367.992063,311.006183 369.97619,307.494098 C371.960317,303.982012 374.65873,301.188308 378.071429,299.112985 C381.484127,297.037662 385.333333,296 389.619048,296 C393.746032,296 397.515873,296.997752 400.928571,298.993255 C404.34127,300.988758 407.039683,303.742552 409.02381,307.254637 C411.007937,310.766723 412,314.677909 412,318.988196 L412,318.988196 L412,414.293423 C412,418.92299 411.047619,423.033727 409.142857,426.625632 C407.238095,430.217538 404.619048,433.011242 401.285714,435.006745 C397.952381,437.002248 394.142857,438 389.857143,438 Z M481.602041,447 C485.758503,447 488.556122,446.24038 489.994898,444.721139 C491.433673,443.201899 492.153061,440.443278 492.153061,436.445277 L492.153061,436.445277 L492.153061,391.107946 C492.153061,387.429785 492.872449,383.911544 494.311224,380.553223 C495.75,377.194903 497.748299,374.476262 500.306122,372.397301 C502.544218,370.638181 505.022109,369.318841 507.739796,368.43928 C510.457483,367.55972 513.814626,367.11994 517.811224,367.11994 L517.811224,367.11994 L525.484694,367.11994 C527.243197,367.11994 528.602041,366.72014 529.561224,365.92054 C530.520408,365.12094 531,364.081459 531,362.802099 C531,361.522739 530.480442,360.443278 529.441327,359.563718 C528.402211,358.684158 527.083333,358.244378 525.484694,358.244378 L525.484694,358.244378 L517.091837,358.244378 C508.29932,358.244378 501.864796,355.805597 497.788265,350.928036 C493.711735,346.050475 491.673469,338.174413 491.673469,327.29985 C491.673469,316.585207 493.671769,308.709145 497.668367,303.671664 C501.664966,298.634183 507.89966,296.115442 516.372449,296.115442 L516.372449,296.115442 L525.484694,296.115442 C527.083333,296.115442 528.362245,295.675662 529.321429,294.796102 C530.280612,293.916542 530.760204,292.837081 530.760204,291.557721 C530.760204,290.278361 530.280612,289.198901 529.321429,288.31934 C528.362245,287.43978 527.083333,287 525.484694,287 L525.484694,287 L447.55102,287 C443.394558,287 440.596939,287.75962 439.158163,289.278861 C437.719388,290.798101 437,293.636682 437,297.794603 L437,297.794603 L437,436.445277 C437,440.443278 437.759354,443.201899 439.278061,444.721139 C440.796769,446.24038 443.554422,447 447.55102,447 L447.55102,447 L481.602041,447 Z M619.699801,447 C623.86945,447 626.675944,446.24038 628.119284,444.721139 C629.562624,443.201899 630.284294,440.443278 630.284294,436.445277 L630.284294,436.445277 L630.284294,323.461769 C630.284294,314.666167 632.369119,307.909545 636.538767,303.191904 C640.708416,298.474263 646.802518,296.115442 654.821074,296.115442 L654.821074,296.115442 L658.188867,296.115442 C661.396289,296.115442 663,294.596202 663,291.557721 C663,290.118441 662.599072,288.999 661.797217,288.1994 C660.995361,287.3998 659.792578,287 658.188867,287 L658.188867,287 L547.292247,287 C545.688535,287 544.405567,287.3998 543.44334,288.1994 C542.481113,288.999 542,290.118441 542,291.557721 C542,292.837081 542.481113,293.916542 543.44334,294.796102 C544.405567,295.675662 545.688535,296.115442 547.292247,296.115442 L547.292247,296.115442 L553.54672,296.115442 C556.273028,296.115442 558.919152,296.675162 561.485089,297.794603 C564.051027,298.914043 566.296223,300.513243 568.220676,302.592204 C570.626243,305.150925 572.350232,308.029485 573.392644,311.227886 C574.435056,314.426287 574.956262,318.504248 574.956262,323.461769 L574.956262,323.461769 L574.956262,436.445277 C574.956262,440.443278 575.718025,443.201899 577.241551,444.721139 C578.765076,446.24038 581.531478,447 585.540755,447 L585.540755,447 L619.699801,447 Z M862.461078,447 C866.612774,447 869.407186,446.239055 870.844311,444.717164 C872.281437,443.195274 873,440.351741 873,436.186567 L873,436.186567 L873,290.80597 C873,289.524378 872.520958,288.402985 871.562874,287.441791 C870.60479,286.480597 869.487026,286 868.209581,286 C866.932136,286 865.814371,286.480597 864.856287,287.441791 C863.898204,288.402985 863.419162,289.524378 863.419162,290.80597 L863.419162,290.80597 L863.419162,415.040299 C863.419162,419.525871 862.540918,423.530846 860.784431,427.055224 C859.027944,430.579602 856.552894,433.302985 853.359281,435.225373 C850.165669,437.147761 846.493014,438.108955 842.341317,438.108955 C838.189621,438.108955 834.477046,437.147761 831.203593,435.225373 C827.93014,433.302985 825.37525,430.579602 823.538922,427.055224 C821.702595,423.530846 820.784431,419.525871 820.784431,415.040299 L820.784431,415.040299 L820.784431,297.29403 C820.784431,293.128856 820.065868,290.325373 818.628743,288.883582 C817.191617,287.441791 814.397206,286.720896 810.245509,286.720896 L810.245509,286.720896 L778.628743,286.720896 C774.636727,286.720896 771.882236,287.441791 770.365269,288.883582 C768.848303,290.325373 768.08982,293.128856 768.08982,297.29403 L768.08982,297.29403 L768.08982,415.040299 C768.08982,422.089055 766.213573,427.69602 762.461078,431.861194 C758.708583,436.026368 753.638723,438.108955 747.251497,438.108955 C743.0998,438.108955 739.387226,437.147761 736.113772,435.225373 C732.840319,433.302985 730.285429,430.579602 728.449102,427.055224 C726.612774,423.530846 725.694611,419.525871 725.694611,415.040299 L725.694611,415.040299 L725.694611,297.29403 C725.694611,293.128856 724.976048,290.325373 723.538922,288.883582 C722.101796,287.441791 719.307385,286.720896 715.155689,286.720896 L715.155689,286.720896 L683.538922,286.720896 C679.546906,286.720896 676.792415,287.441791 675.275449,288.883582 C673.758483,290.325373 673,293.128856 673,297.29403 L673,297.29403 L673,436.186567 C673,440.351741 673.718563,443.195274 675.155689,444.717164 C676.592814,446.239055 679.387226,447 683.538922,447 L683.538922,447 L862.461078,447 Z M893.815618,447 C895.099783,447 896.223427,446.439303 897.186551,445.31791 C898.149675,444.196517 898.631236,442.995025 898.631236,441.713433 L898.631236,441.713433 L898.631236,393.173134 C898.631236,389.00796 899.67462,385.163184 901.761388,381.638806 C903.848156,378.114428 906.617137,375.310945 910.06833,373.228358 C913.519523,371.145771 917.331887,370.104478 921.505423,370.104478 C925.678959,370.104478 929.531453,371.145771 933.062907,373.228358 C936.59436,375.310945 939.403471,378.114428 941.490239,381.638806 C943.577007,385.163184 944.62039,389.00796 944.62039,393.173134 L944.62039,393.173134 L944.62039,435.70597 C944.62039,439.710945 945.382863,442.474378 946.907809,443.996269 C948.432755,445.518159 951.201735,446.279104 955.214751,446.279104 L955.214751,446.279104 L989.40564,446.279104 C993.579176,446.279104 996.388286,445.518159 997.832972,443.996269 C999.277657,442.474378 1000,439.710945 1000,435.70597 L1000,435.70597 L1000,296.813433 C1000,292.648259 999.277657,289.804726 997.832972,288.282836 C996.388286,286.760945 993.579176,286 989.40564,286 L989.40564,286 L898.631236,286 C894.939262,286 892.411063,286.800995 891.046638,288.402985 C889.682213,290.004975 889,292.808458 889,296.813433 L889,296.813433 L889,441.713433 C889,442.995025 889.521692,444.196517 890.565076,445.31791 C891.60846,446.439303 892.691974,447 893.815618,447 Z M922.120419,362 C917.624782,362 913.65096,361.002976 910.198953,359.008929 C906.746946,357.014881 904.017452,354.183333 902.010471,350.514286 C900.00349,346.845238 899,342.697619 899,338.071429 L899,338.071429 L899,317.732143 C899,313.425 900.00349,309.556548 902.010471,306.126786 C904.017452,302.697024 906.787086,299.985119 910.319372,297.991071 C913.851658,295.997024 917.78534,295 922.120419,295 C926.294939,295 930.148342,295.997024 933.680628,297.991071 C937.212914,299.985119 939.982548,302.736905 941.989529,306.246429 C943.99651,309.755952 945,313.584524 945,317.732143 L945,317.732143 L945,339.028571 C945,345.888095 942.91274,351.431548 938.73822,355.658929 C934.5637,359.88631 929.024433,362 922.120419,362 Z M1020.04545,447 C1021.48701,447 1022.60823,446.440139 1023.40909,445.320417 C1024.20996,444.200695 1024.61039,442.681073 1024.61039,440.76155 L1024.61039,440.76155 L1024.61039,384.85544 C1024.61039,380.376552 1025.57143,376.377546 1027.49351,372.85842 C1029.41558,369.339295 1032.09848,366.61997 1035.54221,364.700447 C1038.98593,362.780924 1042.95022,361.821162 1047.43506,361.821162 C1051.75974,361.821162 1055.64394,362.820914 1059.08766,364.820417 C1062.53139,366.819921 1065.25433,369.579235 1067.25649,373.098361 C1069.25866,376.617486 1070.25974,380.536513 1070.25974,384.85544 L1070.25974,384.85544 L1070.25974,435.242921 C1070.25974,439.401888 1071.02056,442.241182 1072.54221,443.760805 C1074.06385,445.280427 1076.90693,446.040238 1081.07143,446.040238 L1081.07143,446.040238 L1115.42857,446.040238 C1119.27273,446.040238 1121.91558,445.280427 1123.35714,443.760805 C1124.7987,442.241182 1125.51948,439.401888 1125.51948,435.242921 L1125.51948,435.242921 L1125.51948,373.098361 C1125.51948,368.779434 1124.7987,365.740189 1123.35714,363.980626 C1121.91558,362.221063 1119.4329,361.341282 1115.90909,361.341282 L1115.90909,361.341282 L1112.30519,361.341282 C1114.86797,359.901639 1116.83009,358.581967 1118.19156,357.382265 C1119.55303,356.182563 1120.71429,354.622951 1121.67532,352.703428 C1122.95671,350.463984 1123.99784,347.78465 1124.7987,344.665425 C1125.59957,341.5462 1126,338.706905 1126,336.147541 L1126,336.147541 L1126,296.557377 C1126,292.39841 1125.27922,289.599106 1123.83766,288.159463 C1122.3961,286.719821 1119.59307,286 1115.42857,286 L1115.42857,286 L1025.57143,286 C1021.5671,286 1018.80411,286.719821 1017.28247,288.159463 C1015.76082,289.599106 1015,292.39841 1015,296.557377 L1015,296.557377 L1015,440.76155 C1015,442.841033 1015.44048,444.400646 1016.32143,445.440387 C1017.20238,446.480129 1018.44372,447 1020.04545,447 Z M1092.76042,359 C1088.28819,359 1084.33507,358.004975 1080.90104,356.014925 C1077.46701,354.024876 1074.79167,351.238806 1072.875,347.656716 C1070.95833,344.074627 1070,339.975124 1070,335.358209 L1070,335.358209 L1070,318.880597 C1070,314.263682 1070.99826,310.164179 1072.99479,306.58209 C1074.99132,303 1077.7066,300.174129 1081.14062,298.104478 C1084.57465,296.034826 1088.44792,295 1092.76042,295 C1097.23264,295 1101.22569,295.995025 1104.73958,297.985075 C1108.25347,299.975124 1111.00868,302.761194 1113.00521,306.343284 C1115.00174,309.925373 1116,313.945274 1116,318.402985 L1116,318.402985 L1116,335.358209 C1116,339.81592 1115.00174,343.835821 1113.00521,347.41791 C1111.00868,351 1108.25347,353.825871 1104.73958,355.895522 C1101.22569,357.965174 1097.23264,359 1092.76042,359 Z M1233.72861,446 C1235.326,446 1236.60391,445.6002 1237.56235,444.8006 C1238.52078,444.001 1239,442.961519 1239,441.682159 C1239,440.402799 1238.52078,439.323338 1237.56235,438.443778 C1236.60391,437.564218 1235.326,437.124438 1233.72861,437.124438 L1233.72861,437.124438 L1224.38386,437.124438 C1217.03586,437.124438 1211.32518,436.044978 1207.25183,433.886057 C1203.17848,431.727136 1200.30318,428.168916 1198.62592,423.211394 C1196.94866,418.253873 1196.11002,411.137431 1196.11002,401.862069 C1196.11002,392.426787 1196.90872,385.190405 1198.50611,380.152924 C1200.1035,375.115442 1202.81907,371.517241 1206.65281,369.358321 C1210.48655,367.1994 1215.91769,366.11994 1222.94621,366.11994 L1222.94621,366.11994 L1233.72861,366.11994 C1235.326,366.11994 1236.60391,365.72014 1237.56235,364.92054 C1238.52078,364.12094 1239,363.081459 1239,361.802099 C1239,360.522739 1238.52078,359.443278 1237.56235,358.563718 C1236.60391,357.684158 1235.326,357.244378 1233.72861,357.244378 L1233.72861,357.244378 L1222.46699,357.244378 C1216.07742,357.244378 1210.96577,356.204898 1207.13203,354.125937 C1203.29829,352.046977 1200.50285,348.768616 1198.74572,344.290855 C1196.98859,339.813093 1196.11002,333.816092 1196.11002,326.29985 C1196.11002,318.463768 1196.98859,312.266867 1198.74572,307.709145 C1200.50285,303.151424 1203.33822,299.873063 1207.25183,297.874063 C1211.16544,295.875062 1216.55664,294.875562 1223.42543,294.875562 L1223.42543,294.875562 L1233.72861,294.875562 C1237.24287,294.875562 1239,293.356322 1239,290.317841 C1239,289.038481 1238.52078,287.999 1237.56235,287.1994 C1236.60391,286.3998 1235.326,286 1233.72861,286 L1233.72861,286 L1151.54279,286 C1147.38957,286 1144.59413,286.75962 1143.15648,288.278861 C1141.71883,289.798101 1141,292.636682 1141,296.794603 L1141,296.794603 L1141,435.205397 C1141,439.363318 1141.71883,442.201899 1143.15648,443.721139 C1144.59413,445.24038 1147.38957,446 1151.54279,446 L1151.54279,446 L1233.72861,446 Z" id="SOFTWARE"></path>
            <path d="M100.496774,212 C104.634409,212 107.419355,211.24038 108.851613,209.721139 C110.283871,208.201899 111,205.363318 111,201.205397 L111,201.205397 L111,136.437781 C111,133.55922 110.721505,131.36032 110.164516,129.841079 C109.607527,128.321839 108.573118,127.282359 107.06129,126.722639 C105.549462,126.162919 103.36129,125.883058 100.496774,125.883058 L100.496774,125.883058 L78.2967742,125.883058 C70.9763441,125.883058 65.2473118,123.644178 61.1096774,119.166417 C56.972043,114.688656 54.9032258,108.531734 54.9032258,100.695652 L54.9032258,100.695652 L54.9032258,84.3838081 C54.9032258,79.906047 55.8978495,75.868066 57.8870968,72.2698651 C59.8763441,68.6716642 62.6215054,65.8730635 66.1225806,63.874063 C69.6236559,61.8750625 73.6021505,60.8755622 78.0580645,60.8755622 C85.2193548,60.8755622 90.9086022,63.1544228 95.1258065,67.7121439 C99.3430108,72.2698651 101.451613,78.4667666 101.451613,86.3028486 L101.451613,86.3028486 L101.451613,104.533733 C101.451613,105.973013 101.889247,107.172414 102.764516,108.131934 C103.639785,109.091454 104.713978,109.571214 105.987097,109.571214 C107.419355,109.571214 108.612903,109.091454 109.567742,108.131934 C110.522581,107.172414 111,105.973013 111,104.533733 L111,104.533733 L111,62.5547226 C111,58.3968016 110.283871,55.5982009 108.851613,54.1589205 C107.419355,52.7196402 104.634409,52 100.496774,52 L100.496774,52 L10.5032258,52 C6.52473118,52 3.77956989,52.7196402 2.26774194,54.1589205 C0.755913978,55.5982009 0,58.3968016 0,62.5547226 L0,62.5547226 L0,117.487256 C0,120.365817 0.278494624,122.564718 0.835483871,124.083958 C1.39247312,125.603198 2.42688172,126.642679 3.93870968,127.202399 C5.45053763,127.762119 7.63870968,128.041979 10.5032258,128.041979 L10.5032258,128.041979 L32.9419355,128.041979 C37.3978495,128.041979 41.3763441,129.041479 44.8774194,131.04048 C48.3784946,133.03948 51.1236559,135.798101 53.1129032,139.316342 C55.1021505,142.834583 56.0967742,146.832584 56.0967742,151.310345 L56.0967742,151.310345 L56.0967742,179.136432 C56.0967742,183.934033 55.1419355,188.131934 53.2322581,191.730135 C51.3225806,195.328336 48.6172043,198.126937 45.116129,200.125937 C41.6150538,202.124938 37.5569892,203.124438 32.9419355,203.124438 C25.7806452,203.124438 20.0913978,200.925537 15.8741935,196.527736 C11.6569892,192.129935 9.5483871,186.252874 9.5483871,178.896552 L9.5483871,178.896552 L9.5483871,148.911544 C9.5483871,147.632184 9.07096774,146.552724 8.11612903,145.673163 C7.16129032,144.793603 5.96774194,144.353823 4.53548387,144.353823 C3.26236559,144.353823 2.18817204,144.793603 1.31290323,145.673163 C0.437634409,146.552724 0,147.632184 0,148.911544 L0,148.911544 L0,201.205397 C0,205.363318 0.716129032,208.201899 2.1483871,209.721139 C3.58064516,211.24038 6.3655914,212 10.5032258,212 L10.5032258,212 L100.496774,212 Z M131.790419,212 C133.227545,212 134.38523,211.562189 135.263473,210.686567 C136.141717,209.810945 136.580838,208.656716 136.580838,207.223881 L136.580838,207.223881 L136.580838,83.761194 C136.580838,79.3034826 137.459082,75.3233831 139.215569,71.8208955 C140.972056,68.318408 143.447106,65.6119403 146.640719,63.7014925 C149.834331,61.7910448 153.506986,60.8358209 157.658683,60.8358209 C161.810379,60.8358209 165.522954,61.7910448 168.796407,63.7014925 C172.06986,65.6119403 174.62475,68.318408 176.461078,71.8208955 C178.297405,75.3233831 179.215569,79.3034826 179.215569,83.761194 L179.215569,83.761194 L179.215569,200.776119 C179.215569,204.756219 179.974052,207.502488 181.491018,209.014925 C183.007984,210.527363 185.762475,211.283582 189.754491,211.283582 L189.754491,211.283582 L221.371257,211.283582 C225.522954,211.283582 228.317365,210.527363 229.754491,209.014925 C231.191617,207.502488 231.91018,204.756219 231.91018,200.776119 L231.91018,200.776119 L231.91018,83.761194 C231.91018,76.7562189 233.786427,71.1840796 237.538922,67.0447761 C241.291417,62.9054726 246.361277,60.8358209 252.748503,60.8358209 C256.9002,60.8358209 260.612774,61.7910448 263.886228,63.7014925 C267.159681,65.6119403 269.714571,68.318408 271.550898,71.8208955 C273.387226,75.3233831 274.305389,79.3034826 274.305389,83.761194 L274.305389,83.761194 L274.305389,200.776119 C274.305389,204.756219 275.063872,207.502488 276.580838,209.014925 C278.097804,210.527363 280.852295,211.283582 284.844311,211.283582 L284.844311,211.283582 L316.461078,211.283582 C320.612774,211.283582 323.407186,210.527363 324.844311,209.014925 C326.281437,207.502488 327,204.756219 327,200.776119 L327,200.776119 L327,62.7462687 C327,58.6069652 326.281437,55.7810945 324.844311,54.2686567 C323.407186,52.7562189 320.612774,52 316.461078,52 L316.461078,52 L137.538922,52 C133.387226,52 130.592814,52.7562189 129.155689,54.2686567 C127.718563,55.7810945 127,58.6069652 127,62.7462687 L127,62.7462687 L127,207.223881 C127,208.656716 127.439122,209.810945 128.317365,210.686567 C129.195609,211.562189 130.353293,212 131.790419,212 Z M386.478261,212 C390.623188,212 393.413043,211.24038 394.847826,209.721139 C396.282609,208.201899 397,205.443278 397,201.445277 L397,201.445277 L397,62.5547226 C397,58.3968016 396.282609,55.5982009 394.847826,54.1589205 C393.413043,52.7196402 390.623188,52 386.478261,52 L386.478261,52 L352.521739,52 C348.536232,52 345.786232,52.7196402 344.271739,54.1589205 C342.757246,55.5982009 342,58.3968016 342,62.5547226 L342,62.5547226 L342,201.445277 C342,205.443278 342.757246,208.201899 344.271739,209.721139 C345.786232,211.24038 348.536232,212 352.521739,212 L352.521739,212 L386.478261,212 Z M483.057654,212 C487.192843,212 489.976143,211.24038 491.407555,209.721139 C492.838966,208.201899 493.554672,205.443278 493.554672,201.445277 L493.554672,201.445277 L493.554672,88.4617691 C493.554672,79.6661669 495.622266,72.9095452 499.757455,68.191904 C503.892644,63.4742629 509.936382,61.1154423 517.888668,61.1154423 L517.888668,61.1154423 L521.228628,61.1154423 C524.409543,61.1154423 526,59.5962019 526,56.5577211 C526,55.1184408 525.602386,53.9990005 524.807157,53.1994003 C524.011928,52.3998001 522.819085,52 521.228628,52 L521.228628,52 L411.248509,52 C409.658052,52 408.385686,52.3998001 407.431412,53.1994003 C406.477137,53.9990005 406,55.1184408 406,56.5577211 C406,57.8370815 406.477137,58.9165417 407.431412,59.7961019 C408.385686,60.6756622 409.658052,61.1154423 411.248509,61.1154423 L411.248509,61.1154423 L417.451292,61.1154423 C420.15507,61.1154423 422.779324,61.6751624 425.324056,62.7946027 C427.868787,63.914043 430.095427,65.5132434 432.003976,67.5922039 C434.389662,70.1509245 436.099404,73.0294853 437.133201,76.2278861 C438.166998,79.4262869 438.683897,83.5042479 438.683897,88.4617691 L438.683897,88.4617691 L438.683897,201.445277 C438.683897,205.443278 439.439364,208.201899 440.950298,209.721139 C442.461233,211.24038 445.204771,212 449.180915,212 L449.180915,212 L483.057654,212 Z M614.057654,212 C618.192843,212 620.976143,211.24038 622.407555,209.721139 C623.838966,208.201899 624.554672,205.443278 624.554672,201.445277 L624.554672,201.445277 L624.554672,88.4617691 C624.554672,79.6661669 626.622266,72.9095452 630.757455,68.191904 C634.892644,63.4742629 640.936382,61.1154423 648.888668,61.1154423 L648.888668,61.1154423 L652.228628,61.1154423 C655.409543,61.1154423 657,59.5962019 657,56.5577211 C657,55.1184408 656.602386,53.9990005 655.807157,53.1994003 C655.011928,52.3998001 653.819085,52 652.228628,52 L652.228628,52 L542.248509,52 C540.658052,52 539.385686,52.3998001 538.431412,53.1994003 C537.477137,53.9990005 537,55.1184408 537,56.5577211 C537,57.8370815 537.477137,58.9165417 538.431412,59.7961019 C539.385686,60.6756622 540.658052,61.1154423 542.248509,61.1154423 L542.248509,61.1154423 L548.451292,61.1154423 C551.15507,61.1154423 553.779324,61.6751624 556.324056,62.7946027 C558.868787,63.914043 561.095427,65.5132434 563.003976,67.5922039 C565.389662,70.1509245 567.099404,73.0294853 568.133201,76.2278861 C569.166998,79.4262869 569.683897,83.5042479 569.683897,88.4617691 L569.683897,88.4617691 L569.683897,201.445277 C569.683897,205.443278 570.439364,208.201899 571.950298,209.721139 C573.461233,211.24038 576.204771,212 580.180915,212 L580.180915,212 L614.057654,212 Z M739.854031,211 C744.007988,211 746.803922,210.243781 748.24183,208.731343 C749.679739,207.218905 750.398693,204.472637 750.398693,200.492537 L750.398693,200.492537 L750.398693,178.044776 C750.398693,175.338308 750.598402,173.308458 750.997821,171.955224 C751.39724,170.60199 752.116195,169.686567 753.154684,169.208955 C754.193174,168.731343 755.830792,168.492537 758.067538,168.492537 L758.067538,168.492537 L766.455338,168.492537 C770.609296,168.492537 773.405229,167.736318 774.843137,166.223881 C776.281046,164.711443 777,161.965174 777,157.985075 L777,157.985075 L777,56.0149254 C777,52.6716418 775.482208,51 772.446623,51 C770.848947,51 769.610748,51.4378109 768.732026,52.3134328 C767.853304,53.1890547 767.413943,54.4228856 767.413943,56.0149254 L767.413943,56.0149254 L767.413943,130.522388 C767.413943,135.139303 767.214234,138.920398 766.814815,141.865672 C766.415396,144.810945 765.736383,147.159204 764.777778,148.910448 C763.020334,152.412935 760.344227,155.199005 756.749455,157.268657 C753.154684,159.338308 749.28032,160.373134 745.126362,160.373134 C741.771242,160.373134 738.655773,159.736318 735.779956,158.462687 C732.904139,157.189055 730.347858,155.358209 728.111111,152.970149 C725.874365,150.58209 724.31663,147.756219 723.437908,144.492537 C722.559187,141.228856 722.119826,136.572139 722.119826,130.522388 L722.119826,130.522388 L722.119826,62.2238806 C722.119826,58.0845771 721.400871,55.2985075 719.962963,53.8656716 C718.525054,52.4328358 715.729121,51.7164179 711.575163,51.7164179 L711.575163,51.7164179 L677.784314,51.7164179 C673.630356,51.7164179 670.794481,52.4328358 669.276688,53.8656716 C667.758896,55.2985075 667,58.0845771 667,62.2238806 L667,62.2238806 L667,157.985075 C667,162.124378 667.758896,164.910448 669.276688,166.343284 C670.794481,167.776119 673.630356,168.492537 677.784314,168.492537 L677.784314,168.492537 L686.172113,168.492537 C688.728395,168.492537 690.765432,169.208955 692.283224,170.641791 C693.801017,172.074627 694.559913,173.985075 694.559913,176.373134 L694.559913,176.373134 L694.559913,200.492537 C694.559913,204.472637 695.318809,207.218905 696.836601,208.731343 C698.354394,210.243781 701.110385,211 705.104575,211 L705.104575,211 L739.854031,211 Z M864.057654,212 C868.192843,212 870.976143,211.24038 872.407555,209.721139 C873.838966,208.201899 874.554672,205.443278 874.554672,201.445277 L874.554672,201.445277 L874.554672,88.4617691 C874.554672,79.6661669 876.622266,72.9095452 880.757455,68.191904 C884.892644,63.4742629 890.936382,61.1154423 898.888668,61.1154423 L898.888668,61.1154423 L902.228628,61.1154423 C905.409543,61.1154423 907,59.5962019 907,56.5577211 C907,55.1184408 906.602386,53.9990005 905.807157,53.1994003 C905.011928,52.3998001 903.819085,52 902.228628,52 L902.228628,52 L792.248509,52 C790.658052,52 789.385686,52.3998001 788.431412,53.1994003 C787.477137,53.9990005 787,55.1184408 787,56.5577211 C787,57.8370815 787.477137,58.9165417 788.431412,59.7961019 C789.385686,60.6756622 790.658052,61.1154423 792.248509,61.1154423 L792.248509,61.1154423 L798.451292,61.1154423 C801.15507,61.1154423 803.779324,61.6751624 806.324056,62.7946027 C808.868787,63.914043 811.095427,65.5132434 813.003976,67.5922039 C815.389662,70.1509245 817.099404,73.0294853 818.133201,76.2278861 C819.166998,79.4262869 819.683897,83.5042479 819.683897,88.4617691 L819.683897,88.4617691 L819.683897,201.445277 C819.683897,205.443278 820.439364,208.201899 821.950298,209.721139 C823.461233,211.24038 826.204771,212 830.180915,212 L830.180915,212 L864.057654,212 Z M1017.45534,212 C1021.6093,212 1024.40523,211.24038 1025.84314,209.721139 C1027.28105,208.201899 1028,205.363318 1028,201.205397 L1028,201.205397 L1028,62.7946027 C1028,58.6366817 1027.28105,55.7981009 1025.84314,54.2788606 C1024.40523,52.7596202 1021.6093,52 1017.45534,52 L1017.45534,52 L928.544662,52 C924.390704,52 921.594771,52.7596202 920.156863,54.2788606 C918.718954,55.7981009 918,58.6366817 918,62.7946027 L918,62.7946027 L918,201.205397 C918,205.363318 918.718954,208.201899 920.156863,209.721139 C921.594771,211.24038 924.390704,212 928.544662,212 L928.544662,212 L1017.45534,212 Z M995.857143,202 C988.873016,202 983.31746,199.844857 979.190476,195.53457 C975.063492,191.224283 973,185.477234 973,178.293423 L973,178.293423 L973,83.4671164 C973,78.9971894 973.992063,75.0061832 975.97619,71.4940978 C977.960317,67.9820124 980.65873,65.188308 984.071429,63.1129848 C987.484127,61.0376616 991.333333,60 995.619048,60 C999.746032,60 1003.51587,60.9977515 1006.92857,62.9932546 C1010.34127,64.9887577 1013.03968,67.742552 1015.02381,71.2546374 C1017.00794,74.7667229 1018,78.6779089 1018,82.9881956 L1018,82.9881956 L1018,178.293423 C1018,182.92299 1017.04762,187.033727 1015.14286,190.625632 C1013.2381,194.217538 1010.61905,197.011242 1007.28571,199.006745 C1003.95238,201.002248 1000.14286,202 995.857143,202 Z M1047.56494,212 C1049.00649,212 1050.20779,211.522388 1051.16883,210.567164 C1052.12987,209.61194 1052.61039,208.41791 1052.61039,206.985075 L1052.61039,206.985075 L1052.61039,84 C1052.61039,79.7014925 1053.61147,75.800995 1055.61364,72.2985075 C1057.6158,68.7960199 1060.37879,66.0099502 1063.9026,63.9402985 C1067.42641,61.8706468 1071.35065,60.8358209 1075.67532,60.8358209 C1080,60.8358209 1083.92424,61.8308458 1087.44805,63.8208955 C1090.97186,65.8109453 1093.73485,68.5970149 1095.73701,72.1791045 C1097.73918,75.761194 1098.74026,79.7014925 1098.74026,84 L1098.74026,84 L1098.74026,200.776119 C1098.74026,204.756219 1099.50108,207.502488 1101.02273,209.014925 C1102.54437,210.527363 1105.30736,211.283582 1109.31169,211.283582 L1109.31169,211.283582 L1143.42857,211.283582 C1147.59307,211.283582 1150.3961,210.527363 1151.83766,209.014925 C1153.27922,207.502488 1154,204.756219 1154,200.776119 L1154,200.776119 L1154,62.7462687 C1154,58.6069652 1153.27922,55.7810945 1151.83766,54.2686567 C1150.3961,52.7562189 1147.59307,52 1143.42857,52 L1143.42857,52 L1053.57143,52 C1049.40693,52 1046.6039,52.7562189 1045.16234,54.2686567 C1043.72078,55.7810945 1043,58.6069652 1043,62.7462687 L1043,62.7462687 L1043,206.507463 C1043,208.099502 1043.44048,209.412935 1044.32143,210.447761 C1045.20238,211.482587 1046.28355,212 1047.56494,212 Z M1261.72861,212 C1263.326,212 1264.60391,211.6002 1265.56235,210.8006 C1266.52078,210.001 1267,208.961519 1267,207.682159 C1267,206.402799 1266.52078,205.323338 1265.56235,204.443778 C1264.60391,203.564218 1263.326,203.124438 1261.72861,203.124438 L1261.72861,203.124438 L1252.38386,203.124438 C1245.03586,203.124438 1239.32518,202.044978 1235.25183,199.886057 C1231.17848,197.727136 1228.30318,194.168916 1226.62592,189.211394 C1224.94866,184.253873 1224.11002,177.137431 1224.11002,167.862069 C1224.11002,158.426787 1224.90872,151.190405 1226.50611,146.152924 C1228.1035,141.115442 1230.81907,137.517241 1234.65281,135.358321 C1238.48655,133.1994 1243.91769,132.11994 1250.94621,132.11994 L1250.94621,132.11994 L1261.72861,132.11994 C1263.326,132.11994 1264.60391,131.72014 1265.56235,130.92054 C1266.52078,130.12094 1267,129.081459 1267,127.802099 C1267,126.522739 1266.52078,125.443278 1265.56235,124.563718 C1264.60391,123.684158 1263.326,123.244378 1261.72861,123.244378 L1261.72861,123.244378 L1250.46699,123.244378 C1244.07742,123.244378 1238.96577,122.204898 1235.13203,120.125937 C1231.29829,118.046977 1228.50285,114.768616 1226.74572,110.290855 C1224.98859,105.813093 1224.11002,99.816092 1224.11002,92.2998501 C1224.11002,84.4637681 1224.98859,78.2668666 1226.74572,73.7091454 C1228.50285,69.1514243 1231.33822,65.8730635 1235.25183,63.874063 C1239.16544,61.8750625 1244.55664,60.8755622 1251.42543,60.8755622 L1251.42543,60.8755622 L1261.72861,60.8755622 C1265.24287,60.8755622 1267,59.3563218 1267,56.3178411 C1267,55.0384808 1266.52078,53.9990005 1265.56235,53.1994003 C1264.60391,52.3998001 1263.326,52 1261.72861,52 L1261.72861,52 L1179.54279,52 C1175.38957,52 1172.59413,52.7596202 1171.15648,54.2788606 C1169.71883,55.7981009 1169,58.6366817 1169,62.7946027 L1169,62.7946027 L1169,201.205397 C1169,205.363318 1169.71883,208.201899 1171.15648,209.721139 C1172.59413,211.24038 1175.38957,212 1179.54279,212 L1179.54279,212 L1261.72861,212 Z M1297.46296,106 C1299.2284,106 1300.59259,105.4375 1301.55556,104.3125 C1302.51852,103.1875 1303,101.580357 1303,99.4910714 L1303,99.4910714 L1303,59.7142857 C1303,56.6607143 1302.4784,54.6116071 1301.43519,53.5669643 C1300.39198,52.5223214 1298.34568,52 1295.2963,52 L1295.2963,52 L1284.7037,52 C1281.65432,52 1279.60802,52.5223214 1278.56481,53.5669643 C1277.5216,54.6116071 1277,56.6607143 1277,59.7142857 L1277,59.7142857 L1277,73.9375 C1277,76.6696429 1277.5216,78.6383929 1278.56481,79.84375 C1279.60802,81.0491071 1281.25309,81.6517857 1283.5,81.6517857 L1283.5,81.6517857 L1285.18519,81.6517857 C1287.4321,81.6517857 1289.15741,82.2142857 1290.36111,83.3392857 C1291.56481,84.4642857 1292.16667,86.0714286 1292.16667,88.1607143 L1292.16667,88.1607143 L1292.16667,99.4910714 C1292.16667,103.830357 1293.9321,106 1297.46296,106 Z M1415.49677,212 C1419.63441,212 1422.41935,211.24038 1423.85161,209.721139 C1425.28387,208.201899 1426,205.363318 1426,201.205397 L1426,201.205397 L1426,136.437781 C1426,133.55922 1425.72151,131.36032 1425.16452,129.841079 C1424.60753,128.321839 1423.57312,127.282359 1422.06129,126.722639 C1420.54946,126.162919 1418.36129,125.883058 1415.49677,125.883058 L1415.49677,125.883058 L1393.29677,125.883058 C1385.97634,125.883058 1380.24731,123.644178 1376.10968,119.166417 C1371.97204,114.688656 1369.90323,108.531734 1369.90323,100.695652 L1369.90323,100.695652 L1369.90323,84.3838081 C1369.90323,79.906047 1370.89785,75.868066 1372.8871,72.2698651 C1374.87634,68.6716642 1377.62151,65.8730635 1381.12258,63.874063 C1384.62366,61.8750625 1388.60215,60.8755622 1393.05806,60.8755622 C1400.21935,60.8755622 1405.9086,63.1544228 1410.12581,67.7121439 C1414.34301,72.2698651 1416.45161,78.4667666 1416.45161,86.3028486 L1416.45161,86.3028486 L1416.45161,104.533733 C1416.45161,105.973013 1416.88925,107.172414 1417.76452,108.131934 C1418.63978,109.091454 1419.71398,109.571214 1420.9871,109.571214 C1422.41935,109.571214 1423.6129,109.091454 1424.56774,108.131934 C1425.52258,107.172414 1426,105.973013 1426,104.533733 L1426,104.533733 L1426,62.5547226 C1426,58.3968016 1425.28387,55.5982009 1423.85161,54.1589205 C1422.41935,52.7196402 1419.63441,52 1415.49677,52 L1415.49677,52 L1325.50323,52 C1321.52473,52 1318.77957,52.7196402 1317.26774,54.1589205 C1315.75591,55.5982009 1315,58.3968016 1315,62.5547226 L1315,62.5547226 L1315,117.487256 C1315,120.365817 1315.27849,122.564718 1315.83548,124.083958 C1316.39247,125.603198 1317.42688,126.642679 1318.93871,127.202399 C1320.45054,127.762119 1322.63871,128.041979 1325.50323,128.041979 L1325.50323,128.041979 L1347.94194,128.041979 C1352.39785,128.041979 1356.37634,129.041479 1359.87742,131.04048 C1363.37849,133.03948 1366.12366,135.798101 1368.1129,139.316342 C1370.10215,142.834583 1371.09677,146.832584 1371.09677,151.310345 L1371.09677,151.310345 L1371.09677,179.136432 C1371.09677,183.934033 1370.14194,188.131934 1368.23226,191.730135 C1366.32258,195.328336 1363.6172,198.126937 1360.11613,200.125937 C1356.61505,202.124938 1352.55699,203.124438 1347.94194,203.124438 C1340.78065,203.124438 1335.0914,200.925537 1330.87419,196.527736 C1326.65699,192.129935 1324.54839,186.252874 1324.54839,178.896552 L1324.54839,178.896552 L1324.54839,148.911544 C1324.54839,147.632184 1324.07097,146.552724 1323.11613,145.673163 C1322.16129,144.793603 1320.96774,144.353823 1319.53548,144.353823 C1318.26237,144.353823 1317.18817,144.793603 1316.3129,145.673163 C1315.43763,146.552724 1315,147.632184 1315,148.911544 L1315,148.911544 L1315,201.205397 C1315,205.363318 1315.71613,208.201899 1317.14839,209.721139 C1318.58065,211.24038 1321.36559,212 1325.50323,212 L1325.50323,212 L1415.49677,212 Z" id="SMITTYTONE’S"></path>
        </g>
    </g>
</svg>