<?xml version="1.0" encoding="UTF-8"?>
<svg width="1424px" height="733px" viewBox="0 0 1424 733" version="1.1" xmlns="http://www.w3.org/2000/svg" xmlns:xlink="http://www.w3.org/1999/xlink">
    <!-- Generator: Sketch 46.2 (44496) - http://www.bohemiancoding.com/sketch -->
    <title>Slice</title>
    <desc>Created with Sketch.</desc>
    <defs></defs>
    <g id="Page-1" stroke="none" stroke-width="1" fill="none" fill-rule="evenodd">
        <g id="Dark" fill="#222222">
            <path d="M14.4460227,214 C8.88160097,214 5.08287001,213.039024 3.04971591,211.117043 C1.0165618,209.195062 -9.12401468e-14,205.457933 0,199.905544 L0,154.73922 C-9.12401468e-14,152.603685 0.588535781,150.841896 1.765625,149.453799 C2.94271422,148.065701 4.38730205,147.371663 6.09943182,147.371663 C9.95172381,147.371663 11.8778409,149.827491 11.8778409,154.73922 L11.8778409,178.76386 C11.8778409,186.878891 13.8574613,193.125235 17.8167614,197.50308 C21.7760615,201.880925 27.393903,204.069815 34.6704545,204.069815 C41.5189736,204.069815 46.8157957,201.880925 50.5610795,197.50308 C54.3063634,193.125235 56.1789773,186.878891 56.1789773,178.76386 L56.1789773,162.106776 C56.1789773,154.632406 55.3764285,148.653 53.7713068,144.168378 C52.1661852,139.683756 49.5445258,136.480502 45.90625,134.558522 C42.2679742,132.636541 37.4526815,131.675565 31.4602273,131.675565 L14.4460227,131.675565 C8.88160097,131.675565 5.08287001,130.661201 3.04971591,128.632444 C1.0165618,126.603686 -9.12401468e-14,122.813169 0,117.26078 L0,72.0944559 C-9.12401468e-14,66.5420667 1.0165618,62.8049377 3.04971591,60.8829569 C5.08287001,58.960976 8.88160097,58 14.4460227,58 L98.5539773,58 C104.118399,58 107.91713,58.960976 109.950284,60.8829569 C111.983438,62.8049377 113,66.5420667 113,72.0944559 L113,106.689938 C113,108.825473 112.411464,110.480487 111.234375,111.655031 C110.057286,112.829575 108.612698,113.416838 106.900568,113.416838 C105.188438,113.416838 103.797354,112.829575 102.727273,111.655031 C101.657192,110.480487 101.122159,108.825473 101.122159,106.689938 L101.122159,94.1971253 C101.122159,85.8685415 99.1425387,79.4086472 95.1832386,74.8172485 C91.2239385,70.2258497 85.82011,67.9301848 78.9715909,67.9301848 C71.6950394,67.9301848 66.1842043,70.3860124 62.4389205,75.2977413 C58.6936366,80.2094701 56.8210227,87.5769529 56.8210227,97.4004107 C56.8210227,108.505189 58.8541463,116.459935 62.9204545,121.264887 C66.9867628,126.069839 73.6211661,128.472279 82.8238636,128.472279 L98.5539773,128.472279 C104.118399,128.472279 107.91713,129.433255 109.950284,131.355236 C111.983438,133.277217 113,137.014346 113,142.566735 L113,199.905544 C113,203.749506 112.571974,206.632434 111.715909,208.554415 C110.859844,210.476396 109.415256,211.864472 107.382102,212.718686 C105.348948,213.5729 102.406269,214 98.5539773,214 L14.4460227,214 Z M142.789809,215 C141.074301,215 139.680472,214.412591 138.60828,213.237755 C137.536088,212.062919 137,210.407494 137,208.271429 L137,72.0979592 C137,66.5441899 138.018567,62.8061321 140.055732,60.8836735 C142.092898,58.9612149 145.899123,58 151.474522,58 L324.525478,58 C330.100877,58 333.907102,59.0146157 335.944268,61.0438776 C337.981433,63.0731394 339,66.7577964 339,72.0979592 L339,199.620408 C339,205.174177 337.981433,208.965636 335.944268,210.994898 C333.907102,213.02416 330.100877,214.038776 324.525478,214.038776 L298.471338,214.038776 C292.895938,214.038776 289.143322,213.02416 287.213376,210.994898 C285.28343,208.965636 284.318471,205.174177 284.318471,199.620408 L284.318471,92.9244898 C284.318471,85.0210489 282.495772,78.8799539 278.850318,74.5010204 C275.204865,70.1220869 270.272855,67.9326531 264.05414,67.9326531 C257.620987,67.9326531 252.581759,70.1220869 248.936306,74.5010204 C245.290852,78.8799539 243.468153,85.0210489 243.468153,92.9244898 L243.468153,199.620408 C243.468153,203.465325 243.039282,206.402371 242.181529,208.431633 C241.323775,210.460894 239.929946,211.902717 238,212.757143 C236.070054,213.611569 233.175179,214.038776 229.315287,214.038776 L202.93949,214.038776 C197.364091,214.038776 193.611475,213.02416 191.681529,210.994898 C189.751583,208.965636 188.786624,205.174177 188.786624,199.620408 L188.786624,92.9244898 C188.786624,84.8074424 187.071142,78.6129465 183.640127,74.3408163 C180.209112,70.0686861 175.169885,67.9326531 168.522293,67.9326531 C155.441548,67.9326531 148.901274,76.3699837 148.901274,93.244898 L148.901274,208.271429 C148.901274,210.193887 148.311577,211.795912 147.132166,213.077551 C145.952754,214.35919 144.505316,215 142.789809,215 Z M378.491525,44 C372.909577,44 369.09888,42.9829785 367.059322,40.9489051 C365.019764,38.9148317 364,35.1143831 364,29.5474453 L364,14.1313869 C364,8.56444905 365.019764,4.81752788 367.059322,2.89051095 C369.09888,0.963494015 372.909577,0 378.491525,0 L406.508475,0 C410.372901,0 413.324849,0.428219562 415.364407,1.28467153 C417.403965,2.1411235 418.853103,3.53283708 419.711864,5.45985401 C420.570626,7.38687095 421,10.277353 421,14.1313869 L421,29.5474453 C421,35.1143831 419.980236,38.9148317 417.940678,40.9489051 C415.90112,42.9829785 412.090423,44 406.508475,44 L378.491525,44 Z M378.491525,214 C372.909577,214 369.09888,213.039024 367.059322,211.117043 C365.019764,209.195062 364,205.457933 364,199.905544 L364,72.0944559 C364,66.5420667 365.019764,62.8049377 367.059322,60.8829569 C369.09888,58.960976 372.909577,58 378.491525,58 L406.508475,58 C410.372901,58 413.324849,58.4271005 415.364407,59.2813142 C417.403965,60.1355279 418.853103,61.5236044 419.711864,63.4455852 C420.570626,65.3675661 421,68.2504941 421,72.0944559 L421,199.905544 C421,205.457933 419.980236,209.195062 417.940678,211.117043 C415.90112,213.039024 412.090423,214 406.508475,214 L378.491525,214 Z M464.267206,214 C458.936546,214 455.258445,212.984666 453.232794,210.953968 C451.207142,208.92327 450.194332,205.236006 450.194332,199.892063 L450.194332,72.2793651 L446.995951,72.2793651 C444.650461,72.2793651 442.731451,71.6381017 441.238866,70.3555556 C439.746281,69.0730095 439,67.3629737 439,65.2253968 C439,60.3089701 442.624795,57.8507937 449.874494,57.8507937 L462.02834,57.8507937 C473.755794,57.8507937 482.178112,55.6063717 487.295547,51.1174603 C492.412981,46.628549 494.97166,39.1471423 494.97166,28.6730159 L494.97166,19.3746032 C494.97166,17.2370263 495.558024,15.4735519 496.730769,14.084127 C497.903515,12.694702 499.342771,12 501.048583,12 C502.754394,12 504.08704,12.6412634 505.046559,13.9238095 C506.006078,15.2063556 506.48583,17.0232687 506.48583,19.3746032 L506.48583,57.8507937 L510.643725,57.8507937 C512.989216,57.8507937 514.801613,58.4920571 516.080972,59.7746032 C517.36033,61.0571493 518,62.8740623 518,65.2253968 C518,67.3629737 517.36033,69.0730095 516.080972,70.3555556 C514.801613,71.6381017 513.095827,72.2793651 510.963563,72.2793651 L506.48583,72.2793651 L506.48583,199.892063 C506.48583,205.449763 505.526325,209.190467 503.607287,211.114286 C501.68825,213.038105 497.956843,214 492.412955,214 L464.267206,214 Z M554.267206,214 C548.936546,214 545.258445,212.984666 543.232794,210.953968 C541.207142,208.92327 540.194332,205.236006 540.194332,199.892063 L540.194332,72.2793651 L536.995951,72.2793651 C534.650461,72.2793651 532.731451,71.6381017 531.238866,70.3555556 C529.746281,69.0730095 529,67.3629737 529,65.2253968 C529,60.3089701 532.624795,57.8507937 539.874494,57.8507937 L552.02834,57.8507937 C563.755794,57.8507937 572.178112,55.6063717 577.295547,51.1174603 C582.412981,46.628549 584.97166,39.1471423 584.97166,28.6730159 L584.97166,19.3746032 C584.97166,17.2370263 585.558024,15.4735519 586.730769,14.084127 C587.903515,12.694702 589.342771,12 591.048583,12 C592.754394,12 594.08704,12.6412634 595.046559,13.9238095 C596.006078,15.2063556 596.48583,17.0232687 596.48583,19.3746032 L596.48583,57.8507937 L600.643725,57.8507937 C602.989216,57.8507937 604.801613,58.4920571 606.080972,59.7746032 C607.36033,61.0571493 608,62.8740623 608,65.2253968 C608,67.3629737 607.36033,69.0730095 606.080972,70.3555556 C604.801613,71.6381017 603.095827,72.2793651 600.963563,72.2793651 L596.48583,72.2793651 L596.48583,199.892063 C596.48583,205.449763 595.526325,209.190467 593.607287,211.114286 C591.68825,213.038105 587.956843,214 582.412955,214 L554.267206,214 Z M695.745042,273 C690.409794,273 686.728528,272.037157 684.701133,270.111441 C682.673739,268.185726 681.660057,264.441335 681.660057,258.878158 L681.660057,229.029718 C681.660057,223.46654 680.48632,219.615167 678.13881,217.475483 C675.791301,215.335799 671.523166,214.265973 665.334278,214.265973 L639.405099,214.265973 C633.856441,214.265973 630.068471,213.249639 628.041076,211.216939 C626.013682,209.184239 625,205.386358 625,199.82318 L625,72.0846954 C625,66.5215175 626.013682,62.777127 628.041076,60.8514116 C630.068471,58.9256962 633.856441,57.9628529 639.405099,57.9628529 L667.575071,57.9628529 C673.123729,57.9628529 676.858347,58.9256962 678.779037,60.8514116 C680.699726,62.777127 681.660057,66.5215175 681.660057,72.0846954 L681.660057,176.393759 C681.660057,182.170906 682.08687,186.610683 682.94051,189.713224 C683.79415,192.815766 685.3947,195.436839 687.74221,197.576523 C689.876309,199.716207 692.383838,201.320946 695.264873,202.390788 C698.145907,203.460629 701.080249,203.995542 704.067989,203.995542 C711.110517,203.995542 716.552389,201.641925 720.393768,196.934621 C724.235147,192.227317 726.155807,185.380431 726.155807,176.393759 L726.155807,64.3818722 C726.155807,62.2421884 726.742676,60.4769758 727.916431,59.0861813 C729.090185,57.6953868 730.530681,57 732.23796,57 C733.94524,57 735.332384,57.6418955 736.399433,58.9257058 C737.466483,60.2095161 738,62.02822 738,64.3818722 L738,258.878158 C738,264.441335 736.986318,268.185726 734.958924,270.111441 C732.931529,272.037157 729.143559,273 723.594901,273 L695.745042,273 Z M782.267206,214 C776.936546,214 773.258445,212.984666 771.232794,210.953968 C769.207142,208.92327 768.194332,205.236006 768.194332,199.892063 L768.194332,72.2793651 L764.995951,72.2793651 C762.650461,72.2793651 760.731451,71.6381017 759.238866,70.3555556 C757.746281,69.0730095 757,67.3629737 757,65.2253968 C757,60.3089701 760.624795,57.8507937 767.874494,57.8507937 L780.02834,57.8507937 C791.755794,57.8507937 800.178112,55.6063717 805.295547,51.1174603 C810.412981,46.628549 812.97166,39.1471423 812.97166,28.6730159 L812.97166,19.3746032 C812.97166,17.2370263 813.558024,15.4735519 814.730769,14.084127 C815.903515,12.694702 817.342771,12 819.048583,12 C820.754394,12 822.08704,12.6412634 823.046559,13.9238095 C824.006078,15.2063556 824.48583,17.0232687 824.48583,19.3746032 L824.48583,57.8507937 L828.643725,57.8507937 C830.989216,57.8507937 832.801613,58.4920571 834.080972,59.7746032 C835.36033,61.0571493 836,62.8740623 836,65.2253968 C836,67.3629737 835.36033,69.0730095 834.080972,70.3555556 C832.801613,71.6381017 831.095827,72.2793651 828.963563,72.2793651 L824.48583,72.2793651 L824.48583,199.892063 C824.48583,205.449763 823.526325,209.190467 821.607287,211.114286 C819.68825,213.038105 815.956843,214 810.412955,214 L782.267206,214 Z M871.441261,214 C865.878673,214 862.081194,213.039024 860.048711,211.117043 C858.016227,209.195062 857,205.457933 857,199.905544 L857,72.0944559 C857,66.5420667 858.016227,62.8049377 860.048711,60.8829569 C862.081194,58.960976 865.878673,58 871.441261,58 L954.558739,58 C958.409761,58 961.35147,58.4271005 963.383954,59.2813142 C965.416438,60.1355279 966.86055,61.5236044 967.716332,63.4455852 C968.572115,65.3675661 969,68.2504941 969,72.0944559 L969,199.905544 C969,203.749506 968.572115,206.632434 967.716332,208.554415 C966.86055,210.476396 965.416438,211.864472 963.383954,212.718686 C961.35147,213.5729 958.409761,214 954.558739,214 L871.441261,214 Z M935.022222,204 C941.604971,204 946.91356,201.866688 950.948148,197.6 C954.982736,193.333312 957,187.786701 957,180.96 L957,90.72 C957,84.319968 954.92965,78.9333552 950.788889,74.56 C946.648127,70.1866448 941.498796,68 935.340741,68 C928.970339,68 923.821007,70.133312 919.892593,74.4 C915.964178,78.666688 914,84.3199648 914,91.36 L914,180.64 C914,187.680035 915.911092,193.333312 919.733333,197.6 C923.555575,201.866688 928.65182,204 935.022222,204 Z M999.811429,215 C997.874276,215 996.421433,214.465992 995.452857,213.397959 C994.484281,212.329927 994,210.6211 994,208.271429 L994,72.0979592 C994,66.5441899 995.022371,62.8061321 997.067143,60.8836735 C999.111915,58.9612149 1002.93235,58 1008.52857,58 L1092.47143,58 C1096.34573,58 1099.30523,58.3738058 1101.35,59.1214286 C1103.39477,59.8690514 1104.84761,61.2574728 1105.70857,63.2867347 C1106.56953,65.3159965 1107,68.253042 1107,72.0979592 L1107,199.620408 C1107,205.174177 1105.97763,208.965636 1103.93286,210.994898 C1101.88809,213.02416 1098.06765,214.038776 1092.47143,214.038776 L1064.38286,214.038776 C1058.78664,214.038776 1054.9662,213.02416 1052.92143,210.994898 C1050.87666,208.965636 1049.85429,205.174177 1049.85429,199.620408 L1049.85429,94.2061224 C1049.85429,86.0890751 1047.86335,79.6809759 1043.88143,74.9816327 C1039.8995,70.2822894 1034.4648,67.9326531 1027.57714,67.9326531 C1024.13332,67.9326531 1020.85097,68.6802646 1017.73,70.1755102 C1014.60903,71.6707558 1011.97239,73.6999872 1009.82,76.2632653 C1008.31333,78.3993304 1007.29096,80.8023676 1006.75286,83.472449 C1006.21476,86.1425304 1005.94571,89.8271874 1005.94571,94.5265306 L1005.94571,208.271429 C1005.94571,212.757165 1003.90097,215 999.811429,215 Z M1146.12034,214 C1140.7717,214 1137.08119,212.985636 1135.04871,210.956879 C1133.01623,208.928121 1132,205.24438 1132,199.905544 L1132,72.0944559 C1132,66.5420667 1133.01623,62.8049377 1135.04871,60.8829569 C1137.08119,58.960976 1140.7717,58 1146.12034,58 L1229.55874,58 C1233.40976,58 1236.35147,58.4271005 1238.38395,59.2813142 C1240.41644,60.1355279 1241.86055,61.5236044 1242.71633,63.4455852 C1243.57212,65.3675661 1244,68.2504941 1244,72.0944559 L1244,129.753593 C1244,135.305983 1242.98377,139.096499 1240.95129,141.125257 C1238.91881,143.154014 1235.12133,144.168378 1229.55874,144.168378 L1166.01719,144.168378 C1158.1012,144.168378 1152.43173,146.250493 1149.0086,150.414784 C1145.58547,154.579076 1143.87393,161.359296 1143.87393,170.755647 C1143.87393,176.735143 1144.14135,181.433248 1144.67622,184.850103 C1145.21108,188.266958 1146.12034,191.149886 1147.40401,193.498973 C1149.11558,196.702275 1151.68289,199.264877 1155.10602,201.186858 C1158.52915,203.108839 1162.27314,204.069815 1166.33811,204.069815 C1172.54253,204.069815 1177.57018,201.934313 1181.4212,197.663244 C1185.27223,193.392176 1187.19771,187.83987 1187.19771,181.00616 L1187.19771,170.11499 C1187.19771,166.057475 1187.30468,163.388097 1187.51862,162.106776 C1187.73257,160.825456 1188.3744,159.650929 1189.44413,158.583162 C1191.79753,156.234074 1195.43455,155.059548 1200.3553,155.059548 L1229.55874,155.059548 C1233.40976,155.059548 1236.35147,155.486649 1238.38395,156.340862 C1240.41644,157.195076 1241.86055,158.583153 1242.71633,160.505133 C1243.57212,162.427114 1244,165.310042 1244,169.154004 L1244,199.905544 C1244,205.457933 1242.98377,209.195062 1240.95129,211.117043 C1238.91881,213.039024 1235.12133,214 1229.55874,214 L1146.12034,214 Z M1165.32353,134 C1172.00984,134 1177.2941,131.757304 1181.17647,127.271845 C1185.05884,122.786385 1187,116.805863 1187,109.330097 L1187,93.3106796 C1187,85.8349141 1185.00492,79.7475963 1181.01471,75.0485437 C1177.02449,70.3494911 1171.79415,68 1165.32353,68 C1158.63722,68 1153.24512,70.2960935 1149.14706,74.8883495 C1145.049,79.4806055 1143,85.6213208 1143,93.3106796 L1143,106.446602 C1143,114.990334 1144.99508,121.718422 1148.98529,126.631068 C1152.97551,131.543714 1158.42153,134 1165.32353,134 Z M1285.5463,90 C1280.79319,90 1278.41667,87.1071718 1278.41667,81.3214286 L1278.41667,66.2142857 C1278.41667,63.4285575 1277.60649,61.2857218 1275.98611,59.7857143 C1274.36573,58.2857068 1272.04322,57.5357143 1269.01852,57.5357143 L1266.75,57.5357143 C1263.72529,57.5357143 1261.51081,56.7321509 1260.10648,55.125 C1258.70215,53.5178491 1258,50.8928754 1258,47.25 L1258,28.2857143 C1258,24.2142654 1258.70215,21.4821498 1260.10648,20.0892857 C1261.51081,18.6964216 1264.26541,18 1268.37037,18 L1282.62963,18 C1286.73459,18 1289.48919,18.6964216 1290.89352,20.0892857 C1292.29785,21.4821498 1293,24.2142654 1293,28.2857143 L1293,81.3214286 C1293,84.1071568 1292.35186,86.2499925 1291.05556,87.75 C1289.75925,89.2500075 1287.92285,90 1285.5463,90 Z M1325.44602,214 C1319.8816,214 1316.08287,213.039024 1314.04972,211.117043 C1312.01656,209.195062 1311,205.457933 1311,199.905544 L1311,154.73922 C1311,152.603685 1311.58854,150.841896 1312.76563,149.453799 C1313.94271,148.065701 1315.3873,147.371663 1317.09943,147.371663 C1320.95172,147.371663 1322.87784,149.827491 1322.87784,154.73922 L1322.87784,178.76386 C1322.87784,186.878891 1324.85746,193.125235 1328.81676,197.50308 C1332.77606,201.880925 1338.3939,204.069815 1345.67045,204.069815 C1352.51897,204.069815 1357.8158,201.880925 1361.56108,197.50308 C1365.30636,193.125235 1367.17898,186.878891 1367.17898,178.76386 L1367.17898,162.106776 C1367.17898,154.632406 1366.37643,148.653 1364.77131,144.168378 C1363.16619,139.683756 1360.54453,136.480502 1356.90625,134.558522 C1353.26797,132.636541 1348.45268,131.675565 1342.46023,131.675565 L1325.44602,131.675565 C1319.8816,131.675565 1316.08287,130.661201 1314.04972,128.632444 C1312.01656,126.603686 1311,122.813169 1311,117.26078 L1311,72.0944559 C1311,66.5420667 1312.01656,62.8049377 1314.04972,60.8829569 C1316.08287,58.960976 1319.8816,58 1325.44602,58 L1409.55398,58 C1415.1184,58 1418.91713,58.960976 1420.95028,60.8829569 C1422.98344,62.8049377 1424,66.5420667 1424,72.0944559 L1424,106.689938 C1424,108.825473 1423.41146,110.480487 1422.23438,111.655031 C1421.05729,112.829575 1419.6127,113.416838 1417.90057,113.416838 C1416.18844,113.416838 1414.79735,112.829575 1413.72727,111.655031 C1412.65719,110.480487 1412.12216,108.825473 1412.12216,106.689938 L1412.12216,94.1971253 C1412.12216,85.8685415 1410.14254,79.4086472 1406.18324,74.8172485 C1402.22394,70.2258497 1396.82011,67.9301848 1389.97159,67.9301848 C1382.69504,67.9301848 1377.1842,70.3860124 1373.43892,75.2977413 C1369.69364,80.2094701 1367.82102,87.5769529 1367.82102,97.4004107 C1367.82102,108.505189 1369.85415,116.459935 1373.92045,121.264887 C1377.98676,126.069839 1384.62117,128.472279 1393.82386,128.472279 L1409.55398,128.472279 C1415.1184,128.472279 1418.91713,129.433255 1420.95028,131.355236 C1422.98344,133.277217 1424,137.014346 1424,142.566735 L1424,199.905544 C1424,203.749506 1423.57197,206.632434 1422.71591,208.554415 C1421.85984,210.476396 1420.41526,211.864472 1418.3821,212.718686 C1416.34895,213.5729 1413.40627,214 1409.55398,214 L1325.44602,214 Z" id="smittytone’s"></path>
            <path d="M194.967752,470.855344 C189.202367,470.855344 185.266442,469.857504 183.159859,467.861794 C181.053276,465.866083 180,461.985594 180,456.220209 L180,409.321253 C180,407.103797 180.609791,405.274424 181.829392,403.833077 C183.048993,402.391731 184.545753,401.671069 186.319717,401.671069 C190.311138,401.671069 192.306818,404.221105 192.306818,409.321253 L192.306818,434.267506 C192.306818,442.693838 194.357934,449.179799 198.460227,453.725584 C202.562521,458.271368 208.383255,460.544226 215.922604,460.544226 C223.018463,460.544226 228.506584,458.271368 232.387131,453.725584 C236.267679,449.179799 238.207924,442.693838 238.207924,434.267506 L238.207924,416.971437 C238.207924,409.210342 237.37639,403.001559 235.713299,398.344902 C234.050207,393.688245 231.333864,390.362111 227.564189,388.3664 C223.794514,386.37069 218.805314,385.37285 212.596437,385.37285 L194.967752,385.37285 C189.202367,385.37285 185.266442,384.319574 183.159859,382.212991 C181.053276,380.106408 180,376.170483 180,370.405098 L180,323.506143 C180,317.740757 181.053276,313.860268 183.159859,311.864558 C185.266442,309.868848 189.202367,308.871007 194.967752,308.871007 L282.113329,308.871007 C287.878714,308.871007 291.814639,309.868848 293.921222,311.864558 C296.027805,313.860268 297.081081,317.740757 297.081081,323.506143 L297.081081,359.428747 C297.081081,361.646203 296.47129,363.364705 295.251689,364.584306 C294.032088,365.803907 292.535328,366.413698 290.761364,366.413698 C288.987399,366.413698 287.546074,365.803907 286.437346,364.584306 C285.328619,363.364705 284.774263,361.646203 284.774263,359.428747 L284.774263,346.456695 C284.774263,337.808618 282.723147,331.100915 278.620854,326.333385 C274.518561,321.565855 268.919569,319.182125 261.82371,319.182125 C254.28436,319.182125 248.574497,321.732161 244.69395,326.83231 C240.813402,331.932458 238.873157,339.582566 238.873157,349.782862 C238.873157,361.313633 240.979709,369.573532 245.192875,374.562807 C249.406041,379.552083 256.280051,382.046683 265.815111,382.046683 L282.113329,382.046683 C287.878714,382.046683 291.814639,383.044523 293.921222,385.040233 C296.027805,387.035944 297.081081,390.916433 297.081081,396.681818 L297.081081,456.220209 C297.081081,460.211629 296.637597,463.20515 295.750614,465.20086 C294.863632,467.19657 293.366872,468.637895 291.260289,469.524877 C289.153706,470.411859 286.10475,470.855344 282.113329,470.855344 L194.967752,470.855344 Z M336.995086,470.855344 C331.229701,470.855344 327.293776,469.857504 325.187193,467.861794 C323.08061,465.866083 322.027334,461.985594 322.027334,456.220209 L322.027334,323.506143 C322.027334,317.740757 323.08061,313.860268 325.187193,311.864558 C327.293776,309.868848 331.229701,308.871007 336.995086,308.871007 L423.142813,308.871007 C427.134234,308.871007 430.18319,309.314492 432.289773,310.201474 C434.396356,311.088457 435.893116,312.529781 436.780098,314.525491 C437.667081,316.521202 438.110565,319.514722 438.110565,323.506143 L438.110565,456.220209 C438.110565,460.211629 437.667081,463.20515 436.780098,465.20086 C435.893116,467.19657 434.396356,468.637895 432.289773,469.524877 C430.18319,470.411859 427.134234,470.855344 423.142813,470.855344 L336.995086,470.855344 Z M402.853194,460.544226 C409.727307,460.544226 415.270863,458.326804 419.484029,453.891892 C423.697196,449.45698 425.803747,443.691682 425.803747,436.595823 L425.803747,342.797912 C425.803747,336.145544 423.64176,330.546552 419.317721,326.000768 C414.993682,321.454983 409.616433,319.182125 403.185811,319.182125 C396.533443,319.182125 391.156194,321.399548 387.0539,325.834459 C382.951607,330.269371 380.900491,336.145541 380.900491,343.463145 L380.900491,436.263206 C380.900491,443.580811 382.896172,449.45698 386.887592,453.891892 C390.879013,458.326804 396.200827,460.544226 402.853194,460.544226 Z M481.01812,470.855344 C475.252735,470.855344 471.31681,469.802068 469.210227,467.695485 C467.103644,465.588902 466.050369,461.652977 466.050369,455.887592 L466.050369,323.173526 L463.722052,323.173526 C461.28285,323.173526 459.231734,322.508299 457.568643,321.177826 C455.905551,319.847352 455.074017,318.184285 455.074017,316.188575 C455.074017,314.192865 455.905551,312.474362 457.568643,311.033016 C459.231734,309.59167 461.28285,308.871007 463.722052,308.871007 L466.050369,308.871007 L466.050369,263.967752 C466.050369,258.202367 467.103644,254.266442 469.210227,252.159859 C471.31681,250.053276 475.252735,249 481.01812,249 L531.243243,249 C536.343392,249 538.893428,250.99568 538.893428,254.987101 C538.893428,256.982811 538.172765,258.535007 536.731419,259.643735 C535.290073,260.752463 533.238957,261.306818 530.57801,261.306818 L502.970823,261.306818 C485.896413,261.306818 477.359337,269.178668 477.359337,284.922604 C477.359337,292.6837 479.521324,298.615305 483.845362,302.717598 C488.169401,306.819892 494.322749,308.871007 502.30559,308.871007 L527.917076,308.871007 C531.908497,308.871007 534.846581,309.425363 536.731419,310.534091 C538.616256,311.642819 539.558661,313.416757 539.558661,315.855958 C539.558661,318.073414 538.727127,319.847352 537.064036,321.177826 C535.400944,322.508299 533.017215,323.173526 529.912776,323.173526 L524.923526,323.173526 L524.923526,455.887592 C524.923526,459.879013 524.480041,462.927969 523.593059,465.034552 C522.706077,467.141135 521.264752,468.637895 519.269042,469.524877 C517.273332,470.411859 514.279811,470.855344 510.288391,470.855344 L481.01812,470.855344 Z M583.13145,470.855344 C577.58781,470.855344 573.762756,469.802068 571.656173,467.695485 C569.54959,465.588902 568.496314,461.763848 568.496314,456.220209 L568.496314,323.838759 L565.170147,323.838759 C562.730946,323.838759 560.735266,323.173532 559.183047,321.843059 C557.630828,320.512585 556.85473,318.738647 556.85473,316.521192 C556.85473,311.421043 560.624348,308.871007 568.163698,308.871007 L580.803133,308.871007 C592.99914,308.871007 601.757959,306.542714 607.079853,301.886057 C612.401747,297.229399 615.062654,289.46842 615.062654,278.602887 L615.062654,268.957002 C615.062654,266.739547 615.672445,264.910173 616.892045,263.468827 C618.111646,262.027481 619.608406,261.306818 621.382371,261.306818 C623.156336,261.306818 624.542225,261.972045 625.54008,263.302518 C626.537935,264.632992 627.036855,266.517801 627.036855,268.957002 L627.036855,308.871007 L631.360872,308.871007 C633.800074,308.871007 635.684883,309.536234 637.015356,310.866708 C638.34583,312.197181 639.011057,314.08199 639.011057,316.521192 C639.011057,318.738647 638.34583,320.512585 637.015356,321.843059 C635.684883,323.173532 633.910945,323.838759 631.693489,323.838759 L627.036855,323.838759 L627.036855,456.220209 C627.036855,461.985594 626.039015,465.866083 624.043305,467.861794 C622.047594,469.857504 618.167105,470.855344 612.40172,470.855344 L583.13145,470.855344 Z M671.607494,470.855344 C666.063854,470.855344 662.183365,469.802068 659.965909,467.695485 C657.748453,465.588902 656.639742,461.763848 656.639742,456.220209 L656.639742,323.506143 C656.639742,317.962503 657.748453,314.137449 659.965909,312.030866 C662.183365,309.924283 666.063854,308.871007 671.607494,308.871007 L698.549447,308.871007 C704.314832,308.871007 708.195322,309.868848 710.191032,311.864558 C712.186742,313.860268 713.184582,317.740757 713.184582,323.506143 L713.184582,434.600123 C713.184582,442.804709 715.013956,449.179799 718.672758,453.725584 C722.33156,458.271368 727.597939,460.544226 734.472052,460.544226 C741.346165,460.544226 746.557108,458.326804 750.105037,453.891892 C753.652966,449.45698 755.426904,443.026455 755.426904,434.600123 L755.426904,323.506143 C755.426904,317.740757 756.48018,313.860268 758.586763,311.864558 C760.693346,309.868848 764.5184,308.871007 770.062039,308.871007 L797.336609,308.871007 C803.101994,308.871007 806.982484,309.868848 808.978194,311.864558 C810.973904,313.860268 811.971744,317.740757 811.971744,323.506143 L811.971744,434.600123 C811.971744,443.026455 813.690247,449.45698 817.127303,453.891892 C820.56436,458.326804 825.719867,460.544226 832.59398,460.544226 C839.468093,460.544226 844.623601,458.382239 848.060657,454.0582 C851.497714,449.734161 853.216216,443.2482 853.216216,434.600123 L853.216216,314.858108 C853.216216,312.862398 853.826007,311.199331 855.045608,309.868857 C856.265209,308.538384 857.761969,307.873157 859.535934,307.873157 C861.309898,307.873157 862.751223,308.482948 863.859951,309.702549 C864.968679,310.92215 865.523034,312.640652 865.523034,314.858108 L865.523034,456.220209 C865.523034,460.211629 865.07955,463.20515 864.192568,465.20086 C863.305585,467.19657 861.808825,468.637895 859.702242,469.524877 C857.595659,470.411859 854.546703,470.855344 850.555283,470.855344 L671.607494,470.855344 Z M905.437039,470.855344 C899.671654,470.855344 895.735729,469.857504 893.629146,467.861794 C891.522563,465.866083 890.469287,461.985594 890.469287,456.220209 L890.469287,392.357801 C890.469287,386.592416 891.522563,382.711926 893.629146,380.716216 C895.735729,378.720506 899.671654,377.722666 905.437039,377.722666 L972.958231,377.722666 C980.05409,377.722666 985.486775,375.17263 989.25645,370.072482 C993.026124,364.972333 994.910934,357.654839 994.910934,348.119779 C994.910934,339.02821 992.859818,331.932458 988.757525,326.83231 C984.655231,321.732161 978.945368,319.182125 971.627764,319.182125 C964.753651,319.182125 959.320966,321.344112 955.329545,325.668151 C951.338125,329.99219 949.342445,335.702053 949.342445,342.797912 L949.342445,351.445946 C949.342445,357.211331 948.289169,361.09182 946.182586,363.087531 C944.076003,365.083241 940.140078,366.081081 934.374693,366.081081 L905.437039,366.081081 C899.671654,366.081081 895.735729,365.083241 893.629146,363.087531 C891.522563,361.09182 890.469287,357.211331 890.469287,351.445946 L890.469287,323.506143 C890.469287,317.740757 891.522563,313.860268 893.629146,311.864558 C895.735729,309.868848 899.671654,308.871007 905.437039,308.871007 L992.915233,308.871007 C998.680619,308.871007 1002.56111,309.868848 1004.55682,311.864558 C1006.55253,313.860268 1007.55037,317.740757 1007.55037,323.506143 L1007.55037,456.220209 C1007.55037,461.763848 1006.55253,465.588902 1004.55682,467.695485 C1002.56111,469.802068 998.680619,470.855344 992.915233,470.855344 L905.437039,470.855344 Z M925.726658,460.544226 C932.822517,460.544226 938.421509,458.271368 942.523802,453.725584 C946.626095,449.179799 948.677211,443.026452 948.677211,435.265356 L948.677211,412.314803 C948.677211,405.218945 946.626095,399.453646 942.523802,395.018735 C938.421509,390.583823 932.933388,388.3664 926.059275,388.3664 C918.741671,388.3664 913.031808,390.528387 908.929515,394.852426 C904.827222,399.176465 902.776106,405.218942 902.776106,412.980037 L902.776106,434.600123 C902.776106,443.026455 904.71635,449.45698 908.596898,453.891892 C912.477446,458.326804 918.187309,460.544226 925.726658,460.544226 Z M1048.79484,470.855344 C1043.02946,470.855344 1039.09353,469.857504 1036.98695,467.861794 C1034.88036,465.866083 1033.82709,461.985594 1033.82709,456.220209 L1033.82709,323.506143 C1033.82709,317.740757 1034.88036,313.860268 1036.98695,311.864558 C1039.09353,309.868848 1043.02946,308.871007 1048.79484,308.871007 L1072.07801,308.871007 C1075.18245,308.871007 1077.73248,309.536234 1079.72819,310.866708 C1081.7239,312.197181 1083.2761,314.414604 1084.38483,317.519042 C1084.60657,314.192858 1085.60441,311.92 1087.37838,310.700399 C1089.15234,309.480799 1092.47848,308.871007 1097.35688,308.871007 L1118.97697,308.871007 C1121.19442,308.871007 1122.91292,309.425363 1124.13252,310.534091 C1125.35213,311.642819 1125.96192,313.084143 1125.96192,314.858108 C1125.96192,318.627783 1123.41188,320.512592 1118.31173,320.512592 C1111.88111,320.734338 1106.78104,321.676742 1103.01136,323.339834 C1099.24169,325.002926 1096.58078,327.663833 1095.02856,331.322635 C1093.47634,334.981437 1092.70025,340.136945 1092.70025,346.789312 L1092.70025,456.220209 C1092.70025,461.985594 1091.64697,465.866083 1089.54039,467.861794 C1087.4338,469.857504 1083.49788,470.855344 1077.73249,470.855344 L1048.79484,470.855344 Z M1161.5519,470.855344 C1156.00826,470.855344 1152.18321,469.802068 1150.07663,467.695485 C1147.97004,465.588902 1146.91677,461.763848 1146.91677,456.220209 L1146.91677,323.506143 C1146.91677,317.740757 1147.97004,313.860268 1150.07663,311.864558 C1152.18321,309.868848 1156.00826,308.871007 1161.5519,308.871007 L1248.03225,308.871007 C1252.02367,308.871007 1255.07262,309.314492 1257.17921,310.201474 C1259.28579,311.088457 1260.78255,312.529781 1261.66953,314.525491 C1262.55652,316.521202 1263,319.514722 1263,323.506143 L1263,383.37715 C1263,389.142535 1261.94672,393.07846 1259.84014,395.185043 C1257.73356,397.291626 1253.79763,398.344902 1248.03225,398.344902 L1182.17414,398.344902 C1173.96955,398.344902 1168.09338,400.506889 1164.54545,404.830928 C1160.99753,409.154966 1159.22359,416.195283 1159.22359,425.952088 C1159.22359,432.160965 1159.50077,437.039294 1160.05513,440.587224 C1160.60949,444.135153 1161.5519,447.128673 1162.88237,449.567875 C1164.65634,452.894058 1167.31724,455.554965 1170.86517,457.550676 C1174.4131,459.546386 1178.29359,460.544226 1182.50676,460.544226 C1188.93738,460.544226 1194.14832,458.326804 1198.13974,453.891892 C1202.13116,449.45698 1204.12684,443.691682 1204.12684,436.595823 L1204.12684,425.286855 C1204.12684,421.073689 1204.23771,418.301911 1204.45946,416.971437 C1204.68121,415.640964 1205.34643,414.421381 1206.45516,413.312654 C1208.89436,410.873452 1212.66398,409.65387 1217.76413,409.65387 L1248.03225,409.65387 C1252.02367,409.65387 1255.07262,410.097354 1257.17921,410.984337 C1259.28579,411.871319 1260.78255,413.312644 1261.66953,415.308354 C1262.55652,417.304064 1263,420.297584 1263,424.289005 L1263,456.220209 C1263,461.985594 1261.94672,465.866083 1259.84014,467.861794 C1257.73356,469.857504 1253.79763,470.855344 1248.03225,470.855344 L1161.5519,470.855344 Z M1181.84152,387.701167 C1188.71564,387.701167 1194.14832,385.372873 1198.13974,380.716216 C1202.13116,376.059559 1204.12684,369.850776 1204.12684,362.089681 L1204.12684,345.458845 C1204.12684,337.69775 1202.07573,331.378096 1197.97343,326.499693 C1193.87114,321.62129 1188.49389,319.182125 1181.84152,319.182125 C1174.96741,319.182125 1169.42385,321.565855 1165.21069,326.333385 C1160.99752,331.100915 1158.89097,337.476004 1158.89097,345.458845 L1158.89097,359.09613 C1158.89097,367.965953 1160.94209,374.950834 1165.04438,380.050983 C1169.14667,385.151131 1174.74566,387.701167 1181.84152,387.701167 Z" id="software"></path>
            <path d="M405.910448,732.00597 C400.167135,732.00597 396.246279,731.01195 394.147761,729.023881 C392.049243,727.035811 391,723.170178 391,717.426866 L391,670.707463 C391,668.498496 391.607457,666.676127 392.822388,665.240299 C394.03732,663.80447 395.528349,663.086567 397.295522,663.086567 C401.271662,663.086567 403.259701,665.62684 403.259701,670.707463 L403.259701,695.558209 C403.259701,703.952281 405.302965,710.41341 409.389552,714.941791 C413.47614,719.470172 419.274589,721.734328 426.785075,721.734328 C433.853767,721.734328 439.320876,719.470172 443.186567,714.941791 C447.052258,710.41341 448.985075,703.952281 448.985075,695.558209 L448.985075,678.328358 C448.985075,670.596976 448.156725,664.411963 446.5,659.773134 C444.843275,655.134305 442.137332,651.820905 438.38209,649.832836 C434.626847,647.844766 429.656747,646.850746 423.471642,646.850746 L405.910448,646.850746 C400.167135,646.850746 396.246279,645.801503 394.147761,643.702985 C392.049243,641.604467 391,637.683611 391,631.940299 L391,585.220896 C391,579.477583 392.049243,575.61195 394.147761,573.623881 C396.246279,571.635811 400.167135,570.641791 405.910448,570.641791 L492.722388,570.641791 C498.4657,570.641791 502.386557,571.635811 504.485075,573.623881 C506.583593,575.61195 507.632836,579.477583 507.632836,585.220896 L507.632836,621.00597 C507.632836,623.214936 507.025379,624.92686 505.810448,626.141791 C504.595516,627.356722 503.104486,627.964179 501.337313,627.964179 C499.57014,627.964179 498.134334,627.356722 497.029851,626.141791 C495.925368,624.92686 495.373134,623.214936 495.373134,621.00597 L495.373134,608.083582 C495.373134,599.468614 493.329871,592.786591 489.243284,588.037313 C485.156696,583.288036 479.57914,580.913433 472.510448,580.913433 C464.999962,580.913433 459.31196,583.453706 455.446269,588.534328 C451.580578,593.614951 449.647761,601.23577 449.647761,611.397015 C449.647761,622.88364 451.746248,631.111915 455.943284,636.08209 C460.140319,641.052264 466.988012,643.537313 476.486567,643.537313 L492.722388,643.537313 C498.4657,643.537313 502.386557,644.531333 504.485075,646.519403 C506.583593,648.507473 507.632836,652.373106 507.632836,658.116418 L507.632836,717.426866 C507.632836,721.403005 507.191049,724.385065 506.307463,726.373134 C505.423876,728.361204 503.932846,729.797011 501.834328,730.680597 C499.73581,731.564184 496.698527,732.00597 492.722388,732.00597 L405.910448,732.00597 Z M555.014925,732.00597 C549.49251,732.00597 545.6821,730.956727 543.583582,728.858209 C541.485064,726.759691 540.435821,722.949281 540.435821,717.426866 L540.435821,585.552239 L537.122388,585.552239 C534.692525,585.552239 532.704485,584.889559 531.158209,583.564179 C529.611933,582.238799 528.838806,580.471653 528.838806,578.262687 C528.838806,573.182064 532.593992,570.641791 540.104478,570.641791 L552.695522,570.641791 C564.844837,570.641791 573.570123,568.322411 578.871642,563.683582 C584.173161,559.044753 586.823881,551.313487 586.823881,540.489552 L586.823881,530.880597 C586.823881,528.671631 587.431337,526.849261 588.646269,525.413433 C589.8612,523.977605 591.35223,523.259701 593.119403,523.259701 C594.886576,523.259701 596.267159,523.922381 597.261194,525.247761 C598.255229,526.573141 598.752239,528.450734 598.752239,530.880597 L598.752239,570.641791 L603.059701,570.641791 C605.489564,570.641791 607.367158,571.304471 608.692537,572.629851 C610.017917,573.955231 610.680597,575.832824 610.680597,578.262687 C610.680597,580.471653 610.017917,582.238799 608.692537,583.564179 C607.367158,584.889559 605.600011,585.552239 603.391045,585.552239 L598.752239,585.552239 L598.752239,717.426866 C598.752239,723.170178 597.758219,727.035811 595.770149,729.023881 C593.78208,731.01195 589.916447,732.00597 584.173134,732.00597 L555.014925,732.00597 Z M646.134328,732.00597 C640.391016,732.00597 636.47016,731.01195 634.371642,729.023881 C632.273124,727.035811 631.223881,723.170178 631.223881,717.426866 L631.223881,653.808955 C631.223881,648.065643 632.273124,644.20001 634.371642,642.21194 C636.47016,640.223871 640.391016,639.229851 646.134328,639.229851 L713.397015,639.229851 C720.465707,639.229851 725.877593,636.689578 729.632836,631.608955 C733.388078,626.528333 735.265672,619.238853 735.265672,609.740299 C735.265672,600.683537 733.222408,593.614951 729.135821,588.534328 C725.049233,583.453706 719.36123,580.913433 712.071642,580.913433 C705.223846,580.913433 699.81196,583.067143 695.835821,587.374627 C691.859682,591.682111 689.871642,597.370114 689.871642,604.438806 L689.871642,613.053731 C689.871642,618.797044 688.822399,622.662677 686.723881,624.650746 C684.625363,626.638816 680.704506,627.632836 674.961194,627.632836 L646.134328,627.632836 C640.391016,627.632836 636.47016,626.638816 634.371642,624.650746 C632.273124,622.662677 631.223881,618.797044 631.223881,613.053731 L631.223881,585.220896 C631.223881,579.477583 632.273124,575.61195 634.371642,573.623881 C636.47016,571.635811 640.391016,570.641791 646.134328,570.641791 L733.277612,570.641791 C739.020924,570.641791 742.886557,571.635811 744.874627,573.623881 C746.862697,575.61195 747.856716,579.477583 747.856716,585.220896 L747.856716,717.426866 C747.856716,722.949281 746.862697,726.759691 744.874627,728.858209 C742.886557,730.956727 739.020924,732.00597 733.277612,732.00597 L646.134328,732.00597 Z M666.346269,721.734328 C673.414961,721.734328 678.992517,719.470172 683.079104,714.941791 C687.165692,710.41341 689.208955,704.283621 689.208955,696.552239 L689.208955,673.689552 C689.208955,666.62086 687.165692,660.877634 683.079104,656.459701 C678.992517,652.041769 673.525407,649.832836 666.677612,649.832836 C659.388023,649.832836 653.70002,651.986546 649.613433,656.29403 C645.526845,660.601514 643.483582,666.620857 643.483582,674.352239 L643.483582,695.889552 C643.483582,704.283624 645.416399,710.68953 649.28209,715.107463 C653.147781,719.525395 658.835783,721.734328 666.346269,721.734328 Z M788.943284,732.00597 C783.199971,732.00597 779.279115,730.956727 777.180597,728.858209 C775.082079,726.759691 774.032836,722.838835 774.032836,717.095522 L774.032836,585.220896 C774.032836,579.477583 775.082079,575.61195 777.180597,573.623881 C779.279115,571.635811 783.199971,570.641791 788.943284,570.641791 L875.092537,570.641791 C880.83585,570.641791 884.756706,571.635811 886.855224,573.623881 C888.953742,575.61195 890.002985,579.477583 890.002985,585.220896 L890.002985,624.98209 C890.002985,630.725402 888.953742,634.591035 886.855224,636.579104 C884.756706,638.567174 880.83585,639.561194 875.092537,639.561194 L846.265672,639.561194 C840.522359,639.561194 836.601503,638.567174 834.502985,636.579104 C832.404467,634.591035 831.355224,630.725402 831.355224,624.98209 L831.355224,607.752239 C831.355224,599.579064 829.367184,593.062711 825.391045,588.202985 C821.414905,583.343259 816.003019,580.913433 809.155224,580.913433 C801.865635,580.913433 796.232856,583.232813 792.256716,587.871642 C788.280577,592.510471 786.292537,599.13727 786.292537,607.752239 L786.292537,695.889552 C786.292537,704.062727 788.3358,710.41341 792.422388,714.941791 C796.508976,719.470172 802.086532,721.734328 809.155224,721.734328 C816.003019,721.734328 821.414905,719.414949 825.391045,714.776119 C829.367184,710.13729 831.355224,703.841831 831.355224,695.889552 L831.355224,665.737313 C831.355224,659.994001 832.404467,656.073145 834.502985,653.974627 C836.601503,651.876109 840.522359,650.826866 846.265672,650.826866 L875.092537,650.826866 C880.83585,650.826866 884.756706,651.876109 886.855224,653.974627 C888.953742,656.073145 890.002985,659.994001 890.002985,665.737313 L890.002985,717.095522 C890.002985,722.838835 888.953742,726.759691 886.855224,728.858209 C884.756706,730.956727 880.83585,732.00597 875.092537,732.00597 L788.943284,732.00597 Z M922.143284,733 C920.376111,733 918.940304,732.33732 917.835821,731.01194 C916.731338,729.686561 916.179104,727.808967 916.179104,725.379104 L916.179104,525.579104 C916.179104,519.835792 917.228348,515.970159 919.326866,513.98209 C921.425384,511.99402 925.34624,511 931.089552,511 L959.916418,511 C965.438834,511 969.304467,512.104467 971.513433,514.313433 C973.722399,516.522399 974.826866,520.277585 974.826866,525.579104 L974.826866,608.746269 C974.826866,617.361237 976.870129,623.988037 980.956716,628.626866 C985.043304,633.265695 990.841753,635.585075 998.352239,635.585075 C1005.42093,635.585075 1010.99849,633.210472 1015.08507,628.461194 C1019.17166,623.711917 1021.21493,617.14034 1021.21493,608.746269 L1021.21493,575.61194 C1021.21493,573.844767 1021.76716,572.408961 1022.87164,571.304478 C1023.97612,570.199994 1025.41193,569.647761 1027.1791,569.647761 C1028.94628,569.647761 1030.43731,570.255218 1031.65224,571.470149 C1032.86717,572.685081 1033.47463,574.065664 1033.47463,575.61194 L1033.47463,613.053731 C1033.47463,624.098563 1028.72542,632.934295 1019.22687,639.561194 C1024.74928,639.782091 1028.50447,640.941781 1030.49254,643.040299 C1032.48061,645.138816 1033.47463,649.059673 1033.47463,654.802985 L1033.47463,717.426866 C1033.47463,723.170178 1032.42538,727.035811 1030.32687,729.023881 C1028.22835,731.01195 1024.30749,732.00597 1018.56418,732.00597 L989.40597,732.00597 C983.883554,732.00597 980.073145,730.956727 977.974627,728.858209 C975.876109,726.759691 974.826866,722.949281 974.826866,717.426866 L974.826866,664.41194 C974.826866,656.238765 972.783603,649.888082 968.697015,645.359701 C964.610427,640.831321 958.811978,638.567164 951.301493,638.567164 C944.2328,638.567164 938.655244,640.831321 934.568657,645.359701 C930.482069,649.888082 928.438806,656.238765 928.438806,664.41194 L928.438806,725.379104 C928.438806,727.588071 927.831349,729.410441 926.616418,730.846269 C925.401486,732.282097 923.910457,733 922.143284,733 Z" id="stack"></path>
        </g>
    </g>
</svg>