<?xml version="1.0" encoding="UTF-8"?>
<svg width="648px" height="108px" viewBox="0 0 648 108" version="1.1" xmlns="http://www.w3.org/2000/svg" xmlns:xlink="http://www.w3.org/1999/xlink">
    <defs></defs>
    <g id="Page-1" stroke="none" stroke-width="1" fill="none" fill-rule="evenodd">
        <path d="M15.9691406,27.1 C15.9691406,25.76666 16.4691356,24.633338 17.4691406,23.7 C18.4691456,22.766662 19.7024666,22.3 21.1691406,22.3 C22.5691476,22.3 23.7691356,22.766662 24.7691406,23.7 C25.7691456,24.633338 26.2691406,25.76666 26.2691406,27.1 C26.2691406,28.500007 25.7691456,29.666662 24.7691406,30.6 C23.7691356,31.533338 22.5691476,32 21.1691406,32 C19.7024666,32 18.4691456,31.533338 17.4691406,30.6 C16.4691356,29.666662 15.9691406,28.500007 15.9691406,27.1 Z M15.9691406,37 C15.9691406,35.66666 16.4691356,34.500005 17.4691406,33.5 C18.4691456,32.499995 19.7024666,32 21.1691406,32 C22.5691476,32 23.7691356,32.499995 24.7691406,33.5 C25.7691456,34.500005 26.2691406,35.66666 26.2691406,37 C26.2691406,38.400007 25.7691456,39.599995 24.7691406,40.6 C23.7691356,41.600005 22.5691476,42.1 21.1691406,42.1 C19.7024666,42.1 18.4691456,41.600005 17.4691406,40.6 C16.4691356,39.599995 15.9691406,38.400007 15.9691406,37 Z M15.9691406,47.1 C15.9691406,45.699993 16.4691356,44.5166715 17.4691406,43.55 C18.4691456,42.5833285 19.6691336,42.1 21.0691406,42.1 C22.4691476,42.1 23.6691356,42.5833285 24.6691406,43.55 C25.6691456,44.5166715 26.1691406,45.699993 26.1691406,47.1 C26.1691406,48.500007 25.6691456,49.6833285 24.6691406,50.65 C23.6691356,51.6166715 22.4691476,52.1 21.0691406,52.1 C19.6691336,52.1 18.4691456,51.6166715 17.4691406,50.65 C16.4691356,49.6833285 15.9691406,48.500007 15.9691406,47.1 Z M15.9691406,57.1 C15.9691406,55.699993 16.4691356,54.5166715 17.4691406,53.55 C18.4691456,52.5833285 19.6691336,52.1 21.0691406,52.1 C22.4691476,52.1 23.6691356,52.5833285 24.6691406,53.55 C25.6691456,54.5166715 26.1691406,55.699993 26.1691406,57.1 C26.1691406,58.500007 25.6691456,59.6833285 24.6691406,60.65 C23.6691356,61.6166715 22.4691476,62.1 21.0691406,62.1 C19.6691336,62.1 18.4691456,61.6166715 17.4691406,60.65 C16.4691356,59.6833285 15.9691406,58.500007 15.9691406,57.1 Z M15.9691406,67.1 C15.9691406,65.76666 16.4691356,64.600005 17.4691406,63.6 C18.4691456,62.599995 19.6691336,62.1 21.0691406,62.1 C22.4691476,62.1 23.6691356,62.599995 24.6691406,63.6 C25.6691456,64.600005 26.1691406,65.76666 26.1691406,67.1 C26.1691406,68.500007 25.6691456,69.699995 24.6691406,70.7 C23.6691356,71.700005 22.4691476,72.2 21.0691406,72.2 C19.6691336,72.2 18.4691456,71.700005 17.4691406,70.7 C16.4691356,69.699995 15.9691406,68.500007 15.9691406,67.1 Z M15.9691406,77.2 C15.9691406,75.799993 16.4691356,74.6166715 17.4691406,73.65 C18.4691456,72.6833285 19.6691336,72.2 21.0691406,72.2 C22.4691476,72.2 23.6691356,72.6833285 24.6691406,73.65 C25.6691456,74.6166715 26.1691406,75.799993 26.1691406,77.2 C26.1691406,78.600007 25.6691456,79.7833285 24.6691406,80.75 C23.6691356,81.7166715 22.4691476,82.2 21.0691406,82.2 C19.6691336,82.2 18.4691456,81.7166715 17.4691406,80.75 C16.4691356,79.7833285 15.9691406,78.600007 15.9691406,77.2 Z M15.9691406,87.1 C15.9691406,85.76666 16.4691356,84.6166715 17.4691406,83.65 C18.4691456,82.6833285 19.6691336,82.2 21.0691406,82.2 C22.4024806,82.2 23.5691356,82.6833285 24.5691406,83.65 C25.5691456,84.6166715 26.0691406,85.76666 26.0691406,87.1 C26.0691406,88.43334 25.5691456,89.5833285 24.5691406,90.55 C23.5691356,91.5166715 22.4024806,92 21.0691406,92 C19.6691336,92 18.4691456,91.5166715 17.4691406,90.55 C16.4691356,89.5833285 15.9691406,88.43334 15.9691406,87.1 Z M26.0691406,37.1 C26.0691406,35.76666 26.5524691,34.600005 27.5191406,33.6 C28.4858121,32.599995 29.6691336,32.1 31.0691406,32.1 C32.4691476,32.1 33.6524691,32.599995 34.6191406,33.6 C35.5858121,34.600005 36.0691406,35.76666 36.0691406,37.1 C36.0691406,38.500007 35.5858121,39.699995 34.6191406,40.7 C33.6524691,41.700005 32.4691476,42.2 31.0691406,42.2 C29.6691336,42.2 28.4858121,41.700005 27.5191406,40.7 C26.5524691,39.699995 26.0691406,38.500007 26.0691406,37.1 Z M36.0691406,47.2 C36.0691406,45.799993 36.5691356,44.6166715 37.5691406,43.65 C38.5691456,42.6833285 39.7691336,42.2 41.1691406,42.2 C42.5024806,42.2 43.6691356,42.6833285 44.6691406,43.65 C45.6691456,44.6166715 46.1691406,45.799993 46.1691406,47.2 C46.1691406,48.600007 45.6691456,49.7833285 44.6691406,50.75 C43.6691356,51.7166715 42.5024806,52.2 41.1691406,52.2 C39.7691336,52.2 38.5691456,51.7166715 37.5691406,50.75 C36.5691356,49.7833285 36.0691406,48.600007 36.0691406,47.2 Z M46.1691406,37.3 C46.1691406,35.899993 46.6524691,34.7166715 47.6191406,33.75 C48.5858121,32.7833285 49.7691336,32.3 51.1691406,32.3 C52.5024806,32.3 53.6524691,32.7833285 54.6191406,33.75 C55.5858121,34.7166715 56.0691406,35.899993 56.0691406,37.3 C56.0691406,38.700007 55.5858121,39.8833285 54.6191406,40.85 C53.6524691,41.8166715 52.5024806,42.3 51.1691406,42.3 C49.7691336,42.3 48.5858121,41.8166715 47.6191406,40.85 C46.6524691,39.8833285 46.1691406,38.700007 46.1691406,37.3 Z M56.0691406,27.3 C56.0691406,25.899993 56.5691356,24.7166715 57.5691406,23.75 C58.5691456,22.7833285 59.8024666,22.3 61.2691406,22.3 C62.6691476,22.3 63.8691356,22.7833285 64.8691406,23.75 C65.8691456,24.7166715 66.3691406,25.899993 66.3691406,27.3 C66.3691406,28.700007 65.8691456,29.8833285 64.8691406,30.85 C63.8691356,31.8166715 62.6691476,32.3 61.2691406,32.3 C59.8024666,32.3 58.5691456,31.8166715 57.5691406,30.85 C56.5691356,29.8833285 56.0691406,28.700007 56.0691406,27.3 Z M56.1691406,37.5 C56.1691406,36.233327 56.6691356,35.1500045 57.6691406,34.25 C58.6691456,33.3499955 59.8691336,32.9 61.2691406,32.9 C62.6691476,32.9 63.8691356,33.3499955 64.8691406,34.25 C65.8691456,35.1500045 66.3691406,36.233327 66.3691406,37.5 C66.3691406,38.766673 65.8691456,39.8499955 64.8691406,40.75 C63.8691356,41.6500045 62.6691476,42.1 61.2691406,42.1 C59.8691336,42.1 58.6691456,41.6500045 57.6691406,40.75 C56.6691356,39.8499955 56.1691406,38.766673 56.1691406,37.5 Z M55.7691406,47.1 C55.7691406,45.699993 56.2858021,44.5166715 57.3191406,43.55 C58.3524791,42.5833285 59.6024666,42.1 61.0691406,42.1 C62.5358146,42.1 63.7858021,42.5833285 64.8191406,43.55 C65.8524791,44.5166715 66.3691406,45.699993 66.3691406,47.1 C66.3691406,48.500007 65.8524791,49.6833285 64.8191406,50.65 C63.7858021,51.6166715 62.5358146,52.1 61.0691406,52.1 C59.6024666,52.1 58.3524791,51.6166715 57.3191406,50.65 C56.2858021,49.6833285 55.7691406,48.500007 55.7691406,47.1 Z M55.7691406,57.1 C55.7691406,55.699993 56.2691356,54.5166715 57.2691406,53.55 C58.2691456,52.5833285 59.4691336,52.1 60.8691406,52.1 C62.2691476,52.1 63.4691356,52.5833285 64.4691406,53.55 C65.4691456,54.5166715 65.9691406,55.699993 65.9691406,57.1 C65.9691406,58.500007 65.4691456,59.6833285 64.4691406,60.65 C63.4691356,61.6166715 62.2691476,62.1 60.8691406,62.1 C59.4691336,62.1 58.2691456,61.6166715 57.2691406,60.65 C56.2691356,59.6833285 55.7691406,58.500007 55.7691406,57.1 Z M55.8691406,67 C55.8691406,65.66666 56.3691356,64.5166715 57.3691406,63.55 C58.3691456,62.5833285 59.5691336,62.1 60.9691406,62.1 C62.3024806,62.1 63.4691356,62.5833285 64.4691406,63.55 C65.4691456,64.5166715 65.9691406,65.66666 65.9691406,67 C65.9691406,68.400007 65.4691456,69.5833285 64.4691406,70.55 C63.4691356,71.5166715 62.3024806,72 60.9691406,72 C59.5691336,72 58.3691456,71.5166715 57.3691406,70.55 C56.3691356,69.5833285 55.8691406,68.400007 55.8691406,67 Z M55.8691406,77.1 C55.8691406,75.699993 56.3691356,74.500005 57.3691406,73.5 C58.3691456,72.499995 59.6024666,72 61.0691406,72 C62.4691476,72 63.6691356,72.499995 64.6691406,73.5 C65.6691456,74.500005 66.1691406,75.699993 66.1691406,77.1 C66.1691406,78.566674 65.6691456,79.799995 64.6691406,80.8 C63.6691356,81.800005 62.4691476,82.3 61.0691406,82.3 C59.6024666,82.3 58.3691456,81.800005 57.3691406,80.8 C56.3691356,79.799995 55.8691406,78.566674 55.8691406,77.1 Z M56.0691406,87.1 C56.0691406,85.76666 56.5691356,84.633338 57.5691406,83.7 C58.5691456,82.766662 59.7691336,82.3 61.1691406,82.3 C62.5024806,82.3 63.6691356,82.766662 64.6691406,83.7 C65.6691456,84.633338 66.1691406,85.76666 66.1691406,87.1 C66.1691406,88.500007 65.6691456,89.666662 64.6691406,90.6 C63.6691356,91.533338 62.5024806,92 61.1691406,92 C59.7691336,92 58.5691456,91.533338 57.5691406,90.6 C56.5691356,89.666662 56.0691406,88.500007 56.0691406,87.1 Z M75.9691406,87.1 C75.9691406,85.76666 76.4691356,84.6166715 77.4691406,83.65 C78.4691456,82.6833285 79.6691336,82.2 81.0691406,82.2 C82.4691476,82.2 83.6691356,82.6833285 84.6691406,83.65 C85.6691456,84.6166715 86.1691406,85.76666 86.1691406,87.1 C86.1691406,88.43334 85.6691456,89.5833285 84.6691406,90.55 C83.6691356,91.5166715 82.4691476,92 81.0691406,92 C79.6691336,92 78.4691456,91.5166715 77.4691406,90.55 C76.4691356,89.5833285 75.9691406,88.43334 75.9691406,87.1 Z M75.9691406,77.1 C75.9691406,75.76666 76.4691356,74.6166715 77.4691406,73.65 C78.4691456,72.6833285 79.6691336,72.2 81.0691406,72.2 C82.4691476,72.2 83.6691356,72.6833285 84.6691406,73.65 C85.6691456,74.6166715 86.1691406,75.76666 86.1691406,77.1 C86.1691406,78.500007 85.6691456,79.6833285 84.6691406,80.65 C83.6691356,81.6166715 82.4691476,82.1 81.0691406,82.1 C79.6691336,82.1 78.4691456,81.6166715 77.4691406,80.65 C76.4691356,79.6833285 75.9691406,78.500007 75.9691406,77.1 Z M75.9691406,67.3 C75.9691406,65.96666 76.4691356,64.833338 77.4691406,63.9 C78.4691456,62.966662 79.7024666,62.5 81.1691406,62.5 C82.6358146,62.5 83.8691356,62.966662 84.8691406,63.9 C85.8691456,64.833338 86.3691406,65.96666 86.3691406,67.3 C86.3691406,68.700007 85.8691456,69.866662 84.8691406,70.8 C83.8691356,71.733338 82.6358146,72.2 81.1691406,72.2 C79.7024666,72.2 78.4691456,71.733338 77.4691406,70.8 C76.4691356,69.866662 75.9691406,68.700007 75.9691406,67.3 Z M75.9691406,57.4 C75.9691406,55.999993 76.4691356,54.800005 77.4691406,53.8 C78.4691456,52.799995 79.7024666,52.3 81.1691406,52.3 C82.6358146,52.3 83.8691356,52.799995 84.8691406,53.8 C85.8691456,54.800005 86.3691406,55.999993 86.3691406,57.4 C86.3691406,58.800007 85.8691456,59.999995 84.8691406,61 C83.8691356,62.000005 82.6358146,62.5 81.1691406,62.5 C79.7024666,62.5 78.4691456,62.000005 77.4691406,61 C76.4691356,59.999995 75.9691406,58.800007 75.9691406,57.4 Z M75.9691406,47.2 C75.9691406,45.799993 76.4524691,44.600005 77.4191406,43.6 C78.3858121,42.599995 79.5691336,42.1 80.9691406,42.1 C82.3691476,42.1 83.5524691,42.599995 84.5191406,43.6 C85.4858121,44.600005 85.9691406,45.799993 85.9691406,47.2 C85.9691406,48.600007 85.4858121,49.799995 84.5191406,50.8 C83.5524691,51.800005 82.3691476,52.3 80.9691406,52.3 C79.5691336,52.3 78.3858121,51.800005 77.4191406,50.8 C76.4524691,49.799995 75.9691406,48.600007 75.9691406,47.2 Z M75.9691406,37.2 C75.9691406,35.86666 76.4524691,34.7166715 77.4191406,33.75 C78.3858121,32.7833285 79.5691336,32.3 80.9691406,32.3 C82.3691476,32.3 83.5524691,32.7833285 84.5191406,33.75 C85.4858121,34.7166715 85.9691406,35.86666 85.9691406,37.2 C85.9691406,38.53334 85.4858121,39.6833285 84.5191406,40.65 C83.5524691,41.6166715 82.3691476,42.1 80.9691406,42.1 C79.5691336,42.1 78.3858121,41.6166715 77.4191406,40.65 C76.4524691,39.6833285 75.9691406,38.53334 75.9691406,37.2 Z M86.7691406,57.3 C86.7691406,55.96666 87.2358026,54.833338 88.1691406,53.9 C89.1024786,52.966662 90.2024676,52.5 91.4691406,52.5 C92.7358136,52.5 93.8358026,52.966662 94.7691406,53.9 C95.7024786,54.833338 96.1691406,55.96666 96.1691406,57.3 C96.1691406,58.63334 95.7024786,59.766662 94.7691406,60.7 C93.8358026,61.633338 92.7358136,62.1 91.4691406,62.1 C90.2024676,62.1 89.1024786,61.633338 88.1691406,60.7 C87.2358026,59.766662 86.7691406,58.63334 86.7691406,57.3 Z M96.1691406,57 C96.1691406,55.599993 96.6524691,54.400005 97.6191406,53.4 C98.5858121,52.399995 99.7691336,51.9 101.169141,51.9 C102.569148,51.9 103.752469,52.399995 104.719141,53.4 C105.685812,54.400005 106.169141,55.599993 106.169141,57 C106.169141,58.400007 105.685812,59.599995 104.719141,60.6 C103.752469,61.600005 102.569148,62.1 101.169141,62.1 C99.7691336,62.1 98.5858121,61.600005 97.6191406,60.6 C96.6524691,59.599995 96.1691406,58.400007 96.1691406,57 Z M106.169141,56.9 C106.169141,55.56666 106.652469,54.400005 107.619141,53.4 C108.585812,52.399995 109.769134,51.9 111.169141,51.9 C112.569148,51.9 113.752469,52.399995 114.719141,53.4 C115.685812,54.400005 116.169141,55.56666 116.169141,56.9 C116.169141,58.300007 115.685812,59.499995 114.719141,60.5 C113.752469,61.500005 112.569148,62 111.169141,62 C109.769134,62 108.585812,61.500005 107.619141,60.5 C106.652469,59.499995 106.169141,58.300007 106.169141,56.9 Z M105.869141,67.2 C105.869141,65.733326 106.369136,64.500005 107.369141,63.5 C108.369146,62.499995 109.602467,62 111.069141,62 C112.469148,62 113.669136,62.499995 114.669141,63.5 C115.669146,64.500005 116.169141,65.733326 116.169141,67.2 C116.169141,68.666674 115.669146,69.899995 114.669141,70.9 C113.669136,71.900005 112.469148,72.4 111.069141,72.4 C109.602467,72.4 108.369146,71.900005 107.369141,70.9 C106.369136,69.899995 105.869141,68.666674 105.869141,67.2 Z M105.869141,77.2 C105.869141,75.86666 106.369136,74.733338 107.369141,73.8 C108.369146,72.866662 109.602467,72.4 111.069141,72.4 C112.535815,72.4 113.769136,72.866662 114.769141,73.8 C115.769146,74.733338 116.269141,75.86666 116.269141,77.2 C116.269141,78.600007 115.769146,79.766662 114.769141,80.7 C113.769136,81.633338 112.535815,82.1 111.069141,82.1 C109.602467,82.1 108.369146,81.633338 107.369141,80.7 C106.369136,79.766662 105.869141,78.600007 105.869141,77.2 Z M105.869141,87 C105.869141,85.66666 106.369136,84.5166715 107.369141,83.55 C108.369146,82.5833285 109.602467,82.1 111.069141,82.1 C112.535815,82.1 113.769136,82.5833285 114.769141,83.55 C115.769146,84.5166715 116.269141,85.66666 116.269141,87 C116.269141,88.400007 115.769146,89.5833285 114.769141,90.55 C113.769136,91.5166715 112.535815,92 111.069141,92 C109.602467,92 108.369146,91.5166715 107.369141,90.55 C106.369136,89.5833285 105.869141,88.400007 105.869141,87 Z M105.969141,47 C105.969141,45.66666 106.469136,44.533338 107.469141,43.6 C108.469146,42.666662 109.669134,42.2 111.069141,42.2 C112.469148,42.2 113.669136,42.666662 114.669141,43.6 C115.669146,44.533338 116.169141,45.66666 116.169141,47 C116.169141,48.400007 115.669146,49.566662 114.669141,50.5 C113.669136,51.433338 112.469148,51.9 111.069141,51.9 C109.669134,51.9 108.469146,51.433338 107.469141,50.5 C106.469136,49.566662 105.969141,48.400007 105.969141,47 Z M105.669141,37.2 C105.669141,35.799993 106.185802,34.6166715 107.219141,33.65 C108.252479,32.6833285 109.502467,32.2 110.969141,32.2 C112.369148,32.2 113.585802,32.6833285 114.619141,33.65 C115.652479,34.6166715 116.169141,35.799993 116.169141,37.2 C116.169141,38.600007 115.652479,39.7833285 114.619141,40.75 C113.585802,41.7166715 112.369148,42.2 110.969141,42.2 C109.502467,42.2 108.252479,41.7166715 107.219141,40.75 C106.185802,39.7833285 105.669141,38.600007 105.669141,37.2 Z M95.9691406,27.2 C95.9691406,25.86666 96.4358026,24.7166715 97.3691406,23.75 C98.3024786,22.7833285 99.4691336,22.3 100.869141,22.3 C102.202481,22.3 103.335803,22.7833285 104.269141,23.75 C105.202479,24.7166715 105.669141,25.86666 105.669141,27.2 C105.669141,28.600007 105.202479,29.7833285 104.269141,30.75 C103.335803,31.7166715 102.202481,32.2 100.869141,32.2 C99.4691336,32.2 98.3024786,31.7166715 97.3691406,30.75 C96.4358026,29.7833285 95.9691406,28.600007 95.9691406,27.2 Z M85.7691406,27.2 C85.7691406,25.86666 86.2691356,24.7166715 87.2691406,23.75 C88.2691456,22.7833285 89.4691336,22.3 90.8691406,22.3 C92.2691476,22.3 93.4691356,22.7833285 94.4691406,23.75 C95.4691456,24.7166715 95.9691406,25.86666 95.9691406,27.2 C95.9691406,28.53334 95.4691456,29.6833285 94.4691406,30.65 C93.4691356,31.6166715 92.2691476,32.1 90.8691406,32.1 C89.4691336,32.1 88.2691456,31.6166715 87.2691406,30.65 C86.2691356,29.6833285 85.7691406,28.53334 85.7691406,27.2 Z M125.969141,27.1 C125.969141,25.76666 126.469136,24.633338 127.469141,23.7 C128.469146,22.766662 129.669134,22.3 131.069141,22.3 C132.469148,22.3 133.669136,22.766662 134.669141,23.7 C135.669146,24.633338 136.169141,25.76666 136.169141,27.1 C136.169141,28.43334 135.669146,29.566662 134.669141,30.5 C133.669136,31.433338 132.469148,31.9 131.069141,31.9 C129.669134,31.9 128.469146,31.433338 127.469141,30.5 C126.469136,29.566662 125.969141,28.43334 125.969141,27.1 Z M136.169141,27.1 C136.169141,25.76666 136.652469,24.633338 137.619141,23.7 C138.585812,22.766662 139.769134,22.3 141.169141,22.3 C142.569148,22.3 143.752469,22.766662 144.719141,23.7 C145.685812,24.633338 146.169141,25.76666 146.169141,27.1 C146.169141,28.43334 145.685812,29.566662 144.719141,30.5 C143.752469,31.433338 142.569148,31.9 141.169141,31.9 C139.769134,31.9 138.585812,31.433338 137.619141,30.5 C136.652469,29.566662 136.169141,28.43334 136.169141,27.1 Z M146.169141,27.1 C146.169141,25.76666 146.652469,24.633338 147.619141,23.7 C148.585812,22.766662 149.735801,22.3 151.069141,22.3 C152.402481,22.3 153.552469,22.766662 154.519141,23.7 C155.485812,24.633338 155.969141,25.76666 155.969141,27.1 C155.969141,28.500007 155.485812,29.666662 154.519141,30.6 C153.552469,31.533338 152.402481,32 151.069141,32 C149.735801,32 148.585812,31.533338 147.619141,30.6 C146.652469,29.666662 146.169141,28.500007 146.169141,27.1 Z M155.969141,27.1 C155.969141,25.76666 156.469136,24.633338 157.469141,23.7 C158.469146,22.766662 159.669134,22.3 161.069141,22.3 C162.402481,22.3 163.569136,22.766662 164.569141,23.7 C165.569146,24.633338 166.069141,25.76666 166.069141,27.1 C166.069141,28.500007 165.569146,29.666662 164.569141,30.6 C163.569136,31.533338 162.402481,32 161.069141,32 C159.669134,32 158.469146,31.533338 157.469141,30.6 C156.469136,29.666662 155.969141,28.500007 155.969141,27.1 Z M166.069141,27.2 C166.069141,25.86666 166.569136,24.7166715 167.569141,23.75 C168.569146,22.7833285 169.769134,22.3 171.169141,22.3 C172.502481,22.3 173.669136,22.7833285 174.669141,23.75 C175.669146,24.7166715 176.169141,25.86666 176.169141,27.2 C176.169141,28.53334 175.669146,29.6833285 174.669141,30.65 C173.669136,31.6166715 172.502481,32.1 171.169141,32.1 C169.769134,32.1 168.569146,31.6166715 167.569141,30.65 C166.569136,29.6833285 166.069141,28.53334 166.069141,27.2 Z M146.069141,87.1 C146.069141,85.76666 146.552469,84.6166715 147.519141,83.65 C148.485812,82.6833285 149.669134,82.2 151.069141,82.2 C152.469148,82.2 153.652469,82.6833285 154.619141,83.65 C155.585812,84.6166715 156.069141,85.76666 156.069141,87.1 C156.069141,88.43334 155.585812,89.5833285 154.619141,90.55 C153.652469,91.5166715 152.469148,92 151.069141,92 C149.669134,92 148.485812,91.5166715 147.519141,90.55 C146.552469,89.5833285 146.069141,88.43334 146.069141,87.1 Z M145.969141,77.2 C145.969141,75.86666 146.469136,74.7166715 147.469141,73.75 C148.469146,72.7833285 149.669134,72.3 151.069141,72.3 C152.402481,72.3 153.569136,72.7833285 154.569141,73.75 C155.569146,74.7166715 156.069141,75.86666 156.069141,77.2 C156.069141,78.600007 155.569146,79.7833285 154.569141,80.75 C153.569136,81.7166715 152.402481,82.2 151.069141,82.2 C149.669134,82.2 148.469146,81.7166715 147.469141,80.75 C146.469136,79.7833285 145.969141,78.600007 145.969141,77.2 Z M145.969141,67.2 C145.969141,65.86666 146.469136,64.700005 147.469141,63.7 C148.469146,62.699995 149.669134,62.2 151.069141,62.2 C152.469148,62.2 153.669136,62.699995 154.669141,63.7 C155.669146,64.700005 156.169141,65.86666 156.169141,67.2 C156.169141,68.600007 155.669146,69.799995 154.669141,70.8 C153.669136,71.800005 152.469148,72.3 151.069141,72.3 C149.669134,72.3 148.469146,71.800005 147.469141,70.8 C146.469136,69.799995 145.969141,68.600007 145.969141,67.2 Z M145.869141,57.2 C145.869141,55.86666 146.369136,54.7166715 147.369141,53.75 C148.369146,52.7833285 149.602467,52.3 151.069141,52.3 C152.469148,52.3 153.669136,52.7833285 154.669141,53.75 C155.669146,54.7166715 156.169141,55.86666 156.169141,57.2 C156.169141,58.600007 155.669146,59.7833285 154.669141,60.75 C153.669136,61.7166715 152.469148,62.2 151.069141,62.2 C149.602467,62.2 148.369146,61.7166715 147.369141,60.75 C146.369136,59.7833285 145.869141,58.600007 145.869141,57.2 Z M145.869141,47.2 C145.869141,45.86666 146.369136,44.700005 147.369141,43.7 C148.369146,42.699995 149.602467,42.2 151.069141,42.2 C152.535815,42.2 153.769136,42.699995 154.769141,43.7 C155.769146,44.700005 156.269141,45.86666 156.269141,47.2 C156.269141,48.600007 155.769146,49.799995 154.769141,50.8 C153.769136,51.800005 152.535815,52.3 151.069141,52.3 C149.602467,52.3 148.369146,51.800005 147.369141,50.8 C146.369136,49.799995 145.869141,48.600007 145.869141,47.2 Z M145.769141,37.3 C145.769141,35.96666 146.285802,34.8166715 147.319141,33.85 C148.352479,32.8833285 149.602467,32.4 151.069141,32.4 C152.469148,32.4 153.685802,32.8833285 154.719141,33.85 C155.752479,34.8166715 156.269141,35.96666 156.269141,37.3 C156.269141,38.63334 155.752479,39.7833285 154.719141,40.75 C153.685802,41.7166715 152.469148,42.2 151.069141,42.2 C149.602467,42.2 148.352479,41.7166715 147.319141,40.75 C146.285802,39.7833285 145.769141,38.63334 145.769141,37.3 Z M185.969141,27.2 C185.969141,25.86666 186.469136,24.7166715 187.469141,23.75 C188.469146,22.7833285 189.702467,22.3 191.169141,22.3 C192.569148,22.3 193.769136,22.7833285 194.769141,23.75 C195.769146,24.7166715 196.269141,25.86666 196.269141,27.2 C196.269141,28.53334 195.769146,29.6833285 194.769141,30.65 C193.769136,31.6166715 192.569148,32.1 191.169141,32.1 C189.702467,32.1 188.469146,31.6166715 187.469141,30.65 C186.469136,29.6833285 185.969141,28.53334 185.969141,27.2 Z M196.269141,27.2 C196.269141,25.86666 196.752469,24.7166715 197.719141,23.75 C198.685812,22.7833285 199.835801,22.3 201.169141,22.3 C202.502481,22.3 203.652469,22.7833285 204.619141,23.75 C205.585812,24.7166715 206.069141,25.86666 206.069141,27.2 C206.069141,28.53334 205.585812,29.6833285 204.619141,30.65 C203.652469,31.6166715 202.502481,32.1 201.169141,32.1 C199.835801,32.1 198.685812,31.6166715 197.719141,30.65 C196.752469,29.6833285 196.269141,28.53334 196.269141,27.2 Z M206.069141,27.1 C206.069141,25.76666 206.569136,24.633338 207.569141,23.7 C208.569146,22.766662 209.769134,22.3 211.169141,22.3 C212.502481,22.3 213.669136,22.766662 214.669141,23.7 C215.669146,24.633338 216.169141,25.76666 216.169141,27.1 C216.169141,28.500007 215.669146,29.666662 214.669141,30.6 C213.669136,31.533338 212.502481,32 211.169141,32 C209.769134,32 208.569146,31.533338 207.569141,30.6 C206.569136,29.666662 206.069141,28.500007 206.069141,27.1 Z M216.169141,37 C216.169141,35.66666 216.669136,34.500005 217.669141,33.5 C218.669146,32.499995 219.869134,32 221.269141,32 C222.602481,32 223.769136,32.499995 224.769141,33.5 C225.769146,34.500005 226.269141,35.66666 226.269141,37 C226.269141,38.400007 225.769146,39.599995 224.769141,40.6 C223.769136,41.600005 222.602481,42.1 221.269141,42.1 C219.869134,42.1 218.669146,41.600005 217.669141,40.6 C216.669136,39.599995 216.169141,38.400007 216.169141,37 Z M215.869141,47.1 C215.869141,45.699993 216.369136,44.5166715 217.369141,43.55 C218.369146,42.5833285 219.602467,42.1 221.069141,42.1 C222.535815,42.1 223.769136,42.5833285 224.769141,43.55 C225.769146,44.5166715 226.269141,45.699993 226.269141,47.1 C226.269141,48.500007 225.769146,49.6833285 224.769141,50.65 C223.769136,51.6166715 222.535815,52.1 221.069141,52.1 C219.602467,52.1 218.369146,51.6166715 217.369141,50.65 C216.369136,49.6833285 215.869141,48.500007 215.869141,47.1 Z M205.969141,57.1 C205.969141,55.76666 206.452469,54.600005 207.419141,53.6 C208.385812,52.599995 209.569134,52.1 210.969141,52.1 C212.302481,52.1 213.452469,52.599995 214.419141,53.6 C215.385812,54.600005 215.869141,55.76666 215.869141,57.1 C215.869141,58.500007 215.385812,59.699995 214.419141,60.7 C213.452469,61.700005 212.302481,62.2 210.969141,62.2 C209.569134,62.2 208.385812,61.700005 207.419141,60.7 C206.452469,59.699995 205.969141,58.500007 205.969141,57.1 Z M196.069141,57.2 C196.069141,55.799993 196.552469,54.6166715 197.519141,53.65 C198.485812,52.6833285 199.669134,52.2 201.069141,52.2 C202.402481,52.2 203.552469,52.6833285 204.519141,53.65 C205.485812,54.6166715 205.969141,55.799993 205.969141,57.2 C205.969141,58.600007 205.485812,59.7833285 204.519141,60.75 C203.552469,61.7166715 202.402481,62.2 201.069141,62.2 C199.669134,62.2 198.485812,61.7166715 197.519141,60.75 C196.552469,59.7833285 196.069141,58.600007 196.069141,57.2 Z M185.969141,87.1 C185.969141,85.76666 186.469136,84.6166715 187.469141,83.65 C188.469146,82.6833285 189.702467,82.2 191.169141,82.2 C192.635815,82.2 193.869136,82.6833285 194.869141,83.65 C195.869146,84.6166715 196.369141,85.76666 196.369141,87.1 C196.369141,88.43334 195.869146,89.5833285 194.869141,90.55 C193.869136,91.5166715 192.635815,92 191.169141,92 C189.702467,92 188.469146,91.5166715 187.469141,90.55 C186.469136,89.5833285 185.969141,88.43334 185.969141,87.1 Z M185.969141,77.2 C185.969141,75.86666 186.469136,74.7166715 187.469141,73.75 C188.469146,72.7833285 189.702467,72.3 191.169141,72.3 C192.635815,72.3 193.869136,72.7833285 194.869141,73.75 C195.869146,74.7166715 196.369141,75.86666 196.369141,77.2 C196.369141,78.600007 195.869146,79.7833285 194.869141,80.75 C193.869136,81.7166715 192.635815,82.2 191.169141,82.2 C189.702467,82.2 188.469146,81.7166715 187.469141,80.75 C186.469136,79.7833285 185.969141,78.600007 185.969141,77.2 Z M185.969141,67.3 C185.969141,65.899993 186.485802,64.7166715 187.519141,63.75 C188.552479,62.7833285 189.802467,62.3 191.269141,62.3 C192.735815,62.3 193.985802,62.7833285 195.019141,63.75 C196.052479,64.7166715 196.569141,65.899993 196.569141,67.3 C196.569141,68.700007 196.052479,69.8833285 195.019141,70.85 C193.985802,71.8166715 192.735815,72.3 191.269141,72.3 C189.802467,72.3 188.552479,71.8166715 187.519141,70.85 C186.485802,69.8833285 185.969141,68.700007 185.969141,67.3 Z M185.969141,57.3 C185.969141,55.96666 186.485802,54.8166715 187.519141,53.85 C188.552479,52.8833285 189.802467,52.4 191.269141,52.4 C192.735815,52.4 193.985802,52.8833285 195.019141,53.85 C196.052479,54.8166715 196.569141,55.96666 196.569141,57.3 C196.569141,58.700007 196.052479,59.8833285 195.019141,60.85 C193.985802,61.8166715 192.735815,62.3 191.269141,62.3 C189.802467,62.3 188.552479,61.8166715 187.519141,60.85 C186.485802,59.8833285 185.969141,58.700007 185.969141,57.3 Z M185.969141,47.3 C185.969141,45.899993 186.469136,44.700005 187.469141,43.7 C188.469146,42.699995 189.702467,42.2 191.169141,42.2 C192.635815,42.2 193.869136,42.699995 194.869141,43.7 C195.869146,44.700005 196.369141,45.899993 196.369141,47.3 C196.369141,48.700007 195.869146,49.899995 194.869141,50.9 C193.869136,51.900005 192.635815,52.4 191.169141,52.4 C189.702467,52.4 188.469146,51.900005 187.469141,50.9 C186.469136,49.899995 185.969141,48.700007 185.969141,47.3 Z M185.969141,37.3 C185.969141,35.96666 186.469136,34.8166715 187.469141,33.85 C188.469146,32.8833285 189.702467,32.4 191.169141,32.4 C192.635815,32.4 193.869136,32.8833285 194.869141,33.85 C195.869146,34.8166715 196.369141,35.96666 196.369141,37.3 C196.369141,38.63334 195.869146,39.7833285 194.869141,40.75 C193.869136,41.7166715 192.635815,42.2 191.169141,42.2 C189.702467,42.2 188.469146,41.7166715 187.469141,40.75 C186.469136,39.7833285 185.969141,38.63334 185.969141,37.3 Z M216.169141,67 C216.169141,65.66666 216.652469,64.500005 217.619141,63.5 C218.585812,62.499995 219.769134,62 221.169141,62 C222.502481,62 223.652469,62.499995 224.619141,63.5 C225.585812,64.500005 226.069141,65.66666 226.069141,67 C226.069141,68.400007 225.585812,69.599995 224.619141,70.6 C223.652469,71.600005 222.502481,72.1 221.169141,72.1 C219.769134,72.1 218.585812,71.600005 217.619141,70.6 C216.652469,69.599995 216.169141,68.400007 216.169141,67 Z M215.969141,77 C215.969141,75.66666 216.469136,74.5166715 217.469141,73.55 C218.469146,72.5833285 219.669134,72.1 221.069141,72.1 C222.402481,72.1 223.569136,72.5833285 224.569141,73.55 C225.569146,74.5166715 226.069141,75.66666 226.069141,77 C226.069141,78.400007 225.569146,79.5833285 224.569141,80.55 C223.569136,81.5166715 222.402481,82 221.069141,82 C219.669134,82 218.469146,81.5166715 217.469141,80.55 C216.469136,79.5833285 215.969141,78.400007 215.969141,77 Z M215.969141,87 C215.969141,85.599993 216.469136,84.4166715 217.469141,83.45 C218.469146,82.4833285 219.669134,82 221.069141,82 C222.402481,82 223.569136,82.4833285 224.569141,83.45 C225.569146,84.4166715 226.069141,85.599993 226.069141,87 C226.069141,88.400007 225.569146,89.5833285 224.569141,90.55 C223.569136,91.5166715 222.402481,92 221.069141,92 C219.669134,92 218.469146,91.5166715 217.469141,90.55 C216.469136,89.5833285 215.969141,88.400007 215.969141,87 Z M235.969141,27.1 C235.969141,25.76666 236.469136,24.633338 237.469141,23.7 C238.469146,22.766662 239.702467,22.3 241.169141,22.3 C242.569148,22.3 243.769136,22.766662 244.769141,23.7 C245.769146,24.633338 246.269141,25.76666 246.269141,27.1 C246.269141,28.43334 245.769146,29.566662 244.769141,30.5 C243.769136,31.433338 242.569148,31.9 241.169141,31.9 C239.702467,31.9 238.469146,31.433338 237.469141,30.5 C236.469136,29.566662 235.969141,28.43334 235.969141,27.1 Z M246.269141,27.1 C246.269141,25.76666 246.752469,24.633338 247.719141,23.7 C248.685812,22.766662 249.869134,22.3 251.269141,22.3 C252.669148,22.3 253.852469,22.766662 254.819141,23.7 C255.785812,24.633338 256.269141,25.76666 256.269141,27.1 C256.269141,28.43334 255.785812,29.566662 254.819141,30.5 C253.852469,31.433338 252.669148,31.9 251.269141,31.9 C249.869134,31.9 248.685812,31.433338 247.719141,30.5 C246.752469,29.566662 246.269141,28.43334 246.269141,27.1 Z M256.269141,27.1 C256.269141,25.76666 256.752469,24.633338 257.719141,23.7 C258.685812,22.766662 259.869134,22.3 261.269141,22.3 C262.669148,22.3 263.852469,22.766662 264.819141,23.7 C265.785812,24.633338 266.269141,25.76666 266.269141,27.1 C266.269141,28.43334 265.785812,29.566662 264.819141,30.5 C263.852469,31.433338 262.669148,31.9 261.269141,31.9 C259.869134,31.9 258.685812,31.433338 257.719141,30.5 C256.752469,29.566662 256.269141,28.43334 256.269141,27.1 Z M245.869141,37.2 C245.869141,35.733326 246.369136,34.500005 247.369141,33.5 C248.369146,32.499995 249.569134,32 250.969141,32 C252.302481,32 253.469136,32.499995 254.469141,33.5 C255.469146,34.500005 255.969141,35.733326 255.969141,37.2 C255.969141,38.666674 255.469146,39.899995 254.469141,40.9 C253.469136,41.900005 252.302481,42.4 250.969141,42.4 C249.569134,42.4 248.369146,41.900005 247.369141,40.9 C246.369136,39.899995 245.869141,38.666674 245.869141,37.2 Z M245.869141,47.2 C245.869141,45.86666 246.385802,44.733338 247.419141,43.8 C248.452479,42.866662 249.702467,42.4 251.169141,42.4 C252.569148,42.4 253.785802,42.866662 254.819141,43.8 C255.852479,44.733338 256.369141,45.86666 256.369141,47.2 C256.369141,48.600007 255.852479,49.766662 254.819141,50.7 C253.785802,51.633338 252.569148,52.1 251.169141,52.1 C249.702467,52.1 248.452479,51.633338 247.419141,50.7 C246.385802,49.766662 245.869141,48.600007 245.869141,47.2 Z M245.869141,57 C245.869141,55.66666 246.385802,54.5166715 247.419141,53.55 C248.452479,52.5833285 249.702467,52.1 251.169141,52.1 C252.569148,52.1 253.785802,52.5833285 254.819141,53.55 C255.852479,54.5166715 256.369141,55.66666 256.369141,57 C256.369141,58.33334 255.852479,59.4833285 254.819141,60.45 C253.785802,61.4166715 252.569148,61.9 251.169141,61.9 C249.702467,61.9 248.452479,61.4166715 247.419141,60.45 C246.385802,59.4833285 245.869141,58.33334 245.869141,57 Z M245.869141,66.9 C245.869141,65.56666 246.369136,64.400005 247.369141,63.4 C248.369146,62.399995 249.569134,61.9 250.969141,61.9 C252.369148,61.9 253.569136,62.399995 254.569141,63.4 C255.569146,64.400005 256.069141,65.56666 256.069141,66.9 C256.069141,68.300007 255.569146,69.499995 254.569141,70.5 C253.569136,71.500005 252.369148,72 250.969141,72 C249.569134,72 248.369146,71.500005 247.369141,70.5 C246.369136,69.499995 245.869141,68.300007 245.869141,66.9 Z M245.769141,77 C245.769141,75.66666 246.269136,74.500005 247.269141,73.5 C248.269146,72.499995 249.502467,72 250.969141,72 C252.369148,72 253.569136,72.499995 254.569141,73.5 C255.569146,74.500005 256.069141,75.66666 256.069141,77 C256.069141,78.400007 255.569146,79.599995 254.569141,80.6 C253.569136,81.600005 252.369148,82.1 250.969141,82.1 C249.502467,82.1 248.269146,81.600005 247.269141,80.6 C246.269136,79.599995 245.769141,78.400007 245.769141,77 Z M235.969141,87.1 C235.969141,85.76666 236.469136,84.633338 237.469141,83.7 C238.469146,82.766662 239.669134,82.3 241.069141,82.3 C242.469148,82.3 243.669136,82.766662 244.669141,83.7 C245.669146,84.633338 246.169141,85.76666 246.169141,87.1 C246.169141,88.500007 245.669146,89.666662 244.669141,90.6 C243.669136,91.533338 242.469148,92 241.069141,92 C239.669134,92 238.469146,91.533338 237.469141,90.6 C236.469136,89.666662 235.969141,88.500007 235.969141,87.1 Z M246.169141,87.1 C246.169141,85.76666 246.652469,84.633338 247.619141,83.7 C248.585812,82.766662 249.735801,82.3 251.069141,82.3 C252.402481,82.3 253.552469,82.766662 254.519141,83.7 C255.485812,84.633338 255.969141,85.76666 255.969141,87.1 C255.969141,88.500007 255.485812,89.666662 254.519141,90.6 C253.552469,91.533338 252.402481,92 251.069141,92 C249.735801,92 248.585812,91.533338 247.619141,90.6 C246.652469,89.666662 246.169141,88.500007 246.169141,87.1 Z M255.969141,87.2 C255.969141,85.86666 256.469136,84.733338 257.469141,83.8 C258.469146,82.866662 259.669134,82.4 261.069141,82.4 C262.402481,82.4 263.569136,82.866662 264.569141,83.8 C265.569146,84.733338 266.069141,85.86666 266.069141,87.2 C266.069141,88.53334 265.569146,89.666662 264.569141,90.6 C263.569136,91.533338 262.402481,92 261.069141,92 C259.669134,92 258.469146,91.533338 257.469141,90.6 C256.469136,89.666662 255.969141,88.53334 255.969141,87.2 Z M275.869141,27.1 C275.869141,25.76666 276.369136,24.633338 277.369141,23.7 C278.369146,22.766662 279.569134,22.3 280.969141,22.3 C282.369148,22.3 283.569136,22.766662 284.569141,23.7 C285.569146,24.633338 286.069141,25.76666 286.069141,27.1 C286.069141,28.43334 285.569146,29.566662 284.569141,30.5 C283.569136,31.433338 282.369148,31.9 280.969141,31.9 C279.569134,31.9 278.369146,31.433338 277.369141,30.5 C276.369136,29.566662 275.869141,28.43334 275.869141,27.1 Z M275.869141,36.9 C275.869141,35.56666 276.369136,34.400005 277.369141,33.4 C278.369146,32.399995 279.569134,31.9 280.969141,31.9 C282.369148,31.9 283.569136,32.399995 284.569141,33.4 C285.569146,34.400005 286.069141,35.56666 286.069141,36.9 C286.069141,38.300007 285.569146,39.499995 284.569141,40.5 C283.569136,41.500005 282.369148,42 280.969141,42 C279.569134,42 278.369146,41.500005 277.369141,40.5 C276.369136,39.499995 275.869141,38.300007 275.869141,36.9 Z M275.869141,87.1 C275.869141,85.76666 276.369136,84.633338 277.369141,83.7 C278.369146,82.766662 279.569134,82.3 280.969141,82.3 C282.369148,82.3 283.569136,82.766662 284.569141,83.7 C285.569146,84.633338 286.069141,85.76666 286.069141,87.1 C286.069141,88.500007 285.569146,89.666662 284.569141,90.6 C283.569136,91.533338 282.369148,92 280.969141,92 C279.569134,92 278.369146,91.533338 277.369141,90.6 C276.369136,89.666662 275.869141,88.500007 275.869141,87.1 Z M275.869141,77.3 C275.869141,75.899993 276.369136,74.7166715 277.369141,73.75 C278.369146,72.7833285 279.569134,72.3 280.969141,72.3 C282.369148,72.3 283.569136,72.7833285 284.569141,73.75 C285.569146,74.7166715 286.069141,75.899993 286.069141,77.3 C286.069141,78.700007 285.569146,79.8833285 284.569141,80.85 C283.569136,81.8166715 282.369148,82.3 280.969141,82.3 C279.569134,82.3 278.369146,81.8166715 277.369141,80.85 C276.369136,79.8833285 275.869141,78.700007 275.869141,77.3 Z M285.769141,67.4 C285.769141,65.933326 286.269136,64.700005 287.269141,63.7 C288.269146,62.699995 289.469134,62.2 290.869141,62.2 C292.269148,62.2 293.469136,62.699995 294.469141,63.7 C295.469146,64.700005 295.969141,65.933326 295.969141,67.4 C295.969141,68.866674 295.469146,70.099995 294.469141,71.1 C293.469136,72.100005 292.269148,72.6 290.869141,72.6 C289.469134,72.6 288.269146,72.100005 287.269141,71.1 C286.269136,70.099995 285.769141,68.866674 285.769141,67.4 Z M295.969141,57.2 C295.969141,55.799993 296.452469,54.6166715 297.419141,53.65 C298.385812,52.6833285 299.569134,52.2 300.969141,52.2 C302.369148,52.2 303.552469,52.6833285 304.519141,53.65 C305.485812,54.6166715 305.969141,55.799993 305.969141,57.2 C305.969141,58.600007 305.485812,59.7833285 304.519141,60.75 C303.552469,61.7166715 302.369148,62.2 300.969141,62.2 C299.569134,62.2 298.385812,61.7166715 297.419141,60.75 C296.452469,59.7833285 295.969141,58.600007 295.969141,57.2 Z M305.969141,47.2 C305.969141,45.799993 306.452469,44.6166715 307.419141,43.65 C308.385812,42.6833285 309.569134,42.2 310.969141,42.2 C312.369148,42.2 313.552469,42.6833285 314.519141,43.65 C315.485812,44.6166715 315.969141,45.799993 315.969141,47.2 C315.969141,48.600007 315.485812,49.7833285 314.519141,50.75 C313.552469,51.7166715 312.369148,52.2 310.969141,52.2 C309.569134,52.2 308.385812,51.7166715 307.419141,50.75 C306.452469,49.7833285 305.969141,48.600007 305.969141,47.2 Z M315.969141,37.2 C315.969141,35.799993 316.469136,34.6166715 317.469141,33.65 C318.469146,32.6833285 319.702467,32.2 321.169141,32.2 C322.569148,32.2 323.769136,32.6833285 324.769141,33.65 C325.769146,34.6166715 326.269141,35.799993 326.269141,37.2 C326.269141,38.600007 325.769146,39.7833285 324.769141,40.75 C323.769136,41.7166715 322.569148,42.2 321.169141,42.2 C319.702467,42.2 318.469146,41.7166715 317.469141,40.75 C316.469136,39.7833285 315.969141,38.600007 315.969141,37.2 Z M315.969141,27.2 C315.969141,25.86666 316.469136,24.7166715 317.469141,23.75 C318.469146,22.7833285 319.702467,22.3 321.169141,22.3 C322.569148,22.3 323.769136,22.7833285 324.769141,23.75 C325.769146,24.7166715 326.269141,25.86666 326.269141,27.2 C326.269141,28.600007 325.769146,29.7833285 324.769141,30.75 C323.769136,31.7166715 322.569148,32.2 321.169141,32.2 C319.702467,32.2 318.469146,31.7166715 317.469141,30.75 C316.469136,29.7833285 315.969141,28.600007 315.969141,27.2 Z M285.669141,47.3 C285.669141,46.033327 286.185802,44.933338 287.219141,44 C288.252479,43.066662 289.502467,42.6 290.969141,42.6 C292.369148,42.6 293.585802,43.066662 294.619141,44 C295.652479,44.933338 296.169141,46.033327 296.169141,47.3 C296.169141,48.566673 295.652479,49.666662 294.619141,50.6 C293.585802,51.533338 292.369148,52 290.969141,52 C289.502467,52 288.252479,51.533338 287.219141,50.6 C286.185802,49.666662 285.669141,48.566673 285.669141,47.3 Z M305.869141,67 C305.869141,65.599993 306.369136,64.4166715 307.369141,63.45 C308.369146,62.4833285 309.569134,62 310.969141,62 C312.369148,62 313.569136,62.4833285 314.569141,63.45 C315.569146,64.4166715 316.069141,65.599993 316.069141,67 C316.069141,68.400007 315.569146,69.5833285 314.569141,70.55 C313.569136,71.5166715 312.369148,72 310.969141,72 C309.569134,72 308.369146,71.5166715 307.369141,70.55 C306.369136,69.5833285 305.869141,68.400007 305.869141,67 Z M316.069141,76.9 C316.069141,75.56666 316.569136,74.4166715 317.569141,73.45 C318.569146,72.4833285 319.769134,72 321.169141,72 C322.569148,72 323.769136,72.4833285 324.769141,73.45 C325.769146,74.4166715 326.269141,75.56666 326.269141,76.9 C326.269141,78.300007 325.769146,79.4833285 324.769141,80.45 C323.769136,81.4166715 322.569148,81.9 321.169141,81.9 C319.769134,81.9 318.569146,81.4166715 317.569141,80.45 C316.569136,79.4833285 316.069141,78.300007 316.069141,76.9 Z M315.669141,86.9 C315.669141,85.56666 316.185802,84.400005 317.219141,83.4 C318.252479,82.399995 319.502467,81.9 320.969141,81.9 C322.435815,81.9 323.685802,82.399995 324.719141,83.4 C325.752479,84.400005 326.269141,85.56666 326.269141,86.9 C326.269141,88.300007 325.752479,89.499995 324.719141,90.5 C323.685802,91.500005 322.435815,92 320.969141,92 C319.502467,92 318.252479,91.500005 317.219141,90.5 C316.185802,89.499995 315.669141,88.300007 315.669141,86.9 Z M425.669141,37.1 C425.669141,35.76666 426.169136,34.633338 427.169141,33.7 C428.169146,32.766662 429.369134,32.3 430.769141,32.3 C432.102481,32.3 433.269136,32.766662 434.269141,33.7 C435.269146,34.633338 435.769141,35.76666 435.769141,37.1 C435.769141,38.43334 435.269146,39.566662 434.269141,40.5 C433.269136,41.433338 432.102481,41.9 430.769141,41.9 C429.369134,41.9 428.169146,41.433338 427.169141,40.5 C426.169136,39.566662 425.669141,38.43334 425.669141,37.1 Z M415.769141,27.3 C415.769141,25.899993 416.252469,24.7166715 417.219141,23.75 C418.185812,22.7833285 419.369134,22.3 420.769141,22.3 C422.102481,22.3 423.252469,22.7833285 424.219141,23.75 C425.185812,24.7166715 425.669141,25.899993 425.669141,27.3 C425.669141,28.700007 425.185812,29.8833285 424.219141,30.85 C423.252469,31.8166715 422.102481,32.3 420.769141,32.3 C419.369134,32.3 418.185812,31.8166715 417.219141,30.85 C416.252469,29.8833285 415.769141,28.700007 415.769141,27.3 Z M405.769141,27 C405.769141,25.733327 406.252469,24.633338 407.219141,23.7 C408.185812,22.766662 409.369134,22.3 410.769141,22.3 C412.169148,22.3 413.352469,22.766662 414.319141,23.7 C415.285812,24.633338 415.769141,25.733327 415.769141,27 C415.769141,28.33334 415.285812,29.466662 414.319141,30.4 C413.352469,31.333338 412.169148,31.8 410.769141,31.8 C409.369134,31.8 408.185812,31.333338 407.219141,30.4 C406.252469,29.466662 405.769141,28.33334 405.769141,27 Z M395.769141,36.9 C395.769141,35.499993 396.252469,34.300005 397.219141,33.3 C398.185812,32.299995 399.369134,31.8 400.769141,31.8 C402.169148,31.8 403.352469,32.299995 404.319141,33.3 C405.285812,34.300005 405.769141,35.499993 405.769141,36.9 C405.769141,38.366674 405.285812,39.599995 404.319141,40.6 C403.352469,41.600005 402.169148,42.1 400.769141,42.1 C399.369134,42.1 398.185812,41.600005 397.219141,40.6 C396.252469,39.599995 395.769141,38.366674 395.769141,36.9 Z M395.769141,47 C395.769141,45.66666 396.269136,44.5166715 397.269141,43.55 C398.269146,42.5833285 399.502467,42.1 400.969141,42.1 C402.435815,42.1 403.669136,42.5833285 404.669141,43.55 C405.669146,44.5166715 406.169141,45.66666 406.169141,47 C406.169141,48.33334 405.669146,49.4833285 404.669141,50.45 C403.669136,51.4166715 402.435815,51.9 400.969141,51.9 C399.502467,51.9 398.269146,51.4166715 397.269141,50.45 C396.269136,49.4833285 395.769141,48.33334 395.769141,47 Z M395.769141,57 C395.769141,55.599993 396.269136,54.400005 397.269141,53.4 C398.269146,52.399995 399.502467,51.9 400.969141,51.9 C402.435815,51.9 403.669136,52.399995 404.669141,53.4 C405.669146,54.400005 406.169141,55.599993 406.169141,57 C406.169141,58.400007 405.669146,59.599995 404.669141,60.6 C403.669136,61.600005 402.435815,62.1 400.969141,62.1 C399.502467,62.1 398.269146,61.600005 397.269141,60.6 C396.269136,59.599995 395.769141,58.400007 395.769141,57 Z M395.769141,67 C395.769141,65.66666 396.269136,64.5166715 397.269141,63.55 C398.269146,62.5833285 399.502467,62.1 400.969141,62.1 C402.435815,62.1 403.669136,62.5833285 404.669141,63.55 C405.669146,64.5166715 406.169141,65.66666 406.169141,67 C406.169141,68.400007 405.669146,69.5833285 404.669141,70.55 C403.669136,71.5166715 402.435815,72 400.969141,72 C399.502467,72 398.269146,71.5166715 397.269141,70.55 C396.269136,69.5833285 395.769141,68.400007 395.769141,67 Z M395.769141,76.9 C395.769141,75.56666 396.269136,74.4166715 397.269141,73.45 C398.269146,72.4833285 399.502467,72 400.969141,72 C402.435815,72 403.669136,72.4833285 404.669141,73.45 C405.669146,74.4166715 406.169141,75.56666 406.169141,76.9 C406.169141,78.300007 405.669146,79.4833285 404.669141,80.45 C403.669136,81.4166715 402.435815,81.9 400.969141,81.9 C399.502467,81.9 398.269146,81.4166715 397.269141,80.45 C396.269136,79.4833285 395.769141,78.300007 395.769141,76.9 Z M405.369141,87.1 C405.369141,85.76666 405.885802,84.633338 406.919141,83.7 C407.952479,82.766662 409.202467,82.3 410.669141,82.3 C412.069148,82.3 413.285802,82.766662 414.319141,83.7 C415.352479,84.633338 415.869141,85.76666 415.869141,87.1 C415.869141,88.500007 415.352479,89.666662 414.319141,90.6 C413.285802,91.533338 412.069148,92 410.669141,92 C409.202467,92 407.952479,91.533338 406.919141,90.6 C405.885802,89.666662 405.369141,88.500007 405.369141,87.1 Z M415.869141,87.1 C415.869141,85.76666 416.369136,84.633338 417.369141,83.7 C418.369146,82.766662 419.602467,82.3 421.069141,82.3 C422.469148,82.3 423.669136,82.766662 424.669141,83.7 C425.669146,84.633338 426.169141,85.76666 426.169141,87.1 C426.169141,88.500007 425.669146,89.666662 424.669141,90.6 C423.669136,91.533338 422.469148,92 421.069141,92 C419.602467,92 418.369146,91.533338 417.369141,90.6 C416.369136,89.666662 415.869141,88.500007 415.869141,87.1 Z M425.769141,77.2 C425.769141,75.799993 426.269136,74.5833385 427.269141,73.55 C428.269146,72.5166615 429.502467,72 430.969141,72 C432.369148,72 433.569136,72.5166615 434.569141,73.55 C435.569146,74.5833385 436.069141,75.799993 436.069141,77.2 C436.069141,78.666674 435.569146,79.9166615 434.569141,80.95 C433.569136,81.9833385 432.369148,82.5 430.969141,82.5 C429.502467,82.5 428.269146,81.9833385 427.269141,80.95 C426.269136,79.9166615 425.769141,78.666674 425.769141,77.2 Z M445.769141,27.2 C445.769141,25.86666 446.269136,24.7166715 447.269141,23.75 C448.269146,22.7833285 449.502467,22.3 450.969141,22.3 C452.369148,22.3 453.569136,22.7833285 454.569141,23.75 C455.569146,24.7166715 456.069141,25.86666 456.069141,27.2 C456.069141,28.600007 455.569146,29.7833285 454.569141,30.75 C453.569136,31.7166715 452.369148,32.2 450.969141,32.2 C449.502467,32.2 448.269146,31.7166715 447.269141,30.75 C446.269136,29.7833285 445.769141,28.600007 445.769141,27.2 Z M445.769141,37.2 C445.769141,35.86666 446.269136,34.700005 447.269141,33.7 C448.269146,32.699995 449.502467,32.2 450.969141,32.2 C452.369148,32.2 453.569136,32.699995 454.569141,33.7 C455.569146,34.700005 456.069141,35.86666 456.069141,37.2 C456.069141,38.600007 455.569146,39.799995 454.569141,40.8 C453.569136,41.800005 452.369148,42.3 450.969141,42.3 C449.502467,42.3 448.269146,41.800005 447.269141,40.8 C446.269136,39.799995 445.769141,38.600007 445.769141,37.2 Z M445.769141,47.1 C445.769141,45.76666 446.269136,44.633338 447.269141,43.7 C448.269146,42.766662 449.502467,42.3 450.969141,42.3 C452.435815,42.3 453.669136,42.766662 454.669141,43.7 C455.669146,44.633338 456.169141,45.76666 456.169141,47.1 C456.169141,48.43334 455.669146,49.566662 454.669141,50.5 C453.669136,51.433338 452.435815,51.9 450.969141,51.9 C449.502467,51.9 448.269146,51.433338 447.269141,50.5 C446.269136,49.566662 445.769141,48.43334 445.769141,47.1 Z M445.769141,56.9 C445.769141,55.56666 446.269136,54.400005 447.269141,53.4 C448.269146,52.399995 449.502467,51.9 450.969141,51.9 C452.435815,51.9 453.669136,52.399995 454.669141,53.4 C455.669146,54.400005 456.169141,55.56666 456.169141,56.9 C456.169141,58.300007 455.669146,59.499995 454.669141,60.5 C453.669136,61.500005 452.435815,62 450.969141,62 C449.502467,62 448.269146,61.500005 447.269141,60.5 C446.269136,59.499995 445.769141,58.300007 445.769141,56.9 Z M445.769141,67 C445.769141,65.599993 446.269136,64.4166715 447.269141,63.45 C448.269146,62.4833285 449.502467,62 450.969141,62 C452.369148,62 453.569136,62.4833285 454.569141,63.45 C455.569146,64.4166715 456.069141,65.599993 456.069141,67 C456.069141,68.400007 455.569146,69.5833285 454.569141,70.55 C453.569136,71.5166715 452.369148,72 450.969141,72 C449.502467,72 448.269146,71.5166715 447.269141,70.55 C446.269136,69.5833285 445.769141,68.400007 445.769141,67 Z M445.769141,77 C445.769141,75.66666 446.269136,74.500005 447.269141,73.5 C448.269146,72.499995 449.502467,72 450.969141,72 C452.369148,72 453.569136,72.499995 454.569141,73.5 C455.569146,74.500005 456.069141,75.66666 456.069141,77 C456.069141,78.400007 455.569146,79.599995 454.569141,80.6 C453.569136,81.600005 452.369148,82.1 450.969141,82.1 C449.502467,82.1 448.269146,81.600005 447.269141,80.6 C446.269136,79.599995 445.769141,78.400007 445.769141,77 Z M445.769141,87 C445.769141,85.66666 446.269136,84.5166715 447.269141,83.55 C448.269146,82.5833285 449.469134,82.1 450.869141,82.1 C452.202481,82.1 453.369136,82.5833285 454.369141,83.55 C455.369146,84.5166715 455.869141,85.66666 455.869141,87 C455.869141,88.400007 455.369146,89.5833285 454.369141,90.55 C453.369136,91.5166715 452.202481,92 450.869141,92 C449.469134,92 448.269146,91.5166715 447.269141,90.55 C446.269136,89.5833285 445.769141,88.400007 445.769141,87 Z M455.869141,87.1 C455.869141,85.76666 456.369136,84.633338 457.369141,83.7 C458.369146,82.766662 459.569134,82.3 460.969141,82.3 C462.302481,82.3 463.469136,82.766662 464.469141,83.7 C465.469146,84.633338 465.969141,85.76666 465.969141,87.1 C465.969141,88.500007 465.469146,89.666662 464.469141,90.6 C463.469136,91.533338 462.302481,92 460.969141,92 C459.569134,92 458.369146,91.533338 457.369141,90.6 C456.369136,89.666662 455.869141,88.500007 455.869141,87.1 Z M465.969141,87.1 C465.969141,85.76666 466.452469,84.633338 467.419141,83.7 C468.385812,82.766662 469.569134,82.3 470.969141,82.3 C472.302481,82.3 473.452469,82.766662 474.419141,83.7 C475.385812,84.633338 475.869141,85.76666 475.869141,87.1 C475.869141,88.500007 475.385812,89.666662 474.419141,90.6 C473.452469,91.533338 472.302481,92 470.969141,92 C469.569134,92 468.385812,91.533338 467.419141,90.6 C466.452469,89.666662 465.969141,88.500007 465.969141,87.1 Z M475.869141,87.1 C475.869141,85.76666 476.369136,84.6166715 477.369141,83.65 C478.369146,82.6833285 479.569134,82.2 480.969141,82.2 C482.369148,82.2 483.569136,82.6833285 484.569141,83.65 C485.569146,84.6166715 486.069141,85.76666 486.069141,87.1 C486.069141,88.43334 485.569146,89.5833285 484.569141,90.55 C483.569136,91.5166715 482.369148,92 480.969141,92 C479.569134,92 478.369146,91.5166715 477.369141,90.55 C476.369136,89.5833285 475.869141,88.43334 475.869141,87.1 Z M495.769141,37.2 C495.769141,35.933327 496.269136,34.833338 497.269141,33.9 C498.269146,32.966662 499.469134,32.5 500.869141,32.5 C502.202481,32.5 503.369136,32.966662 504.369141,33.9 C505.369146,34.833338 505.869141,35.933327 505.869141,37.2 C505.869141,38.53334 505.369146,39.666662 504.369141,40.6 C503.369136,41.533338 502.202481,42 500.869141,42 C499.469134,42 498.269146,41.533338 497.269141,40.6 C496.269136,39.666662 495.769141,38.53334 495.769141,37.2 Z M495.769141,47 C495.769141,45.66666 496.269136,44.500005 497.269141,43.5 C498.269146,42.499995 499.469134,42 500.869141,42 C502.202481,42 503.369136,42.499995 504.369141,43.5 C505.369146,44.500005 505.869141,45.66666 505.869141,47 C505.869141,48.400007 505.369146,49.599995 504.369141,50.6 C503.369136,51.600005 502.202481,52.1 500.869141,52.1 C499.469134,52.1 498.269146,51.600005 497.269141,50.6 C496.269136,49.599995 495.769141,48.400007 495.769141,47 Z M495.769141,57.1 C495.769141,55.699993 496.269136,54.5166715 497.269141,53.55 C498.269146,52.5833285 499.469134,52.1 500.869141,52.1 C502.269148,52.1 503.469136,52.5833285 504.469141,53.55 C505.469146,54.5166715 505.969141,55.699993 505.969141,57.1 C505.969141,58.500007 505.469146,59.6833285 504.469141,60.65 C503.469136,61.6166715 502.269148,62.1 500.869141,62.1 C499.469134,62.1 498.269146,61.6166715 497.269141,60.65 C496.269136,59.6833285 495.769141,58.500007 495.769141,57.1 Z M495.769141,67.1 C495.769141,65.699993 496.269136,64.5166715 497.269141,63.55 C498.269146,62.5833285 499.469134,62.1 500.869141,62.1 C502.269148,62.1 503.469136,62.5833285 504.469141,63.55 C505.469146,64.5166715 505.969141,65.699993 505.969141,67.1 C505.969141,68.500007 505.469146,69.6833285 504.469141,70.65 C503.469136,71.6166715 502.269148,72.1 500.869141,72.1 C499.469134,72.1 498.269146,71.6166715 497.269141,70.65 C496.269136,69.6833285 495.769141,68.500007 495.769141,67.1 Z M495.769141,77.1 C495.769141,75.76666 496.269136,74.600005 497.269141,73.6 C498.269146,72.599995 499.469134,72.1 500.869141,72.1 C502.202481,72.1 503.369136,72.599995 504.369141,73.6 C505.369146,74.600005 505.869141,75.76666 505.869141,77.1 C505.869141,78.500007 505.369146,79.699995 504.369141,80.7 C503.369136,81.700005 502.202481,82.2 500.869141,82.2 C499.469134,82.2 498.269146,81.700005 497.269141,80.7 C496.269136,79.699995 495.769141,78.500007 495.769141,77.1 Z M505.869141,87.1 C505.869141,85.76666 506.369136,84.6166715 507.369141,83.65 C508.369146,82.6833285 509.569134,82.2 510.969141,82.2 C512.302481,82.2 513.469136,82.6833285 514.469141,83.65 C515.469146,84.6166715 515.969141,85.76666 515.969141,87.1 C515.969141,88.43334 515.469146,89.5833285 514.469141,90.55 C513.469136,91.5166715 512.302481,92 510.969141,92 C509.569134,92 508.369146,91.5166715 507.369141,90.55 C506.369136,89.5833285 505.869141,88.43334 505.869141,87.1 Z M515.969141,87.1 C515.969141,85.76666 516.452469,84.633338 517.419141,83.7 C518.385812,82.766662 519.569134,82.3 520.969141,82.3 C522.302481,82.3 523.452469,82.766662 524.419141,83.7 C525.385812,84.633338 525.869141,85.76666 525.869141,87.1 C525.869141,88.500007 525.385812,89.666662 524.419141,90.6 C523.452469,91.533338 522.302481,92 520.969141,92 C519.569134,92 518.385812,91.533338 517.419141,90.6 C516.452469,89.666662 515.969141,88.500007 515.969141,87.1 Z M525.869141,77.3 C525.869141,75.899993 526.369136,74.7166715 527.369141,73.75 C528.369146,72.7833285 529.569134,72.3 530.969141,72.3 C532.302481,72.3 533.469136,72.7833285 534.469141,73.75 C535.469146,74.7166715 535.969141,75.899993 535.969141,77.3 C535.969141,78.700007 535.469146,79.8833285 534.469141,80.85 C533.469136,81.8166715 532.302481,82.3 530.969141,82.3 C529.569134,82.3 528.369146,81.8166715 527.369141,80.85 C526.369136,79.8833285 525.869141,78.700007 525.869141,77.3 Z M525.469141,67.2 C525.469141,65.799993 525.985802,64.600005 527.019141,63.6 C528.052479,62.599995 529.302467,62.1 530.769141,62.1 C532.169148,62.1 533.385802,62.599995 534.419141,63.6 C535.452479,64.600005 535.969141,65.799993 535.969141,67.2 C535.969141,68.600007 535.452479,69.799995 534.419141,70.8 C533.385802,71.800005 532.169148,72.3 530.769141,72.3 C529.302467,72.3 528.052479,71.800005 527.019141,70.8 C525.985802,69.799995 525.469141,68.600007 525.469141,67.2 Z M525.469141,57.2 C525.469141,55.86666 525.985802,54.7166715 527.019141,53.75 C528.052479,52.7833285 529.302467,52.3 530.769141,52.3 C532.235815,52.3 533.485802,52.7833285 534.519141,53.75 C535.552479,54.7166715 536.069141,55.86666 536.069141,57.2 C536.069141,58.53334 535.552479,59.6833285 534.519141,60.65 C533.485802,61.6166715 532.235815,62.1 530.769141,62.1 C529.302467,62.1 528.052479,61.6166715 527.019141,60.65 C525.985802,59.6833285 525.469141,58.53334 525.469141,57.2 Z M525.669141,47.2 C525.669141,45.86666 526.169136,44.700005 527.169141,43.7 C528.169146,42.699995 529.402467,42.2 530.869141,42.2 C532.335815,42.2 533.569136,42.699995 534.569141,43.7 C535.569146,44.700005 536.069141,45.86666 536.069141,47.2 C536.069141,48.600007 535.569146,49.799995 534.569141,50.8 C533.569136,51.800005 532.335815,52.3 530.869141,52.3 C529.402467,52.3 528.169146,51.800005 527.169141,50.8 C526.169136,49.799995 525.669141,48.600007 525.669141,47.2 Z M525.669141,37.3 C525.669141,35.96666 526.169136,34.8166715 527.169141,33.85 C528.169146,32.8833285 529.402467,32.4 530.869141,32.4 C532.335815,32.4 533.569136,32.8833285 534.569141,33.85 C535.569146,34.8166715 536.069141,35.96666 536.069141,37.3 C536.069141,38.63334 535.569146,39.7833285 534.569141,40.75 C533.569136,41.7166715 532.335815,42.2 530.869141,42.2 C529.402467,42.2 528.169146,41.7166715 527.169141,40.75 C526.169136,39.7833285 525.669141,38.63334 525.669141,37.3 Z M515.769141,27.2 C515.769141,25.86666 516.269136,24.7166715 517.269141,23.75 C518.269146,22.7833285 519.469134,22.3 520.869141,22.3 C522.202481,22.3 523.369136,22.7833285 524.369141,23.75 C525.369146,24.7166715 525.869141,25.86666 525.869141,27.2 C525.869141,28.600007 525.369146,29.7833285 524.369141,30.75 C523.369136,31.7166715 522.202481,32.2 520.869141,32.2 C519.469134,32.2 518.269146,31.7166715 517.269141,30.75 C516.269136,29.7833285 515.769141,28.600007 515.769141,27.2 Z M505.569141,27.2 C505.569141,25.86666 506.069136,24.7166715 507.069141,23.75 C508.069146,22.7833285 509.269134,22.3 510.669141,22.3 C512.069148,22.3 513.269136,22.7833285 514.269141,23.75 C515.269146,24.7166715 515.769141,25.86666 515.769141,27.2 C515.769141,28.600007 515.269146,29.7833285 514.269141,30.75 C513.269136,31.7166715 512.069148,32.2 510.669141,32.2 C509.269134,32.2 508.069146,31.7166715 507.069141,30.75 C506.069136,29.7833285 505.569141,28.600007 505.569141,27.2 Z M575.669141,37.1 C575.669141,35.76666 576.169136,34.633338 577.169141,33.7 C578.169146,32.766662 579.369134,32.3 580.769141,32.3 C582.102481,32.3 583.269136,32.766662 584.269141,33.7 C585.269146,34.633338 585.769141,35.76666 585.769141,37.1 C585.769141,38.43334 585.269146,39.566662 584.269141,40.5 C583.269136,41.433338 582.102481,41.9 580.769141,41.9 C579.369134,41.9 578.169146,41.433338 577.169141,40.5 C576.169136,39.566662 575.669141,38.43334 575.669141,37.1 Z M565.769141,27.3 C565.769141,25.899993 566.252469,24.7166715 567.219141,23.75 C568.185812,22.7833285 569.369134,22.3 570.769141,22.3 C572.102481,22.3 573.252469,22.7833285 574.219141,23.75 C575.185812,24.7166715 575.669141,25.899993 575.669141,27.3 C575.669141,28.700007 575.185812,29.8833285 574.219141,30.85 C573.252469,31.8166715 572.102481,32.3 570.769141,32.3 C569.369134,32.3 568.185812,31.8166715 567.219141,30.85 C566.252469,29.8833285 565.769141,28.700007 565.769141,27.3 Z M555.769141,27 C555.769141,25.733327 556.252469,24.633338 557.219141,23.7 C558.185812,22.766662 559.369134,22.3 560.769141,22.3 C562.169148,22.3 563.352469,22.766662 564.319141,23.7 C565.285812,24.633338 565.769141,25.733327 565.769141,27 C565.769141,28.33334 565.285812,29.466662 564.319141,30.4 C563.352469,31.333338 562.169148,31.8 560.769141,31.8 C559.369134,31.8 558.185812,31.333338 557.219141,30.4 C556.252469,29.466662 555.769141,28.33334 555.769141,27 Z M545.769141,36.9 C545.769141,35.499993 546.252469,34.300005 547.219141,33.3 C548.185812,32.299995 549.369134,31.8 550.769141,31.8 C552.169148,31.8 553.352469,32.299995 554.319141,33.3 C555.285812,34.300005 555.769141,35.499993 555.769141,36.9 C555.769141,38.366674 555.285812,39.599995 554.319141,40.6 C553.352469,41.600005 552.169148,42.1 550.769141,42.1 C549.369134,42.1 548.185812,41.600005 547.219141,40.6 C546.252469,39.599995 545.769141,38.366674 545.769141,36.9 Z M545.769141,47 C545.769141,45.66666 546.269136,44.5166715 547.269141,43.55 C548.269146,42.5833285 549.502467,42.1 550.969141,42.1 C552.435815,42.1 553.669136,42.5833285 554.669141,43.55 C555.669146,44.5166715 556.169141,45.66666 556.169141,47 C556.169141,48.33334 555.669146,49.4833285 554.669141,50.45 C553.669136,51.4166715 552.435815,51.9 550.969141,51.9 C549.502467,51.9 548.269146,51.4166715 547.269141,50.45 C546.269136,49.4833285 545.769141,48.33334 545.769141,47 Z M545.769141,57 C545.769141,55.599993 546.269136,54.400005 547.269141,53.4 C548.269146,52.399995 549.502467,51.9 550.969141,51.9 C552.435815,51.9 553.669136,52.399995 554.669141,53.4 C555.669146,54.400005 556.169141,55.599993 556.169141,57 C556.169141,58.400007 555.669146,59.599995 554.669141,60.6 C553.669136,61.600005 552.435815,62.1 550.969141,62.1 C549.502467,62.1 548.269146,61.600005 547.269141,60.6 C546.269136,59.599995 545.769141,58.400007 545.769141,57 Z M545.769141,67 C545.769141,65.66666 546.269136,64.5166715 547.269141,63.55 C548.269146,62.5833285 549.502467,62.1 550.969141,62.1 C552.435815,62.1 553.669136,62.5833285 554.669141,63.55 C555.669146,64.5166715 556.169141,65.66666 556.169141,67 C556.169141,68.400007 555.669146,69.5833285 554.669141,70.55 C553.669136,71.5166715 552.435815,72 550.969141,72 C549.502467,72 548.269146,71.5166715 547.269141,70.55 C546.269136,69.5833285 545.769141,68.400007 545.769141,67 Z M545.769141,76.9 C545.769141,75.56666 546.269136,74.4166715 547.269141,73.45 C548.269146,72.4833285 549.502467,72 550.969141,72 C552.435815,72 553.669136,72.4833285 554.669141,73.45 C555.669146,74.4166715 556.169141,75.56666 556.169141,76.9 C556.169141,78.300007 555.669146,79.4833285 554.669141,80.45 C553.669136,81.4166715 552.435815,81.9 550.969141,81.9 C549.502467,81.9 548.269146,81.4166715 547.269141,80.45 C546.269136,79.4833285 545.769141,78.300007 545.769141,76.9 Z M555.369141,87.1 C555.369141,85.76666 555.885802,84.633338 556.919141,83.7 C557.952479,82.766662 559.202467,82.3 560.669141,82.3 C562.069148,82.3 563.285802,82.766662 564.319141,83.7 C565.352479,84.633338 565.869141,85.76666 565.869141,87.1 C565.869141,88.500007 565.352479,89.666662 564.319141,90.6 C563.285802,91.533338 562.069148,92 560.669141,92 C559.202467,92 557.952479,91.533338 556.919141,90.6 C555.885802,89.666662 555.369141,88.500007 555.369141,87.1 Z M565.869141,87.1 C565.869141,85.76666 566.369136,84.633338 567.369141,83.7 C568.369146,82.766662 569.602467,82.3 571.069141,82.3 C572.469148,82.3 573.669136,82.766662 574.669141,83.7 C575.669146,84.633338 576.169141,85.76666 576.169141,87.1 C576.169141,88.500007 575.669146,89.666662 574.669141,90.6 C573.669136,91.533338 572.469148,92 571.069141,92 C569.602467,92 568.369146,91.533338 567.369141,90.6 C566.369136,89.666662 565.869141,88.500007 565.869141,87.1 Z M575.769141,77.2 C575.769141,75.799993 576.269136,74.5833385 577.269141,73.55 C578.269146,72.5166615 579.502467,72 580.969141,72 C582.369148,72 583.569136,72.5166615 584.569141,73.55 C585.569146,74.5833385 586.069141,75.799993 586.069141,77.2 C586.069141,78.666674 585.569146,79.9166615 584.569141,80.95 C583.569136,81.9833385 582.369148,82.5 580.969141,82.5 C579.502467,82.5 578.269146,81.9833385 577.269141,80.95 C576.269136,79.9166615 575.769141,78.666674 575.769141,77.2 Z M595.769141,27.1 C595.769141,25.76666 596.269136,24.633338 597.269141,23.7 C598.269146,22.766662 599.469134,22.3 600.869141,22.3 C602.269148,22.3 603.469136,22.766662 604.469141,23.7 C605.469146,24.633338 605.969141,25.76666 605.969141,27.1 C605.969141,28.43334 605.469146,29.566662 604.469141,30.5 C603.469136,31.433338 602.269148,31.9 600.869141,31.9 C599.469134,31.9 598.269146,31.433338 597.269141,30.5 C596.269136,29.566662 595.769141,28.43334 595.769141,27.1 Z M595.769141,37 C595.769141,35.599993 596.269136,34.400005 597.269141,33.4 C598.269146,32.399995 599.469134,31.9 600.869141,31.9 C602.269148,31.9 603.469136,32.399995 604.469141,33.4 C605.469146,34.400005 605.969141,35.599993 605.969141,37 C605.969141,38.400007 605.469146,39.599995 604.469141,40.6 C603.469136,41.600005 602.269148,42.1 600.869141,42.1 C599.469134,42.1 598.269146,41.600005 597.269141,40.6 C596.269136,39.599995 595.769141,38.400007 595.769141,37 Z M595.769141,47 C595.769141,45.66666 596.269136,44.5166715 597.269141,43.55 C598.269146,42.5833285 599.469134,42.1 600.869141,42.1 C602.269148,42.1 603.469136,42.5833285 604.469141,43.55 C605.469146,44.5166715 605.969141,45.66666 605.969141,47 C605.969141,48.33334 605.469146,49.4833285 604.469141,50.45 C603.469136,51.4166715 602.269148,51.9 600.869141,51.9 C599.469134,51.9 598.269146,51.4166715 597.269141,50.45 C596.269136,49.4833285 595.769141,48.33334 595.769141,47 Z M595.769141,57 C595.769141,55.599993 596.269136,54.400005 597.269141,53.4 C598.269146,52.399995 599.469134,51.9 600.869141,51.9 C602.269148,51.9 603.469136,52.399995 604.469141,53.4 C605.469146,54.400005 605.969141,55.599993 605.969141,57 C605.969141,58.466674 605.469146,59.699995 604.469141,60.7 C603.469136,61.700005 602.269148,62.2 600.869141,62.2 C599.469134,62.2 598.269146,61.700005 597.269141,60.7 C596.269136,59.699995 595.769141,58.466674 595.769141,57 Z M595.769141,67.2 C595.769141,65.799993 596.269136,64.6166715 597.269141,63.65 C598.269146,62.6833285 599.469134,62.2 600.869141,62.2 C602.269148,62.2 603.469136,62.6833285 604.469141,63.65 C605.469146,64.6166715 605.969141,65.799993 605.969141,67.2 C605.969141,68.600007 605.469146,69.7833285 604.469141,70.75 C603.469136,71.7166715 602.269148,72.2 600.869141,72.2 C599.469134,72.2 598.269146,71.7166715 597.269141,70.75 C596.269136,69.7833285 595.769141,68.600007 595.769141,67.2 Z M595.769141,77.1 C595.769141,75.76666 596.269136,74.6166715 597.269141,73.65 C598.269146,72.6833285 599.469134,72.2 600.869141,72.2 C602.269148,72.2 603.469136,72.6833285 604.469141,73.65 C605.469146,74.6166715 605.969141,75.76666 605.969141,77.1 C605.969141,78.43334 605.469146,79.5833285 604.469141,80.55 C603.469136,81.5166715 602.269148,82 600.869141,82 C599.469134,82 598.269146,81.5166715 597.269141,80.55 C596.269136,79.5833285 595.769141,78.43334 595.769141,77.1 Z M595.769141,87 C595.769141,85.599993 596.269136,84.4166715 597.269141,83.45 C598.269146,82.4833285 599.502467,82 600.969141,82 C602.369148,82 603.569136,82.4833285 604.569141,83.45 C605.569146,84.4166715 606.069141,85.599993 606.069141,87 C606.069141,88.400007 605.569146,89.5833285 604.569141,90.55 C603.569136,91.5166715 602.369148,92 600.969141,92 C599.502467,92 598.269146,91.5166715 597.269141,90.55 C596.269136,89.5833285 595.769141,88.400007 595.769141,87 Z M606.069141,57 C606.069141,55.533326 606.552469,54.300005 607.519141,53.3 C608.485812,52.299995 609.669134,51.8 611.069141,51.8 C612.402481,51.8 613.552469,52.299995 614.519141,53.3 C615.485812,54.300005 615.969141,55.533326 615.969141,57 C615.969141,58.466674 615.485812,59.699995 614.519141,60.7 C613.552469,61.700005 612.402481,62.2 611.069141,62.2 C609.669134,62.2 608.485812,61.700005 607.519141,60.7 C606.552469,59.699995 606.069141,58.466674 606.069141,57 Z M615.969141,67.2 C615.969141,65.86666 616.469136,64.700005 617.469141,63.7 C618.469146,62.699995 619.669134,62.2 621.069141,62.2 C622.402481,62.2 623.569136,62.699995 624.569141,63.7 C625.569146,64.700005 626.069141,65.86666 626.069141,67.2 C626.069141,68.600007 625.569146,69.799995 624.569141,70.8 C623.569136,71.800005 622.402481,72.3 621.069141,72.3 C619.669134,72.3 618.469146,71.800005 617.469141,70.8 C616.469136,69.799995 615.969141,68.600007 615.969141,67.2 Z M626.069141,77.1 C626.069141,75.76666 626.569136,74.633338 627.569141,73.7 C628.569146,72.766662 629.769134,72.3 631.169141,72.3 C632.502481,72.3 633.669136,72.766662 634.669141,73.7 C635.669146,74.633338 636.169141,75.76666 636.169141,77.1 C636.169141,78.500007 635.669146,79.666662 634.669141,80.6 C633.669136,81.533338 632.502481,82 631.169141,82 C629.769134,82 628.569146,81.533338 627.569141,80.6 C626.569136,79.666662 626.069141,78.500007 626.069141,77.1 Z M625.669141,87 C625.669141,85.599993 626.185802,84.4166715 627.219141,83.45 C628.252479,82.4833285 629.502467,82 630.969141,82 C632.369148,82 633.585802,82.4833285 634.619141,83.45 C635.652479,84.4166715 636.169141,85.599993 636.169141,87 C636.169141,88.400007 635.652479,89.5833285 634.619141,90.55 C633.585802,91.5166715 632.369148,92 630.969141,92 C629.502467,92 628.252479,91.5166715 627.219141,90.55 C626.185802,89.5833285 625.669141,88.400007 625.669141,87 Z M615.469141,47 C615.469141,45.66666 615.969136,44.5166715 616.969141,43.55 C617.969146,42.5833285 619.202467,42.1 620.669141,42.1 C622.069148,42.1 623.269136,42.5833285 624.269141,43.55 C625.269146,44.5166715 625.769141,45.66666 625.769141,47 C625.769141,48.400007 625.269146,49.5833285 624.269141,50.55 C623.269136,51.5166715 622.069148,52 620.669141,52 C619.202467,52 617.969146,51.5166715 616.969141,50.55 C615.969136,49.5833285 615.469141,48.400007 615.469141,47 Z M625.769141,37 C625.769141,35.66666 626.269136,34.500005 627.269141,33.5 C628.269146,32.499995 629.469134,32 630.869141,32 C632.269148,32 633.469136,32.499995 634.469141,33.5 C635.469146,34.500005 635.969141,35.66666 635.969141,37 C635.969141,38.400007 635.469146,39.599995 634.469141,40.6 C633.469136,41.600005 632.269148,42.1 630.869141,42.1 C629.469134,42.1 628.269146,41.600005 627.269141,40.6 C626.269136,39.599995 625.769141,38.400007 625.769141,37 Z M625.769141,27.1 C625.769141,25.76666 626.269136,24.633338 627.269141,23.7 C628.269146,22.766662 629.469134,22.3 630.869141,22.3 C632.269148,22.3 633.469136,22.766662 634.469141,23.7 C635.469146,24.633338 635.969141,25.76666 635.969141,27.1 C635.969141,28.500007 635.469146,29.666662 634.469141,30.6 C633.469136,31.533338 632.269148,32 630.869141,32 C629.469134,32 628.269146,31.533338 627.269141,30.6 C626.269136,29.666662 625.769141,28.500007 625.769141,27.1 Z" id="MATRIX-CLOCK" fill="#00FF00"></path>
    </g>
</svg>